<?xml version="1.0" encoding="UTF-8" standalone="no"?>
<svg xmlns="http://www.w3.org/2000/svg" width="1558.5960493619036mm" height="630.0600004196167mm" viewBox="-10 -610 1558.5960493619036 630.0600004196167">
    <polyline points="0,0 425,0 425,-600 0,-600 0,0"  stroke="rgb(0,0,0)" stroke-width="0.1" fill="none"/>
    <g id="Setup2">
        <path id="op_2D_Profile2-5-0" fill="none" stroke="rgb(255,0,0)" stroke-width="0.1" d=" M614.117 -29.855A 1.24 1.24 0 0 0 615.87 -29.892A 1.24 1.24 0 0 0 615.833 -31.645A 1.24 1.24 0 0 0 614.08 -31.608A 1.24 1.24 0 0 0 614.117 -29.855 z M610.847 -31.564 L596.968 -20.496 L598.763 -18.244 L612.742 -29.392 L610.947 -31.644 L610.847 -31.564 z M611.141 -35.817A 2.69 2.69 0 0 0 609.908 -39.416A 2.69 2.69 0 0 0 606.309 -38.183A 2.69 2.69 0 0 0 607.542 -34.584A 2.69 2.69 0 0 0 611.141 -35.817 z M615.87 -42.392A 1.24 1.24 0 0 0 615.833 -44.145A 1.24 1.24 0 0 0 614.08 -44.108A 1.24 1.24 0 0 0 614.117 -42.355A 1.24 1.24 0 0 0 615.87 -42.392 z M618.26 -45.18 L618.26 -45.06 L621.14 -45.06 L621.14 -54.94 L618.26 -54.94 L618.26 -45.18 z M628.167 -54.466 L630.647 -53.272 L634.934 -62.173 L632.339 -63.423 L628.052 -54.521 L628.167 -54.466 z M624.26 -70.06 L633.14 -70.06 L633.14 -75A 0.06 0.06 0 0 1 633.2 -75.06 L636.14 -75.06 L636.14 -84.94 L633.2 -84.94A 0.06 0.06 0 0 1 633.14 -85 L633.14 -115A 0.06 0.06 0 0 1 633.2 -115.06 L636.14 -115.06 L636.14 -124.94 L633.2 -124.94A 0.06 0.06 0 0 1 633.14 -125 L633.14 -129.94 L621.26 -129.94 L621.26 -125A 0.06 0.06 0 0 1 621.2 -124.94 L618.26 -124.94 L618.26 -115.06 L621.2 -115.06A 0.06 0.06 0 0 1 621.26 -115 L621.26 -85A 0.06 0.06 0 0 1 621.2 -84.94 L618.26 -84.94 L618.26 -75.06 L621.2 -75.06A 0.06 0.06 0 0 1 621.26 -75 L621.26 -70.06 L624.26 -70.06 z M603.88 -111.56 L613.64 -111.56 L613.64 -114.44 L603.76 -114.44 L603.76 -111.56 L603.88 -111.56 z M599.14 -110.18 L599.14 -119.94 L596.26 -119.94 L596.26 -110.06 L599.14 -110.06 L599.14 -110.18 z M599.02 -89.94 L596.26 -89.94 L596.26 -80.06 L599.14 -80.06 L599.14 -89.94 L599.02 -89.94 z M601.235 -43.25A 1.24 1.24 0 0 0 602.475 -42.01A 1.24 1.24 0 0 0 603.715 -43.25A 1.24 1.24 0 0 0 602.475 -44.49A 1.24 1.24 0 0 0 601.235 -43.25 z M599.14 -38.06 L599.14 -39.94 L596.26 -39.94 L596.26 -30.06 L599.14 -30.06 L599.14 -38.06 z M601.235 -30.75A 1.24 1.24 0 0 0 602.475 -29.51A 1.24 1.24 0 0 0 603.715 -30.75A 1.24 1.24 0 0 0 602.475 -31.99A 1.24 1.24 0 0 0 601.235 -30.75 z M579.719 -15.088A 1.44 1.44 0 0 0 578.043 -13.932A 1.44 1.44 0 0 0 579.198 -12.255A 1.44 1.44 0 0 0 580.875 -13.411A 1.44 1.44 0 0 0 579.719 -15.088 z M555.73 -34.46 L575.49 -34.46 L575.49 -38.94 L555.61 -38.94 L555.61 -34.46 L555.73 -34.46 z M534.27 -34.46 L534.39 -34.46 L534.39 -38.94 L514.51 -38.94 L514.51 -34.46 L534.27 -34.46 z M510.541 -15.112A 1.44 1.44 0 0 0 509.101 -13.672A 1.44 1.44 0 0 0 510.541 -12.232A 1.44 1.44 0 0 0 511.981 -13.672A 1.44 1.44 0 0 0 510.541 -15.112 z M486.778 -25.484 L479.053 -31.644 L477.258 -29.392 L491.237 -18.244 L493.032 -20.496 L486.778 -25.484 z M476.215 -30.75A 1.24 1.24 0 0 0 474.975 -31.99A 1.24 1.24 0 0 0 473.735 -30.75A 1.24 1.24 0 0 0 474.975 -29.51A 1.24 1.24 0 0 0 476.215 -30.75 z M481.225 -34.31A 2.69 2.69 0 0 0 483.915 -37A 2.69 2.69 0 0 0 481.225 -39.69A 2.69 2.69 0 0 0 478.535 -37A 2.69 2.69 0 0 0 481.225 -34.31 z M487.475 -31.99A 1.24 1.24 0 0 0 486.235 -30.75A 1.24 1.24 0 0 0 487.475 -29.51A 1.24 1.24 0 0 0 488.715 -30.75A 1.24 1.24 0 0 0 487.475 -31.99 z M490.86 -37.94 L490.86 -30.06 L493.74 -30.06 L493.74 -39.94 L490.86 -39.94 L490.86 -37.94 z M486.617 -42.355A 1.24 1.24 0 0 0 488.37 -42.392A 1.24 1.24 0 0 0 488.333 -44.145A 1.24 1.24 0 0 0 486.58 -44.108A 1.24 1.24 0 0 0 486.617 -42.355 z M474.975 -44.49A 1.24 1.24 0 0 0 473.735 -43.25A 1.24 1.24 0 0 0 474.975 -42.01A 1.24 1.24 0 0 0 476.215 -43.25A 1.24 1.24 0 0 0 474.975 -44.49 z M471.74 -47.06 L471.74 -54.94 L468.86 -54.94 L468.86 -45.06 L471.74 -45.06 L471.74 -47.06 z M461.514 -55.422 L457.661 -63.423 L455.066 -62.173 L459.353 -53.272 L461.948 -54.521 L461.514 -55.422 z M469.74 -84.94 L468.8 -84.94A 0.06 0.06 0 0 1 468.74 -85 L468.74 -115A 0.06 0.06 0 0 1 468.8 -115.06 L471.74 -115.06 L471.74 -124.94 L468.8 -124.94A 0.06 0.06 0 0 1 468.74 -125 L468.74 -129.94 L456.86 -129.94 L456.86 -125A 0.06 0.06 0 0 1 456.8 -124.94 L453.86 -124.94 L453.86 -115.06 L456.8 -115.06A 0.06 0.06 0 0 1 456.86 -115 L456.86 -85A 0.06 0.06 0 0 1 456.8 -84.94 L453.86 -84.94 L453.86 -75.06 L456.8 -75.06A 0.06 0.06 0 0 1 456.86 -75 L456.86 -70.06 L468.74 -70.06 L468.74 -75A 0.06 0.06 0 0 1 468.8 -75.06 L471.74 -75.06 L471.74 -84.94 L469.74 -84.94 z M486.24 -111.68 L486.24 -114.44 L476.36 -114.44 L476.36 -111.56 L486.24 -111.56 L486.24 -111.68 z M490.98 -110.06 L493.74 -110.06 L493.74 -119.94 L490.86 -119.94 L490.86 -110.06 L490.98 -110.06 z M490.86 -89.82 L490.86 -80.06 L493.74 -80.06 L493.74 -89.94 L490.86 -89.94 L490.86 -89.82 z M488.37 -155.892A 1.24 1.24 0 0 0 488.333 -157.645A 1.24 1.24 0 0 0 486.58 -157.608A 1.24 1.24 0 0 0 486.617 -155.855A 1.24 1.24 0 0 0 488.37 -155.892 z M490.86 -161.94 L490.86 -157.06 L493.74 -157.06 L493.74 -169.94 L490.86 -169.94 L490.86 -161.94 z M486.617 -168.355A 1.24 1.24 0 0 0 488.37 -168.392A 1.24 1.24 0 0 0 488.333 -170.145A 1.24 1.24 0 0 0 486.58 -170.108A 1.24 1.24 0 0 0 486.617 -168.355 z M482.274 -170.925 L489.905 -177.01 L488.109 -179.262 L480.385 -173.102 L482.181 -170.85 L482.274 -170.925 z M480.248 -165.506A 2.69 2.69 0 0 0 478.719 -162.023A 2.69 2.69 0 0 0 482.202 -160.494A 2.69 2.69 0 0 0 483.731 -163.977A 2.69 2.69 0 0 0 480.248 -165.506 z M475.87 -168.392A 1.24 1.24 0 0 0 475.833 -170.145A 1.24 1.24 0 0 0 474.08 -170.108A 1.24 1.24 0 0 0 474.117 -168.355A 1.24 1.24 0 0 0 475.87 -168.392 z M474.08 -157.608A 1.24 1.24 0 0 0 474.117 -155.855A 1.24 1.24 0 0 0 475.87 -155.892A 1.24 1.24 0 0 0 475.833 -157.645A 1.24 1.24 0 0 0 474.08 -157.608 z M471.74 -154.82 L471.74 -154.94 L468.86 -154.94 L468.86 -142.06 L471.74 -142.06 L471.74 -154.82 z M458.095 -137.478 L461.948 -145.479 L459.353 -146.728 L455.066 -137.827 L457.661 -136.577 L458.095 -137.478 z M450.44 -104.82 L450.44 -104.94 L447.56 -104.94 L447.56 -95.06 L450.44 -95.06 L450.44 -104.82 z M500.467 -170.926A 1.44 1.44 0 0 0 500.652 -172.954A 1.44 1.44 0 0 0 498.624 -173.139A 1.44 1.44 0 0 0 498.439 -171.111A 1.44 1.44 0 0 0 500.467 -170.926 z M508.255 -172.628A 1.04 1.04 0 0 0 508.512 -171.18A 1.04 1.04 0 0 0 509.96 -171.437A 1.04 1.04 0 0 0 509.703 -172.885A 1.04 1.04 0 0 0 508.255 -172.628 z M520.117 -191.312 L528.775 -193.288 L528.134 -196.096 L518.501 -193.898 L519.142 -191.09 L520.117 -191.312 z M537.5 -185.208A 3.94 3.94 0 0 0 533.56 -181.268A 3.94 3.94 0 0 0 537.5 -177.328 L552.5 -177.328A 3.94 3.94 0 0 0 556.44 -181.268A 3.94 3.94 0 0 0 552.5 -185.208 L537.5 -185.208 z M561.35 -193.26 L570.858 -191.09 L571.499 -193.898 L561.866 -196.096 L561.225 -193.288 L561.35 -193.26 z M581.703 -172.885A 1.04 1.04 0 0 0 580.255 -172.628A 1.04 1.04 0 0 0 580.512 -171.18A 1.04 1.04 0 0 0 581.96 -171.437A 1.04 1.04 0 0 0 581.703 -172.885 z M591.376 -170.926A 1.44 1.44 0 0 0 591.561 -172.954A 1.44 1.44 0 0 0 589.533 -173.139A 1.44 1.44 0 0 0 589.348 -171.111A 1.44 1.44 0 0 0 591.376 -170.926 z M598.14 -169.94 L596.26 -169.94 L596.26 -157.06 L599.14 -157.06 L599.14 -169.94 L598.14 -169.94 z M601.58 -170.108A 1.24 1.24 0 0 0 601.617 -168.355A 1.24 1.24 0 0 0 603.37 -168.392A 1.24 1.24 0 0 0 603.333 -170.145A 1.24 1.24 0 0 0 601.58 -170.108 z M607.894 -170.944 L609.615 -173.102 L601.891 -179.262 L600.095 -177.01 L607.819 -170.85 L607.894 -170.944 z M611.231 -163.977A 2.69 2.69 0 0 0 607.748 -165.506A 2.69 2.69 0 0 0 606.219 -162.023A 2.69 2.69 0 0 0 609.702 -160.494A 2.69 2.69 0 0 0 611.231 -163.977 z M615.833 -157.645A 1.24 1.24 0 0 0 614.08 -157.608A 1.24 1.24 0 0 0 614.117 -155.855A 1.24 1.24 0 0 0 615.87 -155.892A 1.24 1.24 0 0 0 615.833 -157.645 z M621.14 -152.06 L621.14 -154.94 L618.26 -154.94 L618.26 -142.06 L621.14 -142.06 L621.14 -152.06 z M628.108 -145.364 L632.339 -136.577 L634.934 -137.827 L630.647 -146.728 L628.052 -145.479 L628.108 -145.364 z M614.975 -168.01A 1.24 1.24 0 0 0 616.215 -169.25A 1.24 1.24 0 0 0 614.975 -170.49A 1.24 1.24 0 0 0 613.735 -169.25A 1.24 1.24 0 0 0 614.975 -168.01 z M603.715 -156.75A 1.24 1.24 0 0 0 602.475 -157.99A 1.24 1.24 0 0 0 601.235 -156.75A 1.24 1.24 0 0 0 602.475 -155.51A 1.24 1.24 0 0 0 603.715 -156.75 z M639.56 -104.82 L639.56 -95.06 L642.44 -95.06 L642.44 -104.94 L639.56 -104.94 L639.56 -104.82 z M644.93 -105.094A 100.06 100.06 0 0 1 550.094 -0.07A 100.06 100.06 0 0 1 445.07 -94.906A 100.06 100.06 0 0 1 539.906 -199.93A 100.06 100.06 0 0 1 644.93 -105.094 z"/>
        <path id="op_2D_Profile3-6-1" fill="none" stroke="rgb(0,0,0)" stroke-width="0.1" d=" M545.921 -101.885 L547.421 -103.385A 0.06 0.06 0 0 1 547.506 -103.385A 0.06 0.06 0 0 1 547.524 -103.342 L547.524 -96.592 M543.654 -97.952A 2.122 2.122 0 0 1 541.651 -96.533 L539.964 -96.533A 0.06 0.06 0 0 1 539.904 -96.592 L539.904 -103.342A 0.06 0.06 0 0 1 539.964 -103.402 L541.651 -103.402A 2.123 2.123 0 0 1 543.774 -101.28 L543.774 -98.655A 2.123 2.123 0 0 1 543.654 -97.952 z"/>
    </g>
    <g id="Setup3">
        <path id="op_2D_Profile4-8-2" fill="none" stroke="rgb(255,0,0)" stroke-width="0.1" d=" M689.937 -161.267A 2.19 2.19 0 0 0 693.008 -161.662A 2.19 2.19 0 0 0 692.613 -164.733A 2.19 2.19 0 0 0 689.542 -164.338A 2.19 2.19 0 0 0 689.937 -161.267 z M681.74 -140.18 L681.74 -149.94 L678.86 -149.94 L678.86 -140.06 L681.74 -140.06 L681.74 -140.18 z M679.74 -133.94 L662.86 -133.94 L662.86 -118.06 L664.74 -118.06 L664.74 -132A 0.06 0.06 0 0 1 664.8 -132.06 L680.74 -132.06 L680.74 -133.94 L679.74 -133.94 z M666.86 -88.94 L666.86 -70.06 L678.74 -70.06 L678.74 -129.94 L666.86 -129.94 L666.86 -88.94 z M676.74 -67.94 L664.8 -67.94A 0.06 0.06 0 0 1 664.74 -68 L664.74 -81.94 L662.86 -81.94 L662.86 -66.06 L680.74 -66.06 L680.74 -67.94 L676.74 -67.94 z M681.74 -57.06 L681.74 -62.94 L678.86 -62.94 L678.86 -50.06 L681.74 -50.06 L681.74 -57.06 z M691.712 -39.146A 2.19 2.19 0 0 0 689.129 -37.437A 2.19 2.19 0 0 0 690.838 -34.854A 2.19 2.19 0 0 0 693.421 -36.563A 2.19 2.19 0 0 0 691.712 -39.146 z M700.86 -58.94 L700.86 -50.06 L703.74 -50.06 L703.74 -62.94 L700.86 -62.94 L700.86 -58.94 z M719.41 -108.32 L719.41 -100.56 L722.29 -100.56 L722.29 -108.44 L719.41 -108.44 L719.41 -108.32 z M719.41 -118.32 L719.41 -110.56 L722.29 -110.56 L722.29 -118.44 L719.41 -118.44 L719.41 -118.32 z M719.53 -126.06 L722.29 -126.06 L722.29 -133.94 L719.41 -133.94 L719.41 -126.06 L719.53 -126.06 z M709.62 -130.94 L686.41 -130.94 L686.41 -121.06 L709.74 -121.06 L709.74 -130.94 L709.62 -130.94 z M703.74 -140.18 L703.74 -149.94 L700.86 -149.94 L700.86 -140.06 L703.74 -140.06 L703.74 -140.18 z M741.49 -167.6 L741.49 -181.54 L739.61 -181.54 L739.61 -165.6A 0.06 0.06 0 0 1 739.55 -165.54 L724.51 -165.54 L724.51 -160.06 L744.39 -160.06 L744.39 -165.54 L741.55 -165.54A 0.06 0.06 0 0 1 741.49 -165.6 L741.49 -167.6 z M751.11 -171.66 L783.23 -171.66 L783.23 -181.6A 0.06 0.06 0 0 1 783.29 -181.66 L785.43 -181.66 L785.43 -187.54 L744.91 -187.54 L744.91 -181.66 L747.05 -181.66A 0.06 0.06 0 0 1 747.11 -181.6 L747.11 -171.66 L751.11 -171.66 z M765.73 -160.06 L787.49 -160.06 L787.49 -175.94 L785.61 -175.94 L785.61 -165.6A 0.06 0.06 0 0 1 785.55 -165.54 L765.61 -165.54 L765.61 -160.06 L765.73 -160.06 z M768.49 -141.94 L744.61 -141.94 L744.61 -136.06 L785.49 -136.06 L785.49 -141.94 L768.49 -141.94 z M769.43 -126.06 L772.19 -126.06 L772.19 -133.94 L769.31 -133.94 L769.31 -126.06 L769.43 -126.06 z M769.43 -110.56 L772.19 -110.56 L772.19 -118.44 L769.31 -118.44 L769.31 -110.56 L769.43 -110.56 z M772.07 -108.44 L769.31 -108.44 L769.31 -100.56 L772.19 -100.56 L772.19 -108.44 L772.07 -108.44 z M806.26 -147.94 L806.26 -140.06 L809.14 -140.06 L809.14 -149.94 L806.26 -149.94 L806.26 -147.94 z M818.725 -160.81A 2.19 2.19 0 0 0 820.915 -163A 2.19 2.19 0 0 0 818.725 -165.19A 2.19 2.19 0 0 0 816.535 -163A 2.19 2.19 0 0 0 818.725 -160.81 z M828.26 -140.18 L828.26 -140.06 L831.14 -140.06 L831.14 -149.94 L828.26 -149.94 L828.26 -140.18 z M830.14 -133.94 L829.26 -133.94 L829.26 -132.06 L845.2 -132.06A 0.06 0.06 0 0 1 845.26 -132 L845.26 -118.06 L847.14 -118.06 L847.14 -133.94 L830.14 -133.94 z M843.14 -89.06 L843.14 -129.94 L831.26 -129.94 L831.26 -70.06 L843.14 -70.06 L843.14 -89.06 z M833.2 -67.94 L829.26 -67.94 L829.26 -66.06 L847.14 -66.06 L847.14 -81.94 L845.26 -81.94 L845.26 -68A 0.06 0.06 0 0 1 845.2 -67.94 L833.2 -67.94 z M828.26 -56.94 L828.26 -50.06 L831.14 -50.06 L831.14 -62.94 L828.26 -62.94 L828.26 -56.94 z M818.725 -39.19A 2.19 2.19 0 0 0 816.535 -37A 2.19 2.19 0 0 0 818.725 -34.81A 2.19 2.19 0 0 0 820.915 -37A 2.19 2.19 0 0 0 818.725 -39.19 z M809.14 -50.18 L809.14 -62.94 L806.26 -62.94 L806.26 -50.06 L809.14 -50.06 L809.14 -50.18 z M828.63 -32.245A 100.06 100.06 0 0 1 687.245 -26.37A 100.06 100.06 0 0 1 681.37 -167.755A 100.06 100.06 0 0 1 822.755 -173.63A 100.06 100.06 0 0 1 828.63 -32.245 z"/>
        <path id="op_2D_Profile5-9-3" fill="none" stroke="rgb(0,0,0)" stroke-width="0.1" d=" M752.205 -146.992 L752.205 -149.992 L752.205 -153.742 L754.08 -153.742A 1.875 1.875 0 0 1 755.955 -151.867A 1.875 1.875 0 0 1 754.08 -149.992 L752.205 -149.992 M758.205 -152.242 L759.705 -153.742 L759.705 -146.992"/>
    </g>
    <g id="Setup4">
        <path id="op_2D_Profile6-11-4" fill="none" stroke="rgb(255,0,0)" stroke-width="0.1" d=" M864.951 0.035A 0.06 0.06 0 0 1 864.94 0 L864.94 -24A 0.06 0.06 0 0 1 865 -24.06 L873 -24.06A 0.06 0.06 0 0 1 873.06 -24 L873.06 -21.06 L880.44 -21.06 L880.44 -24A 0.06 0.06 0 0 1 880.5 -24.06 L888.5 -24.06A 0.06 0.06 0 0 1 888.56 -24 L888.56 -5.06 L890.44 -5.06 L890.44 -24A 0.06 0.06 0 0 1 890.5 -24.06 L898.5 -24.06A 0.06 0.06 0 0 1 898.56 -24 L898.56 0A 0.06 0.06 0 0 1 898.5 0.06 L865 0.06A 0.06 0.06 0 0 1 864.951 0.035 z"/>
        <path id="op_2D_Profile7-12-5" fill="none" stroke="rgb(0,0,0)" stroke-width="0.1" d=" M871.206 -12.088 L869.706 -10.588A 0.06 0.06 0 0 1 869.621 -10.588A 0.06 0.06 0 0 1 869.604 -10.63 L869.604 -17.38 M873.414 -17.44 L877.164 -17.44A 0.06 0.06 0 0 1 877.224 -17.38A 0.06 0.06 0 0 1 877.216 -17.351 L873.516 -10.69 L877.164 -10.69 M879.357 -10.649 L881.607 -17.399A 0.06 0.06 0 0 1 881.683 -17.437A 0.06 0.06 0 0 1 881.721 -17.399 L883.971 -10.649"/>
    </g>
    <g id="Setup5">
        <path id="op_2D_Profile8-14-6" fill="none" stroke="rgb(255,0,0)" stroke-width="0.1" d=" M923.94 -24A 0.06 0.06 0 0 1 924 -24.06 L932 -24.06A 0.06 0.06 0 0 1 932.06 -24 L932.06 -5.06 L933.94 -5.06 L933.94 -24A 0.06 0.06 0 0 1 934 -24.06 L942 -24.06A 0.06 0.06 0 0 1 942.06 -24 L942.06 0A 0.06 0.06 0 0 1 942 0.06 L908.5 0.06A 0.06 0.06 0 0 1 908.44 0 L908.44 -24A 0.06 0.06 0 0 1 908.5 -24.06 L916.5 -24.06A 0.06 0.06 0 0 1 916.56 -24 L916.56 -21.06 L923.94 -21.06 L923.94 -24 z"/>
        <path id="op_2D_Profile9-15-7" fill="none" stroke="rgb(0,0,0)" stroke-width="0.1" d=" M914.749 -12.047 L913.249 -10.547A 0.06 0.06 0 0 1 913.164 -10.547A 0.06 0.06 0 0 1 913.147 -10.59 L913.147 -17.34 M916.957 -17.4 L920.707 -17.4A 0.06 0.06 0 0 1 920.767 -17.34A 0.06 0.06 0 0 1 920.759 -17.311 L917.059 -10.65 L920.707 -10.65 M922.9 -10.609 L925.15 -17.359A 0.06 0.06 0 0 1 925.226 -17.397A 0.06 0.06 0 0 1 925.264 -17.359 L927.514 -10.609"/>
    </g>
    <g id="Setup6">
        <path id="op_2D_Profile10-17-8" fill="none" stroke="rgb(255,0,0)" stroke-width="0.1" d=" M1120.235 0A 0.06 0.06 0 0 1 1120.242 -0.028A 77.143 77.143 0 0 0 1087.972 -104.242A 77.143 77.143 0 0 0 983.758 -71.972A 77.143 77.143 0 0 0 983.758 -0.028A 0.06 0.06 0 0 1 983.733 0.053A 0.06 0.06 0 0 1 983.705 0.06 L958.705 0.06A 0.06 0.06 0 0 1 958.649 0.022A 100.06 100.06 0 0 1 1015.978 -129.351A 100.06 100.06 0 0 1 1145.351 -72.022A 100.06 100.06 0 0 1 1145.351 0.022A 0.06 0.06 0 0 1 1145.295 0.06 L1120.295 0.06A 0.06 0.06 0 0 1 1120.235 0 z"/>
        <path id="op_2D_Profile11-18-9" fill="none" stroke="rgb(0,0,0)" stroke-width="0.1" d=" M1055.844 -126.559A 1.603 1.603 0 0 1 1057.401 -127.728A 1.555 1.555 0 0 1 1058.963 -126.179A 1.555 1.555 0 0 1 1058.727 -125.349 L1056.009 -120.978 L1058.901 -120.978 M1053.651 -120.858 L1049.901 -120.858A 0.06 0.06 0 0 1 1049.841 -120.918A 0.06 0.06 0 0 1 1049.849 -120.947 L1053.549 -127.608 L1049.901 -127.608 M1047.708 -127.649 L1045.458 -120.899A 0.06 0.06 0 0 1 1045.382 -120.861A 0.06 0.06 0 0 1 1045.344 -120.899 L1043.094 -127.649"/>
    </g>
    <g id="Setup8">
        <path id="op_2D_Profile12-21-10" fill="none" stroke="rgb(255,0,0)" stroke-width="0.1" d=" M1198.26 0A 0.06 0.06 0 0 1 1198.2 0.06 L1189.1 0.06A 0.06 0.06 0 0 1 1189.04 0 L1189.04 -5.94 L1183.16 -5.94 L1183.16 0A 0.06 0.06 0 0 1 1183.1 0.06 L1174 0.06A 0.06 0.06 0 0 1 1173.94 0 L1173.94 -5.94 L1162 -5.94A 0.06 0.06 0 0 1 1161.94 -6 L1161.94 -10A 0.06 0.06 0 0 1 1162 -10.06 L1163.94 -10.06 L1163.94 -25.94 L1162 -25.94A 0.06 0.06 0 0 1 1161.94 -26 L1161.94 -37.8A 0.06 0.06 0 0 1 1162 -37.86 L1210.2 -37.86A 0.06 0.06 0 0 1 1210.26 -37.8 L1210.26 -26A 0.06 0.06 0 0 1 1210.2 -25.94 L1208.26 -25.94 L1208.26 -10.06 L1210.2 -10.06A 0.06 0.06 0 0 1 1210.26 -10 L1210.26 -6A 0.06 0.06 0 0 1 1210.2 -5.94 L1198.26 -5.94 L1198.26 0 z"/>
        <path id="op_2D_Profile13-22-11" fill="none" stroke="rgb(0,0,0)" stroke-width="0.1" d=" M1168.125 -12.265 L1170 -12.265 M1171.427 -13.303A 1.5 1.5 0 0 1 1170.007 -12.265A 1.875 1.875 0 0 1 1171.875 -10.39A 1.875 1.875 0 0 1 1171.326 -9.064A 1.875 1.875 0 0 1 1170 -8.515 L1168.125 -8.515 L1168.125 -15.265 L1170 -15.265A 1.5 1.5 0 0 1 1171.5 -13.765A 1.5 1.5 0 0 1 1171.427 -13.303 z M1174.125 -15.265 L1175.625 -15.265A 1.5 1.5 0 0 1 1177.125 -13.765A 1.5 1.5 0 0 1 1175.632 -12.265A 1.5 1.5 0 0 1 1177.125 -10.765 L1177.125 -10.015A 1.5 1.5 0 0 1 1175.625 -8.515 L1174.125 -8.515 M1175.625 -12.265 L1174.875 -12.265"/>
    </g>
    <g id="Setup9">
        <path id="op_2D_Profile14-24-12" fill="none" stroke="rgb(255,0,0)" stroke-width="0.1" d=" M1268.4 -31.86A 0.06 0.06 0 0 1 1268.46 -31.8 L1268.46 -27.8A 0.06 0.06 0 0 1 1268.4 -27.74 L1266.46 -27.74 L1266.46 -11.86 L1268.4 -11.86A 0.06 0.06 0 0 1 1268.46 -11.8 L1268.46 0A 0.06 0.06 0 0 1 1268.4 0.06 L1220.2 0.06A 0.06 0.06 0 0 1 1220.14 0 L1220.14 -11.8A 0.06 0.06 0 0 1 1220.2 -11.86 L1222.14 -11.86 L1222.14 -27.74 L1220.2 -27.74A 0.06 0.06 0 0 1 1220.14 -27.8 L1220.14 -31.8A 0.06 0.06 0 0 1 1220.2 -31.86 L1232.14 -31.86 L1232.14 -37.8A 0.06 0.06 0 0 1 1232.2 -37.86 L1241.3 -37.86A 0.06 0.06 0 0 1 1241.36 -37.8 L1241.36 -31.86 L1247.24 -31.86 L1247.24 -37.8A 0.06 0.06 0 0 1 1247.3 -37.86 L1256.4 -37.86A 0.06 0.06 0 0 1 1256.46 -37.8 L1256.46 -31.86 L1268.4 -31.86 z"/>
        <path id="op_2D_Profile15-25-13" fill="none" stroke="rgb(0,0,0)" stroke-width="0.1" d=" M1262.39 -25.342 L1260.515 -25.342 M1259.088 -24.304A 1.5 1.5 0 0 1 1260.508 -25.342 L1260.507 -25.342A 1.875 1.875 0 0 1 1258.64 -27.217A 1.875 1.875 0 0 1 1259.189 -28.543A 1.875 1.875 0 0 1 1260.515 -29.092 L1262.39 -29.092 L1262.39 -22.342 L1260.515 -22.342A 1.5 1.5 0 0 1 1259.015 -23.842A 1.5 1.5 0 0 1 1259.088 -24.304 z M1256.39 -22.342 L1254.89 -22.342A 1.5 1.5 0 0 1 1253.39 -23.842A 1.5 1.5 0 0 1 1254.883 -25.342A 1.5 1.5 0 0 1 1253.39 -26.842 L1253.39 -27.592A 1.5 1.5 0 0 1 1253.829 -28.653A 1.5 1.5 0 0 1 1254.89 -29.092 L1256.39 -29.092"/>
    </g>
    <g id="Setup10">
        <path id="op_2D_Profile16-27-14" fill="none" stroke="rgb(255,0,0)" stroke-width="0.1" d=" M1301.277 -13.458A 10.441 10.441 0 0 0 1297.652 -22.454A 10.44 10.44 0 0 0 1282.936 -21.262A 10.44 10.44 0 0 0 1284.128 -6.546A 10.44 10.44 0 0 0 1297.652 -6.546A 10.441 10.441 0 0 0 1301.277 -13.458 z M1309.878 -14.011A 0.79 0.79 0 0 0 1309.088 -13.221A 0.79 0.79 0 0 0 1309.878 -12.431A 0.79 0.79 0 0 0 1310.668 -13.221A 0.79 0.79 0 0 0 1309.878 -14.011 z M1313.417 -12.084A 2.69 2.69 0 0 0 1317.016 -13.317A 2.69 2.69 0 0 0 1315.783 -16.916A 2.69 2.69 0 0 0 1312.184 -15.683A 2.69 2.69 0 0 0 1313.417 -12.084 z M1315.879 -10.568A 0.79 0.79 0 0 0 1315.089 -9.778A 0.79 0.79 0 0 0 1315.879 -8.988A 0.79 0.79 0 0 0 1316.669 -9.778A 0.79 0.79 0 0 0 1315.879 -10.568 z M1318.532 -15.779A 0.79 0.79 0 0 0 1319.322 -14.989A 0.79 0.79 0 0 0 1320.112 -15.779A 0.79 0.79 0 0 0 1319.322 -16.569A 0.79 0.79 0 0 0 1318.532 -15.779 z M1313.98 -18.786A 0.79 0.79 0 0 0 1314.111 -19.222A 0.79 0.79 0 0 0 1313.321 -20.012A 0.79 0.79 0 0 0 1312.531 -19.222A 0.79 0.79 0 0 0 1313.321 -18.432A 0.79 0.79 0 0 0 1313.98 -18.786 z M1313.98 -26.06 L1314.54 -26.06 L1314.54 -29A 0.06 0.06 0 0 1 1314.6 -29.06 L1326.6 -29.06A 0.06 0.06 0 0 1 1326.66 -29 L1326.66 -18.5A 0.06 0.06 0 0 1 1326.6 -18.44 L1324.66 -18.44 L1324.66 -10.56 L1326.6 -10.56A 0.06 0.06 0 0 1 1326.66 -10.5 L1326.66 0A 0.06 0.06 0 0 1 1326.6 0.06 L1314.6 0.06A 0.06 0.06 0 0 1 1314.54 0 L1314.54 -2.94 L1305.56 -2.94 L1305.56 0A 0.06 0.06 0 0 1 1305.5 0.06 L1299.5 0.06A 0.06 0.06 0 0 1 1299.44 0 L1299.44 -2.94 L1290.46 -2.94 L1290.46 0A 0.06 0.06 0 0 1 1290.4 0.06 L1278.4 0.06A 0.06 0.06 0 0 1 1278.34 0 L1278.34 -29A 0.06 0.06 0 0 1 1278.4 -29.06 L1290.4 -29.06A 0.06 0.06 0 0 1 1290.46 -29 L1290.46 -26.06 L1299.44 -26.06 L1299.44 -29A 0.06 0.06 0 0 1 1299.5 -29.06 L1305.5 -29.06A 0.06 0.06 0 0 1 1305.56 -29 L1305.56 -26.06 L1313.98 -26.06 z"/>
        <path id="op_2D_Profile17-28-15" fill="none" stroke="rgb(0,0,0)" stroke-width="0.1" d=" M1316.926 -24.39A 1.543 1.543 0 0 1 1315.801 -25.89A 1.495 1.495 0 0 1 1317.29 -27.392A 1.495 1.495 0 0 1 1318.089 -27.165 L1322.551 -24.39 L1322.551 -27.39 M1318.801 -18.39 L1318.801 -20.265 M1318.677 -20.862A 1.5 1.5 0 0 1 1318.801 -20.272A 1.875 1.875 0 0 1 1320.676 -22.14A 1.875 1.875 0 0 1 1322.551 -20.265 L1322.551 -18.39 L1315.801 -18.39 L1315.801 -20.265A 1.5 1.5 0 0 1 1317.301 -21.765A 1.5 1.5 0 0 1 1318.677 -20.862 z"/>
    </g>
    <g id="Setup11">
        <path id="op_2D_Profile18-30-16" fill="none" stroke="rgb(255,0,0)" stroke-width="0.1" d=" M1341.535 -22.714A 1.59 1.59 0 0 0 1341.886 -24.935A 1.59 1.59 0 0 0 1339.665 -25.286A 1.59 1.59 0 0 0 1339.314 -23.065A 1.59 1.59 0 0 0 1341.535 -22.714 z M1341.4 -21.561A 10.44 10.44 0 0 0 1342.029 -6.81A 10.44 10.44 0 0 0 1355.852 -6.546A 0.06 0.06 0 0 1 1355.891 -6.56 L1376.703 -6.56A 7.06 7.06 0 0 1 1379.74 -9.362 L1379.74 -19.638A 7.06 7.06 0 0 1 1376.703 -22.44 L1355.891 -22.44A 0.06 0.06 0 0 1 1355.852 -22.454A 10.44 10.44 0 0 0 1341.4 -21.561 z M1341.886 -5.935A 1.59 1.59 0 0 0 1339.665 -6.286A 1.59 1.59 0 0 0 1339.314 -4.065A 1.59 1.59 0 0 0 1341.535 -3.714A 1.59 1.59 0 0 0 1341.886 -5.935 z M1379.865 -6.286A 1.59 1.59 0 0 0 1379.514 -4.065A 1.59 1.59 0 0 0 1381.735 -3.714A 1.59 1.59 0 0 0 1382.086 -5.935A 1.59 1.59 0 0 0 1379.865 -6.286 z M1380.716 -22.412A 1.59 1.59 0 0 0 1382.388 -23.916A 1.59 1.59 0 0 0 1380.884 -25.588A 1.59 1.59 0 0 0 1379.212 -24.084A 1.59 1.59 0 0 0 1380.716 -22.412 z M1384.86 -22.412 L1384.86 -18.5A 0.06 0.06 0 0 1 1384.8 -18.44 L1382.86 -18.44 L1382.86 -10.56 L1384.8 -10.56A 0.06 0.06 0 0 1 1384.86 -10.5 L1384.86 0A 0.06 0.06 0 0 1 1384.8 0.06 L1372.8 0.06A 0.06 0.06 0 0 1 1372.74 0 L1372.74 -2.94 L1363.76 -2.94 L1363.76 0A 0.06 0.06 0 0 1 1363.7 0.06 L1357.7 0.06A 0.06 0.06 0 0 1 1357.64 0 L1357.64 -2.94 L1348.66 -2.94 L1348.66 0A 0.06 0.06 0 0 1 1348.6 0.06 L1336.6 0.06A 0.06 0.06 0 0 1 1336.54 0 L1336.54 -29A 0.06 0.06 0 0 1 1336.6 -29.06 L1348.6 -29.06A 0.06 0.06 0 0 1 1348.66 -29 L1348.66 -26.06 L1357.64 -26.06 L1357.64 -29A 0.06 0.06 0 0 1 1357.7 -29.06 L1363.7 -29.06A 0.06 0.06 0 0 1 1363.76 -29 L1363.76 -26.06 L1372.74 -26.06 L1372.74 -29A 0.06 0.06 0 0 1 1372.8 -29.06 L1384.8 -29.06A 0.06 0.06 0 0 1 1384.86 -29 L1384.86 -22.412 z"/>
        <path id="op_2D_Profile19-31-17" fill="none" stroke="rgb(0,0,0)" stroke-width="0.1" d=" M1362.452 -25.382 L1361.515 -25.382 M1361.033 -25.206A 0.75 0.75 0 0 1 1361.512 -25.382A 0.938 0.938 0 0 1 1360.577 -26.322A 0.938 0.938 0 0 1 1361.515 -27.257 L1362.452 -27.257 L1362.452 -23.882 L1361.515 -23.882A 0.75 0.75 0 0 1 1360.765 -24.632A 0.75 0.75 0 0 1 1361.033 -25.206 z M1359.452 -24.632 L1358.702 -23.882 L1358.702 -27.257"/>
    </g>
    <g id="Setup12">
        <path id="op_2D_Profile20-33-18" fill="none" stroke="rgb(255,0,0)" stroke-width="0.1" d=" M1404.14 -9.278A 1.34 1.34 0 0 0 1402.8 -10.618A 1.34 1.34 0 0 0 1401.46 -9.278A 1.34 1.34 0 0 0 1402.8 -7.938A 1.34 1.34 0 0 0 1404.14 -9.278 z M1463.2 -29.721A 1.34 1.34 0 0 0 1464.431 -28.28A 1.34 1.34 0 0 0 1465.872 -29.512A 1.34 1.34 0 0 0 1464.641 -30.952A 1.34 1.34 0 0 0 1463.2 -29.721 z M1446.988 -75.002A 1.34 1.34 0 0 0 1447.798 -76.716A 1.34 1.34 0 0 0 1446.084 -77.526A 1.34 1.34 0 0 0 1445.274 -75.812A 1.34 1.34 0 0 0 1446.988 -75.002 z M1454.538 -77.916 L1472.056 -32.518A 8.06 8.06 0 0 1 1471.903 -26.346A 8.06 8.06 0 0 1 1467.428 -22.093 L1412.474 -0.966A 15.41 15.41 0 0 1 1398.519 -2.447 L1398.394 -2.529A 8.06 8.06 0 0 1 1396.051 -13.684 L1439.787 -80.67A 8.06 8.06 0 0 1 1450.942 -83.013A 8.06 8.06 0 0 1 1454.056 -79.166 L1454.538 -77.916 z"/>
        <path id="op_2D_Profile21-34-19" fill="none" stroke="rgb(0,0,0)" stroke-width="0.1" d=" M1451.25 -61.113 L1453.125 -61.113 M1449.375 -61.113 L1451.25 -61.113 L1451.25 -67.863 M1447.125 -67.863 L1444.875 -61.113 L1442.625 -67.863 M1446.469 -65.988 L1443.282 -65.988 M1440.375 -62.238A 1.543 1.543 0 0 1 1438.875 -61.113A 1.495 1.495 0 0 1 1437.373 -62.601A 1.495 1.495 0 0 1 1437.6 -63.401 L1440.375 -67.863 L1437.375 -67.863"/>
    </g>
    <g id="Setup14">
        <path id="op_2D_Profile23-38-20" fill="none" stroke="rgb(255,0,0)" stroke-width="0.1" d=" M1513.236 -199.24A 2.44 2.44 0 0 0 1510.796 -196.8A 2.44 2.44 0 0 0 1513.236 -194.36A 2.44 2.44 0 0 0 1515.676 -196.8A 2.44 2.44 0 0 0 1513.236 -199.24 z M1528.596 -199.24 L1528.596 0A 0.06 0.06 0 0 1 1528.536 0.06 L1482.536 0.06A 0.06 0.06 0 0 1 1482.476 0 L1482.476 -176A 0.06 0.06 0 0 1 1482.536 -176.06 L1484.476 -176.06 L1484.476 -240A 0.06 0.06 0 0 1 1484.536 -240.06 L1528.536 -240.06A 0.06 0.06 0 0 1 1528.596 -240 L1528.596 -199.24 z"/>
        <path id="op_2D_Profile24-39-21" fill="none" stroke="rgb(0,0,0)" stroke-width="0.1" d=" M1522.281 -237.853 L1526.031 -237.853 L1522.281 -231.103 L1526.031 -231.103 M1520.031 -232.603 L1518.531 -231.103 L1518.531 -237.853"/>
    </g>
</svg>

