<?xml version="1.0" encoding="UTF-8" standalone="no"?>
<svg
   xmlns:dc="http://purl.org/dc/elements/1.1/"
   xmlns:cc="http://creativecommons.org/ns#"
   xmlns:rdf="http://www.w3.org/1999/02/22-rdf-syntax-ns#"
   xmlns:svg="http://www.w3.org/2000/svg"
   xmlns="http://www.w3.org/2000/svg"
   xmlns:sodipodi="http://sodipodi.sourceforge.net/DTD/sodipodi-0.dtd"
   xmlns:inkscape="http://www.inkscape.org/namespaces/inkscape"
   width="120.36433mm"
   height="203.81815mm"
   viewBox="-10 -610 120.36433 203.81814"
   version="1.1"
   id="svg28"
   sodipodi:docname="CAM-preklizka-4mm-v2.svg"
   inkscape:version="0.92.4 (5da689c313, 2019-01-14)">
  <metadata
     id="metadata34">
    <rdf:RDF>
      <cc:Work
         rdf:about="">
        <dc:format>image/svg+xml</dc:format>
        <dc:type
           rdf:resource="http://purl.org/dc/dcmitype/StillImage" />
        <dc:title></dc:title>
      </cc:Work>
    </rdf:RDF>
  </metadata>
  <defs
     id="defs32" />
  <sodipodi:namedview
     pagecolor="#ffffff"
     bordercolor="#666666"
     borderopacity="1"
     objecttolerance="10"
     gridtolerance="10"
     guidetolerance="10"
     inkscape:pageopacity="0"
     inkscape:pageshadow="2"
     inkscape:window-width="1920"
     inkscape:window-height="1017"
     id="namedview30"
     showgrid="false"
     fit-margin-top="1"
     fit-margin-left="1"
     fit-margin-right="1"
     fit-margin-bottom="1"
     inkscape:zoom="0.79481682"
     inkscape:cx="334.4706"
     inkscape:cy="316.57514"
     inkscape:window-x="-8"
     inkscape:window-y="-8"
     inkscape:window-maximized="1"
     inkscape:current-layer="svg28" />
  <g
     id="Setup2"
     style="stroke-width:0.52916664;stroke-miterlimit:4;stroke-dasharray:none"
     transform="rotate(-90,-22.193342,-103.48207)">
    <path
       id="op_2D_Profile3-6-0"
       d="m 476.221,-8.169 a 1.39,1.39 0 0 0 -1.39,1.39 1.39,1.39 0 0 0 1.39,1.39 1.39,1.39 0 0 0 1.39,-1.39 1.39,1.39 0 0 0 -1.39,-1.39 z m -18.913,-62.953 a 1.39,1.39 0 0 0 0.931,-1.731 1.39,1.39 0 0 0 -1.731,-0.931 1.39,1.39 0 0 0 -0.932,1.731 1.39,1.39 0 0 0 1.732,0.931 z m -6.516,1.932 -5.782,1.02 a 0.06,0.06 0 0 1 -0.069,-0.049 0.06,0.06 0 0 1 -10e-4,-0.01 v -12.116 a 0.06,0.06 0 0 1 0.06,-0.06 0.06,0.06 0 0 1 0.01,0.001 l 5.93,1.045 v -6.015 a 0.06,0.06 0 0 1 0.06,-0.06 0.06,0.06 0 0 1 0.025,0.005 l 29.042,12.997 a 5.06,5.06 0 0 1 2.993,4.619 v 61.034 a 6.839,6.839 0 0 1 -6.839,6.839 6.839,6.839 0 0 1 -4.835,-2.003 6.839,6.839 0 0 1 -2.003,-4.836 v -54.94 H 451 a 0.06,0.06 0 0 1 -0.042,-0.017 0.06,0.06 0 0 1 -0.018,-0.043 v -7.437 z"
       inkscape:connector-curvature="0"
       style="fill:none;stroke:#ff0000;stroke-width:0.52916664;stroke-miterlimit:4;stroke-dasharray:none" />
    <path
       id="op_2D_Profile4-7-1"
       d="m 461.288,-71.911 -0.03,4.125 1.457,-1.58 m -1.457,1.58 -0.02,2.625 m 1.477,-4.205 2.323,-2.517 m 2.276,1.516 1.511,-1.489 -0.049,6.75 m -3.75,-0.027 -2.311,-4.233"
       inkscape:connector-curvature="0"
       style="fill:none;stroke:#0000ff;stroke-width:0.52916664;stroke-miterlimit:4;stroke-dasharray:none" />
  </g>
  <g
     id="Setup3"
     style="stroke-width:0.52916664;stroke-miterlimit:4;stroke-dasharray:none"
     transform="rotate(90,550.77724,-556.50987)">
    <path
       id="op_2D_Profile5-9-2"
       d="m 546.477,-8.169 a 1.39,1.39 0 0 0 -1.39,1.39 1.39,1.39 0 0 0 1.39,1.39 1.39,1.39 0 0 0 1.39,-1.39 1.39,1.39 0 0 0 -1.39,-1.39 z m -18.913,-62.953 a 1.39,1.39 0 0 0 0.931,-1.731 1.39,1.39 0 0 0 -1.731,-0.931 1.39,1.39 0 0 0 -0.931,1.731 1.39,1.39 0 0 0 1.731,0.931 z m -6.516,1.932 -5.782,1.02 a 0.06,0.06 0 0 1 -0.069,-0.049 0.06,0.06 0 0 1 -10e-4,-0.01 v -12.116 a 0.06,0.06 0 0 1 0.06,-0.06 0.06,0.06 0 0 1 0.01,0.001 l 5.93,1.045 v -6.015 a 0.06,0.06 0 0 1 0.06,-0.06 0.06,0.06 0 0 1 0.025,0.005 l 29.042,12.997 a 5.06,5.06 0 0 1 2.993,4.619 v 61.034 a 6.839,6.839 0 0 1 -6.839,6.839 6.839,6.839 0 0 1 -4.835,-2.003 6.839,6.839 0 0 1 -2.003,-4.836 v -54.94 h -18.383 a 0.06,0.06 0 0 1 -0.042,-0.018 0.06,0.06 0 0 1 -0.018,-0.042 v -7.437 z"
       inkscape:connector-curvature="0"
       style="fill:none;stroke:#ff0000;stroke-width:0.52916664;stroke-miterlimit:4;stroke-dasharray:none" />
    <path
       id="op_2D_Profile6-10-3"
       d="m 537.528,-70.409 1.511,-1.489 a 0.06,0.06 0 0 1 0.085,0 0.06,0.06 0 0 1 0.017,0.043 l -0.049,6.75 m -3.863,0.001 -2.271,-4.159 m -0.016,-0.16 2.308,-2.501 m -3.677,4.162 -0.019,2.602 m 0.05,-6.75 -0.029,3.969 1.339,-1.451"
       inkscape:connector-curvature="0"
       style="fill:none;stroke:#0000ff;stroke-width:0.52916664;stroke-miterlimit:4;stroke-dasharray:none" />
  </g>
  <g
     id="Setup5"
     style="stroke-width:0.52916664;stroke-miterlimit:4;stroke-dasharray:none"
     transform="rotate(-90,74.092188,-5.6331079)">
    <path
       id="op_2D_Profile7-13-4"
       d="m 589.348,-14.35 a 1.39,1.39 0 0 0 -1.39,1.39 1.39,1.39 0 0 0 1.39,1.39 1.39,1.39 0 0 0 1.39,-1.39 1.39,1.39 0 0 0 -1.39,-1.39 z m -18.913,-62.953 a 1.39,1.39 0 0 0 0.931,-1.731 1.39,1.39 0 0 0 -1.731,-0.932 1.39,1.39 0 0 0 -0.931,1.731 1.39,1.39 0 0 0 1.731,0.932 z m 6.438,0 v 53.608 h 18.383 a 0.06,0.06 0 0 1 0.06,0.06 v 7.438 l 5.93,-1.046 a 0.06,0.06 0 0 1 0.069,0.049 0.06,0.06 0 0 1 10e-4,0.01 v 12.116 a 0.06,0.06 0 0 1 -0.06,0.06 0.06,0.06 0 0 1 -0.01,-0.001 l -5.93,-1.045 V 0 a 0.06,0.06 0 0 1 -0.06,0.06 0.06,0.06 0 0 1 -0.025,-0.006 l -2.926,-1.348 -26.116,-11.687 a 5.06,5.06 0 0 1 -2.993,-4.619 v -61.034 a 6.839,6.839 0 0 1 6.839,-6.839 6.839,6.839 0 0 1 4.835,2.003 6.839,6.839 0 0 1 2.003,4.836 z"
       inkscape:connector-curvature="0"
       style="fill:none;stroke:#ff0000;stroke-width:0.52916664;stroke-miterlimit:4;stroke-dasharray:none" />
    <path
       id="op_2D_Profile8-14-5"
       d="m 583.891,-13.94 v -4.125 l -1.445,1.59 m 1.445,-1.59 v -2.625 m -1.445,4.215 -2.305,2.535 m -2.287,-1.5 -1.5,1.5 v -6.75 m 3.75,0 2.342,4.215"
       inkscape:connector-curvature="0"
       style="fill:none;stroke:#0000ff;stroke-width:0.52916664;stroke-miterlimit:4;stroke-dasharray:none" />
  </g>
  <g
     id="Setup6"
     style="stroke-width:0.52916664;stroke-miterlimit:4;stroke-dasharray:none"
     transform="rotate(90,577.03764,-584.32534)">
    <path
       id="op_2D_Profile9-16-6"
       d="m 637.348,-14.35 a 1.39,1.39 0 0 0 -1.39,1.39 1.39,1.39 0 0 0 1.39,1.39 1.39,1.39 0 0 0 1.39,-1.39 1.39,1.39 0 0 0 -1.39,-1.39 z m -18.913,-62.953 a 1.39,1.39 0 0 0 0.931,-1.731 1.39,1.39 0 0 0 -1.731,-0.932 1.39,1.39 0 0 0 -0.931,1.731 1.39,1.39 0 0 0 1.731,0.932 z m 6.438,0 v 53.608 h 18.383 a 0.06,0.06 0 0 1 0.06,0.06 v 7.438 l 5.93,-1.046 a 0.06,0.06 0 0 1 0.069,0.049 0.06,0.06 0 0 1 10e-4,0.01 v 12.116 a 0.06,0.06 0 0 1 -0.06,0.06 0.06,0.06 0 0 1 -0.01,-0.001 l -5.93,-1.045 V 0 a 0.06,0.06 0 0 1 -0.06,0.06 0.06,0.06 0 0 1 -0.025,-0.006 l -2.926,-1.348 -26.116,-11.687 a 5.06,5.06 0 0 1 -2.993,-4.619 v -61.034 a 6.839,6.839 0 0 1 6.839,-6.839 6.839,6.839 0 0 1 4.835,2.003 6.839,6.839 0 0 1 2.003,4.836 z"
       inkscape:connector-curvature="0"
       style="fill:none;stroke:#ff0000;stroke-width:0.52916664;stroke-miterlimit:4;stroke-dasharray:none" />
    <path
       id="op_2D_Profile10-17-7"
       d="m 631.831,-13.94 v -3.97 l -3.645,4.01 m 3.645,-4.188 v -2.602 m -3.675,-0.029 2.307,4.152 m -4.567,1.169 -1.5,1.5 a 0.06,0.06 0 0 1 -0.085,0 0.06,0.06 0 0 1 -0.017,-0.042 v -6.75"
       inkscape:connector-curvature="0"
       style="fill:none;stroke:#0000ff;stroke-width:0.52916664;stroke-miterlimit:4;stroke-dasharray:none" />
  </g>
  <g
     id="Setup8"
     style="stroke-width:0.52916664;stroke-miterlimit:4;stroke-dasharray:none"
     transform="rotate(-90,117.98821,13.008825)">
    <path
       id="op_2D_Profile11-20-8"
       d="m 665.025,-13.411 a 1.44,1.44 0 0 0 -1.156,-1.677 1.44,1.44 0 0 0 -1.677,1.156 1.44,1.44 0 0 0 1.156,1.677 1.44,1.44 0 0 0 1.677,-1.156 z m 8.174,0.668 -4.762,-1.064 -1.065,4.762 19.401,4.338 1.065,-4.762 z m 53.441,-0.919 -17.408,4.082 1.114,4.751 19.355,-4.538 -1.114,-4.751 z m 4.446,-0.01 a 1.44,1.44 0 0 0 1.44,1.44 1.44,1.44 0 0 0 1.44,-1.44 1.44,1.44 0 0 0 -1.44,-1.44 1.44,1.44 0 0 0 -1.44,1.44 z m 5.272,-2.195 a 7.56,7.56 0 0 1 -0.062,5.958 7.56,7.56 0 0 1 -4.358,4.062 100.06,100.06 0 0 1 -67.741,0 7.56,7.56 0 0 1 -4.555,-9.673 7.56,7.56 0 0 1 3.893,-4.28 7.56,7.56 0 0 1 5.78,-0.274 84.94,84.94 0 0 0 57.505,0 7.56,7.56 0 0 1 9.538,4.207 z"
       inkscape:connector-curvature="0"
       style="fill:none;stroke:#ff0000;stroke-width:0.52916664;stroke-miterlimit:4;stroke-dasharray:none" />
    <path
       id="op_2D_Profile13-22-9"
       d="m 693.288,-10.046 v 4.125 l 1.446,-1.591 m -1.446,1.591 v 2.625 m 1.446,-4.216 2.304,-2.534 m 2.288,0 h 1.5 a 1.5,1.5 0 0 1 1.5,1.5 1.5,1.5 0 0 1 -1.493,1.5 1.5,1.5 0 0 1 1.493,1.5 v 0.75 a 1.5,1.5 0 0 1 -1.5,1.5 h -1.5 m 1.5,-3.75 h -0.75 m -3,3.75 -2.342,-4.216"
       inkscape:connector-curvature="0"
       style="fill:none;stroke:#0000ff;stroke-width:0.52916664;stroke-miterlimit:4;stroke-dasharray:none" />
  </g>
  <g
     id="Setup9"
     style="stroke-width:0.52916664;stroke-miterlimit:4;stroke-dasharray:none"
     transform="rotate(-90,206.90533,97.865348)">
    <path
       id="op_2D_Profile14-24-10"
       d="m 752.647,-13.411 a 1.44,1.44 0 0 0 -1.155,-1.677 1.44,1.44 0 0 0 -1.677,1.156 1.44,1.44 0 0 0 1.156,1.677 1.44,1.44 0 0 0 1.676,-1.156 z m 8.175,0.668 -4.763,-1.064 -1.064,4.762 19.4,4.338 1.065,-4.762 z m 53.441,-0.919 -17.408,4.082 1.114,4.751 19.355,-4.538 -1.114,-4.751 z m 4.446,-0.01 a 1.44,1.44 0 0 0 1.44,1.44 1.44,1.44 0 0 0 1.44,-1.44 1.44,1.44 0 0 0 -1.44,-1.44 1.44,1.44 0 0 0 -1.44,1.44 z m 5.271,-2.195 a 7.56,7.56 0 0 1 -0.062,5.958 7.56,7.56 0 0 1 -4.358,4.062 100.06,100.06 0 0 1 -67.74,0 7.56,7.56 0 0 1 -4.555,-9.673 7.56,7.56 0 0 1 3.893,-4.28 7.56,7.56 0 0 1 5.78,-0.274 84.94,84.94 0 0 0 57.504,0 7.56,7.56 0 0 1 9.538,4.207 z"
       inkscape:connector-curvature="0"
       style="fill:none;stroke:#ff0000;stroke-width:0.52916664;stroke-miterlimit:4;stroke-dasharray:none" />
    <path
       id="op_2D_Profile15-25-11"
       d="m 786.949,-10.106 h 1.5 a 1.56,1.56 0 0 1 1.56,1.56 1.56,1.56 0 0 1 -1.132,1.5 1.56,1.56 0 0 1 1.132,1.5 v 0.75 a 1.56,1.56 0 0 1 -1.56,1.56 h -1.5 m 1.506,-3.75 h -0.006 -0.75 m -3.053,3.719 -2.301,-4.142 m -0.018,-0.16 2.29,-2.518 m -3.646,4.189 v 2.602 m 0,-6.75 v 3.969 l 1.328,-1.46"
       inkscape:connector-curvature="0"
       style="fill:none;stroke:#0000ff;stroke-width:0.52916664;stroke-miterlimit:4;stroke-dasharray:none" />
  </g>
  <g
     id="Setup10"
     style="stroke-width:0.52916664;stroke-miterlimit:4;stroke-dasharray:none"
     transform="rotate(-180,462.63586,-245.14675)">
    <path
       id="op_2D_Profile16-27-12"
       d="m 838.875,-12.493 a 1.44,1.44 0 0 0 -1.44,-1.44 1.44,1.44 0 0 0 -1.44,1.44 1.44,1.44 0 0 0 1.44,1.44 1.44,1.44 0 0 0 1.44,-1.44 z m 2.682,-0.043 a 5.44,5.44 0 0 0 1.578,3.874 5.44,5.44 0 0 0 3.862,1.609 h 26 a 0.56,0.56 0 0 1 0.396,0.164 0.56,0.56 0 0 1 0.164,0.396 v 2.44 h 18.88 v -2.44 a 0.56,0.56 0 0 1 0.56,-0.56 h 26 a 5.44,5.44 0 0 0 5.44,-5.44 5.44,5.44 0 0 0 -2.196,-4.367 77.102,77.102 0 0 0 -78.466,-0.013 l -0.043,0.029 a 5.44,5.44 0 0 0 -2.175,4.308 z m 85.371,-0.218 a 1.44,1.44 0 0 0 1.156,1.677 1.44,1.44 0 0 0 1.677,-1.156 1.44,1.44 0 0 0 -1.156,-1.676 1.44,1.44 0 0 0 -1.677,1.155 z m -32.749,-18.097 19.231,4.509 1.114,-4.751 -19.355,-4.539 -1.115,4.752 z m -21.547,-0.265 -1.037,-4.637 -19.401,4.338 1.065,4.762 19.401,-4.338 z m -0.992,-8.77 a 100.06,100.06 0 0 1 44.708,5.125 23.641,23.641 0 0 1 15.723,23.053 12.553,12.553 0 0 1 -9.494,11.766 0.06,0.06 0 0 1 -0.015,0.002 h -75.565 a 12.553,12.553 0 0 1 -12.55,-12.272 23.641,23.641 0 0 1 15.961,-22.89 100.06,100.06 0 0 1 21.232,-4.784 z"
       inkscape:connector-curvature="0"
       style="fill:none;stroke:#ff0000;stroke-width:0.52916664;stroke-miterlimit:4;stroke-dasharray:none" />
    <path
       id="op_2D_Profile17-28-13"
       d="m 878.449,-36.781 v 4.125 l 1.446,-1.591 m -1.446,1.591 v 2.625 m 1.446,-4.216 2.304,-2.534 m 2.287,1.125 a 1.543,1.543 0 0 1 1.5,-1.125 1.495,1.495 0 0 1 1.502,1.488 1.495,1.495 0 0 1 -0.227,0.799 l -2.775,4.463 h 3 m -5.25,0 -2.341,-4.216"
       inkscape:connector-curvature="0"
       style="fill:none;stroke:#0000ff;stroke-width:0.52916664;stroke-miterlimit:4;stroke-dasharray:none" />
  </g>
  <g
     id="Setup11"
     style="stroke-width:0.52916664;stroke-miterlimit:4;stroke-dasharray:none"
     transform="rotate(-180,515.43516,-223.98347)">
    <path
       id="op_2D_Profile18-30-14"
       d="m 946.397,-12.493 a 1.44,1.44 0 0 0 -1.44,-1.44 1.44,1.44 0 0 0 -1.44,1.44 1.44,1.44 0 0 0 1.44,1.44 1.44,1.44 0 0 0 1.44,-1.44 z m 2.683,-0.043 a 5.44,5.44 0 0 0 1.578,3.874 5.44,5.44 0 0 0 3.862,1.609 h 26 a 0.56,0.56 0 0 1 0.395,0.164 0.56,0.56 0 0 1 0.164,0.396 v 2.44 h 18.88 v -2.44 a 0.56,0.56 0 0 1 0.56,-0.56 h 26.001 a 5.44,5.44 0 0 0 5.44,-5.44 5.44,5.44 0 0 0 -2.196,-4.367 77.102,77.102 0 0 0 -78.467,-0.013 l -0.043,0.029 a 5.44,5.44 0 0 0 -2.174,4.308 z m 85.371,-0.218 a 1.44,1.44 0 0 0 1.155,1.677 1.44,1.44 0 0 0 1.677,-1.156 1.44,1.44 0 0 0 -1.156,-1.676 1.44,1.44 0 0 0 -1.676,1.155 z m -32.75,-18.097 19.231,4.509 1.114,-4.751 -19.355,-4.539 -1.114,4.752 z m -21.546,-0.265 -1.038,-4.637 -19.4,4.338 1.064,4.762 19.401,-4.338 z m -0.993,-8.77 a 100.06,100.06 0 0 1 44.708,5.125 23.641,23.641 0 0 1 15.723,23.053 12.553,12.553 0 0 1 -9.493,11.766 0.06,0.06 0 0 1 -0.015,0.002 H 954.52 a 12.553,12.553 0 0 1 -12.55,-12.272 23.641,23.641 0 0 1 15.96,-22.89 100.06,100.06 0 0 1 21.232,-4.784 z"
       inkscape:connector-curvature="0"
       style="fill:none;stroke:#ff0000;stroke-width:0.52916664;stroke-miterlimit:4;stroke-dasharray:none" />
    <path
       id="op_2D_Profile19-31-15"
       d="m 985.971,-36.781 v 4.125 l 1.446,-1.591 m -1.446,1.591 v 2.625 m 1.446,-4.216 2.304,-2.534 m 2.288,1.125 a 1.543,1.543 0 0 1 1.5,-1.125 1.495,1.495 0 0 1 1.502,1.488 1.495,1.495 0 0 1 -0.227,0.799 l -2.775,4.463 h 3 m -5.25,0 -2.342,-4.216"
       inkscape:connector-curvature="0"
       style="fill:none;stroke:#0000ff;stroke-width:0.52916664;stroke-miterlimit:4;stroke-dasharray:none" />
  </g>
</svg>
