<?xml version="1.0" encoding="UTF-8" standalone="no"?>
<svg
   xmlns:dc="http://purl.org/dc/elements/1.1/"
   xmlns:cc="http://creativecommons.org/ns#"
   xmlns:rdf="http://www.w3.org/1999/02/22-rdf-syntax-ns#"
   xmlns:svg="http://www.w3.org/2000/svg"
   xmlns="http://www.w3.org/2000/svg"
   xmlns:sodipodi="http://sodipodi.sourceforge.net/DTD/sodipodi-0.dtd"
   xmlns:inkscape="http://www.inkscape.org/namespaces/inkscape"
   width="629.3599996566769mm"
   height="630.0599994659424mm"
   viewBox="-10 -610 629.3599996566769 630.0599994659424"
   version="1.1"
   id="svg13"
   sodipodi:docname="CAM-preklizka-3mm-baterry-v2.svg"
   inkscape:version="0.92.4 (5da689c313, 2019-01-14)">
  <metadata
     id="metadata19">
    <rdf:RDF>
      <cc:Work
         rdf:about="">
        <dc:format>image/svg+xml</dc:format>
        <dc:type
           rdf:resource="http://purl.org/dc/dcmitype/StillImage" />
        <dc:title></dc:title>
      </cc:Work>
    </rdf:RDF>
  </metadata>
  <defs
     id="defs17" />
  <sodipodi:namedview
     pagecolor="#ffffff"
     bordercolor="#666666"
     borderopacity="1"
     objecttolerance="10"
     gridtolerance="10"
     guidetolerance="10"
     inkscape:pageopacity="0"
     inkscape:pageshadow="2"
     inkscape:window-width="1920"
     inkscape:window-height="1017"
     id="namedview15"
     showgrid="false"
     inkscape:zoom="1.1212374"
     inkscape:cx="1864.6263"
     inkscape:cy="214.41184"
     inkscape:window-x="-8"
     inkscape:window-y="-8"
     inkscape:window-maximized="1"
     inkscape:current-layer="svg13" />
  <polyline
     points="0,0 425,0 425,-600 0,-600 0,0"
     stroke="rgb(0,0,0)"
     stroke-width="0.1"
     fill="none"
     id="polyline2" />
  <g
     id="Setup15">
    <path
       id="op_2D_Profile25-41-0"
       d="M 527.225,-9.315 A 1.315,1.315 0 0 0 525.91,-8 1.315,1.315 0 0 0 527.225,-6.685 1.315,1.315 0 0 0 528.54,-8 1.315,1.315 0 0 0 527.225,-9.315 Z m 0,-5 a 1.315,1.315 0 0 0 -1.315,1.315 1.315,1.315 0 0 0 1.315,1.315 1.315,1.315 0 0 0 1.315,-1.315 1.315,1.315 0 0 0 -1.315,-1.315 z m 0,-12 a 1.315,1.315 0 0 0 -1.315,1.315 1.315,1.315 0 0 0 1.315,1.315 1.315,1.315 0 0 0 1.315,-1.315 1.315,1.315 0 0 0 -1.315,-1.315 z m -0.953,-2.779 a 1.315,1.315 0 0 0 1.859,0.047 1.315,1.315 0 0 0 0.047,-1.859 1.315,1.315 0 0 0 -1.859,-0.047 1.315,1.315 0 0 0 -0.047,1.859 z m -31.832,8.214 v -2.26 h -5.88 v 2.38 h 5.88 z m -5.88,3.76 v 2.26 h 5.88 v -2.38 h -5.88 z m -25.553,2.999 v 0.295 a 4.44,4.44 0 0 0 4.44,4.44 4.44,4.44 0 0 0 4.44,-4.44 v -10.295 a 4.44,4.44 0 0 0 -4.44,-4.44 4.44,4.44 0 0 0 -4.44,4.44 z m -12.226,2.074 a 1.315,1.315 0 0 0 0.047,-1.859 1.315,1.315 0 0 0 -1.859,-0.047 1.315,1.315 0 0 0 -0.047,1.859 1.315,1.315 0 0 0 1.859,0.047 z m -0.84,2.734 a 1.315,1.315 0 0 0 -1.379,1.247 1.315,1.315 0 0 0 1.247,1.379 1.315,1.315 0 0 0 1.379,-1.247 1.315,1.315 0 0 0 -1.247,-1.379 z m -0.066,-17.002 a 1.315,1.315 0 0 0 -1.315,1.315 1.315,1.315 0 0 0 1.315,1.315 1.315,1.315 0 0 0 1.315,-1.315 1.315,1.315 0 0 0 -1.315,-1.315 z m 0,-2.37 a 1.315,1.315 0 0 0 1.315,-1.315 1.315,1.315 0 0 0 -1.315,-1.315 1.315,1.315 0 0 0 -1.315,1.315 1.315,1.315 0 0 0 1.315,1.315 z M 447.94,-32.18 V -38 a 0.06,0.06 0 0 1 0.06,-0.06 h 81.1 a 0.06,0.06 0 0 1 0.06,0.06 v 5.94 h 2.94 a 0.06,0.06 0 0 1 0.06,0.06 v 10.1 a 0.06,0.06 0 0 1 -0.06,0.06 h -2.94 v 5.68 h 2.94 a 0.06,0.06 0 0 1 0.06,0.06 V -6 a 0.06,0.06 0 0 1 -0.06,0.06 h -2.94 V 0 A 0.06,0.06 0 0 1 529.1,0.06 H 448 A 0.06,0.06 0 0 1 447.94,0 V -5.94 H 445 A 0.06,0.06 0 0 1 444.94,-6 v -10.1 a 0.06,0.06 0 0 1 0.06,-0.06 h 2.94 v -5.68 H 445 a 0.06,0.06 0 0 1 -0.06,-0.06 V -32 a 0.06,0.06 0 0 1 0.06,-0.06 h 2.94 z"
       inkscape:connector-curvature="0"
       style="fill:none;stroke:#ff0000;stroke-width:0.1" />
    <path
       id="op_2D_Profile26-42-1"
       d="m 508.258,-6.201 h 1.875 M 512,-4.504 a 1.875,1.875 0 0 1 -0.48,1.439 1.875,1.875 0 0 1 -1.387,0.614 h -1.875 v -6.75 h 1.875 a 1.5,1.5 0 0 1 1.5,1.5 1.5,1.5 0 0 1 -1.493,1.5 1.875,1.875 0 0 1 1.86,1.697 z m 2.258,2.053 2.25,-6.75 2.25,6.75 m -3.844,-1.875 h 3.188 m 2.906,-3.375 1.5,-1.5 v 6.75"
       inkscape:connector-curvature="0"
       style="fill:none;stroke:#0000ff;stroke-width:0.1" />
  </g>
  <g
     id="Setup16">
    <path
       id="op_2D_Profile27-44-2"
       d="m 553.86,-34.07 v 30.26 h 1.48 v -30.38 h -1.48 z m 0,-3.99 h 2.84 a 9.06,9.06 0 0 1 9.06,9.06 V -9 A 9.06,9.06 0 0 1 556.7,0.06 H 542.1 A 0.06,0.06 0 0 1 542.04,0 v -5.8 a 0.06,0.06 0 0 1 0.06,-0.06 h 4.54 v -10.18 h -4.54 a 0.06,0.06 0 0 1 -0.06,-0.06 v -5.8 a 0.06,0.06 0 0 1 0.06,-0.06 h 4.54 v -10.18 h -4.54 a 0.06,0.06 0 0 1 -0.06,-0.06 V -38 a 0.06,0.06 0 0 1 0.06,-0.06 z"
       inkscape:connector-curvature="0"
       style="fill:none;stroke:#ff0000;stroke-width:0.1" />
    <path
       id="op_2D_Profile28-45-3"
       d="m 560.581,-27.138 v 1.875 m -1.697,1.867 a 1.875,1.875 0 0 1 -0.178,0.008 1.875,1.875 0 0 1 -1.875,-1.875 v -1.875 h 6.75 v 1.875 a 1.5,1.5 0 0 1 -1.5,1.5 1.5,1.5 0 0 1 -1.5,-1.493 v 0.001 a 1.875,1.875 0 0 1 -1.697,1.859 z m -2.053,2.258 6.75,2.25 -6.75,2.25 m 1.875,-3.843 v 3.187 m 3.75,2.906 a 1.543,1.543 0 0 1 1.125,1.5 1.495,1.495 0 0 1 -1.489,1.502 1.495,1.495 0 0 1 -0.799,-0.227 l -4.462,-2.775 v 3"
       inkscape:connector-curvature="0"
       style="fill:none;stroke:#0000ff;stroke-width:0.1" />
  </g>
  <g
     id="Setup18">
    <path
       id="op_2D_Profile31-50-4"
       d="m 587.46,-34.07 v 30.26 h 1.48 v -30.38 h -1.48 z m 0,-3.99 h 2.84 a 9.06,9.06 0 0 1 9.06,9.06 V -9 A 9.06,9.06 0 0 1 590.3,0.06 H 575.7 A 0.06,0.06 0 0 1 575.64,0 v -5.8 a 0.06,0.06 0 0 1 0.06,-0.06 h 4.54 v -10.18 h -4.54 a 0.06,0.06 0 0 1 -0.06,-0.06 v -5.8 a 0.06,0.06 0 0 1 0.06,-0.06 h 4.54 v -10.18 h -4.54 a 0.06,0.06 0 0 1 -0.06,-0.06 V -38 a 0.06,0.06 0 0 1 0.06,-0.06 z"
       inkscape:connector-curvature="0"
       style="fill:none;stroke:#ff0000;stroke-width:0.1" />
    <path
       id="op_2D_Profile32-51-5"
       d="m 594.181,-27.138 v 1.875 m -1.697,1.867 a 1.875,1.875 0 0 1 -0.178,0.008 1.875,1.875 0 0 1 -1.875,-1.875 v -1.875 h 6.75 v 1.875 a 1.5,1.5 0 0 1 -1.5,1.5 1.5,1.5 0 0 1 -1.5,-1.493 v 0.001 a 1.875,1.875 0 0 1 -1.697,1.859 z m -2.053,2.258 6.75,2.25 -6.75,2.25 m 1.875,-3.843 v 3.187 m 3.75,2.906 a 1.543,1.543 0 0 1 1.125,1.5 1.495,1.495 0 0 1 -1.489,1.502 1.495,1.495 0 0 1 -0.799,-0.227 l -4.462,-2.775 v 3"
       inkscape:connector-curvature="0"
       style="fill:none;stroke:#0000ff;stroke-width:0.1" />
  </g>
</svg>
