<?xml version="1.0" encoding="UTF-8" standalone="no"?>
<svg xmlns="http://www.w3.org/2000/svg" width="674.9308090209961mm" height="630mm" viewBox="-10 -610 674.9308090209961 630">
    <polyline points="0,0 425,0 425,-600 0,-600 0,0"  stroke="rgb(0,0,0)" stroke-width="0.1" fill="none"/>
    <g id="Setup2">
        <path id="op_2D_Profile2-5-0" fill="none" stroke="rgb(255,0,0)" stroke-width="0.1" d=" M490.66 -113.94 L490.66 -110.06 L493.34 -110.06 L493.34 -119.94 L490.66 -119.94 L490.66 -113.94 z M485.04 -114.24 L476.16 -114.24 L476.16 -111.56 L486.04 -111.56 L486.04 -114.24 L485.04 -114.24 z M468.74 -110 L468.74 -115A 0.06 0.06 0 0 1 468.8 -115.06 L471.54 -115.06 L471.54 -124.94 L468.8 -124.94A 0.06 0.06 0 0 1 468.74 -125 L468.74 -129.94 L456.86 -129.94 L456.86 -125A 0.06 0.06 0 0 1 456.8 -124.94 L454.06 -124.94 L454.06 -115.06 L456.8 -115.06A 0.06 0.06 0 0 1 456.86 -115 L456.86 -85A 0.06 0.06 0 0 1 456.8 -84.94 L454.06 -84.94 L454.06 -75.06 L456.8 -75.06A 0.06 0.06 0 0 1 456.86 -75 L456.86 -70.06 L468.74 -70.06 L468.74 -75A 0.06 0.06 0 0 1 468.8 -75.06 L471.54 -75.06 L471.54 -84.94 L468.8 -84.94A 0.06 0.06 0 0 1 468.74 -85 L468.74 -110 z M450.24 -95.18 L450.24 -104.94 L447.56 -104.94 L447.56 -95.06 L450.24 -95.06 L450.24 -95.18 z M457.366 -63.281 L455.066 -62.173 L459.353 -53.272 L461.768 -54.434 L457.481 -63.336 L457.366 -63.281 z M471.54 -47.06 L471.54 -54.94 L468.86 -54.94 L468.86 -45.06 L471.54 -45.06 L471.54 -47.06 z M477.17 -41.092A 1.24 1.24 0 0 0 477.133 -42.845A 1.24 1.24 0 0 0 475.38 -42.808A 1.24 1.24 0 0 0 475.417 -41.055A 1.24 1.24 0 0 0 477.17 -41.092 z M478.544 -37.225A 2.69 2.69 0 0 0 481 -34.319A 2.69 2.69 0 0 0 483.906 -36.775A 2.69 2.69 0 0 0 481.45 -39.681A 2.69 2.69 0 0 0 478.544 -37.225 z M477.515 -32.05A 1.24 1.24 0 0 0 476.275 -33.29A 1.24 1.24 0 0 0 475.035 -32.05A 1.24 1.24 0 0 0 476.275 -30.81A 1.24 1.24 0 0 0 477.515 -32.05 z M478.849 -31.388 L477.258 -29.392 L491.237 -18.244 L492.908 -20.34 L478.929 -31.488 L478.849 -31.388 z M487.07 -31.192A 1.24 1.24 0 0 0 487.033 -32.945A 1.24 1.24 0 0 0 485.28 -32.908A 1.24 1.24 0 0 0 485.317 -31.155A 1.24 1.24 0 0 0 487.07 -31.192 z M490.66 -35.94 L490.66 -30.06 L493.34 -30.06 L493.34 -39.94 L490.66 -39.94 L490.66 -35.94 z M487.07 -41.092A 1.24 1.24 0 0 0 487.033 -42.845A 1.24 1.24 0 0 0 485.28 -42.808A 1.24 1.24 0 0 0 485.317 -41.055A 1.24 1.24 0 0 0 487.07 -41.092 z M514.63 -34.66 L534.39 -34.66 L534.39 -38.94 L514.51 -38.94 L514.51 -34.66 L514.63 -34.66 z M511.648 -14.593A 1.44 1.44 0 0 0 509.62 -14.778A 1.44 1.44 0 0 0 509.435 -12.75A 1.44 1.44 0 0 0 511.463 -12.565A 1.44 1.44 0 0 0 511.648 -14.593 z M555.73 -34.66 L575.49 -34.66 L575.49 -38.94 L555.61 -38.94 L555.61 -34.66 L555.73 -34.66 z M579.719 -15.088A 1.44 1.44 0 0 0 578.043 -13.932A 1.44 1.44 0 0 0 579.198 -12.255A 1.44 1.44 0 0 0 580.875 -13.411A 1.44 1.44 0 0 0 579.719 -15.088 z M611.495 -30.956 L611.071 -31.488 L597.092 -20.34 L598.763 -18.244 L612.742 -29.392 L611.495 -30.956 z M612.435 -32.05A 1.24 1.24 0 0 0 613.675 -30.81A 1.24 1.24 0 0 0 614.915 -32.05A 1.24 1.24 0 0 0 613.675 -33.29A 1.24 1.24 0 0 0 612.435 -32.05 z M608.5 -34.319A 2.69 2.69 0 0 0 611.406 -36.775A 2.69 2.69 0 0 0 608.95 -39.681A 2.69 2.69 0 0 0 606.044 -37.225A 2.69 2.69 0 0 0 608.5 -34.319 z M603.775 -33.29A 1.24 1.24 0 0 0 602.535 -32.05A 1.24 1.24 0 0 0 603.775 -30.81A 1.24 1.24 0 0 0 605.015 -32.05A 1.24 1.24 0 0 0 603.775 -33.29 z M599.34 -38.06 L599.34 -39.94 L596.66 -39.94 L596.66 -30.06 L599.34 -30.06 L599.34 -38.06 z M603.775 -40.71A 1.24 1.24 0 0 0 605.015 -41.95A 1.24 1.24 0 0 0 603.775 -43.19A 1.24 1.24 0 0 0 602.535 -41.95A 1.24 1.24 0 0 0 603.775 -40.71 z M613.675 -43.19A 1.24 1.24 0 0 0 612.435 -41.95A 1.24 1.24 0 0 0 613.675 -40.71A 1.24 1.24 0 0 0 614.915 -41.95A 1.24 1.24 0 0 0 613.675 -43.19 z M618.46 -46.94 L618.46 -45.06 L621.14 -45.06 L621.14 -54.94 L618.46 -54.94 L618.46 -46.94 z M628.614 -55.227 L628.232 -54.434 L630.647 -53.272 L634.934 -62.173 L632.519 -63.336 L628.614 -55.227 z M621.2 -84.94 L618.46 -84.94 L618.46 -75.06 L621.2 -75.06A 0.06 0.06 0 0 1 621.26 -75 L621.26 -70.06 L633.14 -70.06 L633.14 -75A 0.06 0.06 0 0 1 633.2 -75.06 L635.94 -75.06 L635.94 -84.94 L633.2 -84.94A 0.06 0.06 0 0 1 633.14 -85 L633.14 -115A 0.06 0.06 0 0 1 633.2 -115.06 L635.94 -115.06 L635.94 -124.94 L633.2 -124.94A 0.06 0.06 0 0 1 633.14 -125 L633.14 -129.94 L621.26 -129.94 L621.26 -125A 0.06 0.06 0 0 1 621.2 -124.94 L618.46 -124.94 L618.46 -115.06 L621.2 -115.06A 0.06 0.06 0 0 1 621.26 -115 L621.26 -85A 0.06 0.06 0 0 1 621.2 -84.94 z M604.08 -111.56 L613.84 -111.56 L613.84 -114.24 L603.96 -114.24 L603.96 -111.56 L604.08 -111.56 z M599.34 -110.18 L599.34 -119.94 L596.66 -119.94 L596.66 -110.06 L599.34 -110.06 L599.34 -110.18 z M599.22 -89.94 L596.66 -89.94 L596.66 -80.06 L599.34 -80.06 L599.34 -89.94 L599.22 -89.94 z M605.015 -158.05A 1.24 1.24 0 0 0 603.775 -159.29A 1.24 1.24 0 0 0 602.535 -158.05A 1.24 1.24 0 0 0 603.775 -156.81A 1.24 1.24 0 0 0 605.015 -158.05 z M608.725 -160.31A 2.69 2.69 0 0 0 611.415 -163A 2.69 2.69 0 0 0 608.725 -165.69A 2.69 2.69 0 0 0 606.035 -163A 2.69 2.69 0 0 0 608.725 -160.31 z M614.57 -157.192A 1.24 1.24 0 0 0 614.533 -158.945A 1.24 1.24 0 0 0 612.78 -158.908A 1.24 1.24 0 0 0 612.817 -157.155A 1.24 1.24 0 0 0 614.57 -157.192 z M618.46 -153.94 L618.46 -142.26 L621.14 -142.26 L621.14 -154.94 L618.46 -154.94 L618.46 -153.94 z M628.284 -145.457 L632.519 -136.664 L634.934 -137.827 L630.647 -146.728 L628.232 -145.566 L628.284 -145.457 z M612.817 -167.055A 1.24 1.24 0 0 0 614.57 -167.092A 1.24 1.24 0 0 0 614.533 -168.845A 1.24 1.24 0 0 0 612.78 -168.808A 1.24 1.24 0 0 0 612.817 -167.055 z M608.019 -171.1 L609.615 -173.102 L601.891 -179.262 L600.22 -177.166 L607.944 -171.006 L608.019 -171.1 z M603.775 -169.19A 1.24 1.24 0 0 0 602.535 -167.95A 1.24 1.24 0 0 0 603.775 -166.71A 1.24 1.24 0 0 0 605.015 -167.95A 1.24 1.24 0 0 0 603.775 -169.19 z M599.22 -169.94 L596.66 -169.94 L596.66 -157.26 L599.34 -157.26 L599.34 -169.94 L599.22 -169.94 z M589.348 -171.111A 1.44 1.44 0 0 0 591.376 -170.926A 1.44 1.44 0 0 0 591.561 -172.954A 1.44 1.44 0 0 0 589.533 -173.139A 1.44 1.44 0 0 0 589.348 -171.111 z M581.703 -172.885A 1.04 1.04 0 0 0 580.255 -172.628A 1.04 1.04 0 0 0 580.512 -171.18A 1.04 1.04 0 0 0 581.96 -171.437A 1.04 1.04 0 0 0 581.703 -172.885 z M569.069 -191.703 L570.902 -191.285 L571.499 -193.898 L561.866 -196.096 L561.27 -193.483 L569.069 -191.703 z M551.5 -185.208 L537.5 -185.208A 3.94 3.94 0 0 0 533.56 -181.268A 3.94 3.94 0 0 0 537.5 -177.328 L552.5 -177.328A 3.94 3.94 0 0 0 556.44 -181.268A 3.94 3.94 0 0 0 552.5 -185.208 L551.5 -185.208 z M528.702 -193.608 L528.134 -196.096 L518.501 -193.898 L519.098 -191.285 L528.73 -193.483 L528.702 -193.608 z M509.108 -173.073A 1.04 1.04 0 0 0 508.068 -172.033A 1.04 1.04 0 0 0 509.108 -170.993A 1.04 1.04 0 0 0 510.148 -172.033A 1.04 1.04 0 0 0 509.108 -173.073 z M498.439 -171.111A 1.44 1.44 0 0 0 500.467 -170.926A 1.44 1.44 0 0 0 500.652 -172.954A 1.44 1.44 0 0 0 498.624 -173.139A 1.44 1.44 0 0 0 498.439 -171.111 z M493.22 -169.94 L490.66 -169.94 L490.66 -157.26 L493.34 -157.26 L493.34 -169.94 L493.22 -169.94 z M487.07 -167.092A 1.24 1.24 0 0 0 487.033 -168.845A 1.24 1.24 0 0 0 485.28 -168.808A 1.24 1.24 0 0 0 485.317 -167.055A 1.24 1.24 0 0 0 487.07 -167.092 z M483.731 -163.977A 2.69 2.69 0 0 0 480.248 -165.506A 2.69 2.69 0 0 0 478.719 -162.023A 2.69 2.69 0 0 0 482.202 -160.494A 2.69 2.69 0 0 0 483.731 -163.977 z M477.133 -158.945A 1.24 1.24 0 0 0 475.38 -158.908A 1.24 1.24 0 0 0 475.417 -157.155A 1.24 1.24 0 0 0 477.17 -157.192A 1.24 1.24 0 0 0 477.133 -158.945 z M471.54 -154.26 L471.54 -154.94 L468.86 -154.94 L468.86 -142.26 L471.54 -142.26 L471.54 -154.26 z M461.659 -145.618 L459.353 -146.728 L455.066 -137.827 L457.481 -136.664 L461.768 -145.566 L461.659 -145.618 z M477.17 -167.092A 1.24 1.24 0 0 0 477.133 -168.845A 1.24 1.24 0 0 0 475.38 -168.808A 1.24 1.24 0 0 0 475.417 -167.055A 1.24 1.24 0 0 0 477.17 -167.092 z M482.15 -171.081 L489.78 -177.166 L488.109 -179.262 L480.385 -173.102 L482.056 -171.006 L482.15 -171.081 z M484.935 -158.05A 1.24 1.24 0 0 0 486.175 -156.81A 1.24 1.24 0 0 0 487.415 -158.05A 1.24 1.24 0 0 0 486.175 -159.29A 1.24 1.24 0 0 0 484.935 -158.05 z M493.22 -89.94 L490.66 -89.94 L490.66 -80.06 L493.34 -80.06 L493.34 -89.94 L493.22 -89.94 z M639.76 -95.18 L639.76 -95.06 L642.44 -95.06 L642.44 -104.94 L639.76 -104.94 L639.76 -95.18 z M644.931 -94.917A 100.06 100.06 0 0 1 539.917 -0.069A 100.06 100.06 0 0 1 445.069 -105.083A 100.06 100.06 0 0 1 550.083 -199.931A 100.06 100.06 0 0 1 644.931 -94.917 z"/>
        <path id="op_2D_Profile3-6-1" fill="none" stroke="rgb(0,0,255)" stroke-width="0.1" d=" M545.921 -101.885 L547.421 -103.385A 0.06 0.06 0 0 1 547.506 -103.385A 0.06 0.06 0 0 1 547.524 -103.342 L547.524 -96.592 M543.654 -97.952A 2.122 2.122 0 0 1 541.651 -96.533 L539.964 -96.533A 0.06 0.06 0 0 1 539.904 -96.592 L539.904 -103.342A 0.06 0.06 0 0 1 539.964 -103.402 L541.651 -103.402A 2.123 2.123 0 0 1 543.774 -101.28 L543.774 -98.655A 2.123 2.123 0 0 1 543.654 -97.952 z"/>
    </g>
</svg>

