<?xml version="1.0" encoding="UTF-8" standalone="no"?>
<svg xmlns="http://www.w3.org/2000/svg" width="1901.07124755918mm" height="636.0461158752441mm" viewBox="-10 -610 1901.07124755918 636.0461158752441">
    <polyline points="0,0 425,0 425,-600 0,-600 0,0"  stroke="rgb(0,0,0)" stroke-width="0.1" fill="none"/>
    <g id="paluba">
        <path id="op_2D_Profile1-3-0" fill="none" stroke="rgb(255,0,0)" stroke-width="0.1" d=" M491.131 -149.94 L490.66 -149.94 L490.66 -137.26 L493.34 -137.26 L493.34 -149.94 L491.131 -149.94 z M481.275 -160.81A 2.19 2.19 0 0 0 483.465 -163A 2.19 2.19 0 0 0 481.275 -165.19A 2.19 2.19 0 0 0 479.085 -163A 2.19 2.19 0 0 0 481.275 -160.81 z M471.069 -137.26 L471.54 -137.26 L471.54 -149.94 L468.86 -149.94 L468.86 -137.26 L471.069 -137.26 z M468.262 -70.06 L468.74 -70.06 L468.74 -129.94 L456.86 -129.94 L456.86 -70.06 L468.262 -70.06 z M471.54 -59.222 L471.54 -59.82 L471.54 -59.94 L468.86 -59.94 L468.86 -50.06 L471.54 -50.06 L471.54 -59.222 z M481.712 -39.146A 2.19 2.19 0 0 0 479.129 -37.437A 2.19 2.19 0 0 0 480.838 -34.854A 2.19 2.19 0 0 0 483.421 -36.563A 2.19 2.19 0 0 0 481.712 -39.146 z M492.862 -50.06 L493.34 -50.06 L493.34 -59.94 L490.66 -59.94 L490.66 -50.06 L492.862 -50.06 z M534.39 -39.461 L534.39 -39.94 L514.51 -39.94 L514.51 -34.66 L534.39 -34.66 L534.39 -39.461 z M556.089 -39.94 L555.61 -39.94 L555.61 -34.66 L575.49 -34.66 L575.49 -39.94 L556.089 -39.94 z M596.66 -50.538 L596.66 -50.06 L599.34 -50.06 L599.34 -59.94 L596.66 -59.94 L596.66 -50.538 z M608.725 -39.19A 2.19 2.19 0 0 0 606.535 -37A 2.19 2.19 0 0 0 608.725 -34.81A 2.19 2.19 0 0 0 610.915 -37A 2.19 2.19 0 0 0 608.725 -39.19 z M618.938 -59.94 L618.46 -59.94 L618.46 -50.06 L621.14 -50.06 L621.14 -59.94 L618.938 -59.94 z M621.738 -129.94 L621.26 -129.94 L621.26 -70.06 L633.14 -70.06 L633.14 -129.94 L621.738 -129.94 z M618.46 -137.971 L618.46 -137.38 L618.46 -137.26 L621.14 -137.26 L621.14 -149.94 L618.46 -149.94 L618.46 -137.971 z M608.288 -160.854A 2.19 2.19 0 0 0 610.871 -162.563A 2.19 2.19 0 0 0 609.162 -165.146A 2.19 2.19 0 0 0 606.579 -163.437A 2.19 2.19 0 0 0 608.288 -160.854 z M599.34 -149.469 L599.34 -149.94 L596.66 -149.94 L596.66 -137.26 L599.34 -137.26 L599.34 -149.469 z M618.598 -167.789A 100.06 100.06 0 0 1 612.789 -26.402A 100.06 100.06 0 0 1 471.402 -32.211A 100.06 100.06 0 0 1 477.211 -173.598A 100.06 100.06 0 0 1 618.598 -167.789 z"/>
        <path id="op_2D_Profile2-4-1" fill="none" stroke="rgb(0,0,255)" stroke-width="0.1" d=" M475.01 -140.01 L475.01 -143.01 L475.01 -146.76 L476.885 -146.76A 1.875 1.875 0 0 1 478.76 -144.885A 1.875 1.875 0 0 1 476.885 -143.01 L475.01 -143.01 M481.01 -145.26 L482.51 -146.76 L482.51 -140.01"/>
    </g>
    <g id="dno">
        <path id="op_2D_Profile3-6-2" fill="none" stroke="rgb(255,0,0)" stroke-width="0.1" d=" M808.862 -80.06 L809.34 -80.06 L809.34 -89.94 L806.66 -89.94 L806.66 -80.06 L808.862 -80.06 z M831.26 -104 L831.26 -85A 0.06 0.06 0 0 1 831.2 -84.94 L828.46 -84.94 L828.46 -75.06 L831.2 -75.06A 0.06 0.06 0 0 1 831.26 -75 L831.26 -70.06 L843.14 -70.06 L843.14 -75A 0.06 0.06 0 0 1 843.2 -75.06 L845.94 -75.06 L845.94 -84.94 L843.2 -84.94A 0.06 0.06 0 0 1 843.14 -85 L843.14 -115A 0.06 0.06 0 0 1 843.2 -115.06 L845.94 -115.06 L845.94 -124.94 L843.2 -124.94A 0.06 0.06 0 0 1 843.14 -125 L843.14 -129.94 L831.26 -129.94 L831.26 -125A 0.06 0.06 0 0 1 831.2 -124.94 L828.46 -124.94 L828.46 -115.06 L831.2 -115.06A 0.06 0.06 0 0 1 831.26 -115 L831.26 -104 z M813.96 -112.038 L813.96 -111.56 L823.84 -111.56 L823.84 -114.24 L813.96 -114.24 L813.96 -112.038 z M809.34 -118.06 L809.34 -119.94 L806.66 -119.94 L806.66 -110.06 L809.34 -110.06 L809.34 -118.06 z M828.46 -150.94 L828.46 -142.26 L831.14 -142.26 L831.14 -154.94 L828.46 -154.94 L828.46 -150.94 z M823.735 -156.75A 1.24 1.24 0 0 0 824.975 -155.51A 1.24 1.24 0 0 0 826.215 -156.75A 1.24 1.24 0 0 0 824.975 -157.99A 1.24 1.24 0 0 0 823.735 -156.75 z M816.904 -164.98A 2.69 2.69 0 0 0 816.745 -161.179A 2.69 2.69 0 0 0 820.546 -161.02A 2.69 2.69 0 0 0 820.705 -164.821A 2.69 2.69 0 0 0 816.904 -164.98 z M812.475 -168.01A 1.24 1.24 0 0 0 813.715 -169.25A 1.24 1.24 0 0 0 812.475 -170.49A 1.24 1.24 0 0 0 811.235 -169.25A 1.24 1.24 0 0 0 812.475 -168.01 z M809.34 -162.26 L809.34 -169.94 L806.66 -169.94 L806.66 -157.26 L809.34 -157.26 L809.34 -162.26 z M812.475 -157.99A 1.24 1.24 0 0 0 811.235 -156.75A 1.24 1.24 0 0 0 812.475 -155.51A 1.24 1.24 0 0 0 813.715 -156.75A 1.24 1.24 0 0 0 812.475 -157.99 z M817.57 -171.304 L817.944 -171.006 L819.615 -173.102 L811.891 -179.262 L810.22 -177.166 L817.57 -171.304 z M824.117 -168.355A 1.24 1.24 0 0 0 825.87 -168.392A 1.24 1.24 0 0 0 825.833 -170.145A 1.24 1.24 0 0 0 824.08 -170.108A 1.24 1.24 0 0 0 824.117 -168.355 z M838.663 -145.773 L838.232 -145.566 L842.519 -136.664 L844.934 -137.827 L840.647 -146.728 L838.663 -145.773 z M849.76 -95.778 L849.76 -95.18 L849.76 -95.06 L852.44 -95.06 L852.44 -104.94 L849.76 -104.94 L849.76 -95.778 z M842.943 -63.132 L842.519 -63.336 L838.232 -54.434 L840.647 -53.272 L844.934 -62.173 L842.943 -63.132 z M831.14 -50.06 L831.14 -54.94 L828.46 -54.94 L828.46 -45.06 L831.14 -45.06 L831.14 -50.06 z M824.117 -42.355A 1.24 1.24 0 0 0 825.87 -42.392A 1.24 1.24 0 0 0 825.833 -44.145A 1.24 1.24 0 0 0 824.08 -44.108A 1.24 1.24 0 0 0 824.117 -42.355 z M821.406 -36.775A 2.69 2.69 0 0 0 818.95 -39.681A 2.69 2.69 0 0 0 816.044 -37.225A 2.69 2.69 0 0 0 818.5 -34.319A 2.69 2.69 0 0 0 821.406 -36.775 z M821.364 -31.121 L821.071 -31.488 L807.092 -20.34 L808.763 -18.244 L822.742 -29.392 L821.364 -31.121 z M823.735 -30.75A 1.24 1.24 0 0 0 824.975 -29.51A 1.24 1.24 0 0 0 826.215 -30.75A 1.24 1.24 0 0 0 824.975 -31.99A 1.24 1.24 0 0 0 823.735 -30.75 z M811.235 -30.75A 1.24 1.24 0 0 0 812.475 -29.51A 1.24 1.24 0 0 0 813.715 -30.75A 1.24 1.24 0 0 0 812.475 -31.99A 1.24 1.24 0 0 0 811.235 -30.75 z M809.34 -35.06 L809.34 -39.94 L806.66 -39.94 L806.66 -30.06 L809.34 -30.06 L809.34 -35.06 z M811.617 -42.355A 1.24 1.24 0 0 0 813.37 -42.392A 1.24 1.24 0 0 0 813.333 -44.145A 1.24 1.24 0 0 0 811.58 -44.108A 1.24 1.24 0 0 0 811.617 -42.355 z M766.087 -38.94 L765.61 -38.94 L765.61 -34.66 L785.49 -34.66 L785.49 -38.94 L766.087 -38.94 z M724.987 -38.94 L724.51 -38.94 L724.51 -34.66 L744.39 -34.66 L744.39 -38.94 L724.987 -38.94 z M700.66 -31.94 L700.66 -30.06 L703.34 -30.06 L703.34 -39.94 L700.66 -39.94 L700.66 -31.94 z M698.37 -29.892A 1.24 1.24 0 0 0 698.333 -31.645A 1.24 1.24 0 0 0 696.58 -31.608A 1.24 1.24 0 0 0 696.617 -29.855A 1.24 1.24 0 0 0 698.37 -29.892 z M690.398 -30.316 L688.929 -31.488 L687.258 -29.392 L701.237 -18.244 L702.908 -20.34 L690.398 -30.316 z M686.215 -30.75A 1.24 1.24 0 0 0 684.975 -31.99A 1.24 1.24 0 0 0 683.735 -30.75A 1.24 1.24 0 0 0 684.975 -29.51A 1.24 1.24 0 0 0 686.215 -30.75 z M693.205 -38.821A 2.69 2.69 0 0 0 689.404 -38.98A 2.69 2.69 0 0 0 689.245 -35.179A 2.69 2.69 0 0 0 693.046 -35.02A 2.69 2.69 0 0 0 693.205 -38.821 z M696.617 -42.355A 1.24 1.24 0 0 0 698.37 -42.392A 1.24 1.24 0 0 0 698.333 -44.145A 1.24 1.24 0 0 0 696.58 -44.108A 1.24 1.24 0 0 0 696.617 -42.355 z M684.975 -44.49A 1.24 1.24 0 0 0 683.735 -43.25A 1.24 1.24 0 0 0 684.975 -42.01A 1.24 1.24 0 0 0 686.215 -43.25A 1.24 1.24 0 0 0 684.975 -44.49 z M681.54 -47.06 L681.54 -54.94 L678.86 -54.94 L678.86 -45.06 L681.54 -45.06 L681.54 -47.06 z M671.334 -55.335 L667.481 -63.336 L665.066 -62.173 L669.353 -53.272 L671.768 -54.434 L671.334 -55.335 z M678.8 -84.94A 0.06 0.06 0 0 1 678.74 -85 L678.74 -115A 0.06 0.06 0 0 1 678.8 -115.06 L681.54 -115.06 L681.54 -124.94 L678.8 -124.94A 0.06 0.06 0 0 1 678.74 -125 L678.74 -129.94 L666.86 -129.94 L666.86 -125A 0.06 0.06 0 0 1 666.8 -124.94 L664.06 -124.94 L664.06 -115.06 L666.8 -115.06A 0.06 0.06 0 0 1 666.86 -115 L666.86 -85A 0.06 0.06 0 0 1 666.8 -84.94 L664.06 -84.94 L664.06 -75.06 L666.8 -75.06A 0.06 0.06 0 0 1 666.86 -75 L666.86 -70.06 L678.74 -70.06 L678.74 -75A 0.06 0.06 0 0 1 678.8 -75.06 L681.54 -75.06 L681.54 -84.94 L678.8 -84.94 z M695.562 -111.56 L696.04 -111.56 L696.04 -114.24 L686.16 -114.24 L686.16 -111.56 L695.562 -111.56 z M700.66 -110.538 L700.66 -110.06 L703.34 -110.06 L703.34 -119.94 L700.66 -119.94 L700.66 -110.538 z M701.138 -89.94 L700.66 -89.94 L700.66 -80.06 L703.34 -80.06 L703.34 -89.94 L701.138 -89.94 z M698.37 -155.892A 1.24 1.24 0 0 0 698.333 -157.645A 1.24 1.24 0 0 0 696.58 -157.608A 1.24 1.24 0 0 0 696.617 -155.855A 1.24 1.24 0 0 0 698.37 -155.892 z M700.66 -161.94 L700.66 -157.26 L703.34 -157.26 L703.34 -169.94 L700.66 -169.94 L700.66 -161.94 z M696.617 -168.355A 1.24 1.24 0 0 0 698.37 -168.392A 1.24 1.24 0 0 0 698.333 -170.145A 1.24 1.24 0 0 0 696.58 -170.108A 1.24 1.24 0 0 0 696.617 -168.355 z M691.758 -171.38 L692.056 -171.006 L699.78 -177.166 L698.109 -179.262 L690.385 -173.102 L691.758 -171.38 z M690.248 -165.506A 2.69 2.69 0 0 0 688.719 -162.023A 2.69 2.69 0 0 0 692.202 -160.494A 2.69 2.69 0 0 0 693.731 -163.977A 2.69 2.69 0 0 0 690.248 -165.506 z M685.87 -168.392A 1.24 1.24 0 0 0 685.833 -170.145A 1.24 1.24 0 0 0 684.08 -170.108A 1.24 1.24 0 0 0 684.117 -168.355A 1.24 1.24 0 0 0 685.87 -168.392 z M684.08 -157.608A 1.24 1.24 0 0 0 684.117 -155.855A 1.24 1.24 0 0 0 685.87 -155.892A 1.24 1.24 0 0 0 685.833 -157.645A 1.24 1.24 0 0 0 684.08 -157.608 z M681.54 -154.229 L681.54 -154.82 L681.54 -154.94 L678.86 -154.94 L678.86 -142.26 L681.54 -142.26 L681.54 -154.229 z M667.915 -137.565 L671.768 -145.566 L669.353 -146.728 L665.066 -137.827 L667.481 -136.664 L667.915 -137.565 z M660.24 -104.222 L660.24 -104.82 L660.24 -104.94 L657.56 -104.94 L657.56 -95.06 L660.24 -95.06 L660.24 -104.222 z M738.271 -193.379 L738.73 -193.483 L738.134 -196.096 L728.501 -193.898 L729.098 -191.285 L738.271 -193.379 z M771.375 -193.942 L771.27 -193.483 L780.902 -191.285 L781.499 -193.898 L771.866 -196.096 L771.375 -193.942 z M772.289 -198.555A 100.06 100.06 0 0 1 853.555 -82.711A 100.06 100.06 0 0 1 737.711 -1.445A 100.06 100.06 0 0 1 656.445 -117.289A 100.06 100.06 0 0 1 772.289 -198.555 z"/>
        <path id="op_2D_Profile4-7-3" fill="none" stroke="rgb(0,0,255)" stroke-width="0.1" d=" M821.232 -144.688 L822.732 -146.188 L822.732 -139.438 M818.864 -140.811A 2.063 2.063 0 0 1 816.92 -139.438 L815.232 -139.438 L815.232 -146.188 L816.92 -146.188A 2.063 2.063 0 0 1 818.983 -144.125 L818.983 -141.5A 2.063 2.063 0 0 1 818.864 -140.811 z"/>
    </g>
    <g id="OD2">
        <path id="op_2D_Profile5-9-4" fill="none" stroke="rgb(255,0,0)" stroke-width="0.1" d=" M877.718 0.06A 0.06 0.06 0 0 1 877.658 0 L877.658 -2.74 L865 -2.74A 0.06 0.06 0 0 1 864.94 -2.8 L864.94 -40.8A 0.06 0.06 0 0 1 865 -40.86 L896.24 -40.86A 0.06 0.06 0 0 1 896.3 -40.8 L896.3 -2.8A 0.06 0.06 0 0 1 896.24 -2.74 L895.778 -2.74 L895.778 0A 0.06 0.06 0 0 1 895.718 0.06 L877.718 0.06 z"/>
        <path id="op_2D_Profile6-10-5" fill="none" stroke="rgb(0,0,255)" stroke-width="0.1" d=" M886.109 -10.939A 1.543 1.543 0 0 1 887.609 -12.064A 1.495 1.495 0 0 1 889.111 -10.576A 1.495 1.495 0 0 1 888.884 -9.777 L886.109 -5.314 L889.109 -5.314 M880.109 -6.314 L880.109 -12.064 L881.796 -12.064A 2.062 2.062 0 0 1 883.859 -10.002 L883.859 -7.377A 2.063 2.063 0 0 1 881.796 -5.314 L880.109 -5.314 L880.109 -6.314 z M877.818 -6.8A 1.875 1.875 0 0 1 875.595 -5.355A 1.875 1.875 0 0 1 874.109 -7.189 L874.109 -10.189A 1.875 1.875 0 0 1 875.984 -12.064A 1.875 1.875 0 0 1 877.859 -10.189 L877.859 -7.189A 1.875 1.875 0 0 1 877.818 -6.8 z"/>
    </g>
    <g id="OD1">
        <path id="op_2D_Profile7-12-6" fill="none" stroke="rgb(255,0,0)" stroke-width="0.1" d=" M922.74 0.06A 0.06 0.06 0 0 1 922.68 0 L922.68 -2.74 L906.24 -2.74A 0.06 0.06 0 0 1 906.18 -2.8 L906.18 -40.8A 0.06 0.06 0 0 1 906.24 -40.86 L940.194 -40.86 L949.24 -40.86A 0.06 0.06 0 0 1 949.3 -40.8 L949.3 -2.8A 0.06 0.06 0 0 1 949.24 -2.74 L932.8 -2.74 L932.8 0A 0.06 0.06 0 0 1 932.74 0.06 L922.74 0.06 z"/>
        <path id="op_2D_Profile8-13-7" fill="none" stroke="rgb(0,0,255)" stroke-width="0.1" d=" M926.581 -10.192 L926.581 -7.192 L926.581 -7.184A 1.875 1.875 0 0 1 924.706 -5.317A 1.875 1.875 0 0 1 922.831 -7.192 L922.831 -10.192A 1.875 1.875 0 0 1 924.706 -12.067A 1.875 1.875 0 0 1 926.581 -10.192 z M928.831 -10.184 L928.831 -12.067 L930.519 -12.067A 2.063 2.063 0 0 1 932.581 -10.004 L932.581 -7.379A 2.063 2.063 0 0 1 930.519 -5.317 L928.831 -5.317 L928.831 -7.184 L928.831 -10.184 z M934.831 -10.567 L936.331 -12.067 L936.331 -5.317"/>
    </g>
    <g id="OD1.1">
        <path id="op_2D_Profile9-15-8" fill="none" stroke="rgb(0,0,255)" stroke-width="0.1" d=" M969.432 -22.659 L966.432 -22.659 L966.424 -22.659A 1.875 1.875 0 0 1 964.557 -24.534A 1.875 1.875 0 0 1 966.432 -26.409 L969.432 -26.409A 1.875 1.875 0 0 1 971.307 -24.534A 1.875 1.875 0 0 1 969.432 -22.659 z M969.424 -20.409 L971.307 -20.409 L971.307 -18.721A 2.063 2.063 0 0 1 969.244 -16.659 L966.619 -16.659A 2.063 2.063 0 0 1 964.557 -18.721 L964.557 -20.409 L966.424 -20.409 L969.424 -20.409 z M969.807 -14.409 L971.307 -12.909 L964.557 -12.909"/>
        <path id="op_2D_Profile10-16-9" fill="none" stroke="rgb(255,0,0)" stroke-width="0.1" d=" M959.18 -26.5A 0.06 0.06 0 0 1 959.24 -26.56 L961.98 -26.56 L961.98 -43A 0.06 0.06 0 0 1 962.04 -43.06 L1000.04 -43.06A 0.06 0.06 0 0 1 1000.1 -43 L1000.1 -9.046 L1000.1 0A 0.06 0.06 0 0 1 1000.04 0.06 L962.04 0.06A 0.06 0.06 0 0 1 961.98 0 L961.98 -16.44 L959.24 -16.44A 0.06 0.06 0 0 1 959.18 -16.5 L959.18 -26.5 z"/>
    </g>
    <g id="OD1.2">
        <path id="op_2D_Profile11-19-10" fill="none" stroke="rgb(255,0,0)" stroke-width="0.1" d=" M1026.54 0.06A 0.06 0.06 0 0 1 1026.48 0 L1026.48 -2.74 L1010.04 -2.74A 0.06 0.06 0 0 1 1009.98 -2.8 L1009.98 -40.8A 0.06 0.06 0 0 1 1010.04 -40.86 L1043.994 -40.86 L1053.04 -40.86A 0.06 0.06 0 0 1 1053.1 -40.8 L1053.1 -2.8A 0.06 0.06 0 0 1 1053.04 -2.74 L1036.6 -2.74 L1036.6 0A 0.06 0.06 0 0 1 1036.54 0.06 L1026.54 0.06 z"/>
        <path id="op_2D_Profile12-20-11" fill="none" stroke="rgb(0,0,255)" stroke-width="0.1" d=" M1030.381 -10.192 L1030.381 -7.192 L1030.381 -7.184A 1.875 1.875 0 0 1 1028.506 -5.317A 1.875 1.875 0 0 1 1026.631 -7.192 L1026.631 -10.192A 1.875 1.875 0 0 1 1028.506 -12.067A 1.875 1.875 0 0 1 1030.381 -10.192 z M1032.631 -10.184 L1032.631 -12.067 L1034.319 -12.067A 2.063 2.063 0 0 1 1036.381 -10.004 L1036.381 -7.379A 2.063 2.063 0 0 1 1034.319 -5.317 L1032.631 -5.317 L1032.631 -7.184 L1032.631 -10.184 z M1038.631 -10.567 L1040.131 -12.067 L1040.131 -5.317"/>
    </g>
    <g id="OD1.3">
        <path id="op_2D_Profile13-22-12" fill="none" stroke="rgb(0,0,255)" stroke-width="0.1" d=" M1083.381 -10.192 L1083.381 -7.192 L1083.381 -7.184A 1.875 1.875 0 0 1 1081.506 -5.317A 1.875 1.875 0 0 1 1079.631 -7.192 L1079.631 -10.192A 1.875 1.875 0 0 1 1081.506 -12.067A 1.875 1.875 0 0 1 1083.381 -10.192 z M1085.631 -10.184 L1085.631 -12.067 L1087.319 -12.067A 2.063 2.063 0 0 1 1089.381 -10.004 L1089.381 -7.379A 2.063 2.063 0 0 1 1087.319 -5.317 L1085.631 -5.317 L1085.631 -7.184 L1085.631 -10.184 z M1091.631 -10.567 L1093.131 -12.067 L1093.131 -5.317"/>
        <path id="op_2D_Profile14-23-13" fill="none" stroke="rgb(255,0,0)" stroke-width="0.1" d=" M1079.54 0.06A 0.06 0.06 0 0 1 1079.48 0 L1079.48 -2.74 L1063.04 -2.74A 0.06 0.06 0 0 1 1062.98 -2.8 L1062.98 -40.8A 0.06 0.06 0 0 1 1063.04 -40.86 L1096.994 -40.86 L1106.04 -40.86A 0.06 0.06 0 0 1 1106.1 -40.8 L1106.1 -2.8A 0.06 0.06 0 0 1 1106.04 -2.74 L1089.6 -2.74 L1089.6 0A 0.06 0.06 0 0 1 1089.54 0.06 L1079.54 0.06 z"/>
    </g>
    <g id="LM10">
        <path id="op_2D_Profile15-25-14" fill="none" stroke="rgb(255,0,0)" stroke-width="0.1" d=" M1133.302 -36.56 L1133.78 -36.56 L1133.78 -39.24 L1123.9 -39.24 L1123.9 -36.56 L1133.302 -36.56 z M1141.9 -37.038 L1141.9 -36.56 L1151.78 -36.56 L1151.78 -39.24 L1141.9 -39.24 L1141.9 -37.038 z M1137.615 -18.819A 2.69 2.69 0 0 0 1140.52 -21.275A 2.69 2.69 0 0 0 1138.065 -24.181A 2.69 2.69 0 0 0 1135.159 -21.725A 2.69 2.69 0 0 0 1137.615 -18.819 z M1133.78 -5.722 L1133.78 -6.32 L1133.78 -6.44 L1123.9 -6.44 L1123.9 -3.76 L1133.78 -3.76 L1133.78 -5.722 z M1142.378 -6.44 L1141.9 -6.44 L1141.9 -3.76 L1151.78 -3.76 L1151.78 -6.44 L1142.378 -6.44 z M1141.9 0.06 L1118.84 0.06A 0.06 0.06 0 0 1 1118.78 0 L1118.78 -16.44 L1116.04 -16.44A 0.06 0.06 0 0 1 1115.98 -16.5 L1115.98 -26.5A 0.06 0.06 0 0 1 1116.04 -26.56 L1118.78 -26.56 L1118.78 -43A 0.06 0.06 0 0 1 1118.84 -43.06 L1156.84 -43.06A 0.06 0.06 0 0 1 1156.9 -43 L1156.9 0A 0.06 0.06 0 0 1 1156.84 0.06 L1141.9 0.06 z"/>
        <path id="op_2D_Profile16-26-15" fill="none" stroke="rgb(0,0,255)" stroke-width="0.1" d=" M1125.063 -26.048 L1125.063 -29.048 L1131.813 -29.048 M1125.063 -23.798 L1131.813 -23.798 L1128.063 -21.548 L1131.813 -19.298 L1125.063 -19.298 M1130.313 -17.048 L1131.813 -15.548 L1125.063 -15.548 M1126.119 -12.864A 6.331 6.331 0 0 1 1131.438 -12.548A 0.933 0.933 0 0 1 1131.633 -11.243A 0.933 0.933 0 0 1 1131.438 -11.048A 6.331 6.331 0 0 1 1125.438 -11.048A 0.933 0.933 0 0 1 1125.243 -12.354A 0.933 0.933 0 0 1 1125.438 -12.548A 6.331 6.331 0 0 1 1126.119 -12.864 z"/>
    </g>
    <g id="LM8">
        <path id="op_2D_Profile18-29-16" fill="none" stroke="rgb(255,0,0)" stroke-width="0.1" d=" M1169.58 -38A 0.06 0.06 0 0 1 1169.64 -38.06 L1173.34 -38.06A 0.06 0.06 0 0 1 1173.4 -38 L1173.4 -33.06 L1176.14 -33.06A 0.06 0.06 0 0 1 1176.2 -33 L1176.2 -23A 0.06 0.06 0 0 1 1176.14 -22.94 L1173.4 -22.94 L1173.4 -15.06 L1176.14 -15.06A 0.06 0.06 0 0 1 1176.2 -15 L1176.2 -5A 0.06 0.06 0 0 1 1176.14 -4.94 L1173.4 -4.94 L1173.4 0A 0.06 0.06 0 0 1 1173.34 0.06 L1169.64 0.06A 0.06 0.06 0 0 1 1169.58 0 L1169.58 -4.94 L1166.84 -4.94A 0.06 0.06 0 0 1 1166.78 -5 L1166.78 -15A 0.06 0.06 0 0 1 1166.84 -15.06 L1169.58 -15.06 L1169.58 -22.94 L1166.84 -22.94A 0.06 0.06 0 0 1 1166.78 -23 L1166.78 -33A 0.06 0.06 0 0 1 1166.84 -33.06 L1169.58 -33.06 L1169.58 -38 z"/>
        <path id="op_2D_Profile20-31-17" fill="none" stroke="rgb(0,0,255)" stroke-width="0.1" d=" M1173.244 -7.795 L1173.244 -6.265 L1169.801 -6.265 M1173.244 -8.942 L1169.801 -8.942 L1171.714 -10.09 L1169.801 -11.237 L1173.244 -11.237 M1171.327 -13.233A 0.765 0.765 0 0 1 1171.331 -13.154A 0.765 0.765 0 0 1 1172.096 -13.915 L1172.479 -13.915A 0.765 0.765 0 0 1 1173.244 -13.15A 0.765 0.765 0 0 1 1172.479 -12.385 L1172.096 -12.385A 0.765 0.765 0 0 1 1171.331 -13.146A 0.765 0.765 0 0 1 1170.57 -12.385 L1170.566 -12.385A 0.765 0.765 0 0 1 1169.801 -13.15A 0.765 0.765 0 0 1 1170.566 -13.915A 0.765 0.765 0 0 1 1171.327 -13.233 z"/>
    </g>
    <g id="LM9">
        <path id="op_2D_Profile21-33-18" fill="none" stroke="rgb(0,0,255)" stroke-width="0.1" d=" M1192.62 -7.762 L1192.62 -6.21 L1189.127 -6.21 M1192.62 -8.926 L1189.127 -8.926 L1191.068 -10.091 L1189.127 -11.255 L1192.62 -11.255 M1191.066 -13.982 L1191.066 -13.209A 0.776 0.776 0 0 1 1190.29 -12.433 L1189.902 -12.433A 0.776 0.776 0 0 1 1189.125 -13.209A 0.776 0.776 0 0 1 1189.902 -13.985 L1190.969 -13.985A 1.746 1.746 0 0 1 1192.62 -12.807"/>
        <path id="op_2D_Profile22-34-19" fill="none" stroke="rgb(255,0,0)" stroke-width="0.1" d=" M1195.5 -5A 0.06 0.06 0 0 1 1195.44 -4.94 L1192.7 -4.94 L1192.7 0A 0.06 0.06 0 0 1 1192.64 0.06 L1188.94 0.06A 0.06 0.06 0 0 1 1188.88 0 L1188.88 -4.94 L1186.14 -4.94A 0.06 0.06 0 0 1 1186.08 -5 L1186.08 -15A 0.06 0.06 0 0 1 1186.14 -15.06 L1188.88 -15.06 L1188.88 -22.94 L1186.14 -22.94A 0.06 0.06 0 0 1 1186.08 -23 L1186.08 -33A 0.06 0.06 0 0 1 1186.14 -33.06 L1188.88 -33.06 L1188.88 -38A 0.06 0.06 0 0 1 1188.94 -38.06 L1192.64 -38.06A 0.06 0.06 0 0 1 1192.7 -38 L1192.7 -33.06 L1195.44 -33.06A 0.06 0.06 0 0 1 1195.5 -33 L1195.5 -23A 0.06 0.06 0 0 1 1195.44 -22.94 L1192.7 -22.94 L1192.7 -15.06 L1195.44 -15.06A 0.06 0.06 0 0 1 1195.5 -15 L1195.5 -5 z"/>
    </g>
    <g id="LM7">
        <path id="op_2D_Profile23-36-20" fill="none" stroke="rgb(255,0,0)" stroke-width="0.1" d=" M1223.18 -46.06 L1223.18 -47.74 L1213.3 -47.74 L1213.3 -45.06 L1223.18 -45.06 L1223.18 -46.06 z M1231.3 -45.538 L1231.3 -45.06 L1241.18 -45.06 L1241.18 -47.74 L1231.3 -47.74 L1231.3 -45.538 z M1229.93 -30A 2.69 2.69 0 0 0 1227.24 -32.69A 2.69 2.69 0 0 0 1224.55 -30A 2.69 2.69 0 0 0 1227.24 -27.31A 2.69 2.69 0 0 0 1229.93 -30 z M1231.778 -14.94 L1231.3 -14.94 L1231.3 -12.26 L1241.18 -12.26 L1241.18 -14.94 L1231.778 -14.94 z M1223.18 -14.222 L1223.18 -14.82 L1223.18 -14.94 L1213.3 -14.94 L1213.3 -12.26 L1223.18 -12.26 L1223.18 -14.222 z M1223.18 0.06 L1208.24 0.06A 0.06 0.06 0 0 1 1208.18 0 L1208.18 -4.94 L1205.44 -4.94A 0.06 0.06 0 0 1 1205.38 -5 L1205.38 -15A 0.06 0.06 0 0 1 1205.44 -15.06 L1208.18 -15.06 L1208.18 -44.94 L1205.44 -44.94A 0.06 0.06 0 0 1 1205.38 -45 L1205.38 -55A 0.06 0.06 0 0 1 1205.44 -55.06 L1208.18 -55.06 L1208.18 -60A 0.06 0.06 0 0 1 1208.24 -60.06 L1246.24 -60.06A 0.06 0.06 0 0 1 1246.3 -60 L1246.3 0A 0.06 0.06 0 0 1 1246.24 0.06 L1223.18 0.06 z"/>
        <path id="op_2D_Profile24-37-21" fill="none" stroke="rgb(0,0,255)" stroke-width="0.1" d=" M1214.46 -34.49 L1214.46 -37.49 L1221.21 -37.49 M1214.46 -32.24 L1221.21 -32.24 L1217.46 -29.99 L1221.21 -27.74 L1214.46 -27.74 M1220.46 -25.49 L1221.21 -25.49 L1221.21 -22.49 L1214.46 -23.99"/>
    </g>
    <g id="LM2">
        <path id="op_2D_Profile25-39-22" fill="none" stroke="rgb(0,0,255)" stroke-width="0.1" d=" M1267.612 -101.281A 1.543 1.543 0 0 1 1268.737 -99.781A 1.495 1.495 0 0 1 1267.248 -98.279A 1.495 1.495 0 0 1 1266.449 -98.506 L1261.987 -101.281 L1261.987 -98.281 M1261.987 -103.531 L1261.987 -106.531 L1268.737 -106.531 M1261.987 -113.281 L1268.737 -113.281 L1264.987 -111.031 L1268.737 -108.781 L1261.987 -108.781"/>
        <path id="op_2D_Profile26-40-23" fill="none" stroke="rgb(255,0,0)" stroke-width="0.1" d=" M1273.578 -6.46 L1273.1 -6.46 L1273.1 -3.78 L1282.98 -3.78 L1282.98 -6.46 L1273.578 -6.46 z M1266.98 -46.525 L1266.98 -47.003 L1264.3 -47.003 L1264.3 -37.123 L1266.98 -37.123 L1266.98 -46.525 z M1266.262 -57.123 L1266.86 -57.123 L1266.98 -57.123 L1266.98 -67.003 L1264.3 -67.003 L1264.3 -57.123 L1266.262 -57.123 z M1273.1 -115.384 L1273.1 -114.786 L1273.1 -114.666 L1282.98 -114.666 L1282.98 -117.346 L1273.1 -117.346 L1273.1 -115.384 z M1273.1 -113.246 L1273.04 -113.246A 1.94 1.94 0 0 0 1271.1 -111.306 L1271.1 -83.063A 1.94 1.94 0 0 0 1273.04 -81.123 L1284.04 -81.123A 0.06 0.06 0 0 1 1284.1 -81.063 L1284.1 -74.863A 0.06 0.06 0 0 1 1284.04 -74.803 L1274.1 -74.803 L1274.1 -72.123 L1284.04 -72.123A 0.06 0.06 0 0 1 1284.1 -72.063 L1284.1 -65.063A 0.06 0.06 0 0 1 1284.04 -65.003 L1273.04 -65.003A 1.94 1.94 0 0 0 1271.1 -63.063 L1271.1 -24.82A 1.94 1.94 0 0 0 1273.04 -22.88 L1284.04 -22.88A 0.06 0.06 0 0 1 1284.1 -22.82 L1284.1 -10.857 L1288.054 -8.88 L1297.04 -8.88A 0.06 0.06 0 0 1 1297.1 -8.82 L1297.1 0A 0.06 0.06 0 0 1 1297.04 0.06 L1259.04 0.06A 0.06 0.06 0 0 1 1258.98 0 L1258.98 -35.503 L1256.24 -35.503A 0.06 0.06 0 0 1 1256.18 -35.563 L1256.18 -45.563A 0.06 0.06 0 0 1 1256.24 -45.623 L1258.98 -45.623 L1258.98 -75.503 L1256.24 -75.503A 0.06 0.06 0 0 1 1256.18 -75.563 L1256.18 -85.563A 0.06 0.06 0 0 1 1256.24 -85.623 L1258.98 -85.623 L1258.98 -102.703 L1256.24 -102.703A 0.06 0.06 0 0 1 1256.18 -102.763 L1256.18 -115.563A 0.06 0.06 0 0 1 1256.24 -115.623 L1258.98 -115.623 L1258.98 -121.126A 0.06 0.06 0 0 1 1259.04 -121.186 L1297.04 -121.186A 0.06 0.06 0 0 1 1297.1 -121.126 L1297.1 -113.306A 0.06 0.06 0 0 1 1297.04 -113.246 L1273.1 -113.246 z"/>
    </g>
    <g id="LM1">
        <path id="op_2D_Profile27-42-24" fill="none" stroke="rgb(255,0,0)" stroke-width="0.1" d=" M1317.78 -63.705 L1317.78 -64.183 L1315.1 -64.183 L1315.1 -54.303 L1317.78 -54.303 L1317.78 -63.705 z M1317.062 -74.303 L1317.66 -74.303 L1317.78 -74.303 L1317.78 -84.183 L1315.1 -84.183 L1315.1 -74.303 L1317.062 -74.303 z M1323.9 -132.565 L1323.9 -131.967 L1323.9 -131.847 L1333.78 -131.847 L1333.78 -134.527 L1323.9 -134.527 L1323.9 -132.565 z M1323.9 -130.427 L1323.84 -130.427A 1.94 1.94 0 0 0 1321.9 -128.487 L1321.9 -100.243A 1.94 1.94 0 0 0 1323.84 -98.303 L1334.84 -98.303A 0.06 0.06 0 0 1 1334.9 -98.243 L1334.9 -92.043A 0.06 0.06 0 0 1 1334.84 -91.983 L1324.9 -91.983 L1324.9 -89.303 L1334.84 -89.303A 0.06 0.06 0 0 1 1334.9 -89.243 L1334.9 -82.243A 0.06 0.06 0 0 1 1334.84 -82.183 L1323.84 -82.183A 1.94 1.94 0 0 0 1321.9 -80.243 L1321.9 -63.7A 1.06 1.06 0 0 1 1320.84 -62.64A 0.94 0.94 0 0 0 1319.9 -61.7 L1319.9 -24.7A 0.94 0.94 0 0 0 1320.84 -23.76 L1323.84 -23.76A 0.06 0.06 0 0 1 1323.9 -23.7 L1323.9 -20.96 L1333.78 -20.96 L1333.78 -23.7A 0.06 0.06 0 0 1 1333.84 -23.76 L1347.84 -23.76A 0.06 0.06 0 0 1 1347.9 -23.7 L1347.9 -15.143A 0.06 0.06 0 0 1 1347.84 -15.083 L1337.9 -15.083 L1337.9 -12.403 L1347.84 -12.403A 0.06 0.06 0 0 1 1347.9 -12.343 L1347.9 0A 0.06 0.06 0 0 1 1347.84 0.06 L1312.64 0.06A 0.06 0.06 0 0 1 1312.58 0 L1312.58 -4.94 L1309.84 -4.94A 0.06 0.06 0 0 1 1309.78 -5 L1309.78 -7.683 L1307.04 -7.683A 0.06 0.06 0 0 1 1306.98 -7.743 L1306.98 -17.743A 0.06 0.06 0 0 1 1307.04 -17.803 L1309.78 -17.803 L1309.78 -57.683 L1307.04 -57.683A 0.06 0.06 0 0 1 1306.98 -57.743 L1306.98 -67.743A 0.06 0.06 0 0 1 1307.04 -67.803 L1309.78 -67.803 L1309.78 -87.683 L1307.04 -87.683A 0.06 0.06 0 0 1 1306.98 -87.743 L1306.98 -97.743A 0.06 0.06 0 0 1 1307.04 -97.803 L1309.78 -97.803 L1309.78 -134.883 L1307.04 -134.883A 0.06 0.06 0 0 1 1306.98 -134.943 L1306.98 -147.743A 0.06 0.06 0 0 1 1307.04 -147.803 L1309.78 -147.803 L1309.78 -150.487A 0.06 0.06 0 0 1 1309.84 -150.547 L1312.58 -150.547 L1312.58 -155.487A 0.06 0.06 0 0 1 1312.64 -155.547 L1347.84 -155.547A 0.06 0.06 0 0 1 1347.9 -155.487 L1347.9 -130.487A 0.06 0.06 0 0 1 1347.84 -130.427 L1323.9 -130.427 z"/>
        <path id="op_2D_Profile28-43-25" fill="none" stroke="rgb(0,0,255)" stroke-width="0.1" d=" M1336.487 -146.037 L1336.487 -149.037 L1343.237 -149.037 M1336.487 -143.787 L1343.237 -143.787 L1339.487 -141.537 L1343.237 -139.287 L1336.487 -139.287 M1341.737 -137.037 L1343.237 -135.537 L1336.487 -135.537"/>
    </g>
    <g id="LM5">
        <path id="op_2D_Profile29-45-26" fill="none" stroke="rgb(0,0,255)" stroke-width="0.1" d=" M1365.856 -5.735 L1362.856 -5.735 L1362.856 -12.485 M1368.106 -5.735 L1368.106 -12.485 L1370.356 -8.735 L1372.606 -12.485 L1372.606 -5.735 M1377.481 -12.485 L1374.856 -12.485 L1374.856 -9.485 L1376.356 -9.485A 1.5 1.5 0 0 1 1377.856 -7.985 L1377.856 -7.235A 1.5 1.5 0 0 1 1376.356 -5.735 L1374.856 -5.735"/>
        <path id="op_2D_Profile30-46-27" fill="none" stroke="rgb(255,0,0)" stroke-width="0.1" d=" M1368.14 -20.49A 1.69 1.69 0 0 0 1366.45 -18.8A 1.69 1.69 0 0 0 1368.14 -17.11 L1372.14 -17.11A 1.69 1.69 0 0 0 1373.83 -18.8A 1.69 1.69 0 0 0 1372.14 -20.49 L1368.14 -20.49 z M1360.103 -23.86 L1360.58 -23.86 L1360.58 -35A 0.06 0.06 0 0 1 1360.64 -35.06 L1379.64 -35.06A 0.06 0.06 0 0 1 1379.7 -35 L1379.7 -23.86 L1382.44 -23.86A 0.06 0.06 0 0 1 1382.5 -23.8 L1382.5 -13.8A 0.06 0.06 0 0 1 1382.44 -13.74 L1379.7 -13.74 L1379.7 -2.6A 0.06 0.06 0 0 1 1379.64 -2.54 L1375.2 -2.54 L1375.2 0A 0.06 0.06 0 0 1 1375.14 0.06 L1365.14 0.06A 0.06 0.06 0 0 1 1365.08 0 L1365.08 -2.54 L1360.64 -2.54A 0.06 0.06 0 0 1 1360.58 -2.6 L1360.58 -13.74 L1357.84 -13.74A 0.06 0.06 0 0 1 1357.78 -13.8 L1357.78 -23.8A 0.06 0.06 0 0 1 1357.84 -23.86 L1360.103 -23.86 z"/>
    </g>
    <g id="LM6">
        <path id="op_2D_Profile31-48-28" fill="none" stroke="rgb(255,0,0)" stroke-width="0.1" d=" M1406.74 -17.11A 1.69 1.69 0 0 0 1408.43 -18.8A 1.69 1.69 0 0 0 1406.74 -20.49 L1402.74 -20.49A 1.69 1.69 0 0 0 1401.05 -18.8A 1.69 1.69 0 0 0 1402.74 -17.11 L1406.74 -17.11 z M1415.017 -13.74 L1414.42 -13.74 L1414.3 -13.74 L1414.3 -2.6A 0.06 0.06 0 0 1 1414.24 -2.54 L1409.8 -2.54 L1409.8 0A 0.06 0.06 0 0 1 1409.74 0.06 L1399.74 0.06A 0.06 0.06 0 0 1 1399.68 0 L1399.68 -2.54 L1395.24 -2.54A 0.06 0.06 0 0 1 1395.18 -2.6 L1395.18 -13.74 L1392.44 -13.74A 0.06 0.06 0 0 1 1392.38 -13.8 L1392.38 -23.8A 0.06 0.06 0 0 1 1392.44 -23.86 L1395.18 -23.86 L1395.18 -35A 0.06 0.06 0 0 1 1395.24 -35.06 L1414.24 -35.06A 0.06 0.06 0 0 1 1414.3 -35 L1414.3 -23.86 L1417.04 -23.86A 0.06 0.06 0 0 1 1417.1 -23.8 L1417.1 -13.8A 0.06 0.06 0 0 1 1417.04 -13.74 L1415.017 -13.74 z"/>
        <path id="op_2D_Profile32-49-29" fill="none" stroke="rgb(0,0,255)" stroke-width="0.1" d=" M1400.401 -5.959 L1397.401 -5.959 L1397.401 -12.709 M1402.651 -5.959 L1402.651 -12.709 L1404.901 -8.959 L1407.151 -12.709 L1407.151 -5.959 M1409.401 -9.709A 3.414 3.414 0 0 1 1411.651 -12.709 M1409.401 -9.709 L1410.901 -9.709A 1.332 1.332 0 0 1 1412.401 -8.569A 1.332 1.332 0 0 1 1412.401 -8.209 L1412.401 -7.459A 1.5 1.5 0 0 1 1410.901 -5.959A 1.5 1.5 0 0 1 1409.401 -7.459 L1409.401 -9.709 z"/>
    </g>
    <g id="LM2">
        <path id="op_2D_Profile33-51-30" fill="none" stroke="rgb(255,0,0)" stroke-width="0.1" d=" M1434.878 -7.74 L1434.4 -7.74 L1434.4 -5.06 L1444.28 -5.06 L1444.28 -7.74 L1434.878 -7.74 z M1434.4 -48.338 L1434.4 -47.86 L1444.28 -47.86 L1444.28 -50.54 L1434.4 -50.54 L1434.4 -48.338 z M1429.78 -47.86 L1429.78 -55.6A 0.06 0.06 0 0 1 1429.84 -55.66 L1448.84 -55.66A 0.06 0.06 0 0 1 1448.9 -55.6 L1448.9 -42.86 L1451.64 -42.86A 0.06 0.06 0 0 1 1451.7 -42.8 L1451.7 -32.8A 0.06 0.06 0 0 1 1451.64 -32.74 L1448.9 -32.74 L1448.9 -22.86 L1451.64 -22.86A 0.06 0.06 0 0 1 1451.7 -22.8 L1451.7 -12.8A 0.06 0.06 0 0 1 1451.64 -12.74 L1448.9 -12.74 L1448.9 0A 0.06 0.06 0 0 1 1448.84 0.06 L1429.84 0.06A 0.06 0.06 0 0 1 1429.78 0 L1429.78 -12.74 L1427.04 -12.74A 0.06 0.06 0 0 1 1426.98 -12.8 L1426.98 -22.8A 0.06 0.06 0 0 1 1427.04 -22.86 L1429.78 -22.86 L1429.78 -32.74 L1427.04 -32.74A 0.06 0.06 0 0 1 1426.98 -32.8 L1426.98 -42.8A 0.06 0.06 0 0 1 1427.04 -42.86 L1429.78 -42.86 L1429.78 -47.86 z"/>
        <path id="op_2D_Profile34-52-31" fill="none" stroke="rgb(0,0,255)" stroke-width="0.1" d=" M1443.465 -15.5 L1443.465 -12.5 L1436.715 -12.5 M1443.465 -17.75 L1436.715 -17.75 L1440.465 -20 L1436.715 -22.25 L1443.465 -22.25 M1437.84 -24.5A 1.543 1.543 0 0 1 1436.715 -26A 1.495 1.495 0 0 1 1438.204 -27.502A 1.495 1.495 0 0 1 1439.003 -27.275 L1443.465 -24.5 L1443.465 -27.5"/>
    </g>
    <g id="LM4">
        <path id="op_2D_Profile35-54-32" fill="none" stroke="rgb(0,0,255)" stroke-width="0.1" d=" M1478.471 -16.552 L1478.471 -13.552 L1471.721 -13.552 M1478.471 -18.802 L1471.721 -18.802 L1475.471 -21.052 L1471.721 -23.302 L1478.471 -23.302 M1478.471 -28.177 L1476.971 -28.177 L1476.971 -25.552 L1471.721 -27.052 M1476.971 -28.177 L1475.471 -28.177 M1476.971 -29.302 L1476.971 -28.177"/>
        <path id="op_2D_Profile36-55-33" fill="none" stroke="rgb(255,0,0)" stroke-width="0.1" d=" M1486.24 -17.74 L1483.5 -17.74 L1483.5 -10.8A 0.06 0.06 0 0 1 1483.44 -10.74 L1479 -10.74 L1479 0A 0.06 0.06 0 0 1 1478.94 0.06 L1468.94 0.06A 0.06 0.06 0 0 1 1468.88 0 L1468.88 -10.74 L1464.44 -10.74A 0.06 0.06 0 0 1 1464.38 -10.8 L1464.38 -17.74 L1461.64 -17.74A 0.06 0.06 0 0 1 1461.58 -17.8 L1461.58 -32.8A 0.06 0.06 0 0 1 1461.64 -32.86 L1468.88 -32.86 L1468.88 -36A 0.06 0.06 0 0 1 1468.897 -36.042 L1470.897 -38.042A 0.06 0.06 0 0 1 1470.94 -38.06 L1476.94 -38.06A 0.06 0.06 0 0 1 1476.982 -38.042 L1478.982 -36.042A 0.06 0.06 0 0 1 1479 -36 L1479 -32.86 L1486.24 -32.86A 0.06 0.06 0 0 1 1486.3 -32.8 L1486.3 -17.8A 0.06 0.06 0 0 1 1486.24 -17.74 z"/>
    </g>
    <g id="P4">
        <path id="op_2D_Profile40-61-34" fill="none" stroke="rgb(255,0,0)" stroke-width="0.1" d=" M1504.3 -48.781 L1504.3 -48.303 L1506.98 -48.303 L1506.98 -58.183 L1504.3 -58.183 L1504.3 -48.781 z M1505.018 -38.183 L1504.42 -38.183 L1504.3 -38.183 L1504.3 -28.303 L1506.98 -28.303 L1506.98 -38.183 L1505.018 -38.183 z M1501.78 -38.183 L1501.78 -88.883 L1496.24 -88.883A 0.06 0.06 0 0 1 1496.18 -88.943 L1496.18 -101.743A 0.06 0.06 0 0 1 1496.24 -101.803 L1498.98 -101.803 L1498.98 -104.487A 0.06 0.06 0 0 1 1499.04 -104.547 L1508.04 -104.547A 0.06 0.06 0 0 1 1508.067 -104.54 L1512.067 -102.54A 0.06 0.06 0 0 1 1512.1 -102.487 L1512.1 -66.043A 0.06 0.06 0 0 1 1512.04 -65.983 L1507.1 -65.983 L1507.1 -63.303 L1512.04 -63.303A 0.06 0.06 0 0 1 1512.1 -63.243 L1512.1 -2A 0.06 0.06 0 0 1 1512.067 -1.946 L1508.067 0.054A 0.06 0.06 0 0 1 1508.04 0.06 L1499.04 0.06A 0.06 0.06 0 0 1 1498.98 0 L1498.98 -1.683 L1496.24 -1.683A 0.06 0.06 0 0 1 1496.18 -1.743 L1496.18 -11.743A 0.06 0.06 0 0 1 1496.24 -11.803 L1499.04 -11.803 L1501.78 -11.803 L1501.78 -38.183 z"/>
        <path id="op_2D_Profile41-62-35" fill="none" stroke="rgb(0,0,255)" stroke-width="0.1" d=" M1508.99 -90.997 L1505.99 -90.997 L1502.24 -90.997 L1502.24 -92.872A 1.875 1.875 0 0 1 1504.115 -94.747A 1.875 1.875 0 0 1 1505.99 -92.872 L1505.99 -90.997 M1508.99 -99.622 L1507.49 -99.622 L1507.49 -96.997 L1502.24 -98.497 M1507.49 -99.622 L1505.99 -99.622 M1507.49 -100.747 L1507.49 -99.622"/>
    </g>
    <g id="P2">
        <path id="op_2D_Profile42-64-36" fill="none" stroke="rgb(255,0,0)" stroke-width="0.1" d=" M1529.878 -7.74 L1529.4 -7.74 L1529.4 -5.06 L1539.28 -5.06 L1539.28 -7.74 L1529.878 -7.74 z M1529.4 -48.338 L1529.4 -47.86 L1539.28 -47.86 L1539.28 -50.54 L1529.4 -50.54 L1529.4 -48.338 z M1524.78 -47.86 L1524.78 -55.6A 0.06 0.06 0 0 1 1524.84 -55.66 L1543.84 -55.66A 0.06 0.06 0 0 1 1543.9 -55.6 L1543.9 -42.86 L1546.64 -42.86A 0.06 0.06 0 0 1 1546.7 -42.8 L1546.7 -32.8A 0.06 0.06 0 0 1 1546.64 -32.74 L1543.9 -32.74 L1543.9 -22.86 L1546.64 -22.86A 0.06 0.06 0 0 1 1546.7 -22.8 L1546.7 -12.8A 0.06 0.06 0 0 1 1546.64 -12.74 L1543.9 -12.74 L1543.9 0A 0.06 0.06 0 0 1 1543.84 0.06 L1524.84 0.06A 0.06 0.06 0 0 1 1524.78 0 L1524.78 -12.74 L1522.04 -12.74A 0.06 0.06 0 0 1 1521.98 -12.8 L1521.98 -22.8A 0.06 0.06 0 0 1 1522.04 -22.86 L1524.78 -22.86 L1524.78 -32.74 L1522.04 -32.74A 0.06 0.06 0 0 1 1521.98 -32.8 L1521.98 -42.8A 0.06 0.06 0 0 1 1522.04 -42.86 L1524.78 -42.86 L1524.78 -47.86 z"/>
        <path id="op_2D_Profile43-65-37" fill="none" stroke="rgb(0,0,255)" stroke-width="0.1" d=" M1538.454 -12.511 L1535.454 -12.511 L1531.704 -12.511 L1531.704 -14.386A 1.875 1.875 0 0 1 1533.579 -16.261A 1.875 1.875 0 0 1 1535.454 -14.386 L1535.454 -12.511 M1532.829 -18.511A 1.543 1.543 0 0 1 1531.704 -20.011A 1.495 1.495 0 0 1 1533.193 -21.513A 1.495 1.495 0 0 1 1533.992 -21.286 L1538.454 -18.511 L1538.454 -21.511"/>
    </g>
    <g id="P5">
        <path id="op_2D_Profile44-67-38" fill="none" stroke="rgb(0,0,255)" stroke-width="0.1" d=" M1565.167 -126.155 L1568.167 -126.155 L1571.917 -126.155 L1571.917 -124.28A 1.875 1.875 0 0 1 1570.042 -122.405A 1.875 1.875 0 0 1 1568.167 -124.28 L1568.167 -126.155 M1571.917 -117.53 L1571.917 -120.155 L1568.917 -120.155 L1568.917 -118.655A 1.5 1.5 0 0 1 1567.417 -117.155 L1566.667 -117.155A 1.5 1.5 0 0 1 1565.167 -118.655 L1565.167 -120.155"/>
        <path id="op_2D_Profile45-68-39" fill="none" stroke="rgb(255,0,0)" stroke-width="0.1" d=" M1569.115 -16.933A 2.19 2.19 0 0 0 1566.925 -14.743A 2.19 2.19 0 0 0 1569.115 -12.553A 2.19 2.19 0 0 0 1571.305 -14.743A 2.19 2.19 0 0 0 1569.115 -16.933 z M1569.115 -138.553A 2.19 2.19 0 0 0 1571.305 -140.743A 2.19 2.19 0 0 0 1569.115 -142.933A 2.19 2.19 0 0 0 1566.925 -140.743A 2.19 2.19 0 0 0 1569.115 -138.553 z M1564.448 -144.405 L1578.402 -155.534A 0.06 0.06 0 0 1 1578.487 -155.524A 0.06 0.06 0 0 1 1578.5 -155.487 L1578.5 -115.003 L1581.24 -115.003A 0.06 0.06 0 0 1 1581.3 -114.943 L1581.3 -37.743A 0.06 0.06 0 0 1 1581.24 -37.683 L1578.5 -37.683 L1578.5 0A 0.06 0.06 0 0 1 1578.44 0.06A 0.06 0.06 0 0 1 1578.402 0.047 L1559.402 -15.105A 0.06 0.06 0 0 1 1559.38 -15.152 L1559.38 -37.683 L1556.64 -37.683A 0.06 0.06 0 0 1 1556.58 -37.743 L1556.58 -114.943A 0.06 0.06 0 0 1 1556.64 -115.003 L1559.38 -115.003 L1559.38 -140.335A 0.06 0.06 0 0 1 1559.402 -140.382 L1564.448 -144.405 z"/>
    </g>
    <g id="P3">
        <path id="op_2D_Profile46-70-40" fill="none" stroke="rgb(255,0,0)" stroke-width="0.1" d=" M1601.98 -37.465 L1601.98 -38.063 L1601.98 -38.183 L1599.3 -38.183 L1599.3 -28.303 L1601.98 -28.303 L1601.98 -37.465 z M1601.509 -48.303 L1601.98 -48.303 L1601.98 -58.183 L1599.3 -58.183 L1599.3 -48.303 L1601.509 -48.303 z M1607.1 -48.431 L1607.1 -2A 0.06 0.06 0 0 1 1607.067 -1.946 L1603.067 0.054A 0.06 0.06 0 0 1 1603.04 0.06 L1594.04 0.06A 0.06 0.06 0 0 1 1593.98 0 L1593.98 -1.683 L1591.24 -1.683A 0.06 0.06 0 0 1 1591.18 -1.743 L1591.18 -11.743A 0.06 0.06 0 0 1 1591.24 -11.803 L1594.04 -11.803 L1596.78 -11.803 L1596.78 -88.883 L1591.24 -88.883A 0.06 0.06 0 0 1 1591.18 -88.943 L1591.18 -101.743A 0.06 0.06 0 0 1 1591.24 -101.803 L1593.98 -101.803 L1593.98 -104.487A 0.06 0.06 0 0 1 1594.04 -104.547 L1603.04 -104.547A 0.06 0.06 0 0 1 1603.067 -104.54 L1607.067 -102.54A 0.06 0.06 0 0 1 1607.1 -102.487 L1607.1 -66.043A 0.06 0.06 0 0 1 1607.04 -65.983 L1602.1 -65.983 L1602.1 -63.303 L1607.04 -63.303A 0.06 0.06 0 0 1 1607.1 -63.243 L1607.1 -48.431 z"/>
        <path id="op_2D_Profile47-71-41" fill="none" stroke="rgb(0,0,255)" stroke-width="0.1" d=" M1604.288 -90.998 L1601.288 -90.998 L1597.538 -90.998 L1597.538 -92.873A 1.875 1.875 0 0 1 1599.413 -94.748A 1.875 1.875 0 0 1 1601.288 -92.873 L1601.288 -90.998 M1597.538 -96.998 L1597.538 -98.498A 1.5 1.5 0 0 1 1599.038 -99.998A 1.5 1.5 0 0 1 1600.538 -98.505A 1.5 1.5 0 0 1 1602.038 -99.998 L1602.788 -99.998A 1.5 1.5 0 0 1 1604.288 -98.498 L1604.288 -96.998"/>
    </g>
    <g id="V1">
        <path id="op_2D_Profile48-73-42" fill="none" stroke="rgb(255,0,0)" stroke-width="0.1" d=" M1626.715 -19.666A 2.69 2.69 0 0 0 1624.025 -16.976A 2.69 2.69 0 0 0 1626.715 -14.286A 2.69 2.69 0 0 0 1629.405 -16.976A 2.69 2.69 0 0 0 1626.715 -19.666 z M1626.715 -23.193 L1631.48 -23.193 L1631.48 -25.873 L1621.6 -25.873 L1621.6 -23.193 L1626.715 -23.193 z M1626.715 -30.993 L1636.04 -30.993A 0.06 0.06 0 0 1 1636.1 -30.933 L1636.1 -7.293 L1638.84 -7.293A 0.06 0.06 0 0 1 1638.9 -7.233 L1638.9 0A 0.06 0.06 0 0 1 1638.84 0.06A 0.06 0.06 0 0 1 1638.802 0.047 L1627.248 -9.168 L1617.002 -17.338A 0.06 0.06 0 0 1 1616.98 -17.385 L1616.98 -30.933A 0.06 0.06 0 0 1 1617.04 -30.993 L1626.715 -30.993 z"/>
        <path id="op_2D_Profile49-74-43" fill="none" stroke="rgb(0,0,255)" stroke-width="0.1" d=" M1626.643 -30.43 L1625.518 -27.055 L1624.393 -30.43 M1627.768 -29.68 L1628.518 -30.43 L1628.518 -27.055"/>
    </g>
    <g id="V2">
        <path id="op_2D_Profile50-76-44" fill="none" stroke="rgb(0,0,255)" stroke-width="0.1" d=" M1658.99 -0.562 L1660.115 -3.937 L1661.24 -0.562 M1657.865 -1.124A 0.772 0.772 0 0 1 1657.115 -0.562A 0.748 0.748 0 0 1 1656.364 -1.306A 0.748 0.748 0 0 1 1656.477 -1.705 L1657.865 -3.937 L1656.365 -3.937"/>
        <path id="op_2D_Profile51-77-45" fill="none" stroke="rgb(255,0,0)" stroke-width="0.1" d=" M1658.515 -11.267A 2.69 2.69 0 0 0 1661.205 -13.957A 2.69 2.69 0 0 0 1658.515 -16.647A 2.69 2.69 0 0 0 1655.825 -13.957A 2.69 2.69 0 0 0 1658.515 -11.267 z M1658.515 -7.74 L1653.4 -7.74 L1653.4 -5.06 L1663.28 -5.06 L1663.28 -7.74 L1658.515 -7.74 z M1658.515 0.06 L1648.84 0.06A 0.06 0.06 0 0 1 1648.78 0 L1648.78 -13.548A 0.06 0.06 0 0 1 1648.802 -13.595 L1670.602 -30.98A 0.06 0.06 0 0 1 1670.687 -30.97A 0.06 0.06 0 0 1 1670.7 -30.933 L1670.7 -23.7A 0.06 0.06 0 0 1 1670.64 -23.64 L1667.9 -23.64 L1667.9 0A 0.06 0.06 0 0 1 1667.84 0.06 L1658.515 0.06 z"/>
    </g>
    <g id="LM11">
        <path id="op_2D_Profile52-79-46" fill="none" stroke="rgb(255,0,0)" stroke-width="0.1" d=" M1693.174 -13.491 L1692.915 -13.94 L1688.365 -13.94 L1686.09 -10 L1688.365 -6.06 L1692.915 -6.06 L1695.189 -10 L1693.174 -13.491 z M1695.544 -18.784A 10.06 10.06 0 0 1 1699.424 -5.096A 10.06 10.06 0 0 1 1685.736 -1.216A 10.06 10.06 0 0 1 1680.58 -10A 10.06 10.06 0 0 1 1683.526 -17.114A 10.06 10.06 0 0 1 1690.64 -20.06A 10.06 10.06 0 0 1 1695.544 -18.784 z"/>
        <path id="op_2D_Profile53-80-47" fill="none" stroke="rgb(0,0,255)" stroke-width="0.1" d=" M1688.119 -14.588 L1686.619 -14.588 L1686.619 -17.963 M1689.244 -14.588 L1689.244 -17.963 L1690.369 -16.088 L1691.494 -17.963 L1691.494 -14.588 M1692.619 -17.213 L1693.369 -17.963 L1693.369 -14.588 M1694.494 -17.213 L1695.244 -17.963 L1695.244 -14.588"/>
    </g>
    <g id="vlozka">
        <path id="op_2D_Profile54-82-48" fill="none" stroke="rgb(255,0,0)" stroke-width="0.1" d=" M1715.7 -9A 4.94 4.94 0 0 0 1720.64 -4.06A 4.94 4.94 0 0 0 1724.58 -6.02 L1724.58 -11.98A 4.94 4.94 0 0 0 1717.66 -12.94A 4.94 4.94 0 0 0 1715.7 -9 z M1710.58 -9 L1710.58 -18A 0.06 0.06 0 0 1 1710.64 -18.06 L1730.64 -18.06A 0.06 0.06 0 0 1 1730.7 -18 L1730.7 0A 0.06 0.06 0 0 1 1730.64 0.06 L1710.64 0.06A 0.06 0.06 0 0 1 1710.58 0 L1710.58 -9 z"/>
        <path id="op_2D_Profile55-83-49" fill="none" stroke="rgb(0,0,255)" stroke-width="0.1" d=" M1729.497 -15.381 L1726.122 -16.506 L1729.497 -17.631 M1728.559 -15.709 L1728.559 -17.302 M1729.497 -14.256 L1727.389 -13.085 L1726.122 -14.237 M1728.184 -12.362 L1729.497 -12.362 M1729.497 -11.237 L1729.497 -9.362 L1726.122 -11.237 L1726.122 -9.362 M1726.122 -12.362 L1728.184 -12.362 L1727.389 -13.085 M1728.559 -8.237A 0.938 0.938 0 0 1 1728.949 -8.152A 0.938 0.938 0 0 1 1729.412 -6.91A 0.938 0.938 0 0 1 1728.559 -6.362 L1727.059 -6.362A 0.938 0.938 0 0 1 1726.122 -7.299A 0.938 0.938 0 0 1 1727.059 -8.237 L1728.559 -8.237 z M1729.497 -5.237 L1729.497 -3.737 L1726.122 -3.737 M1726.122 -2.612 L1729.497 -1.487 L1726.122 -0.362"/>
    </g>
    <g id="KO1">
        <path id="op_2D_Profile56-85-50" fill="none" stroke="rgb(255,0,0)" stroke-width="0.1" d=" M1775.252 -35.29 L1769.683 -35.29A 4.44 4.44 0 0 0 1769.05 -29.043A 4.44 4.44 0 0 0 1769.683 -28.41 L1775.297 -28.41A 4.44 4.44 0 0 0 1775.93 -34.657A 4.44 4.44 0 0 0 1775.297 -35.29 L1775.252 -35.29 z M1792.469 -56.731A 31.91 31.91 0 0 1 1797.371 -11.871A 31.91 31.91 0 0 1 1752.511 -6.969A 31.91 31.91 0 0 1 1747.608 -51.829A 31.91 31.91 0 0 1 1792.469 -56.731 z"/>
        <path id="op_2D_Profile57-86-51" fill="none" stroke="rgb(0,0,255)" stroke-width="0.1" d=" M1776.766 -22.266 L1778.266 -23.766 L1778.266 -17.016 M1772.641 -17.016A 1.875 1.875 0 0 1 1770.766 -18.891 L1770.766 -21.891A 1.875 1.875 0 0 1 1772.641 -23.766A 1.875 1.875 0 0 1 1774.516 -21.891 L1774.516 -18.891A 1.875 1.875 0 0 1 1772.641 -17.016 z M1768.516 -17.016 L1766.174 -21.231 L1768.478 -23.766 M1764.728 -19.641 L1764.728 -17.016 M1764.728 -23.766 L1764.728 -19.641 L1766.174 -21.231"/>
    </g>
    <g id="Setup27">
        <path id="op_2D_Profile58-88-52" fill="none" stroke="rgb(255,0,0)" stroke-width="0.1" d=" M1848.952 -35.29 L1843.383 -35.29A 4.44 4.44 0 0 0 1842.75 -29.043A 4.44 4.44 0 0 0 1843.383 -28.41 L1848.997 -28.41A 4.44 4.44 0 0 0 1849.63 -34.657A 4.44 4.44 0 0 0 1848.997 -35.29 L1848.952 -35.29 z M1866.169 -56.731A 31.91 31.91 0 0 1 1871.071 -11.871A 31.91 31.91 0 0 1 1826.211 -6.969A 31.91 31.91 0 0 1 1821.308 -51.829A 31.91 31.91 0 0 1 1866.169 -56.731 z"/>
        <path id="op_2D_Profile59-89-53" fill="none" stroke="rgb(0,0,255)" stroke-width="0.1" d=" M1850.385 -22.306 L1851.885 -23.806 L1851.885 -17.056 M1846.26 -17.056A 1.875 1.875 0 0 1 1844.385 -18.931 L1844.385 -21.931A 1.875 1.875 0 0 1 1846.26 -23.806A 1.875 1.875 0 0 1 1848.135 -21.931 L1848.135 -18.931A 1.875 1.875 0 0 1 1846.26 -17.056 z M1842.135 -17.056 L1839.793 -21.271 L1842.098 -23.806 M1838.348 -19.681 L1838.348 -17.056 M1838.348 -23.806 L1838.348 -19.681 L1839.793 -21.271"/>
    </g>
</svg>

