<?xml version="1.0" encoding="UTF-8" standalone="no"?>
<svg xmlns="http://www.w3.org/2000/svg" width="1069.5934918242433mm" height="641.7861887965175mm" viewBox="-10 -610 1069.5934918242433 641.7861887965175">
    <polyline points="0,0 425,0 425,-600 0,-600 0,0"  stroke="rgb(0,0,0)" stroke-width="0.1" fill="none"/>
    <g id="Setup2">
        <path id="op_2D_Profile3-6-0" fill="none" stroke="rgb(255,0,0)" stroke-width="0.1" d=" M456.908 -71.113A 1.34 1.34 0 0 0 458.248 -72.453A 1.34 1.34 0 0 0 456.908 -73.793A 1.34 1.34 0 0 0 455.568 -72.453A 1.34 1.34 0 0 0 456.908 -71.113 z M475.836 -8.062A 1.34 1.34 0 0 0 474.938 -6.393A 1.34 1.34 0 0 0 476.607 -5.495A 1.34 1.34 0 0 0 477.505 -7.164A 1.34 1.34 0 0 0 475.836 -8.062 z M469.383 -8.062 L469.383 -61.719 L451 -61.719A 0.06 0.06 0 0 1 450.958 -61.736A 0.06 0.06 0 0 1 450.94 -61.779 L450.94 -69.216 L445.01 -68.17A 0.06 0.06 0 0 1 444.941 -68.219A 0.06 0.06 0 0 1 444.94 -68.229 L444.94 -80.345A 0.06 0.06 0 0 1 445 -80.405A 0.06 0.06 0 0 1 445.01 -80.404 L450.94 -79.359 L450.94 -85.374A 0.06 0.06 0 0 1 451 -85.434A 0.06 0.06 0 0 1 451.025 -85.429 L480.067 -72.432A 5.06 5.06 0 0 1 483.06 -67.813 L483.06 -6.779A 6.839 6.839 0 0 1 476.221 0.06A 6.839 6.839 0 0 1 471.386 -1.943A 6.839 6.839 0 0 1 469.383 -6.779 L469.383 -8.062 z"/>
        <path id="op_2D_Profile4-7-1" fill="none" stroke="rgb(0,0,255)" stroke-width="0.1" d=" M461.288 -71.911 L461.258 -67.786 L462.715 -69.366 M461.258 -67.786 L461.238 -65.161 M462.715 -69.366 L465.038 -71.883 M467.314 -70.367 L468.825 -71.856 L468.776 -65.106 M465.026 -65.133 L462.715 -69.366"/>
    </g>
    <g id="Setup3">
        <path id="op_2D_Profile5-9-2" fill="none" stroke="rgb(255,0,0)" stroke-width="0.1" d=" M527.164 -71.113A 1.34 1.34 0 0 0 528.504 -72.453A 1.34 1.34 0 0 0 527.164 -73.793A 1.34 1.34 0 0 0 525.824 -72.453A 1.34 1.34 0 0 0 527.164 -71.113 z M546.092 -8.062A 1.34 1.34 0 0 0 545.194 -6.393A 1.34 1.34 0 0 0 546.863 -5.495A 1.34 1.34 0 0 0 547.761 -7.164A 1.34 1.34 0 0 0 546.092 -8.062 z M539.639 -8.062 L539.639 -61.719 L521.256 -61.719A 0.06 0.06 0 0 1 521.214 -61.737A 0.06 0.06 0 0 1 521.196 -61.779 L521.196 -69.216 L515.266 -68.17A 0.06 0.06 0 0 1 515.197 -68.219A 0.06 0.06 0 0 1 515.196 -68.229 L515.196 -80.345A 0.06 0.06 0 0 1 515.256 -80.405A 0.06 0.06 0 0 1 515.266 -80.404 L521.196 -79.359 L521.196 -85.374A 0.06 0.06 0 0 1 521.256 -85.434A 0.06 0.06 0 0 1 521.281 -85.429 L550.323 -72.432A 5.06 5.06 0 0 1 553.316 -67.813 L553.316 -6.779A 6.839 6.839 0 0 1 549.738 -0.767A 6.839 6.839 0 0 1 546.477 0.06A 6.839 6.839 0 0 1 541.642 -1.943A 6.839 6.839 0 0 1 539.639 -6.779 L539.639 -8.062 z"/>
        <path id="op_2D_Profile6-10-3" fill="none" stroke="rgb(0,0,255)" stroke-width="0.1" d=" M537.528 -70.409 L539.039 -71.898A 0.06 0.06 0 0 1 539.124 -71.898A 0.06 0.06 0 0 1 539.141 -71.855 L539.092 -65.105 M535.229 -65.104 L532.958 -69.263 M532.942 -69.423 L535.25 -71.924 M531.573 -67.762 L531.554 -65.16 M531.604 -71.91 L531.575 -67.941 L532.914 -69.392"/>
    </g>
    <g id="Setup5">
        <path id="op_2D_Profile7-13-4" fill="none" stroke="rgb(255,0,0)" stroke-width="0.1" d=" M589.348 -14.3A 1.34 1.34 0 0 0 588.008 -12.96A 1.34 1.34 0 0 0 589.348 -11.62A 1.34 1.34 0 0 0 590.688 -12.96A 1.34 1.34 0 0 0 589.348 -14.3 z M570.42 -77.351A 1.34 1.34 0 0 0 571.318 -79.02A 1.34 1.34 0 0 0 569.649 -79.918A 1.34 1.34 0 0 0 568.751 -78.249A 1.34 1.34 0 0 0 570.42 -77.351 z M576.873 -77.351 L576.873 -23.695 L595.256 -23.695A 0.06 0.06 0 0 1 595.316 -23.635 L595.316 -16.197 L601.246 -17.243A 0.06 0.06 0 0 1 601.315 -17.194A 0.06 0.06 0 0 1 601.316 -17.184 L601.316 -5.068A 0.06 0.06 0 0 1 601.256 -5.008A 0.06 0.06 0 0 1 601.246 -5.009 L595.316 -6.054 L595.316 0A 0.06 0.06 0 0 1 595.256 0.06A 0.06 0.06 0 0 1 595.231 0.054 L592.305 -1.294 L566.189 -12.981A 5.06 5.06 0 0 1 563.196 -17.6 L563.196 -78.634A 6.839 6.839 0 0 1 570.035 -85.473A 6.839 6.839 0 0 1 574.87 -83.47A 6.839 6.839 0 0 1 576.873 -78.634 L576.873 -77.351 z"/>
        <path id="op_2D_Profile8-14-5" fill="none" stroke="rgb(0,0,255)" stroke-width="0.1" d=" M583.891 -13.94 L583.891 -18.065 L582.446 -16.475 M583.891 -18.065 L583.891 -20.69 M582.446 -16.475 L580.141 -13.94 M577.854 -15.44 L576.354 -13.94 L576.354 -20.69 M580.104 -20.69 L582.446 -16.475"/>
    </g>
    <g id="Setup6">
        <path id="op_2D_Profile9-16-6" fill="none" stroke="rgb(255,0,0)" stroke-width="0.1" d=" M637.348 -14.3A 1.34 1.34 0 0 0 636.008 -12.96A 1.34 1.34 0 0 0 637.348 -11.62A 1.34 1.34 0 0 0 638.688 -12.96A 1.34 1.34 0 0 0 637.348 -14.3 z M618.42 -77.351A 1.34 1.34 0 0 0 619.318 -79.02A 1.34 1.34 0 0 0 617.649 -79.918A 1.34 1.34 0 0 0 616.751 -78.249A 1.34 1.34 0 0 0 618.42 -77.351 z M624.873 -77.351 L624.873 -23.695 L643.256 -23.695A 0.06 0.06 0 0 1 643.316 -23.635 L643.316 -16.197 L649.246 -17.243A 0.06 0.06 0 0 1 649.315 -17.194A 0.06 0.06 0 0 1 649.316 -17.184 L649.316 -5.068A 0.06 0.06 0 0 1 649.256 -5.008A 0.06 0.06 0 0 1 649.246 -5.009 L643.316 -6.054 L643.316 0A 0.06 0.06 0 0 1 643.256 0.06A 0.06 0.06 0 0 1 643.231 0.054 L640.305 -1.294 L614.189 -12.981A 5.06 5.06 0 0 1 611.196 -17.6 L611.196 -78.634A 6.839 6.839 0 0 1 618.035 -85.473A 6.839 6.839 0 0 1 622.87 -83.47A 6.839 6.839 0 0 1 624.873 -78.634 L624.873 -77.351 z"/>
        <path id="op_2D_Profile10-17-7" fill="none" stroke="rgb(0,0,255)" stroke-width="0.1" d=" M631.831 -13.94 L631.831 -17.91 L628.186 -13.9 M631.831 -18.088 L631.831 -20.69 M628.156 -20.719 L630.463 -16.567 M625.896 -15.398 L624.396 -13.898A 0.06 0.06 0 0 1 624.311 -13.898A 0.06 0.06 0 0 1 624.294 -13.94 L624.294 -20.69"/>
    </g>
    <g id="Setup8">
        <path id="op_2D_Profile11-20-8" fill="none" stroke="rgb(255,0,0)" stroke-width="0.1" d=" M665.025 -13.411A 1.44 1.44 0 0 0 663.869 -15.088A 1.44 1.44 0 0 0 662.192 -13.932A 1.44 1.44 0 0 0 663.348 -12.255A 1.44 1.44 0 0 0 665.025 -13.411 z M673.199 -12.743 L668.437 -13.807 L667.372 -9.045 L686.773 -4.707 L687.838 -9.469 L673.199 -12.743 z M726.64 -13.662 L709.232 -9.58 L710.346 -4.829 L729.701 -9.367 L728.587 -14.118 L726.64 -13.662 z M731.086 -13.672A 1.44 1.44 0 0 0 732.526 -12.232A 1.44 1.44 0 0 0 733.966 -13.672A 1.44 1.44 0 0 0 732.526 -15.112A 1.44 1.44 0 0 0 731.086 -13.672 z M736.358 -15.867A 7.56 7.56 0 0 1 736.296 -9.909A 7.56 7.56 0 0 1 731.938 -5.847A 100.06 100.06 0 0 1 664.197 -5.847A 7.56 7.56 0 0 1 659.642 -15.52A 7.56 7.56 0 0 1 663.535 -19.8A 7.56 7.56 0 0 1 669.315 -20.074A 84.94 84.94 0 0 0 726.82 -20.074A 7.56 7.56 0 0 1 736.358 -15.867 z"/>
        <path id="op_2D_Profile13-22-9" fill="none" stroke="rgb(0,0,255)" stroke-width="0.1" d=" M693.288 -10.046 L693.288 -5.921 L694.734 -7.512 M693.288 -5.921 L693.288 -3.296 M694.734 -7.512 L697.038 -10.046 M699.326 -10.046 L700.826 -10.046A 1.5 1.5 0 0 1 702.326 -8.546A 1.5 1.5 0 0 1 700.833 -7.046A 1.5 1.5 0 0 1 702.326 -5.546 L702.326 -4.796A 1.5 1.5 0 0 1 700.826 -3.296 L699.326 -3.296 M700.826 -7.046 L700.076 -7.046 M697.076 -3.296 L694.734 -7.512"/>
    </g>
    <g id="Setup9">
        <path id="op_2D_Profile14-24-10" fill="none" stroke="rgb(255,0,0)" stroke-width="0.1" d=" M752.647 -13.411A 1.44 1.44 0 0 0 751.492 -15.088A 1.44 1.44 0 0 0 749.815 -13.932A 1.44 1.44 0 0 0 750.971 -12.255A 1.44 1.44 0 0 0 752.647 -13.411 z M760.822 -12.743 L756.059 -13.807 L754.995 -9.045 L774.395 -4.707 L775.46 -9.469 L760.822 -12.743 z M814.263 -13.662 L796.855 -9.58 L797.969 -4.829 L817.324 -9.367 L816.21 -14.118 L814.263 -13.662 z M818.709 -13.672A 1.44 1.44 0 0 0 820.149 -12.232A 1.44 1.44 0 0 0 821.589 -13.672A 1.44 1.44 0 0 0 820.149 -15.112A 1.44 1.44 0 0 0 818.709 -13.672 z M823.98 -15.867A 7.56 7.56 0 0 1 823.918 -9.909A 7.56 7.56 0 0 1 819.56 -5.847A 100.06 100.06 0 0 1 751.82 -5.847A 7.56 7.56 0 0 1 747.265 -15.52A 7.56 7.56 0 0 1 751.158 -19.8A 7.56 7.56 0 0 1 756.938 -20.074A 84.94 84.94 0 0 0 814.442 -20.074A 7.56 7.56 0 0 1 823.98 -15.867 z"/>
        <path id="op_2D_Profile15-25-11" fill="none" stroke="rgb(0,0,255)" stroke-width="0.1" d=" M786.949 -10.106 L788.449 -10.106A 1.56 1.56 0 0 1 790.009 -8.546A 1.56 1.56 0 0 1 788.877 -7.046A 1.56 1.56 0 0 1 790.009 -5.546 L790.009 -4.796A 1.56 1.56 0 0 1 788.449 -3.236 L786.949 -3.236 M788.455 -6.986 L788.449 -6.986 L787.699 -6.986 M784.646 -3.267 L782.345 -7.409 M782.327 -7.569 L784.617 -10.087 M780.971 -5.898 L780.971 -3.296 M780.971 -10.046 L780.971 -6.077 L782.299 -7.537"/>
    </g>
    <g id="Setup10">
        <path id="op_2D_Profile16-27-12" fill="none" stroke="rgb(255,0,0)" stroke-width="0.1" d=" M838.875 -12.493A 1.44 1.44 0 0 0 837.435 -13.933A 1.44 1.44 0 0 0 835.995 -12.493A 1.44 1.44 0 0 0 837.435 -11.053A 1.44 1.44 0 0 0 838.875 -12.493 z M841.557 -12.536A 5.44 5.44 0 0 0 843.135 -8.662A 5.44 5.44 0 0 0 846.997 -7.053 L872.997 -7.053A 0.56 0.56 0 0 1 873.393 -6.889A 0.56 0.56 0 0 1 873.557 -6.493 L873.557 -4.053 L892.437 -4.053 L892.437 -6.493A 0.56 0.56 0 0 1 892.997 -7.053 L918.997 -7.053A 5.44 5.44 0 0 0 924.437 -12.493A 5.44 5.44 0 0 0 922.241 -16.86A 77.102 77.102 0 0 0 843.775 -16.873 L843.732 -16.844A 5.44 5.44 0 0 0 841.557 -12.536 z M926.928 -12.754A 1.44 1.44 0 0 0 928.084 -11.077A 1.44 1.44 0 0 0 929.761 -12.233A 1.44 1.44 0 0 0 928.605 -13.909A 1.44 1.44 0 0 0 926.928 -12.754 z M894.179 -30.851 L913.41 -26.342 L914.524 -31.093 L895.169 -35.632 L894.054 -30.88 L894.179 -30.851 z M872.632 -31.116 L871.595 -35.753 L852.194 -31.415 L853.259 -26.653 L872.66 -30.991 L872.632 -31.116 z M871.64 -39.886A 100.06 100.06 0 0 1 916.348 -34.761A 23.641 23.641 0 0 1 932.071 -11.708A 12.553 12.553 0 0 1 922.577 0.058A 0.06 0.06 0 0 1 922.562 0.06 L846.997 0.06A 12.553 12.553 0 0 1 834.447 -12.212A 23.641 23.641 0 0 1 850.408 -35.102A 100.06 100.06 0 0 1 871.64 -39.886 z"/>
        <path id="op_2D_Profile17-28-13" fill="none" stroke="rgb(0,0,255)" stroke-width="0.1" d=" M878.449 -36.781 L878.449 -32.656 L879.895 -34.247 M878.449 -32.656 L878.449 -30.031 M879.895 -34.247 L882.199 -36.781 M884.486 -35.656A 1.543 1.543 0 0 1 885.986 -36.781A 1.495 1.495 0 0 1 887.488 -35.293A 1.495 1.495 0 0 1 887.261 -34.494 L884.486 -30.031 L887.486 -30.031 M882.236 -30.031 L879.895 -34.247"/>
    </g>
    <g id="Setup11">
        <path id="op_2D_Profile18-30-14" fill="none" stroke="rgb(255,0,0)" stroke-width="0.1" d=" M946.397 -12.493A 1.44 1.44 0 0 0 944.957 -13.933A 1.44 1.44 0 0 0 943.517 -12.493A 1.44 1.44 0 0 0 944.957 -11.053A 1.44 1.44 0 0 0 946.397 -12.493 z M949.08 -12.536A 5.44 5.44 0 0 0 950.658 -8.662A 5.44 5.44 0 0 0 954.52 -7.053 L980.52 -7.053A 0.56 0.56 0 0 1 980.915 -6.889A 0.56 0.56 0 0 1 981.079 -6.493 L981.079 -4.053 L999.959 -4.053 L999.959 -6.493A 0.56 0.56 0 0 1 1000.519 -7.053 L1026.52 -7.053A 5.44 5.44 0 0 0 1031.96 -12.493A 5.44 5.44 0 0 0 1029.764 -16.86A 77.102 77.102 0 0 0 951.297 -16.873 L951.254 -16.844A 5.44 5.44 0 0 0 949.08 -12.536 z M1034.451 -12.754A 1.44 1.44 0 0 0 1035.606 -11.077A 1.44 1.44 0 0 0 1037.283 -12.233A 1.44 1.44 0 0 0 1036.127 -13.909A 1.44 1.44 0 0 0 1034.451 -12.754 z M1001.701 -30.851 L1020.932 -26.342 L1022.046 -31.093 L1002.691 -35.632 L1001.577 -30.88 L1001.701 -30.851 z M980.155 -31.116 L979.117 -35.753 L959.717 -31.415 L960.781 -26.653 L980.182 -30.991 L980.155 -31.116 z M979.162 -39.886A 100.06 100.06 0 0 1 1023.87 -34.761A 23.641 23.641 0 0 1 1039.593 -11.708A 12.553 12.553 0 0 1 1030.1 0.058A 0.06 0.06 0 0 1 1030.085 0.06 L954.52 0.06A 12.553 12.553 0 0 1 941.97 -12.212A 23.641 23.641 0 0 1 957.93 -35.102A 100.06 100.06 0 0 1 979.162 -39.886 z"/>
        <path id="op_2D_Profile19-31-15" fill="none" stroke="rgb(0,0,255)" stroke-width="0.1" d=" M985.971 -36.781 L985.971 -32.656 L987.417 -34.247 M985.971 -32.656 L985.971 -30.031 M987.417 -34.247 L989.721 -36.781 M992.009 -35.656A 1.543 1.543 0 0 1 993.509 -36.781A 1.495 1.495 0 0 1 995.011 -35.293A 1.495 1.495 0 0 1 994.784 -34.494 L992.009 -30.031 L995.009 -30.031 M989.759 -30.031 L987.417 -34.247"/>
    </g>
</svg>

