<?xml version="1.0" encoding="UTF-8" standalone="no"?>
<svg
   xmlns:dc="http://purl.org/dc/elements/1.1/"
   xmlns:cc="http://creativecommons.org/ns#"
   xmlns:rdf="http://www.w3.org/1999/02/22-rdf-syntax-ns#"
   xmlns:svg="http://www.w3.org/2000/svg"
   xmlns="http://www.w3.org/2000/svg"
   xmlns:sodipodi="http://sodipodi.sourceforge.net/DTD/sodipodi-0.dtd"
   xmlns:inkscape="http://www.inkscape.org/namespaces/inkscape"
   width="1071.7521155369893mm"
   height="677.6608467102051mm"
   viewBox="-10 -610 1071.7521155369893 677.6608467102051"
   version="1.1"
   id="svg20"
   sodipodi:docname="CAM-drevicka2mm-rameno-v1.svg"
   inkscape:version="0.92.4 (5da689c313, 2019-01-14)">
  <metadata
     id="metadata26">
    <rdf:RDF>
      <cc:Work
         rdf:about="">
        <dc:format>image/svg+xml</dc:format>
        <dc:type
           rdf:resource="http://purl.org/dc/dcmitype/StillImage" />
        <dc:title></dc:title>
      </cc:Work>
    </rdf:RDF>
  </metadata>
  <defs
     id="defs24" />
  <sodipodi:namedview
     pagecolor="#ffffff"
     bordercolor="#666666"
     borderopacity="1"
     objecttolerance="10"
     gridtolerance="10"
     guidetolerance="10"
     inkscape:pageopacity="0"
     inkscape:pageshadow="2"
     inkscape:window-width="1920"
     inkscape:window-height="1017"
     id="namedview22"
     showgrid="false"
     inkscape:zoom="0.56088842"
     inkscape:cx="2829.9311"
     inkscape:cy="633.35327"
     inkscape:window-x="-8"
     inkscape:window-y="-8"
     inkscape:window-maximized="1"
     inkscape:current-layer="svg20" />
  <polyline
     points="0,0 425,0 425,-600 0,-600 0,0"
     stroke="rgb(0,0,0)"
     stroke-width="0.1"
     fill="none"
     id="polyline2" />
  <g
     id="Setup1">
    <path
       id="op_2D_Profile1-3-0"
       fill="none"
       stroke="rgb(255,0,0)"
       stroke-width="0.1"
       d=" M456.536 -15.895A 1.34 1.34 0 0 0 455.305 -17.336A 1.34 1.34 0 0 0 453.864 -16.105A 1.34 1.34 0 0 0 455.095 -14.664A 1.34 1.34 0 0 0 456.536 -15.895 z M565.577 -8.096A 1.34 1.34 0 0 0 566.818 -6.663A 1.34 1.34 0 0 0 568.251 -7.904A 1.34 1.34 0 0 0 567.01 -9.337A 1.34 1.34 0 0 0 565.577 -8.096 z M571.974 -8.096 L571.974 -8A 8.06 8.06 0 0 1 563.914 0.06 L445 0.06A 0.06 0.06 0 0 1 444.94 0 L444.94 -24A 8.06 8.06 0 0 1 453 -32.06 L455.2 -32.06 L455.204 -32.06 L455.208 -32.059 L565.009 -17.007A 8.06 8.06 0 0 1 571.974 -9.022 L571.974 -8.096 z" />
  </g>
  <g
     id="Setup2">
    <path
       id="op_2D_Profile2-5-1"
       fill="none"
       stroke="rgb(255,0,0)"
       stroke-width="0.1"
       d=" M759.837 -6.44A 1.44 1.44 0 0 0 759.652 -4.412A 1.44 1.44 0 0 0 761.68 -4.227A 1.44 1.44 0 0 0 761.865 -6.255A 1.44 1.44 0 0 0 759.837 -6.44 z M756.865 -10.667A 1.44 1.44 0 0 0 755.425 -12.107A 1.44 1.44 0 0 0 753.985 -10.667A 1.44 1.44 0 0 0 755.425 -9.227A 1.44 1.44 0 0 0 756.865 -10.667 z M757.108 -23.09A 1.34 1.34 0 0 0 759.002 -23.016A 1.34 1.34 0 0 0 759.076 -24.91A 1.34 1.34 0 0 0 757.182 -24.984A 1.34 1.34 0 0 0 757.108 -23.09 z M698.628 -17.34A 1.34 1.34 0 0 0 697.288 -16A 1.34 1.34 0 0 0 698.628 -14.66A 1.34 1.34 0 0 0 699.968 -16A 1.34 1.34 0 0 0 698.628 -17.34 z M588.249 -8.112A 1.34 1.34 0 0 0 586.802 -9.335A 1.34 1.34 0 0 0 585.579 -7.888A 1.34 1.34 0 0 0 587.026 -6.665A 1.34 1.34 0 0 0 588.254 -8 L588.235 -8.223 M581.854 -8.112 L581.854 -9.022A 8.06 8.06 0 0 1 588.819 -17.007 L698.62 -32.059 L698.624 -32.06 L698.628 -32.06 L758.092 -32.06A 8.06 8.06 0 0 1 766.152 -24 L766.152 0A 0.06 0.06 0 0 1 766.092 0.06 L589.914 0.06A 8.06 8.06 0 0 1 581.854 -8 L581.854 -8.112 z" />
  </g>
  <g
     id="Setup3">
    <path
       id="op_2D_Profile3-9-2"
       fill="none"
       stroke="rgb(255,0,0)"
       stroke-width="0.1"
       d=" M824.219 0.054A 0.06 0.06 0 0 1 824.192 0.06 L821.992 0.06A 0.06 0.06 0 0 1 821.932 0 L821.932 -28.068 L778.352 -28.068 L778.352 0A 0.06 0.06 0 0 1 778.292 0.06 L776.092 0.06A 0.06 0.06 0 0 1 776.032 0 L776.032 -122.386A 0.06 0.06 0 0 1 776.092 -122.446 L778.292 -122.446A 0.06 0.06 0 0 1 778.352 -122.386 L778.352 -108.188 L821.932 -108.188 L821.932 -122.386A 0.06 0.06 0 0 1 821.992 -122.446 L824.192 -122.446A 0.06 0.06 0 0 1 824.252 -122.386 L824.252 0A 0.06 0.06 0 0 1 824.219 0.054 z" />
  </g>
  <g
     id="Setup4">
    <path
       id="op_2D_Profile4-11-3"
       fill="none"
       stroke="rgb(255,0,0)"
       stroke-width="0.1"
       d=" M882.352 0A 0.06 0.06 0 0 1 882.292 0.06 L880.092 0.06A 0.06 0.06 0 0 1 880.032 0 L880.032 -14.198 L836.452 -14.198 L836.452 0A 0.06 0.06 0 0 1 836.392 0.06 L834.192 0.06A 0.06 0.06 0 0 1 834.132 0 L834.132 -122.386A 0.06 0.06 0 0 1 834.192 -122.446 L836.392 -122.446A 0.06 0.06 0 0 1 836.452 -122.386 L836.452 -94.318 L880.032 -94.318 L880.032 -122.386A 0.06 0.06 0 0 1 880.092 -122.446 L882.292 -122.446A 0.06 0.06 0 0 1 882.352 -122.386 L882.352 0 z" />
  </g>
  <g
     id="Setup5">
    <path
       id="op_2D_Profile5-13-4"
       fill="none"
       stroke="rgb(255,0,0)"
       stroke-width="0.1"
       d=" M900.397 -9.336A 1.34 1.34 0 0 0 898.956 -8.105A 1.34 1.34 0 0 0 900.187 -6.664A 1.34 1.34 0 0 0 901.628 -7.895A 1.34 1.34 0 0 0 900.397 -9.336 z M903.802 -115.05A 1.44 1.44 0 0 0 905.242 -113.61A 1.44 1.44 0 0 0 906.682 -115.05A 1.44 1.44 0 0 0 905.242 -116.49A 1.44 1.44 0 0 0 903.802 -115.05 z M901.708 -119.739A 1.44 1.44 0 0 0 900.553 -121.416A 1.44 1.44 0 0 0 898.876 -120.261A 1.44 1.44 0 0 0 900.032 -118.584A 1.44 1.44 0 0 0 901.708 -119.739 z M904.135 -124.028A 1.44 1.44 0 0 0 906.163 -123.843A 1.44 1.44 0 0 0 906.348 -125.871A 1.44 1.44 0 0 0 904.32 -126.056A 1.44 1.44 0 0 0 904.135 -124.028 z M896.264 -123.843A 1.44 1.44 0 0 0 896.449 -125.871A 1.44 1.44 0 0 0 894.421 -126.056A 1.44 1.44 0 0 0 894.236 -124.028A 1.44 1.44 0 0 0 896.264 -123.843 z M895.492 -116.482A 1.44 1.44 0 0 0 893.91 -115.2A 1.44 1.44 0 0 0 895.192 -113.618A 1.44 1.44 0 0 0 896.775 -114.9A 1.44 1.44 0 0 0 895.492 -116.482 z M892.232 -116.482 L892.232 -126.128A 0.06 0.06 0 0 1 892.245 -126.165A 10.26 10.26 0 0 1 906.657 -127.847A 10.26 10.26 0 0 1 908.339 -126.165A 0.06 0.06 0 0 1 908.352 -126.128 L908.352 -3.742A 0.06 0.06 0 0 1 908.339 -3.705A 10.06 10.06 0 0 1 900.492 0.06 L900.092 0.06A 10.06 10.06 0 0 1 892.245 -3.705A 0.06 0.06 0 0 1 892.232 -3.742 L892.232 -116.482 z" />
  </g>
  <g
     id="Setup6">
    <path
       id="op_2D_Profile6-15-5"
       fill="none"
       stroke="rgb(255,0,0)"
       stroke-width="0.1"
       d=" M930.32 -116.157A 1.44 1.44 0 0 0 930.135 -114.129A 1.44 1.44 0 0 0 932.163 -113.944A 1.44 1.44 0 0 0 932.348 -115.972A 1.44 1.44 0 0 0 930.32 -116.157 z M927.732 -120A 1.44 1.44 0 0 0 926.292 -121.44A 1.44 1.44 0 0 0 924.852 -120A 1.44 1.44 0 0 0 926.292 -118.56A 1.44 1.44 0 0 0 927.732 -120 z M930.135 -124.028A 1.44 1.44 0 0 0 932.163 -123.843A 1.44 1.44 0 0 0 932.348 -125.871A 1.44 1.44 0 0 0 930.32 -126.056A 1.44 1.44 0 0 0 930.135 -124.028 z M922.264 -123.843A 1.44 1.44 0 0 0 922.449 -125.871A 1.44 1.44 0 0 0 920.421 -126.056A 1.44 1.44 0 0 0 920.236 -124.028A 1.44 1.44 0 0 0 922.264 -123.843 z M922.449 -115.972A 1.44 1.44 0 0 0 920.421 -116.157A 1.44 1.44 0 0 0 920.236 -114.129A 1.44 1.44 0 0 0 922.264 -113.944A 1.44 1.44 0 0 0 922.449 -115.972 z M926.244 -9.339A 1.34 1.34 0 0 0 924.953 -7.952A 1.34 1.34 0 0 0 926.34 -6.661A 1.34 1.34 0 0 0 927.631 -8.048A 1.34 1.34 0 0 0 926.292 -9.34 L926.197 -9.337 M918.232 -9.339 L918.232 -126.128A 0.06 0.06 0 0 1 918.245 -126.165A 10.26 10.26 0 0 1 932.657 -127.847A 10.26 10.26 0 0 1 934.339 -126.165A 0.06 0.06 0 0 1 934.352 -126.128 L934.352 -3.742A 0.06 0.06 0 0 1 934.339 -3.705A 10.06 10.06 0 0 1 926.492 0.06 L926.092 0.06A 10.06 10.06 0 0 1 918.245 -3.705A 0.06 0.06 0 0 1 918.232 -3.742 L918.232 -9.339 z" />
  </g>
  <g
     id="Setup7">
    <path
       id="op_2D_Profile7-17-6"
       fill="none"
       stroke="rgb(255,0,0)"
       stroke-width="0.1"
       d=" M966.142 -3.56A 4.44 4.44 0 0 0 970.582 -8A 4.44 4.44 0 0 0 966.142 -12.44A 4.44 4.44 0 0 0 961.702 -8A 4.44 4.44 0 0 0 966.142 -3.56 z M966.142 0.06 L944.292 0.06A 0.06 0.06 0 0 1 944.232 0 L944.232 -16A 0.06 0.06 0 0 1 944.292 -16.06 L987.992 -16.06A 0.06 0.06 0 0 1 988.052 -16 L988.052 0A 0.06 0.06 0 0 1 987.992 0.06 L966.142 0.06 z" />
  </g>
  <g
     id="Setup8">
    <path
       id="op_2D_Profile8-19-7"
       fill="none"
       stroke="rgb(255,0,0)"
       stroke-width="0.1"
       d=" M1019.842 -12.44A 4.44 4.44 0 0 0 1015.402 -8A 4.44 4.44 0 0 0 1019.842 -3.56A 4.44 4.44 0 0 0 1024.282 -8A 4.44 4.44 0 0 0 1019.842 -12.44 z M1019.842 -16.06 L1041.692 -16.06A 0.06 0.06 0 0 1 1041.752 -16 L1041.752 0A 0.06 0.06 0 0 1 1041.692 0.06 L997.992 0.06A 0.06 0.06 0 0 1 997.932 0 L997.932 -16A 0.06 0.06 0 0 1 997.992 -16.06 L1019.842 -16.06 z" />
  </g>
</svg>
