<?xml version="1.0" encoding="UTF-8" standalone="no"?>
<svg
   xmlns:dc="http://purl.org/dc/elements/1.1/"
   xmlns:cc="http://creativecommons.org/ns#"
   xmlns:rdf="http://www.w3.org/1999/02/22-rdf-syntax-ns#"
   xmlns:svg="http://www.w3.org/2000/svg"
   xmlns="http://www.w3.org/2000/svg"
   xmlns:sodipodi="http://sodipodi.sourceforge.net/DTD/sodipodi-0.dtd"
   xmlns:inkscape="http://www.inkscape.org/namespaces/inkscape"
   width="1905.536595336657mm"
   height="636.1258144378662mm"
   viewBox="-10 -610 1905.536595336657 636.1258144378662"
   version="1.1"
   id="svg86"
   sodipodi:docname="CAM-preklizka-3mm-podvozek-v1.svg"
   inkscape:version="0.92.4 (5da689c313, 2019-01-14)">
  <metadata
     id="metadata92">
    <rdf:RDF>
      <cc:Work
         rdf:about="">
        <dc:format>image/svg+xml</dc:format>
        <dc:type
           rdf:resource="http://purl.org/dc/dcmitype/StillImage" />
      </cc:Work>
    </rdf:RDF>
  </metadata>
  <defs
     id="defs90" />
  <sodipodi:namedview
     pagecolor="#ffffff"
     bordercolor="#666666"
     borderopacity="1"
     objecttolerance="10"
     gridtolerance="10"
     guidetolerance="10"
     inkscape:pageopacity="0"
     inkscape:pageshadow="2"
     inkscape:window-width="1920"
     inkscape:window-height="1017"
     id="namedview88"
     showgrid="false"
     inkscape:zoom="0.22306864"
     inkscape:cx="4420.8078"
     inkscape:cy="566.26057"
     inkscape:window-x="-8"
     inkscape:window-y="-8"
     inkscape:window-maximized="1"
     inkscape:current-layer="svg86" />
  <polyline
     points="0,0 425,0 425,-600 0,-600 0,0"
     stroke="rgb(0,0,0)"
     stroke-width="0.1"
     fill="none"
     id="polyline2" />
  <g
     id="paluba">
    <path
       id="op_2D_Profile1-3-0"
       fill="none"
       stroke="rgb(255,0,0)"
       stroke-width="0.1"
       d=" M491.335 -149.94 L490.86 -149.94 L490.86 -137.06 L493.74 -137.06 L493.74 -149.94 L491.335 -149.94 z M481.275 -160.81A 2.19 2.19 0 0 0 483.465 -163A 2.19 2.19 0 0 0 481.275 -165.19A 2.19 2.19 0 0 0 479.085 -163A 2.19 2.19 0 0 0 481.275 -160.81 z M471.265 -137.06 L471.74 -137.06 L471.74 -149.94 L468.86 -149.94 L468.86 -137.06 L471.265 -137.06 z M468.262 -70.06 L468.74 -70.06 L468.74 -129.94 L456.86 -129.94 L456.86 -70.06 L468.262 -70.06 z M471.74 -59.227 L471.74 -59.82 L471.74 -59.94 L468.86 -59.94 L468.86 -50.06 L471.74 -50.06 L471.74 -59.227 z M481.712 -39.146A 2.19 2.19 0 0 0 479.129 -37.437A 2.19 2.19 0 0 0 480.838 -34.854A 2.19 2.19 0 0 0 483.421 -36.563A 2.19 2.19 0 0 0 481.712 -39.146 z M493.267 -50.06 L493.74 -50.06 L493.74 -59.94 L490.86 -59.94 L490.86 -50.06 L493.267 -50.06 z M534.39 -39.463 L534.39 -39.94 L514.51 -39.94 L514.51 -34.46 L534.39 -34.46 L534.39 -39.463 z M556.087 -39.94 L555.61 -39.94 L555.61 -34.46 L575.49 -34.46 L575.49 -39.94 L556.087 -39.94 z M596.26 -50.533 L596.26 -50.06 L599.14 -50.06 L599.14 -59.94 L596.26 -59.94 L596.26 -50.533 z M608.725 -39.19A 2.19 2.19 0 0 0 606.535 -37A 2.19 2.19 0 0 0 608.725 -34.81A 2.19 2.19 0 0 0 610.915 -37A 2.19 2.19 0 0 0 608.725 -39.19 z M618.733 -59.94 L618.26 -59.94 L618.26 -50.06 L621.14 -50.06 L621.14 -59.94 L618.733 -59.94 z M621.738 -129.94 L621.26 -129.94 L621.26 -70.06 L633.14 -70.06 L633.14 -129.94 L621.738 -129.94 z M618.26 -137.94 L618.26 -137.06 L621.14 -137.06 L621.14 -149.94 L618.26 -149.94 L618.26 -137.94 z M608.288 -160.854A 2.19 2.19 0 0 0 610.871 -162.563A 2.19 2.19 0 0 0 609.162 -165.146A 2.19 2.19 0 0 0 606.579 -163.437A 2.19 2.19 0 0 0 608.288 -160.854 z M599.14 -149.465 L599.14 -149.94 L596.26 -149.94 L596.26 -137.06 L599.14 -137.06 L599.14 -149.465 z M618.473 -167.924A 100.06 100.06 0 0 1 612.924 -26.527A 100.06 100.06 0 0 1 471.527 -32.076A 100.06 100.06 0 0 1 477.076 -173.473A 100.06 100.06 0 0 1 618.473 -167.924 z" />
    <path
       id="op_2D_Profile2-4-1"
       fill="none"
       stroke="rgb(0,0,0)"
       stroke-width="0.1"
       d=" M475.01 -140.01 L475.01 -143.01 L475.01 -146.76 L476.885 -146.76A 1.875 1.875 0 0 1 478.76 -144.885A 1.875 1.875 0 0 1 476.885 -143.01 L475.01 -143.01 M481.01 -145.26 L482.51 -146.76 L482.51 -140.01" />
  </g>
  <g
     id="dno">
    <path
       id="op_2D_Profile3-6-2"
       fill="none"
       stroke="rgb(255,0,0)"
       stroke-width="0.1"
       d=" M811.617 -42.355A 1.24 1.24 0 0 0 813.37 -42.392A 1.24 1.24 0 0 0 813.333 -44.145A 1.24 1.24 0 0 0 811.58 -44.108A 1.24 1.24 0 0 0 811.617 -42.355 z M809.14 -37.06 L809.14 -39.94 L806.26 -39.94 L806.26 -30.06 L809.14 -30.06 L809.14 -37.06 z M813.333 -31.645A 1.24 1.24 0 0 0 811.58 -31.608A 1.24 1.24 0 0 0 811.617 -29.855A 1.24 1.24 0 0 0 813.37 -29.892A 1.24 1.24 0 0 0 813.333 -31.645 z M821.495 -30.956 L820.947 -31.644 L806.968 -20.496 L808.763 -18.244 L822.742 -29.392 L821.495 -30.956 z M823.735 -30.75A 1.24 1.24 0 0 0 824.975 -29.51A 1.24 1.24 0 0 0 826.215 -30.75A 1.24 1.24 0 0 0 824.975 -31.99A 1.24 1.24 0 0 0 823.735 -30.75 z M821.406 -36.775A 2.69 2.69 0 0 0 818.95 -39.681A 2.69 2.69 0 0 0 816.044 -37.225A 2.69 2.69 0 0 0 818.5 -34.319A 2.69 2.69 0 0 0 821.406 -36.775 z M825.87 -42.392A 1.24 1.24 0 0 0 825.833 -44.145A 1.24 1.24 0 0 0 824.08 -44.108A 1.24 1.24 0 0 0 824.117 -42.355A 1.24 1.24 0 0 0 825.87 -42.392 z M828.26 -45.773 L828.26 -45.18 L828.26 -45.06 L831.14 -45.06 L831.14 -54.94 L828.26 -54.94 L828.26 -45.773 z M838.254 -54.941 L838.052 -54.521 L840.647 -53.272 L844.934 -62.173 L842.339 -63.423 L838.254 -54.941 z M834.26 -70.06 L843.14 -70.06 L843.14 -75A 0.06 0.06 0 0 1 843.2 -75.06 L846.14 -75.06 L846.14 -84.94 L843.2 -84.94A 0.06 0.06 0 0 1 843.14 -85 L843.14 -115A 0.06 0.06 0 0 1 843.2 -115.06 L846.14 -115.06 L846.14 -124.94 L843.2 -124.94A 0.06 0.06 0 0 1 843.14 -125 L843.14 -129.94 L831.26 -129.94 L831.26 -125A 0.06 0.06 0 0 1 831.2 -124.94 L828.26 -124.94 L828.26 -115.06 L831.2 -115.06A 0.06 0.06 0 0 1 831.26 -115 L831.26 -85A 0.06 0.06 0 0 1 831.2 -84.94 L828.26 -84.94 L828.26 -75.06 L831.2 -75.06A 0.06 0.06 0 0 1 831.26 -75 L831.26 -70.06 L834.26 -70.06 z M813.76 -112.033 L813.76 -111.56 L823.64 -111.56 L823.64 -114.44 L813.76 -114.44 L813.76 -112.033 z M808.667 -110.06 L809.14 -110.06 L809.14 -119.94 L806.26 -119.94 L806.26 -110.06 L808.667 -110.06 z M806.733 -89.94 L806.26 -89.94 L806.26 -80.06 L809.14 -80.06 L809.14 -89.94 L806.733 -89.94 z M766.084 -38.94 L765.61 -38.94 L765.61 -34.46 L785.49 -34.46 L785.49 -38.94 L766.084 -38.94 z M724.984 -38.94 L724.51 -38.94 L724.51 -34.46 L744.39 -34.46 L744.39 -38.94 L724.984 -38.94 z M700.86 -31.94 L700.86 -30.06 L703.74 -30.06 L703.74 -39.94 L700.86 -39.94 L700.86 -31.94 z M698.37 -29.892A 1.24 1.24 0 0 0 698.333 -31.645A 1.24 1.24 0 0 0 696.58 -31.608A 1.24 1.24 0 0 0 696.617 -29.855A 1.24 1.24 0 0 0 698.37 -29.892 z M690.523 -30.472 L689.053 -31.644 L687.258 -29.392 L701.237 -18.244 L703.032 -20.496 L690.523 -30.472 z M686.215 -30.75A 1.24 1.24 0 0 0 684.975 -31.99A 1.24 1.24 0 0 0 683.735 -30.75A 1.24 1.24 0 0 0 684.975 -29.51A 1.24 1.24 0 0 0 686.215 -30.75 z M693.205 -38.821A 2.69 2.69 0 0 0 689.404 -38.98A 2.69 2.69 0 0 0 689.245 -35.179A 2.69 2.69 0 0 0 693.046 -35.02A 2.69 2.69 0 0 0 693.205 -38.821 z M696.617 -42.355A 1.24 1.24 0 0 0 698.37 -42.392A 1.24 1.24 0 0 0 698.333 -44.145A 1.24 1.24 0 0 0 696.58 -44.108A 1.24 1.24 0 0 0 696.617 -42.355 z M684.975 -44.49A 1.24 1.24 0 0 0 683.735 -43.25A 1.24 1.24 0 0 0 684.975 -42.01A 1.24 1.24 0 0 0 686.215 -43.25A 1.24 1.24 0 0 0 684.975 -44.49 z M681.74 -47.06 L681.74 -54.94 L678.86 -54.94 L678.86 -45.06 L681.74 -45.06 L681.74 -47.06 z M671.514 -55.422 L667.661 -63.423 L665.066 -62.173 L669.353 -53.272 L671.948 -54.521 L671.514 -55.422 z M679.74 -84.94 L678.8 -84.94A 0.06 0.06 0 0 1 678.74 -85 L678.74 -115A 0.06 0.06 0 0 1 678.8 -115.06 L681.74 -115.06 L681.74 -124.94 L678.8 -124.94A 0.06 0.06 0 0 1 678.74 -125 L678.74 -129.94 L666.86 -129.94 L666.86 -125A 0.06 0.06 0 0 1 666.8 -124.94 L663.86 -124.94 L663.86 -115.06 L666.8 -115.06A 0.06 0.06 0 0 1 666.86 -115 L666.86 -85A 0.06 0.06 0 0 1 666.8 -84.94 L663.86 -84.94 L663.86 -75.06 L666.8 -75.06A 0.06 0.06 0 0 1 666.86 -75 L666.86 -70.06 L678.74 -70.06 L678.74 -75A 0.06 0.06 0 0 1 678.8 -75.06 L681.74 -75.06 L681.74 -84.94 L679.74 -84.94 z M695.767 -111.56 L696.24 -111.56 L696.24 -114.44 L686.36 -114.44 L686.36 -111.56 L695.767 -111.56 z M700.86 -110.533 L700.86 -110.06 L703.74 -110.06 L703.74 -119.94 L700.86 -119.94 L700.86 -110.533 z M701.333 -89.94 L700.86 -89.94 L700.86 -80.06 L703.74 -80.06 L703.74 -89.94 L701.333 -89.94 z M698.37 -155.892A 1.24 1.24 0 0 0 698.333 -157.645A 1.24 1.24 0 0 0 696.58 -157.608A 1.24 1.24 0 0 0 696.617 -155.855A 1.24 1.24 0 0 0 698.37 -155.892 z M700.86 -161.94 L700.86 -157.06 L703.74 -157.06 L703.74 -169.94 L700.86 -169.94 L700.86 -161.94 z M696.617 -168.355A 1.24 1.24 0 0 0 698.37 -168.392A 1.24 1.24 0 0 0 698.333 -170.145A 1.24 1.24 0 0 0 696.58 -170.108A 1.24 1.24 0 0 0 696.617 -168.355 z M691.885 -171.22 L692.181 -170.85 L699.905 -177.01 L698.109 -179.262 L690.385 -173.102 L691.885 -171.22 z M690.248 -165.506A 2.69 2.69 0 0 0 688.719 -162.023A 2.69 2.69 0 0 0 692.202 -160.494A 2.69 2.69 0 0 0 693.731 -163.977A 2.69 2.69 0 0 0 690.248 -165.506 z M685.87 -168.392A 1.24 1.24 0 0 0 685.833 -170.145A 1.24 1.24 0 0 0 684.08 -170.108A 1.24 1.24 0 0 0 684.117 -168.355A 1.24 1.24 0 0 0 685.87 -168.392 z M684.08 -157.608A 1.24 1.24 0 0 0 684.117 -155.855A 1.24 1.24 0 0 0 685.87 -155.892A 1.24 1.24 0 0 0 685.833 -157.645A 1.24 1.24 0 0 0 684.08 -157.608 z M681.74 -154.225 L681.74 -154.82 L681.74 -154.94 L678.86 -154.94 L678.86 -142.06 L681.74 -142.06 L681.74 -154.225 z M668.095 -137.478 L671.948 -145.479 L669.353 -146.728 L665.066 -137.827 L667.661 -136.577 L668.095 -137.478 z M660.44 -104.227 L660.44 -104.82 L660.44 -104.94 L657.56 -104.94 L657.56 -95.06 L660.44 -95.06 L660.44 -104.227 z M738.32 -193.185 L738.775 -193.288 L738.134 -196.096 L728.501 -193.898 L729.142 -191.09 L738.32 -193.185 z M776.1 -192.176 L780.858 -191.09 L781.499 -193.898 L771.866 -196.096 L771.225 -193.288 L776.1 -192.176 z M810.385 -177.374 L810.095 -177.01 L817.819 -170.85 L819.615 -173.102 L811.891 -179.262 L810.385 -177.374 z M811.58 -170.108A 1.24 1.24 0 0 0 811.617 -168.355A 1.24 1.24 0 0 0 813.37 -168.392A 1.24 1.24 0 0 0 813.333 -170.145A 1.24 1.24 0 0 0 811.58 -170.108 z M809.14 -164.06 L809.14 -169.94 L806.26 -169.94 L806.26 -157.06 L809.14 -157.06 L809.14 -164.06 z M812.475 -157.99A 1.24 1.24 0 0 0 811.235 -156.75A 1.24 1.24 0 0 0 812.475 -155.51A 1.24 1.24 0 0 0 813.715 -156.75A 1.24 1.24 0 0 0 812.475 -157.99 z M818.5 -160.319A 2.69 2.69 0 0 0 821.406 -162.775A 2.69 2.69 0 0 0 818.95 -165.681A 2.69 2.69 0 0 0 816.044 -163.225A 2.69 2.69 0 0 0 818.5 -160.319 z M824.08 -157.608A 1.24 1.24 0 0 0 824.117 -155.855A 1.24 1.24 0 0 0 825.87 -155.892A 1.24 1.24 0 0 0 825.833 -157.645A 1.24 1.24 0 0 0 824.08 -157.608 z M828.26 -153.94 L828.26 -142.06 L831.14 -142.06 L831.14 -154.94 L828.26 -154.94 L828.26 -153.94 z M838.472 -145.681 L838.052 -145.479 L842.339 -136.577 L844.934 -137.827 L840.647 -146.728 L838.472 -145.681 z M825.87 -168.392A 1.24 1.24 0 0 0 825.833 -170.145A 1.24 1.24 0 0 0 824.08 -170.108A 1.24 1.24 0 0 0 824.117 -168.355A 1.24 1.24 0 0 0 825.87 -168.392 z M850.033 -104.94 L849.56 -104.94 L849.56 -95.06 L852.44 -95.06 L852.44 -104.94 L850.033 -104.94 z M854.93 -105.094A 100.06 100.06 0 0 1 760.094 -0.07A 100.06 100.06 0 0 1 655.07 -94.906A 100.06 100.06 0 0 1 749.906 -199.93A 100.06 100.06 0 0 1 854.93 -105.094 z" />
    <path
       id="op_2D_Profile4-7-3"
       fill="none"
       stroke="rgb(0,0,0)"
       stroke-width="0.1"
       d=" M821.232 -144.688 L822.732 -146.188 L822.732 -139.438 M818.864 -140.811A 2.063 2.063 0 0 1 816.92 -139.438 L815.232 -139.438 L815.232 -146.188 L816.92 -146.188A 2.063 2.063 0 0 1 818.983 -144.125 L818.983 -141.5A 2.063 2.063 0 0 1 818.864 -140.811 z" />
  </g>
  <g
     id="OD2">
    <path
       id="op_2D_Profile5-9-4"
       d="M 877.571,0 V -2.94 H 865 A 0.06,0.06 0 0 1 864.94,-3 v -38 a 0.06,0.06 0 0 1 0.06,-0.06 h 31.505 a 0.06,0.06 0 0 1 0.06,0.06 v 38 a 0.06,0.06 0 0 1 -0.06,0.06 h -0.814 V 0 a 0.06,0.06 0 0 1 -0.06,0.06 h -18 A 0.06,0.06 0 0 1 877.571,0 Z"
       inkscape:connector-curvature="0"
       style="fill:none;stroke:#ff0000;stroke-width:0.1" />
    <path
       id="op_2D_Profile6-10-5"
       d="m 886.022,-10.939 a 1.543,1.543 0 0 1 1.5,-1.125 1.495,1.495 0 0 1 1.502,1.488 1.495,1.495 0 0 1 -0.227,0.799 l -2.775,4.463 h 3 m -9,-1 v -5.75 h 1.687 a 2.062,2.062 0 0 1 1.459,0.604 2.062,2.062 0 0 1 0.604,1.458 v 2.625 a 2.063,2.063 0 0 1 -0.604,1.459 2.063,2.063 0 0 1 -1.459,0.604 h -1.687 z M 877.731,-6.8 a 1.875,1.875 0 0 1 -2.223,1.445 1.875,1.875 0 0 1 -1.486,-1.834 v -3 a 1.875,1.875 0 0 1 1.875,-1.875 1.875,1.875 0 0 1 1.875,1.875 v 3 a 1.875,1.875 0 0 1 -0.041,0.389 z"
       inkscape:connector-curvature="0"
       style="fill:none;stroke:#000000;stroke-width:0.1" />
  </g>
  <g
     id="OD1">
    <path
       id="op_2D_Profile7-12-6"
       d="m 933.065,0 a 0.06,0.06 0 0 1 -0.06,0.06 h -10 A 0.06,0.06 0 0 1 922.945,0 v -2.94 h -16.44 A 0.06,0.06 0 0 1 906.445,-3 v -38 a 0.06,0.06 0 0 1 0.06,-0.06 h 43 a 0.06,0.06 0 0 1 0.06,0.06 v 38 a 0.06,0.06 0 0 1 -0.06,0.06 h -16.44 z"
       inkscape:connector-curvature="0"
       style="fill:none;stroke:#ff0000;stroke-width:0.1" />
    <path
       id="op_2D_Profile8-13-7"
       d="m 926.846,-10.192 v 3 0.008 a 1.875,1.875 0 0 1 -1.875,1.867 1.875,1.875 0 0 1 -1.875,-1.875 v -3 a 1.875,1.875 0 0 1 1.875,-1.875 1.875,1.875 0 0 1 1.875,1.875 z m 2.25,0.008 v -1.883 h 1.688 a 2.063,2.063 0 0 1 1.458,0.604 2.063,2.063 0 0 1 0.604,1.459 v 2.625 a 2.063,2.063 0 0 1 -2.062,2.062 h -1.688 v -1.867 z m 6,-0.383 1.5,-1.5 v 6.75"
       inkscape:connector-curvature="0"
       style="fill:none;stroke:#000000;stroke-width:0.1" />
  </g>
  <g
     id="OD1.1">
    <path
       id="op_2D_Profile9-15-8"
       d="m 969.697,-22.659 h -3 -0.008 a 1.875,1.875 0 0 1 -1.867,-1.875 1.875,1.875 0 0 1 1.875,-1.875 h 3 a 1.875,1.875 0 0 1 1.875,1.875 1.875,1.875 0 0 1 -1.875,1.875 z m -0.008,2.25 h 1.883 v 1.688 a 2.063,2.063 0 0 1 -0.604,1.458 2.063,2.063 0 0 1 -1.459,0.604 h -2.625 a 2.063,2.063 0 0 1 -2.062,-2.062 v -1.688 h 1.867 z m 0.383,6 1.5,1.5 h -6.75"
       inkscape:connector-curvature="0"
       style="fill:none;stroke:#000000;stroke-width:0.1" />
    <path
       id="op_2D_Profile10-16-9"
       d="m 959.505,-16.44 a 0.06,0.06 0 0 1 -0.06,-0.06 v -10 a 0.06,0.06 0 0 1 0.06,-0.06 h 2.94 V -43 a 0.06,0.06 0 0 1 0.06,-0.06 h 38 a 0.06,0.06 0 0 1 0.06,0.06 V 0 a 0.06,0.06 0 0 1 -0.06,0.06 h -38 A 0.06,0.06 0 0 1 962.445,0 v -16.44 z"
       inkscape:connector-curvature="0"
       style="fill:none;stroke:#ff0000;stroke-width:0.1" />
  </g>
  <g
     id="OD1.2">
    <path
       id="op_2D_Profile11-19-10"
       d="m 1037.065,0 a 0.06,0.06 0 0 1 -0.06,0.06 h -10 A 0.06,0.06 0 0 1 1026.945,0 v -2.94 h -16.44 a 0.06,0.06 0 0 1 -0.06,-0.06 v -38 a 0.06,0.06 0 0 1 0.06,-0.06 h 43 a 0.06,0.06 0 0 1 0.06,0.06 v 38 a 0.06,0.06 0 0 1 -0.06,0.06 h -16.44 z"
       inkscape:connector-curvature="0"
       style="fill:none;stroke:#ff0000;stroke-width:0.1" />
    <path
       id="op_2D_Profile12-20-11"
       d="m 1030.846,-10.192 v 3 0.008 a 1.875,1.875 0 0 1 -1.875,1.867 1.875,1.875 0 0 1 -1.875,-1.875 v -3 a 1.875,1.875 0 0 1 1.875,-1.875 1.875,1.875 0 0 1 1.875,1.875 z m 2.25,0.008 v -1.883 h 1.688 a 2.063,2.063 0 0 1 1.458,0.604 2.063,2.063 0 0 1 0.604,1.459 v 2.625 a 2.063,2.063 0 0 1 -2.062,2.062 h -1.688 v -1.867 z m 6,-0.383 1.5,-1.5 v 6.75"
       inkscape:connector-curvature="0"
       style="fill:none;stroke:#000000;stroke-width:0.1" />
  </g>
  <g
     id="OD1.3">
    <path
       id="op_2D_Profile13-22-12"
       d="m 1083.846,-10.192 v 3 0.008 a 1.875,1.875 0 0 1 -1.875,1.867 1.875,1.875 0 0 1 -1.875,-1.875 v -3 a 1.875,1.875 0 0 1 1.875,-1.875 1.875,1.875 0 0 1 1.875,1.875 z m 2.25,0.008 v -1.883 h 1.688 a 2.063,2.063 0 0 1 1.458,0.604 2.063,2.063 0 0 1 0.604,1.459 v 2.625 a 2.063,2.063 0 0 1 -2.062,2.062 h -1.688 v -1.867 z m 6,-0.383 1.5,-1.5 v 6.75"
       inkscape:connector-curvature="0"
       style="fill:none;stroke:#000000;stroke-width:0.1" />
    <path
       id="op_2D_Profile14-23-13"
       d="m 1090.065,0 a 0.06,0.06 0 0 1 -0.06,0.06 h -10 A 0.06,0.06 0 0 1 1079.945,0 v -2.94 h -16.44 a 0.06,0.06 0 0 1 -0.06,-0.06 v -38 a 0.06,0.06 0 0 1 0.06,-0.06 h 43 a 0.06,0.06 0 0 1 0.06,0.06 v 38 a 0.06,0.06 0 0 1 -0.06,0.06 h -16.44 z"
       inkscape:connector-curvature="0"
       style="fill:none;stroke:#ff0000;stroke-width:0.1" />
  </g>
  <g
     id="LM10">
    <path
       id="op_2D_Profile15-25-14"
       d="m 1133.972,-36.56 h 0.473 v -2.88 h -9.88 v 2.88 z m 8.593,-0.473 v 0.473 h 9.88 v -2.88 h -9.88 z m -4.285,18.214 a 2.69,2.69 0 0 0 2.906,-2.456 2.69,2.69 0 0 0 -2.456,-2.906 2.69,2.69 0 0 0 -2.905,2.456 2.69,2.69 0 0 0 2.455,2.906 z m -3.835,13.092 V -6.32 -6.44 h -9.88 v 2.88 h 9.88 z m 8.594,-0.713 h -0.474 v 2.88 h 9.88 v -2.88 z m -0.474,6.5 h -23.06 A 0.06,0.06 0 0 1 1119.445,0 v -16.44 h -2.94 a 0.06,0.06 0 0 1 -0.06,-0.06 v -10 a 0.06,0.06 0 0 1 0.06,-0.06 h 2.94 V -43 a 0.06,0.06 0 0 1 0.06,-0.06 h 38 a 0.06,0.06 0 0 1 0.06,0.06 V 0 a 0.06,0.06 0 0 1 -0.06,0.06 z"
       inkscape:connector-curvature="0"
       style="fill:none;stroke:#ff0000;stroke-width:0.1" />
    <path
       id="op_2D_Profile16-26-15"
       d="m 1125.528,-26.048 v -3 h 6.75 m -6.75,5.25 h 6.75 l -3.75,2.25 3.75,2.25 h -6.75 m 5.25,2.25 1.5,1.5 h -6.75 m 1.056,2.684 a 6.331,6.331 0 0 1 5.319,0.316 0.933,0.933 0 0 1 0.195,1.305 0.933,0.933 0 0 1 -0.195,0.195 6.331,6.331 0 0 1 -6,0 0.933,0.933 0 0 1 -0.195,-1.306 0.933,0.933 0 0 1 0.195,-0.194 6.331,6.331 0 0 1 0.681,-0.316 z"
       inkscape:connector-curvature="0"
       style="fill:none;stroke:#000000;stroke-width:0.1" />
  </g>
  <g
     id="LM8">
    <path
       id="op_2D_Profile18-29-16"
       d="m 1176.805,-33.06 a 0.06,0.06 0 0 1 0.06,0.06 v 10 a 0.06,0.06 0 0 1 -0.06,0.06 h -2.94 v 7.88 h 2.94 a 0.06,0.06 0 0 1 0.06,0.06 v 10 a 0.06,0.06 0 0 1 -0.06,0.06 h -2.94 V 0 a 0.06,0.06 0 0 1 -0.06,0.06 h -3.3 A 0.06,0.06 0 0 1 1170.445,0 v -4.94 h -2.94 a 0.06,0.06 0 0 1 -0.06,-0.06 v -10 a 0.06,0.06 0 0 1 0.06,-0.06 h 2.94 v -7.88 h -2.94 a 0.06,0.06 0 0 1 -0.06,-0.06 v -10 a 0.06,0.06 0 0 1 0.06,-0.06 h 2.94 V -38 a 0.06,0.06 0 0 1 0.06,-0.06 h 3.3 a 0.06,0.06 0 0 1 0.06,0.06 v 4.94 z"
       inkscape:connector-curvature="0"
       style="fill:none;stroke:#ff0000;stroke-width:0.1" />
    <path
       id="op_2D_Profile20-31-17"
       d="m 1173.909,-7.595 v 1.53 h -3.442 m 3.442,-2.677 h -3.442 l 1.912,-1.148 -1.912,-1.147 h 3.442 m -1.917,-1.996 a 0.765,0.765 0 0 1 0.01,0.079 0.765,0.765 0 0 1 0.765,-0.761 h 0.382 a 0.765,0.765 0 0 1 0.765,0.765 0.765,0.765 0 0 1 -0.765,0.765 h -0.382 a 0.765,0.765 0 0 1 -0.765,-0.761 0.765,0.765 0 0 1 -0.762,0.761 v 0 a 0.765,0.765 0 0 1 -0.765,-0.765 0.765,0.765 0 0 1 0.765,-0.765 0.765,0.765 0 0 1 0.76,0.682 z"
       inkscape:connector-curvature="0"
       style="fill:none;stroke:#000000;stroke-width:0.1" />
  </g>
  <g
     id="LM9">
    <path
       id="op_2D_Profile21-33-18"
       d="m 1193.285,-7.562 v 1.552 h -3.492 m 3.492,-2.716 h -3.492 l 1.94,-1.165 -1.94,-1.164 h 3.492 m -1.554,-2.727 v 0.773 a 0.776,0.776 0 0 1 -0.776,0.776 h -0.388 a 0.776,0.776 0 0 1 -0.776,-0.776 0.776,0.776 0 0 1 0.776,-0.776 h 1.067 a 1.746,1.746 0 0 1 1.651,1.178"
       inkscape:connector-curvature="0"
       style="fill:none;stroke:#000000;stroke-width:0.1" />
    <path
       id="op_2D_Profile22-34-19"
       d="m 1196.165,-5 a 0.06,0.06 0 0 1 -0.06,0.06 h -2.94 V 0 a 0.06,0.06 0 0 1 -0.06,0.06 h -3.3 A 0.06,0.06 0 0 1 1189.745,0 v -4.94 h -2.94 a 0.06,0.06 0 0 1 -0.06,-0.06 v -10 a 0.06,0.06 0 0 1 0.06,-0.06 h 2.94 v -7.88 h -2.94 a 0.06,0.06 0 0 1 -0.06,-0.06 v -10 a 0.06,0.06 0 0 1 0.06,-0.06 h 2.94 V -38 a 0.06,0.06 0 0 1 0.06,-0.06 h 3.3 a 0.06,0.06 0 0 1 0.06,0.06 v 4.94 h 2.94 a 0.06,0.06 0 0 1 0.06,0.06 v 10 a 0.06,0.06 0 0 1 -0.06,0.06 h -2.94 v 7.88 h 2.94 a 0.06,0.06 0 0 1 0.06,0.06 z"
       inkscape:connector-curvature="0"
       style="fill:none;stroke:#ff0000;stroke-width:0.1" />
  </g>
  <g
     id="LM7">
    <path
       id="op_2D_Profile23-36-20"
       d="m 1224.045,-46.06 v -1.88 h -9.88 v 2.88 h 9.88 z m 8.12,0.527 v 0.473 h 9.88 v -2.88 h -9.88 z m -1.37,15.533 a 2.69,2.69 0 0 0 -2.69,-2.69 2.69,2.69 0 0 0 -2.69,2.69 2.69,2.69 0 0 0 2.69,2.69 2.69,2.69 0 0 0 2.69,-2.69 z m 1.844,15.06 h -0.474 v 2.88 h 9.88 v -2.88 z m -8.594,0.713 v -0.593 -0.12 h -9.88 v 2.88 h 9.88 z m 0,14.287 h -14.94 A 0.06,0.06 0 0 1 1209.045,0 v -4.94 h -2.94 a 0.06,0.06 0 0 1 -0.06,-0.06 v -10 a 0.06,0.06 0 0 1 0.06,-0.06 h 2.94 v -29.88 h -2.94 a 0.06,0.06 0 0 1 -0.06,-0.06 v -10 a 0.06,0.06 0 0 1 0.06,-0.06 h 2.94 V -60 a 0.06,0.06 0 0 1 0.06,-0.06 h 38 a 0.06,0.06 0 0 1 0.06,0.06 V 0 a 0.06,0.06 0 0 1 -0.06,0.06 z"
       inkscape:connector-curvature="0"
       style="fill:none;stroke:#ff0000;stroke-width:0.1" />
    <path
       id="op_2D_Profile24-37-21"
       d="m 1215.125,-34.49 v -3 h 6.75 m -6.75,5.25 h 6.75 l -3.75,2.25 3.75,2.25 h -6.75 m 6,2.25 h 0.75 v 3 l -6.75,-1.5"
       inkscape:connector-curvature="0"
       style="fill:none;stroke:#000000;stroke-width:0.1" />
  </g>
  <g
     id="LM2">
    <path
       id="op_2D_Profile25-39-22"
       d="m 1268.477,-101.153 a 1.543,1.543 0 0 1 1.125,1.5 1.495,1.495 0 0 1 -1.488,1.502 1.495,1.495 0 0 1 -0.799,-0.227 l -4.463,-2.775 v 3 m 0,-5.25 v -3 h 6.75 m -6.75,-6.75 h 6.75 l -3.75,2.25 3.75,2.25 h -6.75"
       inkscape:connector-curvature="0"
       style="fill:none;stroke:#000000;stroke-width:0.1" />
    <path
       id="op_2D_Profile26-40-23"
       d="m 1274.639,-6.428 h -0.474 v 2.88 h 9.88 v -2.88 z m -6.594,-39.974 v -0.473 h -2.88 v 9.88 h 2.88 z m -0.713,-10.593 h 0.593 0.12 v -9.88 h -2.88 v 9.88 z m 6.833,-58.161 v 0.594 0.12 h 9.88 v -2.88 h -9.88 z m 0,2.134 h -0.06 a 1.94,1.94 0 0 0 -1.94,1.94 v 28.147 a 1.94,1.94 0 0 0 1.94,1.94 h 11 a 0.06,0.06 0 0 1 0.06,0.06 v 6 a 0.06,0.06 0 0 1 -0.06,0.06 h -9.94 v 2.88 h 9.94 a 0.06,0.06 0 0 1 0.06,0.06 v 7 a 0.06,0.06 0 0 1 -0.06,0.06 h -11 a 1.94,1.94 0 0 0 -1.94,1.94 v 38.147 a 1.94,1.94 0 0 0 1.94,1.94 h 11 a 0.06,0.06 0 0 1 0.06,0.06 v 11.963 l 3.954,1.977 h 8.986 a 0.06,0.06 0 0 1 0.06,0.06 V 0 a 0.06,0.06 0 0 1 -0.06,0.06 h -38 A 0.06,0.06 0 0 1 1260.045,0 v -35.375 h -2.94 a 0.06,0.06 0 0 1 -0.06,-0.06 v -10 a 0.06,0.06 0 0 1 0.06,-0.06 h 2.94 v -29.88 h -2.94 a 0.06,0.06 0 0 1 -0.06,-0.06 v -10 a 0.06,0.06 0 0 1 0.06,-0.06 h 2.94 v -16.88 h -2.94 a 0.06,0.06 0 0 1 -0.06,-0.06 v -13 a 0.06,0.06 0 0 1 0.06,-0.06 h 2.94 v -5.375 a 0.06,0.06 0 0 1 0.06,-0.06 h 38 a 0.06,0.06 0 0 1 0.06,0.06 v 7.788 a 0.06,0.06 0 0 1 -0.06,0.06 z"
       inkscape:connector-curvature="0"
       style="fill:none;stroke:#ff0000;stroke-width:0.1" />
  </g>
  <g
     id="LM1">
    <path
       id="op_2D_Profile27-42-24"
       d="m 1325.165,-132.367 v 0.593 0.12 h 9.88 v -2.88 h -9.88 z m -6.833,58.16 h 0.593 0.12 v -9.88 h -2.88 v 9.88 z m 0.713,10.594 v -0.474 h -2.88 v 9.88 h 2.88 z m 2.308,1.349 a 0.94,0.94 0 0 0 -0.188,0.564 v 37 a 0.94,0.94 0 0 0 0.94,0.94 h 3 a 0.06,0.06 0 0 1 0.06,0.06 v 2.94 h 9.88 v -2.94 a 0.06,0.06 0 0 1 0.06,-0.06 h 14 a 0.06,0.06 0 0 1 0.06,0.06 v 8.653 a 0.06,0.06 0 0 1 -0.06,0.06 h -9.94 v 2.88 h 9.94 a 0.06,0.06 0 0 1 0.06,0.06 V 0 a 0.06,0.06 0 0 1 -0.06,0.06 h -35 A 0.06,0.06 0 0 1 1314.045,0 v -4.94 h -2.94 a 0.06,0.06 0 0 1 -0.06,-0.06 v -2.587 h -2.94 a 0.06,0.06 0 0 1 -0.06,-0.06 v -10 a 0.06,0.06 0 0 1 0.06,-0.06 h 2.94 v -39.88 h -2.94 a 0.06,0.06 0 0 1 -0.06,-0.06 v -10 a 0.06,0.06 0 0 1 0.06,-0.06 h 2.94 v -19.88 h -2.94 a 0.06,0.06 0 0 1 -0.06,-0.06 v -10 a 0.06,0.06 0 0 1 0.06,-0.06 h 2.94 v -36.88 h -2.94 a 0.06,0.06 0 0 1 -0.06,-0.06 v -13 a 0.06,0.06 0 0 1 0.06,-0.06 h 2.94 v -2.587 a 0.06,0.06 0 0 1 0.06,-0.06 h 2.94 v -4.94 a 0.06,0.06 0 0 1 0.06,-0.06 h 35 a 0.06,0.06 0 0 1 0.06,0.06 v 25 a 0.06,0.06 0 0 1 -0.06,0.06 h -24 a 1.94,1.94 0 0 0 -1.94,1.94 v 28.147 a 1.94,1.94 0 0 0 1.94,1.94 h 11 a 0.06,0.06 0 0 1 0.06,0.06 v 6 a 0.06,0.06 0 0 1 -0.06,0.06 h -9.94 v 2.88 h 9.94 a 0.06,0.06 0 0 1 0.06,0.06 v 7 a 0.06,0.06 0 0 1 -0.06,0.06 h -11 a 1.94,1.94 0 0 0 -1.94,1.94 V -63.7 a 1.06,1.06 0 0 1 -1.06,1.06 0.94,0.94 0 0 0 -0.752,0.376 z"
       inkscape:connector-curvature="0"
       style="fill:none;stroke:#ff0000;stroke-width:0.1" />
    <path
       id="op_2D_Profile28-43-25"
       d="m 1337.552,-145.94 v -3 h 6.75 m -6.75,5.25 h 6.75 l -3.75,2.25 3.75,2.25 h -6.75 m 5.25,2.25 1.5,1.5 h -6.75"
       inkscape:connector-curvature="0"
       style="fill:none;stroke:#000000;stroke-width:0.1" />
  </g>
  <g
     id="LM5">
    <path
       id="op_2D_Profile29-45-26"
       d="m 1367.522,-5.735 h -3 v -6.75 m 5.25,6.75 v -6.75 l 2.25,3.75 2.25,-3.75 v 6.75 m 4.875,-6.75 h -2.625 v 3 h 1.5 a 1.5,1.5 0 0 1 1.5,1.5 v 0.75 a 1.5,1.5 0 0 1 -1.5,1.5 h -1.5"
       inkscape:connector-curvature="0"
       style="fill:none;stroke:#000000;stroke-width:0.1" />
    <path
       id="op_2D_Profile30-46-27"
       d="m 1369.605,-20.69 a 1.69,1.69 0 0 0 -1.69,1.69 1.69,1.69 0 0 0 1.69,1.69 h 4 a 1.69,1.69 0 0 0 1.69,-1.69 1.69,1.69 0 0 0 -1.69,-1.69 z m -8.038,-3.37 h 0.478 V -35 a 0.06,0.06 0 0 1 0.06,-0.06 h 19 a 0.06,0.06 0 0 1 0.06,0.06 v 10.94 h 2.94 a 0.06,0.06 0 0 1 0.06,0.06 v 10 a 0.06,0.06 0 0 1 -0.06,0.06 h -2.94 V -3 a 0.06,0.06 0 0 1 -0.06,0.06 h -4.44 V 0 a 0.06,0.06 0 0 1 -0.06,0.06 h -10 A 0.06,0.06 0 0 1 1366.545,0 v -2.94 h -4.44 a 0.06,0.06 0 0 1 -0.06,-0.06 v -10.94 h -2.94 a 0.06,0.06 0 0 1 -0.06,-0.06 v -10 a 0.06,0.06 0 0 1 0.06,-0.06 z"
       inkscape:connector-curvature="0"
       style="fill:none;stroke:#ff0000;stroke-width:0.1" />
  </g>
  <g
     id="LM6">
    <path
       id="op_2D_Profile31-48-28"
       d="m 1408.605,-17.31 a 1.69,1.69 0 0 0 1.69,-1.69 1.69,1.69 0 0 0 -1.69,-1.69 h -4 a 1.69,1.69 0 0 0 -1.69,1.69 1.69,1.69 0 0 0 1.69,1.69 z m 8.278,3.37 h -0.598 -0.12 V -3 a 0.06,0.06 0 0 1 -0.06,0.06 h -4.44 V 0 a 0.06,0.06 0 0 1 -0.06,0.06 h -10 A 0.06,0.06 0 0 1 1401.545,0 v -2.94 h -4.44 a 0.06,0.06 0 0 1 -0.06,-0.06 v -10.94 h -2.94 a 0.06,0.06 0 0 1 -0.06,-0.06 v -10 a 0.06,0.06 0 0 1 0.06,-0.06 h 2.94 V -35 a 0.06,0.06 0 0 1 0.06,-0.06 h 19 a 0.06,0.06 0 0 1 0.06,0.06 v 10.94 h 2.94 a 0.06,0.06 0 0 1 0.06,0.06 v 10 a 0.06,0.06 0 0 1 -0.06,0.06 z"
       inkscape:connector-curvature="0"
       style="fill:none;stroke:#ff0000;stroke-width:0.1" />
    <path
       id="op_2D_Profile32-49-29"
       d="m 1402.067,-5.959 h -3 v -6.75 m 5.25,6.75 v -6.75 l 2.25,3.75 2.25,-3.75 v 6.75 m 2.25,-3.75 a 3.414,3.414 0 0 1 2.25,-3 m -2.25,3 h 1.5 a 1.332,1.332 0 0 1 1.5,1.14 1.332,1.332 0 0 1 0,0.36 v 0.75 a 1.5,1.5 0 0 1 -1.5,1.5 1.5,1.5 0 0 1 -1.5,-1.5 z"
       inkscape:connector-curvature="0"
       style="fill:none;stroke:#000000;stroke-width:0.1" />
  </g>
  <g
     id="g51">
    <path
       id="op_2D_Profile33-51-30"
       d="m 1437.139,-7.94 h -0.474 v 2.88 h 9.88 v -2.88 z m -0.474,-40.593 v 0.473 h 9.88 v -2.88 h -9.88 z m -4.62,0.473 V -56 a 0.06,0.06 0 0 1 0.06,-0.06 h 19 a 0.06,0.06 0 0 1 0.06,0.06 v 12.94 h 2.94 a 0.06,0.06 0 0 1 0.06,0.06 v 10 a 0.06,0.06 0 0 1 -0.06,0.06 h -2.94 v 9.88 h 2.94 a 0.06,0.06 0 0 1 0.06,0.06 v 10 a 0.06,0.06 0 0 1 -0.06,0.06 h -2.94 V 0 a 0.06,0.06 0 0 1 -0.06,0.06 h -19 A 0.06,0.06 0 0 1 1432.045,0 v -12.94 h -2.94 a 0.06,0.06 0 0 1 -0.06,-0.06 v -10 a 0.06,0.06 0 0 1 0.06,-0.06 h 2.94 v -9.88 h -2.94 a 0.06,0.06 0 0 1 -0.06,-0.06 v -10 a 0.06,0.06 0 0 1 0.06,-0.06 h 2.94 z"
       inkscape:connector-curvature="0"
       style="fill:none;stroke:#ff0000;stroke-width:0.1" />
    <path
       id="op_2D_Profile34-52-31"
       d="m 1445.531,-15.7 v 3 h -6.75 m 6.75,-5.25 h -6.75 l 3.75,-2.25 -3.75,-2.25 h 6.75 m -5.625,-2.25 a 1.543,1.543 0 0 1 -1.125,-1.5 1.495,1.495 0 0 1 1.488,-1.502 1.495,1.495 0 0 1 0.799,0.227 l 4.463,2.775 v -3"
       inkscape:connector-curvature="0"
       style="fill:none;stroke:#000000;stroke-width:0.1" />
  </g>
  <g
     id="LM4">
    <path
       id="op_2D_Profile35-54-32"
       d="m 1480.937,-16.552 v 3 h -6.75 m 6.75,-5.25 h -6.75 l 3.75,-2.25 -3.75,-2.25 h 6.75 m 0,-4.875 h -1.5 v 2.625 l -5.25,-1.5 m 5.25,-1.125 h -1.5 m 1.5,-1.125 v 1.125"
       inkscape:connector-curvature="0"
       style="fill:none;stroke:#000000;stroke-width:0.1" />
    <path
       id="op_2D_Profile36-55-33"
       d="m 1489.105,-17.94 h -2.94 V -11 a 0.06,0.06 0 0 1 -0.06,0.06 h -4.44 V 0 a 0.06,0.06 0 0 1 -0.06,0.06 h -10 A 0.06,0.06 0 0 1 1471.545,0 v -10.94 h -4.44 a 0.06,0.06 0 0 1 -0.06,-0.06 v -6.94 h -2.94 a 0.06,0.06 0 0 1 -0.06,-0.06 v -15 a 0.06,0.06 0 0 1 0.06,-0.06 h 7.44 V -36 a 0.06,0.06 0 0 1 0.018,-0.042 l 2,-2 a 0.06,0.06 0 0 1 0.042,-0.018 h 6 a 0.06,0.06 0 0 1 0.043,0.018 l 2,2 a 0.06,0.06 0 0 1 0.017,0.042 v 2.94 h 7.44 a 0.06,0.06 0 0 1 0.06,0.06 v 15 a 0.06,0.06 0 0 1 -0.06,0.06 z"
       inkscape:connector-curvature="0"
       style="fill:none;stroke:#ff0000;stroke-width:0.1" />
  </g>
  <g
     id="P4">
    <path
       id="op_2D_Profile40-61-34"
       d="m 1507.165,-48.68 v 0.473 h 2.88 v -9.88 h -2.88 z m 0.714,10.593 h -0.594 -0.12 v 9.88 h 2.88 v -9.88 z m -2.834,0 v -50.5 h -5.94 a 0.06,0.06 0 0 1 -0.06,-0.06 v -13 a 0.06,0.06 0 0 1 0.06,-0.06 h 2.94 v -2.587 a 0.06,0.06 0 0 1 0.06,-0.06 h 9 a 0.06,0.06 0 0 1 0.027,0.006 l 4,2 a 0.06,0.06 0 0 1 0.033,0.054 v 36.147 a 0.06,0.06 0 0 1 -0.06,0.06 h -4.94 v 2.88 h 4.94 a 0.06,0.06 0 0 1 0.06,0.06 V -2 a 0.06,0.06 0 0 1 -0.033,0.054 l -4,2 a 0.06,0.06 0 0 1 -0.027,0.006 h -9 A 0.06,0.06 0 0 1 1502.045,0 v -1.587 h -2.94 a 0.06,0.06 0 0 1 -0.06,-0.06 v -10 a 0.06,0.06 0 0 1 0.06,-0.06 h 3 2.94 z"
       inkscape:connector-curvature="0"
       style="fill:none;stroke:#ff0000;stroke-width:0.1" />
    <path
       id="op_2D_Profile41-62-35"
       d="m 1512.256,-90.901 h -3 -3.75 v -1.875 a 1.875,1.875 0 0 1 1.875,-1.875 1.875,1.875 0 0 1 1.875,1.875 v 1.875 m 3,-8.625 h -1.5 v 2.625 l -5.25,-1.5 m 5.25,-1.125 h -1.5 m 1.5,-1.125 v 1.125"
       inkscape:connector-curvature="0"
       style="fill:none;stroke:#000000;stroke-width:0.1" />
  </g>
  <g
     id="P2">
    <path
       id="op_2D_Profile42-64-36"
       d="M 1542.545,-7.467 V -7.94 h -9.88 v 2.88 h 9.88 z m -0.713,-40.593 h 0.593 0.12 v -2.88 h -9.88 v 2.88 z m 5.333,0 v 5 h 2.94 a 0.06,0.06 0 0 1 0.06,0.06 v 10 a 0.06,0.06 0 0 1 -0.06,0.06 h -2.94 v 9.88 h 2.94 a 0.06,0.06 0 0 1 0.06,0.06 v 10 a 0.06,0.06 0 0 1 -0.06,0.06 h -2.94 V 0 a 0.06,0.06 0 0 1 -0.06,0.06 h -19 A 0.06,0.06 0 0 1 1528.045,0 v -12.94 h -2.94 a 0.06,0.06 0 0 1 -0.06,-0.06 v -10 a 0.06,0.06 0 0 1 0.06,-0.06 h 2.94 v -9.88 h -2.94 a 0.06,0.06 0 0 1 -0.06,-0.06 v -10 a 0.06,0.06 0 0 1 0.06,-0.06 h 2.94 V -56 a 0.06,0.06 0 0 1 0.06,-0.06 h 19 a 0.06,0.06 0 0 1 0.06,0.06 z"
       inkscape:connector-curvature="0"
       style="fill:none;stroke:#ff0000;stroke-width:0.1" />
    <path
       id="op_2D_Profile43-65-37"
       d="m 1541.52,-12.711 h -3 -3.75 v -1.875 a 1.875,1.875 0 0 1 1.875,-1.875 1.875,1.875 0 0 1 1.875,1.875 v 1.875 m -2.625,-6 a 1.543,1.543 0 0 1 -1.125,-1.5 1.495,1.495 0 0 1 1.488,-1.502 1.495,1.495 0 0 1 0.799,0.227 l 4.463,2.775 v -3"
       inkscape:connector-curvature="0"
       style="fill:none;stroke:#000000;stroke-width:0.1" />
  </g>
  <g
     id="P5">
    <path
       id="op_2D_Profile44-67-38"
       d="m 1568.632,-126.059 h 3 3.75 v 1.875 a 1.875,1.875 0 0 1 -1.875,1.875 1.875,1.875 0 0 1 -1.875,-1.875 v -1.875 m 3.75,8.625 v -2.625 h -3 v 1.5 a 1.5,1.5 0 0 1 -1.5,1.5 h -0.75 a 1.5,1.5 0 0 1 -1.5,-1.5 v -1.5"
       inkscape:connector-curvature="0"
       style="fill:none;stroke:#000000;stroke-width:0.1" />
    <path
       id="op_2D_Profile45-68-39"
       d="m 1572.58,-16.837 a 2.19,2.19 0 0 0 -2.19,2.19 2.19,2.19 0 0 0 2.19,2.19 2.19,2.19 0 0 0 2.19,-2.19 2.19,2.19 0 0 0 -2.19,-2.19 z m 0,-121.62 a 2.19,2.19 0 0 0 2.19,-2.19 2.19,2.19 0 0 0 -2.19,-2.19 2.19,2.19 0 0 0 -2.19,2.19 2.19,2.19 0 0 0 2.19,2.19 z m -4.542,-5.696 14.03,-11.188 a 0.06,0.06 0 0 1 0.084,0.01 0.06,0.06 0 0 1 0.013,0.037 v 40.587 h 2.94 a 0.06,0.06 0 0 1 0.06,0.06 v 77 a 0.06,0.06 0 0 1 -0.06,0.06 h -2.94 V 0 a 0.06,0.06 0 0 1 -0.06,0.06 0.06,0.06 0 0 1 -0.037,-0.013 l -19,-15.152 a 0.06,0.06 0 0 1 -0.023,-0.047 v -22.435 h -2.94 a 0.06,0.06 0 0 1 -0.06,-0.06 v -77 a 0.06,0.06 0 0 1 0.06,-0.06 h 2.94 v -25.435 a 0.06,0.06 0 0 1 0.023,-0.047 z"
       inkscape:connector-curvature="0"
       style="fill:none;stroke:#ff0000;stroke-width:0.1" />
  </g>
  <g
     id="P3">
    <path
       id="op_2D_Profile46-70-40"
       d="m 1606.045,-37.373 v -0.594 -0.12 h -2.88 v 9.88 h 2.88 z m -0.466,-10.834 h 0.466 v -9.88 h -2.88 v 9.88 z m -4.534,-0.127 v -40.253 h -5.94 a 0.06,0.06 0 0 1 -0.06,-0.06 v -13 a 0.06,0.06 0 0 1 0.06,-0.06 h 2.94 v -2.587 a 0.06,0.06 0 0 1 0.06,-0.06 h 9 a 0.06,0.06 0 0 1 0.027,0.006 l 4,2 a 0.06,0.06 0 0 1 0.033,0.054 v 36.147 a 0.06,0.06 0 0 1 -0.06,0.06 h -4.94 v 2.88 h 4.94 a 0.06,0.06 0 0 1 0.06,0.06 V -2 a 0.06,0.06 0 0 1 -0.033,0.054 l -4,2 a 0.06,0.06 0 0 1 -0.027,0.006 h -9 A 0.06,0.06 0 0 1 1598.045,0 v -1.587 h -2.94 a 0.06,0.06 0 0 1 -0.06,-0.06 v -10 a 0.06,0.06 0 0 1 0.06,-0.06 h 3 2.94 z"
       inkscape:connector-curvature="0"
       style="fill:none;stroke:#ff0000;stroke-width:0.1" />
    <path
       id="op_2D_Profile47-71-41"
       d="m 1608.553,-90.902 h -3 -3.75 v -1.875 a 1.875,1.875 0 0 1 1.875,-1.875 1.875,1.875 0 0 1 1.875,1.875 v 1.875 m -3.75,-6 v -1.5 a 1.5,1.5 0 0 1 1.5,-1.5 1.5,1.5 0 0 1 1.5,1.493 1.5,1.5 0 0 1 1.5,-1.493 h 0.75 a 1.5,1.5 0 0 1 1.5,1.5 v 1.5"
       inkscape:connector-curvature="0"
       style="fill:none;stroke:#000000;stroke-width:0.1" />
  </g>
  <g
     id="V1">
    <path
       id="op_2D_Profile48-73-42"
       d="m 1630.58,-19.729 a 2.69,2.69 0 0 0 -2.69,2.69 2.69,2.69 0 0 0 2.69,2.69 2.69,2.69 0 0 0 2.69,-2.69 2.69,2.69 0 0 0 -2.69,-2.69 z m 0,-3.423 h 4.965 v -2.88 h -9.88 v 2.88 z m 0,-8 h 9.525 a 0.06,0.06 0 0 1 0.06,0.06 v 23.64 h 2.94 a 0.06,0.06 0 0 1 0.06,0.06 V 0 a 0.06,0.06 0 0 1 -0.06,0.06 0.06,0.06 0 0 1 -0.037,-0.013 l -22,-17.545 a 0.06,0.06 0 0 1 -0.023,-0.046 v -13.548 a 0.06,0.06 0 0 1 0.06,-0.06 z"
       inkscape:connector-curvature="0"
       style="fill:none;stroke:#ff0000;stroke-width:0.1" />
    <path
       id="op_2D_Profile49-74-43"
       d="m 1630.508,-30.493 -1.125,3.375 -1.125,-3.375 m 3.375,0.75 0.75,-0.75 v 3.375"
       inkscape:connector-curvature="0"
       style="fill:none;stroke:#000000;stroke-width:0.1" />
  </g>
  <g
     id="V2">
    <path
       id="op_2D_Profile50-76-44"
       d="m 1663.055,-0.658 1.125,-3.375 1.125,3.375 m -3.375,-0.563 a 0.772,0.772 0 0 1 -0.75,0.563 0.748,0.748 0 0 1 -0.751,-0.744 0.748,0.748 0 0 1 0.114,-0.4 l 1.387,-2.231 h -1.5"
       inkscape:connector-curvature="0"
       style="fill:none;stroke:#000000;stroke-width:0.1" />
    <path
       id="op_2D_Profile51-77-45"
       d="m 1662.58,-11.363 a 2.69,2.69 0 0 0 2.69,-2.69 2.69,2.69 0 0 0 -2.69,-2.69 2.69,2.69 0 0 0 -2.69,2.69 2.69,2.69 0 0 0 2.69,2.69 z m 0,3.423 h -4.915 v 2.88 h 9.88 v -2.88 z m 0,8 h -9.475 A 0.06,0.06 0 0 1 1653.045,0 v -13.548 a 0.06,0.06 0 0 1 0.023,-0.047 l 22,-17.544 a 0.06,0.06 0 0 1 0.084,0.009 0.06,0.06 0 0 1 0.013,0.038 v 7.392 a 0.06,0.06 0 0 1 -0.06,0.06 h -2.94 V 0 a 0.06,0.06 0 0 1 -0.06,0.06 z"
       inkscape:connector-curvature="0"
       style="fill:none;stroke:#ff0000;stroke-width:0.1" />
  </g>
  <g
     id="LM11">
    <path
       id="op_2D_Profile52-79-46"
       d="m 1697.639,-13.491 -0.259,-0.449 h -4.55 l -2.274,3.94 2.274,3.94 h 4.55 l 2.275,-3.94 z m 2.37,-5.293 a 10.06,10.06 0 0 1 3.88,13.688 10.06,10.06 0 0 1 -13.688,3.88 10.06,10.06 0 0 1 -5.156,-8.784 10.06,10.06 0 0 1 2.947,-7.114 10.06,10.06 0 0 1 7.113,-2.946 10.06,10.06 0 0 1 4.904,1.276 z"
       inkscape:connector-curvature="0"
       style="fill:none;stroke:#ff0000;stroke-width:0.1" />
    <path
       id="op_2D_Profile53-80-47"
       d="m 1692.384,-14.588 h -1.5 v -3.375 m 2.625,3.375 v -3.375 l 1.125,1.875 1.125,-1.875 v 3.375 m 1.125,-2.625 0.75,-0.75 v 3.375 m 1.125,-2.625 0.75,-0.75 v 3.375"
       inkscape:connector-curvature="0"
       style="fill:none;stroke:#000000;stroke-width:0.1" />
  </g>
  <g
     id="vlozka">
    <path
       id="op_2D_Profile54-82-48"
       d="m 1720.165,-9 a 4.94,4.94 0 0 0 4.94,4.94 4.94,4.94 0 0 0 3.94,-1.96 v -5.96 a 4.94,4.94 0 0 0 -6.92,-0.96 4.94,4.94 0 0 0 -1.96,3.94 z m -5.12,0 v -9 a 0.06,0.06 0 0 1 0.06,-0.06 h 20 a 0.06,0.06 0 0 1 0.06,0.06 V 0 a 0.06,0.06 0 0 1 -0.06,0.06 h -20 A 0.06,0.06 0 0 1 1715.045,0 Z"
       inkscape:connector-curvature="0"
       style="fill:none;stroke:#ff0000;stroke-width:0.1" />
    <path
       id="op_2D_Profile55-83-49"
       d="m 1733.962,-15.381 -3.375,-1.125 3.375,-1.125 m -0.937,1.922 v -1.593 m 0.937,3.046 -2.107,1.171 -1.268,-1.152 m 2.063,1.875 h 1.312 m 0,1.125 v 1.875 l -3.375,-1.875 v 1.875 m 0,-3 h 2.063 l -0.795,-0.723 m 1.17,4.848 a 0.938,0.938 0 0 1 0.389,0.085 0.938,0.938 0 0 1 0.464,1.242 0.938,0.938 0 0 1 -0.853,0.548 h -1.5 a 0.938,0.938 0 0 1 -0.938,-0.937 0.938,0.938 0 0 1 0.938,-0.938 z m 0.937,3 v 1.5 h -3.375 m 0,1.125 3.375,1.125 -3.375,1.125"
       inkscape:connector-curvature="0"
       style="fill:none;stroke:#000000;stroke-width:0.1" />
  </g>
  <g
     id="KO1">
    <path
       id="op_2D_Profile56-85-50"
       d="m 1779.717,-35.29 h -5.569 a 4.44,4.44 0 0 0 -0.633,6.247 4.44,4.44 0 0 0 0.633,0.633 h 5.614 a 4.44,4.44 0 0 0 0.633,-6.247 4.44,4.44 0 0 0 -0.633,-0.633 z m 17.217,-21.441 a 31.91,31.91 0 0 1 4.903,44.86 31.91,31.91 0 0 1 -44.861,4.902 31.91,31.91 0 0 1 -4.902,-44.86 31.91,31.91 0 0 1 44.86,-4.902 z"
       inkscape:connector-curvature="0"
       style="fill:none;stroke:#ff0000;stroke-width:0.1" />
    <path
       id="op_2D_Profile57-86-51"
       d="m 1781.231,-22.266 1.5,-1.5 v 6.75 m -5.625,0 a 1.875,1.875 0 0 1 -1.875,-1.875 v -3 a 1.875,1.875 0 0 1 1.875,-1.875 1.875,1.875 0 0 1 1.875,1.875 v 3 a 1.875,1.875 0 0 1 -1.875,1.875 z m -4.125,0 -2.342,-4.215 2.304,-2.535 m -3.75,4.125 v 2.625 m 0,-6.75 v 4.125 l 1.446,-1.59"
       inkscape:connector-curvature="0"
       style="fill:none;stroke:#000000;stroke-width:0.1" />
  </g>
  <g
     id="Setup27">
    <path
       id="op_2D_Profile58-88-52"
       d="m 1853.417,-35.29 h -5.569 a 4.44,4.44 0 0 0 -0.633,6.247 4.44,4.44 0 0 0 0.633,0.633 h 5.614 a 4.44,4.44 0 0 0 0.633,-6.247 4.44,4.44 0 0 0 -0.633,-0.633 z m 17.217,-21.441 a 31.91,31.91 0 0 1 4.903,44.86 31.91,31.91 0 0 1 -44.861,4.902 31.91,31.91 0 0 1 -4.902,-44.86 31.91,31.91 0 0 1 44.86,-4.902 z"
       inkscape:connector-curvature="0"
       style="fill:none;stroke:#ff0000;stroke-width:0.1" />
    <path
       id="op_2D_Profile59-89-53"
       d="m 1854.851,-22.306 1.5,-1.5 v 6.75 m -5.625,0 a 1.875,1.875 0 0 1 -1.875,-1.875 v -3 a 1.875,1.875 0 0 1 1.875,-1.875 1.875,1.875 0 0 1 1.875,1.875 v 3 a 1.875,1.875 0 0 1 -1.875,1.875 z m -4.125,0 -2.342,-4.215 2.304,-2.535 m -3.75,4.125 v 2.625 m 0,-6.75 v 4.125 l 1.446,-1.59"
       inkscape:connector-curvature="0"
       style="fill:none;stroke:#000000;stroke-width:0.1" />
  </g>
  <g
     id="g986"
     transform="translate(-2.3722146,-222.98817)">
    <path
       style="fill:none;stroke:#ff0000;stroke-width:0.1"
       inkscape:connector-curvature="0"
       d="M 877.571,0 V -2.94 H 865 A 0.06,0.06 0 0 1 864.94,-3 v -38 a 0.06,0.06 0 0 1 0.06,-0.06 h 31.505 a 0.06,0.06 0 0 1 0.06,0.06 v 38 a 0.06,0.06 0 0 1 -0.06,0.06 h -0.814 V 0 a 0.06,0.06 0 0 1 -0.06,0.06 h -18 A 0.06,0.06 0 0 1 877.571,0 Z"
       id="path982" />
    <path
       style="fill:none;stroke:#000000;stroke-width:0.1"
       inkscape:connector-curvature="0"
       d="m 886.022,-10.939 a 1.543,1.543 0 0 1 1.5,-1.125 1.495,1.495 0 0 1 1.502,1.488 1.495,1.495 0 0 1 -0.227,0.799 l -2.775,4.463 h 3 m -9,-1 v -5.75 h 1.687 a 2.062,2.062 0 0 1 1.459,0.604 2.062,2.062 0 0 1 0.604,1.458 v 2.625 a 2.063,2.063 0 0 1 -0.604,1.459 2.063,2.063 0 0 1 -1.459,0.604 h -1.687 z M 877.731,-6.8 a 1.875,1.875 0 0 1 -2.223,1.445 1.875,1.875 0 0 1 -1.486,-1.834 v -3 a 1.875,1.875 0 0 1 1.875,-1.875 1.875,1.875 0 0 1 1.875,1.875 v 3 a 1.875,1.875 0 0 1 -0.041,0.389 z"
       id="path984" />
  </g>
  <g
     id="g992"
     transform="translate(-2.3722146,-222.98817)">
    <path
       style="fill:none;stroke:#ff0000;stroke-width:0.1"
       inkscape:connector-curvature="0"
       d="m 933.065,0 a 0.06,0.06 0 0 1 -0.06,0.06 h -10 A 0.06,0.06 0 0 1 922.945,0 v -2.94 h -16.44 A 0.06,0.06 0 0 1 906.445,-3 v -38 a 0.06,0.06 0 0 1 0.06,-0.06 h 43 a 0.06,0.06 0 0 1 0.06,0.06 v 38 a 0.06,0.06 0 0 1 -0.06,0.06 h -16.44 z"
       id="path988" />
    <path
       style="fill:none;stroke:#000000;stroke-width:0.1"
       inkscape:connector-curvature="0"
       d="m 926.846,-10.192 v 3 0.008 a 1.875,1.875 0 0 1 -1.875,1.867 1.875,1.875 0 0 1 -1.875,-1.875 v -3 a 1.875,1.875 0 0 1 1.875,-1.875 1.875,1.875 0 0 1 1.875,1.875 z m 2.25,0.008 v -1.883 h 1.688 a 2.063,2.063 0 0 1 1.458,0.604 2.063,2.063 0 0 1 0.604,1.459 v 2.625 a 2.063,2.063 0 0 1 -2.062,2.062 h -1.688 v -1.867 z m 6,-0.383 1.5,-1.5 v 6.75"
       id="path990" />
  </g>
  <g
     id="g998"
     transform="translate(-2.3722146,-222.98817)">
    <path
       style="fill:none;stroke:#000000;stroke-width:0.1"
       inkscape:connector-curvature="0"
       d="m 969.697,-22.659 h -3 -0.008 a 1.875,1.875 0 0 1 -1.867,-1.875 1.875,1.875 0 0 1 1.875,-1.875 h 3 a 1.875,1.875 0 0 1 1.875,1.875 1.875,1.875 0 0 1 -1.875,1.875 z m -0.008,2.25 h 1.883 v 1.688 a 2.063,2.063 0 0 1 -0.604,1.458 2.063,2.063 0 0 1 -1.459,0.604 h -2.625 a 2.063,2.063 0 0 1 -2.062,-2.062 v -1.688 h 1.867 z m 0.383,6 1.5,1.5 h -6.75"
       id="path994" />
    <path
       style="fill:none;stroke:#ff0000;stroke-width:0.1"
       inkscape:connector-curvature="0"
       d="m 959.505,-16.44 a 0.06,0.06 0 0 1 -0.06,-0.06 v -10 a 0.06,0.06 0 0 1 0.06,-0.06 h 2.94 V -43 a 0.06,0.06 0 0 1 0.06,-0.06 h 38 a 0.06,0.06 0 0 1 0.06,0.06 V 0 a 0.06,0.06 0 0 1 -0.06,0.06 h -38 A 0.06,0.06 0 0 1 962.445,0 v -16.44 z"
       id="path996" />
  </g>
  <g
     id="g1004"
     transform="translate(-2.3722146,-222.98817)">
    <path
       style="fill:none;stroke:#ff0000;stroke-width:0.1"
       inkscape:connector-curvature="0"
       d="m 1037.065,0 a 0.06,0.06 0 0 1 -0.06,0.06 h -10 A 0.06,0.06 0 0 1 1026.945,0 v -2.94 h -16.44 a 0.06,0.06 0 0 1 -0.06,-0.06 v -38 a 0.06,0.06 0 0 1 0.06,-0.06 h 43 a 0.06,0.06 0 0 1 0.06,0.06 v 38 a 0.06,0.06 0 0 1 -0.06,0.06 h -16.44 z"
       id="path1000" />
    <path
       style="fill:none;stroke:#000000;stroke-width:0.1"
       inkscape:connector-curvature="0"
       d="m 1030.846,-10.192 v 3 0.008 a 1.875,1.875 0 0 1 -1.875,1.867 1.875,1.875 0 0 1 -1.875,-1.875 v -3 a 1.875,1.875 0 0 1 1.875,-1.875 1.875,1.875 0 0 1 1.875,1.875 z m 2.25,0.008 v -1.883 h 1.688 a 2.063,2.063 0 0 1 1.458,0.604 2.063,2.063 0 0 1 0.604,1.459 v 2.625 a 2.063,2.063 0 0 1 -2.062,2.062 h -1.688 v -1.867 z m 6,-0.383 1.5,-1.5 v 6.75"
       id="path1002" />
  </g>
  <g
     id="g1010"
     transform="translate(-2.3722146,-222.98817)">
    <path
       style="fill:none;stroke:#000000;stroke-width:0.1"
       inkscape:connector-curvature="0"
       d="m 1083.846,-10.192 v 3 0.008 a 1.875,1.875 0 0 1 -1.875,1.867 1.875,1.875 0 0 1 -1.875,-1.875 v -3 a 1.875,1.875 0 0 1 1.875,-1.875 1.875,1.875 0 0 1 1.875,1.875 z m 2.25,0.008 v -1.883 h 1.688 a 2.063,2.063 0 0 1 1.458,0.604 2.063,2.063 0 0 1 0.604,1.459 v 2.625 a 2.063,2.063 0 0 1 -2.062,2.062 h -1.688 v -1.867 z m 6,-0.383 1.5,-1.5 v 6.75"
       id="path1006" />
    <path
       style="fill:none;stroke:#ff0000;stroke-width:0.1"
       inkscape:connector-curvature="0"
       d="m 1090.065,0 a 0.06,0.06 0 0 1 -0.06,0.06 h -10 A 0.06,0.06 0 0 1 1079.945,0 v -2.94 h -16.44 a 0.06,0.06 0 0 1 -0.06,-0.06 v -38 a 0.06,0.06 0 0 1 0.06,-0.06 h 43 a 0.06,0.06 0 0 1 0.06,0.06 v 38 a 0.06,0.06 0 0 1 -0.06,0.06 h -16.44 z"
       id="path1008" />
  </g>
  <g
     id="g1016"
     transform="translate(-2.3722146,-222.98817)">
    <path
       style="fill:none;stroke:#ff0000;stroke-width:0.1"
       inkscape:connector-curvature="0"
       d="m 1133.972,-36.56 h 0.473 v -2.88 h -9.88 v 2.88 z m 8.593,-0.473 v 0.473 h 9.88 v -2.88 h -9.88 z m -4.285,18.214 a 2.69,2.69 0 0 0 2.906,-2.456 2.69,2.69 0 0 0 -2.456,-2.906 2.69,2.69 0 0 0 -2.905,2.456 2.69,2.69 0 0 0 2.455,2.906 z m -3.835,13.092 V -6.32 -6.44 h -9.88 v 2.88 h 9.88 z m 8.594,-0.713 h -0.474 v 2.88 h 9.88 v -2.88 z m -0.474,6.5 h -23.06 A 0.06,0.06 0 0 1 1119.445,0 v -16.44 h -2.94 a 0.06,0.06 0 0 1 -0.06,-0.06 v -10 a 0.06,0.06 0 0 1 0.06,-0.06 h 2.94 V -43 a 0.06,0.06 0 0 1 0.06,-0.06 h 38 a 0.06,0.06 0 0 1 0.06,0.06 V 0 a 0.06,0.06 0 0 1 -0.06,0.06 z"
       id="path1012" />
    <path
       style="fill:none;stroke:#000000;stroke-width:0.1"
       inkscape:connector-curvature="0"
       d="m 1125.528,-26.048 v -3 h 6.75 m -6.75,5.25 h 6.75 l -3.75,2.25 3.75,2.25 h -6.75 m 5.25,2.25 1.5,1.5 h -6.75 m 1.056,2.684 a 6.331,6.331 0 0 1 5.319,0.316 0.933,0.933 0 0 1 0.195,1.305 0.933,0.933 0 0 1 -0.195,0.195 6.331,6.331 0 0 1 -6,0 0.933,0.933 0 0 1 -0.195,-1.306 0.933,0.933 0 0 1 0.195,-0.194 6.331,6.331 0 0 1 0.681,-0.316 z"
       id="path1014" />
  </g>
  <g
     id="g1022"
     transform="translate(-2.3722146,-222.98817)">
    <path
       style="fill:none;stroke:#ff0000;stroke-width:0.1"
       inkscape:connector-curvature="0"
       d="m 1176.805,-33.06 a 0.06,0.06 0 0 1 0.06,0.06 v 10 a 0.06,0.06 0 0 1 -0.06,0.06 h -2.94 v 7.88 h 2.94 a 0.06,0.06 0 0 1 0.06,0.06 v 10 a 0.06,0.06 0 0 1 -0.06,0.06 h -2.94 V 0 a 0.06,0.06 0 0 1 -0.06,0.06 h -3.3 A 0.06,0.06 0 0 1 1170.445,0 v -4.94 h -2.94 a 0.06,0.06 0 0 1 -0.06,-0.06 v -10 a 0.06,0.06 0 0 1 0.06,-0.06 h 2.94 v -7.88 h -2.94 a 0.06,0.06 0 0 1 -0.06,-0.06 v -10 a 0.06,0.06 0 0 1 0.06,-0.06 h 2.94 V -38 a 0.06,0.06 0 0 1 0.06,-0.06 h 3.3 a 0.06,0.06 0 0 1 0.06,0.06 v 4.94 z"
       id="path1018" />
    <path
       style="fill:none;stroke:#000000;stroke-width:0.1"
       inkscape:connector-curvature="0"
       d="m 1173.909,-7.595 v 1.53 h -3.442 m 3.442,-2.677 h -3.442 l 1.912,-1.148 -1.912,-1.147 h 3.442 m -1.917,-1.996 a 0.765,0.765 0 0 1 0.01,0.079 0.765,0.765 0 0 1 0.765,-0.761 h 0.382 a 0.765,0.765 0 0 1 0.765,0.765 0.765,0.765 0 0 1 -0.765,0.765 h -0.382 a 0.765,0.765 0 0 1 -0.765,-0.761 0.765,0.765 0 0 1 -0.762,0.761 v 0 a 0.765,0.765 0 0 1 -0.765,-0.765 0.765,0.765 0 0 1 0.765,-0.765 0.765,0.765 0 0 1 0.76,0.682 z"
       id="path1020" />
  </g>
  <g
     id="g1028"
     transform="translate(-2.3722146,-222.98817)">
    <path
       style="fill:none;stroke:#000000;stroke-width:0.1"
       inkscape:connector-curvature="0"
       d="m 1193.285,-7.562 v 1.552 h -3.492 m 3.492,-2.716 h -3.492 l 1.94,-1.165 -1.94,-1.164 h 3.492 m -1.554,-2.727 v 0.773 a 0.776,0.776 0 0 1 -0.776,0.776 h -0.388 a 0.776,0.776 0 0 1 -0.776,-0.776 0.776,0.776 0 0 1 0.776,-0.776 h 1.067 a 1.746,1.746 0 0 1 1.651,1.178"
       id="path1024" />
    <path
       style="fill:none;stroke:#ff0000;stroke-width:0.1"
       inkscape:connector-curvature="0"
       d="m 1196.165,-5 a 0.06,0.06 0 0 1 -0.06,0.06 h -2.94 V 0 a 0.06,0.06 0 0 1 -0.06,0.06 h -3.3 A 0.06,0.06 0 0 1 1189.745,0 v -4.94 h -2.94 a 0.06,0.06 0 0 1 -0.06,-0.06 v -10 a 0.06,0.06 0 0 1 0.06,-0.06 h 2.94 v -7.88 h -2.94 a 0.06,0.06 0 0 1 -0.06,-0.06 v -10 a 0.06,0.06 0 0 1 0.06,-0.06 h 2.94 V -38 a 0.06,0.06 0 0 1 0.06,-0.06 h 3.3 a 0.06,0.06 0 0 1 0.06,0.06 v 4.94 h 2.94 a 0.06,0.06 0 0 1 0.06,0.06 v 10 a 0.06,0.06 0 0 1 -0.06,0.06 h -2.94 v 7.88 h 2.94 a 0.06,0.06 0 0 1 0.06,0.06 z"
       id="path1026" />
  </g>
  <g
     id="g1034"
     transform="translate(-2.3722146,-222.98817)">
    <path
       style="fill:none;stroke:#ff0000;stroke-width:0.1"
       inkscape:connector-curvature="0"
       d="m 1224.045,-46.06 v -1.88 h -9.88 v 2.88 h 9.88 z m 8.12,0.527 v 0.473 h 9.88 v -2.88 h -9.88 z m -1.37,15.533 a 2.69,2.69 0 0 0 -2.69,-2.69 2.69,2.69 0 0 0 -2.69,2.69 2.69,2.69 0 0 0 2.69,2.69 2.69,2.69 0 0 0 2.69,-2.69 z m 1.844,15.06 h -0.474 v 2.88 h 9.88 v -2.88 z m -8.594,0.713 v -0.593 -0.12 h -9.88 v 2.88 h 9.88 z m 0,14.287 h -14.94 A 0.06,0.06 0 0 1 1209.045,0 v -4.94 h -2.94 a 0.06,0.06 0 0 1 -0.06,-0.06 v -10 a 0.06,0.06 0 0 1 0.06,-0.06 h 2.94 v -29.88 h -2.94 a 0.06,0.06 0 0 1 -0.06,-0.06 v -10 a 0.06,0.06 0 0 1 0.06,-0.06 h 2.94 V -60 a 0.06,0.06 0 0 1 0.06,-0.06 h 38 a 0.06,0.06 0 0 1 0.06,0.06 V 0 a 0.06,0.06 0 0 1 -0.06,0.06 z"
       id="path1030" />
    <path
       style="fill:none;stroke:#000000;stroke-width:0.1"
       inkscape:connector-curvature="0"
       d="m 1215.125,-34.49 v -3 h 6.75 m -6.75,5.25 h 6.75 l -3.75,2.25 3.75,2.25 h -6.75 m 6,2.25 h 0.75 v 3 l -6.75,-1.5"
       id="path1032" />
  </g>
  <g
     id="g1040"
     transform="translate(-2.3722146,-222.98817)">
    <path
       style="fill:none;stroke:#000000;stroke-width:0.1"
       inkscape:connector-curvature="0"
       d="m 1268.477,-101.153 a 1.543,1.543 0 0 1 1.125,1.5 1.495,1.495 0 0 1 -1.488,1.502 1.495,1.495 0 0 1 -0.799,-0.227 l -4.463,-2.775 v 3 m 0,-5.25 v -3 h 6.75 m -6.75,-6.75 h 6.75 l -3.75,2.25 3.75,2.25 h -6.75"
       id="path1036" />
    <path
       style="fill:none;stroke:#ff0000;stroke-width:0.1"
       inkscape:connector-curvature="0"
       d="m 1274.639,-6.428 h -0.474 v 2.88 h 9.88 v -2.88 z m -6.594,-39.974 v -0.473 h -2.88 v 9.88 h 2.88 z m -0.713,-10.593 h 0.593 0.12 v -9.88 h -2.88 v 9.88 z m 6.833,-58.161 v 0.594 0.12 h 9.88 v -2.88 h -9.88 z m 0,2.134 h -0.06 a 1.94,1.94 0 0 0 -1.94,1.94 v 28.147 a 1.94,1.94 0 0 0 1.94,1.94 h 11 a 0.06,0.06 0 0 1 0.06,0.06 v 6 a 0.06,0.06 0 0 1 -0.06,0.06 h -9.94 v 2.88 h 9.94 a 0.06,0.06 0 0 1 0.06,0.06 v 7 a 0.06,0.06 0 0 1 -0.06,0.06 h -11 a 1.94,1.94 0 0 0 -1.94,1.94 v 38.147 a 1.94,1.94 0 0 0 1.94,1.94 h 11 a 0.06,0.06 0 0 1 0.06,0.06 v 11.963 l 3.954,1.977 h 8.986 a 0.06,0.06 0 0 1 0.06,0.06 V 0 a 0.06,0.06 0 0 1 -0.06,0.06 h -38 A 0.06,0.06 0 0 1 1260.045,0 v -35.375 h -2.94 a 0.06,0.06 0 0 1 -0.06,-0.06 v -10 a 0.06,0.06 0 0 1 0.06,-0.06 h 2.94 v -29.88 h -2.94 a 0.06,0.06 0 0 1 -0.06,-0.06 v -10 a 0.06,0.06 0 0 1 0.06,-0.06 h 2.94 v -16.88 h -2.94 a 0.06,0.06 0 0 1 -0.06,-0.06 v -13 a 0.06,0.06 0 0 1 0.06,-0.06 h 2.94 v -5.375 a 0.06,0.06 0 0 1 0.06,-0.06 h 38 a 0.06,0.06 0 0 1 0.06,0.06 v 7.788 a 0.06,0.06 0 0 1 -0.06,0.06 z"
       id="path1038" />
  </g>
  <g
     id="g1046"
     transform="translate(-2.3722146,-222.98817)">
    <path
       style="fill:none;stroke:#ff0000;stroke-width:0.1"
       inkscape:connector-curvature="0"
       d="m 1325.165,-132.367 v 0.593 0.12 h 9.88 v -2.88 h -9.88 z m -6.833,58.16 h 0.593 0.12 v -9.88 h -2.88 v 9.88 z m 0.713,10.594 v -0.474 h -2.88 v 9.88 h 2.88 z m 2.308,1.349 a 0.94,0.94 0 0 0 -0.188,0.564 v 37 a 0.94,0.94 0 0 0 0.94,0.94 h 3 a 0.06,0.06 0 0 1 0.06,0.06 v 2.94 h 9.88 v -2.94 a 0.06,0.06 0 0 1 0.06,-0.06 h 14 a 0.06,0.06 0 0 1 0.06,0.06 v 8.653 a 0.06,0.06 0 0 1 -0.06,0.06 h -9.94 v 2.88 h 9.94 a 0.06,0.06 0 0 1 0.06,0.06 V 0 a 0.06,0.06 0 0 1 -0.06,0.06 h -35 A 0.06,0.06 0 0 1 1314.045,0 v -4.94 h -2.94 a 0.06,0.06 0 0 1 -0.06,-0.06 v -2.587 h -2.94 a 0.06,0.06 0 0 1 -0.06,-0.06 v -10 a 0.06,0.06 0 0 1 0.06,-0.06 h 2.94 v -39.88 h -2.94 a 0.06,0.06 0 0 1 -0.06,-0.06 v -10 a 0.06,0.06 0 0 1 0.06,-0.06 h 2.94 v -19.88 h -2.94 a 0.06,0.06 0 0 1 -0.06,-0.06 v -10 a 0.06,0.06 0 0 1 0.06,-0.06 h 2.94 v -36.88 h -2.94 a 0.06,0.06 0 0 1 -0.06,-0.06 v -13 a 0.06,0.06 0 0 1 0.06,-0.06 h 2.94 v -2.587 a 0.06,0.06 0 0 1 0.06,-0.06 h 2.94 v -4.94 a 0.06,0.06 0 0 1 0.06,-0.06 h 35 a 0.06,0.06 0 0 1 0.06,0.06 v 25 a 0.06,0.06 0 0 1 -0.06,0.06 h -24 a 1.94,1.94 0 0 0 -1.94,1.94 v 28.147 a 1.94,1.94 0 0 0 1.94,1.94 h 11 a 0.06,0.06 0 0 1 0.06,0.06 v 6 a 0.06,0.06 0 0 1 -0.06,0.06 h -9.94 v 2.88 h 9.94 a 0.06,0.06 0 0 1 0.06,0.06 v 7 a 0.06,0.06 0 0 1 -0.06,0.06 h -11 a 1.94,1.94 0 0 0 -1.94,1.94 V -63.7 a 1.06,1.06 0 0 1 -1.06,1.06 0.94,0.94 0 0 0 -0.752,0.376 z"
       id="path1042" />
    <path
       style="fill:none;stroke:#000000;stroke-width:0.1"
       inkscape:connector-curvature="0"
       d="m 1337.552,-145.94 v -3 h 6.75 m -6.75,5.25 h 6.75 l -3.75,2.25 3.75,2.25 h -6.75 m 5.25,2.25 1.5,1.5 h -6.75"
       id="path1044" />
  </g>
  <g
     id="g1052"
     transform="translate(-2.3722146,-222.98817)">
    <path
       style="fill:none;stroke:#000000;stroke-width:0.1"
       inkscape:connector-curvature="0"
       d="m 1367.522,-5.735 h -3 v -6.75 m 5.25,6.75 v -6.75 l 2.25,3.75 2.25,-3.75 v 6.75 m 4.875,-6.75 h -2.625 v 3 h 1.5 a 1.5,1.5 0 0 1 1.5,1.5 v 0.75 a 1.5,1.5 0 0 1 -1.5,1.5 h -1.5"
       id="path1048" />
    <path
       style="fill:none;stroke:#ff0000;stroke-width:0.1"
       inkscape:connector-curvature="0"
       d="m 1369.605,-20.69 a 1.69,1.69 0 0 0 -1.69,1.69 1.69,1.69 0 0 0 1.69,1.69 h 4 a 1.69,1.69 0 0 0 1.69,-1.69 1.69,1.69 0 0 0 -1.69,-1.69 z m -8.038,-3.37 h 0.478 V -35 a 0.06,0.06 0 0 1 0.06,-0.06 h 19 a 0.06,0.06 0 0 1 0.06,0.06 v 10.94 h 2.94 a 0.06,0.06 0 0 1 0.06,0.06 v 10 a 0.06,0.06 0 0 1 -0.06,0.06 h -2.94 V -3 a 0.06,0.06 0 0 1 -0.06,0.06 h -4.44 V 0 a 0.06,0.06 0 0 1 -0.06,0.06 h -10 A 0.06,0.06 0 0 1 1366.545,0 v -2.94 h -4.44 a 0.06,0.06 0 0 1 -0.06,-0.06 v -10.94 h -2.94 a 0.06,0.06 0 0 1 -0.06,-0.06 v -10 a 0.06,0.06 0 0 1 0.06,-0.06 z"
       id="path1050" />
  </g>
  <g
     id="g1058"
     transform="translate(-2.3722146,-222.98817)">
    <path
       style="fill:none;stroke:#ff0000;stroke-width:0.1"
       inkscape:connector-curvature="0"
       d="m 1408.605,-17.31 a 1.69,1.69 0 0 0 1.69,-1.69 1.69,1.69 0 0 0 -1.69,-1.69 h -4 a 1.69,1.69 0 0 0 -1.69,1.69 1.69,1.69 0 0 0 1.69,1.69 z m 8.278,3.37 h -0.598 -0.12 V -3 a 0.06,0.06 0 0 1 -0.06,0.06 h -4.44 V 0 a 0.06,0.06 0 0 1 -0.06,0.06 h -10 A 0.06,0.06 0 0 1 1401.545,0 v -2.94 h -4.44 a 0.06,0.06 0 0 1 -0.06,-0.06 v -10.94 h -2.94 a 0.06,0.06 0 0 1 -0.06,-0.06 v -10 a 0.06,0.06 0 0 1 0.06,-0.06 h 2.94 V -35 a 0.06,0.06 0 0 1 0.06,-0.06 h 19 a 0.06,0.06 0 0 1 0.06,0.06 v 10.94 h 2.94 a 0.06,0.06 0 0 1 0.06,0.06 v 10 a 0.06,0.06 0 0 1 -0.06,0.06 z"
       id="path1054" />
    <path
       style="fill:none;stroke:#000000;stroke-width:0.1"
       inkscape:connector-curvature="0"
       d="m 1402.067,-5.959 h -3 v -6.75 m 5.25,6.75 v -6.75 l 2.25,3.75 2.25,-3.75 v 6.75 m 2.25,-3.75 a 3.414,3.414 0 0 1 2.25,-3 m -2.25,3 h 1.5 a 1.332,1.332 0 0 1 1.5,1.14 1.332,1.332 0 0 1 0,0.36 v 0.75 a 1.5,1.5 0 0 1 -1.5,1.5 1.5,1.5 0 0 1 -1.5,-1.5 z"
       id="path1056" />
  </g>
  <g
     id="g1064"
     transform="translate(-2.3722146,-222.98817)">
    <path
       style="fill:none;stroke:#ff0000;stroke-width:0.1"
       inkscape:connector-curvature="0"
       d="m 1437.139,-7.94 h -0.474 v 2.88 h 9.88 v -2.88 z m -0.474,-40.593 v 0.473 h 9.88 v -2.88 h -9.88 z m -4.62,0.473 V -56 a 0.06,0.06 0 0 1 0.06,-0.06 h 19 a 0.06,0.06 0 0 1 0.06,0.06 v 12.94 h 2.94 a 0.06,0.06 0 0 1 0.06,0.06 v 10 a 0.06,0.06 0 0 1 -0.06,0.06 h -2.94 v 9.88 h 2.94 a 0.06,0.06 0 0 1 0.06,0.06 v 10 a 0.06,0.06 0 0 1 -0.06,0.06 h -2.94 V 0 a 0.06,0.06 0 0 1 -0.06,0.06 h -19 A 0.06,0.06 0 0 1 1432.045,0 v -12.94 h -2.94 a 0.06,0.06 0 0 1 -0.06,-0.06 v -10 a 0.06,0.06 0 0 1 0.06,-0.06 h 2.94 v -9.88 h -2.94 a 0.06,0.06 0 0 1 -0.06,-0.06 v -10 a 0.06,0.06 0 0 1 0.06,-0.06 h 2.94 z"
       id="path1060" />
    <path
       style="fill:none;stroke:#000000;stroke-width:0.1"
       inkscape:connector-curvature="0"
       d="m 1445.531,-15.7 v 3 h -6.75 m 6.75,-5.25 h -6.75 l 3.75,-2.25 -3.75,-2.25 h 6.75 m -5.625,-2.25 a 1.543,1.543 0 0 1 -1.125,-1.5 1.495,1.495 0 0 1 1.488,-1.502 1.495,1.495 0 0 1 0.799,0.227 l 4.463,2.775 v -3"
       id="path1062" />
  </g>
  <g
     id="g1070"
     transform="translate(-2.3722146,-222.98817)">
    <path
       style="fill:none;stroke:#000000;stroke-width:0.1"
       inkscape:connector-curvature="0"
       d="m 1480.937,-16.552 v 3 h -6.75 m 6.75,-5.25 h -6.75 l 3.75,-2.25 -3.75,-2.25 h 6.75 m 0,-4.875 h -1.5 v 2.625 l -5.25,-1.5 m 5.25,-1.125 h -1.5 m 1.5,-1.125 v 1.125"
       id="path1066" />
    <path
       style="fill:none;stroke:#ff0000;stroke-width:0.1"
       inkscape:connector-curvature="0"
       d="m 1489.105,-17.94 h -2.94 V -11 a 0.06,0.06 0 0 1 -0.06,0.06 h -4.44 V 0 a 0.06,0.06 0 0 1 -0.06,0.06 h -10 A 0.06,0.06 0 0 1 1471.545,0 v -10.94 h -4.44 a 0.06,0.06 0 0 1 -0.06,-0.06 v -6.94 h -2.94 a 0.06,0.06 0 0 1 -0.06,-0.06 v -15 a 0.06,0.06 0 0 1 0.06,-0.06 h 7.44 V -36 a 0.06,0.06 0 0 1 0.018,-0.042 l 2,-2 a 0.06,0.06 0 0 1 0.042,-0.018 h 6 a 0.06,0.06 0 0 1 0.043,0.018 l 2,2 a 0.06,0.06 0 0 1 0.017,0.042 v 2.94 h 7.44 a 0.06,0.06 0 0 1 0.06,0.06 v 15 a 0.06,0.06 0 0 1 -0.06,0.06 z"
       id="path1068" />
  </g>
  <g
     id="g1076"
     transform="translate(-2.3722146,-222.98817)">
    <path
       style="fill:none;stroke:#ff0000;stroke-width:0.1"
       inkscape:connector-curvature="0"
       d="m 1507.165,-48.68 v 0.473 h 2.88 v -9.88 h -2.88 z m 0.714,10.593 h -0.594 -0.12 v 9.88 h 2.88 v -9.88 z m -2.834,0 v -50.5 h -5.94 a 0.06,0.06 0 0 1 -0.06,-0.06 v -13 a 0.06,0.06 0 0 1 0.06,-0.06 h 2.94 v -2.587 a 0.06,0.06 0 0 1 0.06,-0.06 h 9 a 0.06,0.06 0 0 1 0.027,0.006 l 4,2 a 0.06,0.06 0 0 1 0.033,0.054 v 36.147 a 0.06,0.06 0 0 1 -0.06,0.06 h -4.94 v 2.88 h 4.94 a 0.06,0.06 0 0 1 0.06,0.06 V -2 a 0.06,0.06 0 0 1 -0.033,0.054 l -4,2 a 0.06,0.06 0 0 1 -0.027,0.006 h -9 A 0.06,0.06 0 0 1 1502.045,0 v -1.587 h -2.94 a 0.06,0.06 0 0 1 -0.06,-0.06 v -10 a 0.06,0.06 0 0 1 0.06,-0.06 h 3 2.94 z"
       id="path1072" />
    <path
       style="fill:none;stroke:#000000;stroke-width:0.1"
       inkscape:connector-curvature="0"
       d="m 1512.256,-90.901 h -3 -3.75 v -1.875 a 1.875,1.875 0 0 1 1.875,-1.875 1.875,1.875 0 0 1 1.875,1.875 v 1.875 m 3,-8.625 h -1.5 v 2.625 l -5.25,-1.5 m 5.25,-1.125 h -1.5 m 1.5,-1.125 v 1.125"
       id="path1074" />
  </g>
  <g
     id="g1082"
     transform="translate(-2.3722146,-222.98817)">
    <path
       style="fill:none;stroke:#ff0000;stroke-width:0.1"
       inkscape:connector-curvature="0"
       d="M 1542.545,-7.467 V -7.94 h -9.88 v 2.88 h 9.88 z m -0.713,-40.593 h 0.593 0.12 v -2.88 h -9.88 v 2.88 z m 5.333,0 v 5 h 2.94 a 0.06,0.06 0 0 1 0.06,0.06 v 10 a 0.06,0.06 0 0 1 -0.06,0.06 h -2.94 v 9.88 h 2.94 a 0.06,0.06 0 0 1 0.06,0.06 v 10 a 0.06,0.06 0 0 1 -0.06,0.06 h -2.94 V 0 a 0.06,0.06 0 0 1 -0.06,0.06 h -19 A 0.06,0.06 0 0 1 1528.045,0 v -12.94 h -2.94 a 0.06,0.06 0 0 1 -0.06,-0.06 v -10 a 0.06,0.06 0 0 1 0.06,-0.06 h 2.94 v -9.88 h -2.94 a 0.06,0.06 0 0 1 -0.06,-0.06 v -10 a 0.06,0.06 0 0 1 0.06,-0.06 h 2.94 V -56 a 0.06,0.06 0 0 1 0.06,-0.06 h 19 a 0.06,0.06 0 0 1 0.06,0.06 z"
       id="path1078" />
    <path
       style="fill:none;stroke:#000000;stroke-width:0.1"
       inkscape:connector-curvature="0"
       d="m 1541.52,-12.711 h -3 -3.75 v -1.875 a 1.875,1.875 0 0 1 1.875,-1.875 1.875,1.875 0 0 1 1.875,1.875 v 1.875 m -2.625,-6 a 1.543,1.543 0 0 1 -1.125,-1.5 1.495,1.495 0 0 1 1.488,-1.502 1.495,1.495 0 0 1 0.799,0.227 l 4.463,2.775 v -3"
       id="path1080" />
  </g>
  <g
     id="g1088"
     transform="translate(-2.3722146,-222.98817)">
    <path
       style="fill:none;stroke:#000000;stroke-width:0.1"
       inkscape:connector-curvature="0"
       d="m 1568.632,-126.059 h 3 3.75 v 1.875 a 1.875,1.875 0 0 1 -1.875,1.875 1.875,1.875 0 0 1 -1.875,-1.875 v -1.875 m 3.75,8.625 v -2.625 h -3 v 1.5 a 1.5,1.5 0 0 1 -1.5,1.5 h -0.75 a 1.5,1.5 0 0 1 -1.5,-1.5 v -1.5"
       id="path1084" />
    <path
       style="fill:none;stroke:#ff0000;stroke-width:0.1"
       inkscape:connector-curvature="0"
       d="m 1572.58,-16.837 a 2.19,2.19 0 0 0 -2.19,2.19 2.19,2.19 0 0 0 2.19,2.19 2.19,2.19 0 0 0 2.19,-2.19 2.19,2.19 0 0 0 -2.19,-2.19 z m 0,-121.62 a 2.19,2.19 0 0 0 2.19,-2.19 2.19,2.19 0 0 0 -2.19,-2.19 2.19,2.19 0 0 0 -2.19,2.19 2.19,2.19 0 0 0 2.19,2.19 z m -4.542,-5.696 14.03,-11.188 a 0.06,0.06 0 0 1 0.084,0.01 0.06,0.06 0 0 1 0.013,0.037 v 40.587 h 2.94 a 0.06,0.06 0 0 1 0.06,0.06 v 77 a 0.06,0.06 0 0 1 -0.06,0.06 h -2.94 V 0 a 0.06,0.06 0 0 1 -0.06,0.06 0.06,0.06 0 0 1 -0.037,-0.013 l -19,-15.152 a 0.06,0.06 0 0 1 -0.023,-0.047 v -22.435 h -2.94 a 0.06,0.06 0 0 1 -0.06,-0.06 v -77 a 0.06,0.06 0 0 1 0.06,-0.06 h 2.94 v -25.435 a 0.06,0.06 0 0 1 0.023,-0.047 z"
       id="path1086" />
  </g>
  <g
     id="g1094"
     transform="translate(-2.3722146,-222.98817)">
    <path
       style="fill:none;stroke:#ff0000;stroke-width:0.1"
       inkscape:connector-curvature="0"
       d="m 1606.045,-37.373 v -0.594 -0.12 h -2.88 v 9.88 h 2.88 z m -0.466,-10.834 h 0.466 v -9.88 h -2.88 v 9.88 z m -4.534,-0.127 v -40.253 h -5.94 a 0.06,0.06 0 0 1 -0.06,-0.06 v -13 a 0.06,0.06 0 0 1 0.06,-0.06 h 2.94 v -2.587 a 0.06,0.06 0 0 1 0.06,-0.06 h 9 a 0.06,0.06 0 0 1 0.027,0.006 l 4,2 a 0.06,0.06 0 0 1 0.033,0.054 v 36.147 a 0.06,0.06 0 0 1 -0.06,0.06 h -4.94 v 2.88 h 4.94 a 0.06,0.06 0 0 1 0.06,0.06 V -2 a 0.06,0.06 0 0 1 -0.033,0.054 l -4,2 a 0.06,0.06 0 0 1 -0.027,0.006 h -9 A 0.06,0.06 0 0 1 1598.045,0 v -1.587 h -2.94 a 0.06,0.06 0 0 1 -0.06,-0.06 v -10 a 0.06,0.06 0 0 1 0.06,-0.06 h 3 2.94 z"
       id="path1090" />
    <path
       style="fill:none;stroke:#000000;stroke-width:0.1"
       inkscape:connector-curvature="0"
       d="m 1608.553,-90.902 h -3 -3.75 v -1.875 a 1.875,1.875 0 0 1 1.875,-1.875 1.875,1.875 0 0 1 1.875,1.875 v 1.875 m -3.75,-6 v -1.5 a 1.5,1.5 0 0 1 1.5,-1.5 1.5,1.5 0 0 1 1.5,1.493 1.5,1.5 0 0 1 1.5,-1.493 h 0.75 a 1.5,1.5 0 0 1 1.5,1.5 v 1.5"
       id="path1092" />
  </g>
  <g
     id="g1100"
     transform="translate(-2.3722146,-222.98817)">
    <path
       style="fill:none;stroke:#ff0000;stroke-width:0.1"
       inkscape:connector-curvature="0"
       d="m 1630.58,-19.729 a 2.69,2.69 0 0 0 -2.69,2.69 2.69,2.69 0 0 0 2.69,2.69 2.69,2.69 0 0 0 2.69,-2.69 2.69,2.69 0 0 0 -2.69,-2.69 z m 0,-3.423 h 4.965 v -2.88 h -9.88 v 2.88 z m 0,-8 h 9.525 a 0.06,0.06 0 0 1 0.06,0.06 v 23.64 h 2.94 a 0.06,0.06 0 0 1 0.06,0.06 V 0 a 0.06,0.06 0 0 1 -0.06,0.06 0.06,0.06 0 0 1 -0.037,-0.013 l -22,-17.545 a 0.06,0.06 0 0 1 -0.023,-0.046 v -13.548 a 0.06,0.06 0 0 1 0.06,-0.06 z"
       id="path1096" />
    <path
       style="fill:none;stroke:#000000;stroke-width:0.1"
       inkscape:connector-curvature="0"
       d="m 1630.508,-30.493 -1.125,3.375 -1.125,-3.375 m 3.375,0.75 0.75,-0.75 v 3.375"
       id="path1098" />
  </g>
  <g
     id="g1106"
     transform="translate(-2.3722146,-222.98817)">
    <path
       style="fill:none;stroke:#000000;stroke-width:0.1"
       inkscape:connector-curvature="0"
       d="m 1663.055,-0.658 1.125,-3.375 1.125,3.375 m -3.375,-0.563 a 0.772,0.772 0 0 1 -0.75,0.563 0.748,0.748 0 0 1 -0.751,-0.744 0.748,0.748 0 0 1 0.114,-0.4 l 1.387,-2.231 h -1.5"
       id="path1102" />
    <path
       style="fill:none;stroke:#ff0000;stroke-width:0.1"
       inkscape:connector-curvature="0"
       d="m 1662.58,-11.363 a 2.69,2.69 0 0 0 2.69,-2.69 2.69,2.69 0 0 0 -2.69,-2.69 2.69,2.69 0 0 0 -2.69,2.69 2.69,2.69 0 0 0 2.69,2.69 z m 0,3.423 h -4.915 v 2.88 h 9.88 v -2.88 z m 0,8 h -9.475 A 0.06,0.06 0 0 1 1653.045,0 v -13.548 a 0.06,0.06 0 0 1 0.023,-0.047 l 22,-17.544 a 0.06,0.06 0 0 1 0.084,0.009 0.06,0.06 0 0 1 0.013,0.038 v 7.392 a 0.06,0.06 0 0 1 -0.06,0.06 h -2.94 V 0 a 0.06,0.06 0 0 1 -0.06,0.06 z"
       id="path1104" />
  </g>
  <g
     id="g1112"
     transform="translate(-2.3722146,-222.98817)">
    <path
       style="fill:none;stroke:#ff0000;stroke-width:0.1"
       inkscape:connector-curvature="0"
       d="m 1697.639,-13.491 -0.259,-0.449 h -4.55 l -2.274,3.94 2.274,3.94 h 4.55 l 2.275,-3.94 z m 2.37,-5.293 a 10.06,10.06 0 0 1 3.88,13.688 10.06,10.06 0 0 1 -13.688,3.88 10.06,10.06 0 0 1 -5.156,-8.784 10.06,10.06 0 0 1 2.947,-7.114 10.06,10.06 0 0 1 7.113,-2.946 10.06,10.06 0 0 1 4.904,1.276 z"
       id="path1108" />
    <path
       style="fill:none;stroke:#000000;stroke-width:0.1"
       inkscape:connector-curvature="0"
       d="m 1692.384,-14.588 h -1.5 v -3.375 m 2.625,3.375 v -3.375 l 1.125,1.875 1.125,-1.875 v 3.375 m 1.125,-2.625 0.75,-0.75 v 3.375 m 1.125,-2.625 0.75,-0.75 v 3.375"
       id="path1110" />
  </g>
  <g
     id="g1118"
     transform="translate(-2.3722146,-222.98817)">
    <path
       style="fill:none;stroke:#ff0000;stroke-width:0.1"
       inkscape:connector-curvature="0"
       d="m 1720.165,-9 a 4.94,4.94 0 0 0 4.94,4.94 4.94,4.94 0 0 0 3.94,-1.96 v -5.96 a 4.94,4.94 0 0 0 -6.92,-0.96 4.94,4.94 0 0 0 -1.96,3.94 z m -5.12,0 v -9 a 0.06,0.06 0 0 1 0.06,-0.06 h 20 a 0.06,0.06 0 0 1 0.06,0.06 V 0 a 0.06,0.06 0 0 1 -0.06,0.06 h -20 A 0.06,0.06 0 0 1 1715.045,0 Z"
       id="path1114" />
    <path
       style="fill:none;stroke:#000000;stroke-width:0.1"
       inkscape:connector-curvature="0"
       d="m 1733.962,-15.381 -3.375,-1.125 3.375,-1.125 m -0.937,1.922 v -1.593 m 0.937,3.046 -2.107,1.171 -1.268,-1.152 m 2.063,1.875 h 1.312 m 0,1.125 v 1.875 l -3.375,-1.875 v 1.875 m 0,-3 h 2.063 l -0.795,-0.723 m 1.17,4.848 a 0.938,0.938 0 0 1 0.389,0.085 0.938,0.938 0 0 1 0.464,1.242 0.938,0.938 0 0 1 -0.853,0.548 h -1.5 a 0.938,0.938 0 0 1 -0.938,-0.937 0.938,0.938 0 0 1 0.938,-0.938 z m 0.937,3 v 1.5 h -3.375 m 0,1.125 3.375,1.125 -3.375,1.125"
       id="path1116" />
  </g>
  <g
     id="g1124"
     transform="translate(-2.3722146,-222.98817)">
    <path
       style="fill:none;stroke:#ff0000;stroke-width:0.1"
       inkscape:connector-curvature="0"
       d="m 1779.717,-35.29 h -5.569 a 4.44,4.44 0 0 0 -0.633,6.247 4.44,4.44 0 0 0 0.633,0.633 h 5.614 a 4.44,4.44 0 0 0 0.633,-6.247 4.44,4.44 0 0 0 -0.633,-0.633 z m 17.217,-21.441 a 31.91,31.91 0 0 1 4.903,44.86 31.91,31.91 0 0 1 -44.861,4.902 31.91,31.91 0 0 1 -4.902,-44.86 31.91,31.91 0 0 1 44.86,-4.902 z"
       id="path1120" />
    <path
       style="fill:none;stroke:#000000;stroke-width:0.1"
       inkscape:connector-curvature="0"
       d="m 1781.231,-22.266 1.5,-1.5 v 6.75 m -5.625,0 a 1.875,1.875 0 0 1 -1.875,-1.875 v -3 a 1.875,1.875 0 0 1 1.875,-1.875 1.875,1.875 0 0 1 1.875,1.875 v 3 a 1.875,1.875 0 0 1 -1.875,1.875 z m -4.125,0 -2.342,-4.215 2.304,-2.535 m -3.75,4.125 v 2.625 m 0,-6.75 v 4.125 l 1.446,-1.59"
       id="path1122" />
  </g>
  <g
     id="g1130"
     transform="translate(-2.3722146,-222.98817)">
    <path
       style="fill:none;stroke:#ff0000;stroke-width:0.1"
       inkscape:connector-curvature="0"
       d="m 1853.417,-35.29 h -5.569 a 4.44,4.44 0 0 0 -0.633,6.247 4.44,4.44 0 0 0 0.633,0.633 h 5.614 a 4.44,4.44 0 0 0 0.633,-6.247 4.44,4.44 0 0 0 -0.633,-0.633 z m 17.217,-21.441 a 31.91,31.91 0 0 1 4.903,44.86 31.91,31.91 0 0 1 -44.861,4.902 31.91,31.91 0 0 1 -4.902,-44.86 31.91,31.91 0 0 1 44.86,-4.902 z"
       id="path1126" />
    <path
       style="fill:none;stroke:#000000;stroke-width:0.1"
       inkscape:connector-curvature="0"
       d="m 1854.851,-22.306 1.5,-1.5 v 6.75 m -5.625,0 a 1.875,1.875 0 0 1 -1.875,-1.875 v -3 a 1.875,1.875 0 0 1 1.875,-1.875 1.875,1.875 0 0 1 1.875,1.875 v 3 a 1.875,1.875 0 0 1 -1.875,1.875 z m -4.125,0 -2.342,-4.215 2.304,-2.535 m -3.75,4.125 v 2.625 m 0,-6.75 v 4.125 l 1.446,-1.59"
       id="path1128" />
  </g>
</svg>
