<?xml version="1.0" encoding="UTF-8" standalone="no"?>
<svg xmlns="http://www.w3.org/2000/svg" width="1558.3960497433732mm" height="630.0600021362304mm" viewBox="-10 -610 1558.3960497433732 630.0600021362304">
    <polyline points="0,0 425,0 425,-600 0,-600 0,0"  stroke="rgb(0,0,0)" stroke-width="0.1" fill="none"/>
    <g id="Setup2">
        <path id="op_2D_Profile2-5-0" fill="none" stroke="rgb(255,0,0)" stroke-width="0.1" d=" M599.34 -80.18 L599.34 -89.94 L596.66 -89.94 L596.66 -80.06 L599.34 -80.06 L599.34 -80.18 z M621.26 -104 L621.26 -85A 0.06 0.06 0 0 1 621.2 -84.94 L618.46 -84.94 L618.46 -75.06 L621.2 -75.06A 0.06 0.06 0 0 1 621.26 -75 L621.26 -70.06 L633.14 -70.06 L633.14 -75A 0.06 0.06 0 0 1 633.2 -75.06 L635.94 -75.06 L635.94 -84.94 L633.2 -84.94A 0.06 0.06 0 0 1 633.14 -85 L633.14 -115A 0.06 0.06 0 0 1 633.2 -115.06 L635.94 -115.06 L635.94 -124.94 L633.2 -124.94A 0.06 0.06 0 0 1 633.14 -125 L633.14 -129.94 L621.26 -129.94 L621.26 -125A 0.06 0.06 0 0 1 621.2 -124.94 L618.46 -124.94 L618.46 -115.06 L621.2 -115.06A 0.06 0.06 0 0 1 621.26 -115 L621.26 -104 z M604.08 -111.56 L613.84 -111.56 L613.84 -114.24 L603.96 -114.24 L603.96 -111.56 L604.08 -111.56 z M599.34 -118.06 L599.34 -119.94 L596.66 -119.94 L596.66 -110.06 L599.34 -110.06 L599.34 -118.06 z M618.46 -150.94 L618.46 -142.26 L621.14 -142.26 L621.14 -154.94 L618.46 -154.94 L618.46 -150.94 z M613.735 -156.75A 1.24 1.24 0 0 0 614.975 -155.51A 1.24 1.24 0 0 0 616.215 -156.75A 1.24 1.24 0 0 0 614.975 -157.99A 1.24 1.24 0 0 0 613.735 -156.75 z M608.725 -160.31A 2.69 2.69 0 0 0 611.415 -163A 2.69 2.69 0 0 0 608.725 -165.69A 2.69 2.69 0 0 0 606.035 -163A 2.69 2.69 0 0 0 608.725 -160.31 z M602.475 -157.99A 1.24 1.24 0 0 0 601.235 -156.75A 1.24 1.24 0 0 0 602.475 -155.51A 1.24 1.24 0 0 0 603.715 -156.75A 1.24 1.24 0 0 0 602.475 -157.99 z M599.34 -163.26 L599.34 -169.94 L596.66 -169.94 L596.66 -157.26 L599.34 -157.26 L599.34 -163.26 z M603.37 -168.392A 1.24 1.24 0 0 0 603.333 -170.145A 1.24 1.24 0 0 0 601.58 -170.108A 1.24 1.24 0 0 0 601.617 -168.355A 1.24 1.24 0 0 0 603.37 -168.392 z M608.019 -171.1 L609.615 -173.102 L601.891 -179.262 L600.22 -177.166 L607.944 -171.006 L608.019 -171.1 z M613.735 -169.25A 1.24 1.24 0 0 0 614.975 -168.01A 1.24 1.24 0 0 0 616.215 -169.25A 1.24 1.24 0 0 0 614.975 -170.49A 1.24 1.24 0 0 0 613.735 -169.25 z M591.376 -170.926A 1.44 1.44 0 0 0 591.561 -172.954A 1.44 1.44 0 0 0 589.533 -173.139A 1.44 1.44 0 0 0 589.348 -171.111A 1.44 1.44 0 0 0 591.376 -170.926 z M581.703 -172.885A 1.04 1.04 0 0 0 580.255 -172.628A 1.04 1.04 0 0 0 580.512 -171.18A 1.04 1.04 0 0 0 581.96 -171.437A 1.04 1.04 0 0 0 581.703 -172.885 z M569.069 -191.703 L570.902 -191.285 L571.499 -193.898 L561.866 -196.096 L561.27 -193.483 L569.069 -191.703 z M551.5 -185.208 L537.5 -185.208A 3.94 3.94 0 0 0 533.56 -181.268A 3.94 3.94 0 0 0 537.5 -177.328 L552.5 -177.328A 3.94 3.94 0 0 0 556.44 -181.268A 3.94 3.94 0 0 0 552.5 -185.208 L551.5 -185.208 z M528.702 -193.608 L528.134 -196.096 L518.501 -193.898 L519.098 -191.285 L528.73 -193.483 L528.702 -193.608 z M509.108 -173.073A 1.04 1.04 0 0 0 508.068 -172.033A 1.04 1.04 0 0 0 509.108 -170.993A 1.04 1.04 0 0 0 510.148 -172.033A 1.04 1.04 0 0 0 509.108 -173.073 z M498.439 -171.111A 1.44 1.44 0 0 0 500.467 -170.926A 1.44 1.44 0 0 0 500.652 -172.954A 1.44 1.44 0 0 0 498.624 -173.139A 1.44 1.44 0 0 0 498.439 -171.111 z M491.34 -169.94 L490.66 -169.94 L490.66 -157.26 L493.34 -157.26 L493.34 -169.94 L491.34 -169.94 z M488.333 -170.145A 1.24 1.24 0 0 0 486.58 -170.108A 1.24 1.24 0 0 0 486.617 -168.355A 1.24 1.24 0 0 0 488.37 -168.392A 1.24 1.24 0 0 0 488.333 -170.145 z M482.15 -171.081 L489.78 -177.166 L488.109 -179.262 L480.385 -173.102 L482.056 -171.006 L482.15 -171.081 z M478.809 -164.183A 2.69 2.69 0 0 0 480.042 -160.584A 2.69 2.69 0 0 0 483.641 -161.817A 2.69 2.69 0 0 0 482.408 -165.416A 2.69 2.69 0 0 0 478.809 -164.183 z M474.08 -157.608A 1.24 1.24 0 0 0 474.117 -155.855A 1.24 1.24 0 0 0 475.87 -155.892A 1.24 1.24 0 0 0 475.833 -157.645A 1.24 1.24 0 0 0 474.08 -157.608 z M471.54 -154.82 L471.54 -154.94 L468.86 -154.94 L468.86 -142.26 L471.54 -142.26 L471.54 -154.82 z M461.659 -145.618 L459.353 -146.728 L455.066 -137.827 L457.481 -136.664 L461.768 -145.566 L461.659 -145.618 z M471.54 -124.06 L471.54 -124.94 L468.8 -124.94A 0.06 0.06 0 0 1 468.74 -125 L468.74 -129.94 L456.86 -129.94 L456.86 -125A 0.06 0.06 0 0 1 456.8 -124.94 L454.06 -124.94 L454.06 -115.06 L456.8 -115.06A 0.06 0.06 0 0 1 456.86 -115 L456.86 -85A 0.06 0.06 0 0 1 456.8 -84.94 L454.06 -84.94 L454.06 -75.06 L456.8 -75.06A 0.06 0.06 0 0 1 456.86 -75 L456.86 -70.06 L468.74 -70.06 L468.74 -75A 0.06 0.06 0 0 1 468.8 -75.06 L471.54 -75.06 L471.54 -84.94 L468.8 -84.94A 0.06 0.06 0 0 1 468.74 -85 L468.74 -115A 0.06 0.06 0 0 1 468.8 -115.06 L471.54 -115.06 L471.54 -124.06 z M485.92 -114.24 L476.16 -114.24 L476.16 -111.56 L486.04 -111.56 L486.04 -114.24 L485.92 -114.24 z M490.78 -110.06 L493.34 -110.06 L493.34 -119.94 L490.66 -119.94 L490.66 -110.06 L490.78 -110.06 z M490.66 -89.82 L490.66 -80.06 L493.34 -80.06 L493.34 -89.94 L490.66 -89.94 L490.66 -89.82 z M471.54 -50.06 L471.54 -54.94 L468.86 -54.94 L468.86 -45.06 L471.54 -45.06 L471.54 -50.06 z M475.833 -44.145A 1.24 1.24 0 0 0 474.08 -44.108A 1.24 1.24 0 0 0 474.117 -42.355A 1.24 1.24 0 0 0 475.87 -42.392A 1.24 1.24 0 0 0 475.833 -44.145 z M478.719 -36.023A 2.69 2.69 0 0 0 482.202 -34.494A 2.69 2.69 0 0 0 483.731 -37.977A 2.69 2.69 0 0 0 480.248 -39.506A 2.69 2.69 0 0 0 478.719 -36.023 z M478.849 -31.388 L477.258 -29.392 L491.237 -18.244 L492.908 -20.34 L478.929 -31.488 L478.849 -31.388 z M475.833 -31.645A 1.24 1.24 0 0 0 474.08 -31.608A 1.24 1.24 0 0 0 474.117 -29.855A 1.24 1.24 0 0 0 475.87 -29.892A 1.24 1.24 0 0 0 475.833 -31.645 z M461.716 -54.543 L457.481 -63.336 L455.066 -62.173 L459.353 -53.272 L461.768 -54.434 L461.716 -54.543 z M486.617 -42.355A 1.24 1.24 0 0 0 488.37 -42.392A 1.24 1.24 0 0 0 488.333 -44.145A 1.24 1.24 0 0 0 486.58 -44.108A 1.24 1.24 0 0 0 486.617 -42.355 z M490.66 -35.94 L490.66 -30.06 L493.34 -30.06 L493.34 -39.94 L490.66 -39.94 L490.66 -35.94 z M488.715 -30.75A 1.24 1.24 0 0 0 487.475 -31.99A 1.24 1.24 0 0 0 486.235 -30.75A 1.24 1.24 0 0 0 487.475 -29.51A 1.24 1.24 0 0 0 488.715 -30.75 z M509.62 -14.778A 1.44 1.44 0 0 0 509.435 -12.75A 1.44 1.44 0 0 0 511.463 -12.565A 1.44 1.44 0 0 0 511.648 -14.593A 1.44 1.44 0 0 0 509.62 -14.778 z M534.27 -34.66 L534.39 -34.66 L534.39 -38.94 L514.51 -38.94 L514.51 -34.66 L534.27 -34.66 z M555.73 -34.66 L575.49 -34.66 L575.49 -38.94 L555.61 -38.94 L555.61 -34.66 L555.73 -34.66 z M579.719 -15.088A 1.44 1.44 0 0 0 578.043 -13.932A 1.44 1.44 0 0 0 579.198 -12.255A 1.44 1.44 0 0 0 580.875 -13.411A 1.44 1.44 0 0 0 579.719 -15.088 z M604.035 -25.876 L597.092 -20.34 L598.763 -18.244 L612.742 -29.392 L611.071 -31.488 L604.035 -25.876 z M613.735 -30.75A 1.24 1.24 0 0 0 614.975 -29.51A 1.24 1.24 0 0 0 616.215 -30.75A 1.24 1.24 0 0 0 614.975 -31.99A 1.24 1.24 0 0 0 613.735 -30.75 z M608.725 -34.31A 2.69 2.69 0 0 0 611.415 -37A 2.69 2.69 0 0 0 608.725 -39.69A 2.69 2.69 0 0 0 606.035 -37A 2.69 2.69 0 0 0 608.725 -34.31 z M602.475 -31.99A 1.24 1.24 0 0 0 601.235 -30.75A 1.24 1.24 0 0 0 602.475 -29.51A 1.24 1.24 0 0 0 603.715 -30.75A 1.24 1.24 0 0 0 602.475 -31.99 z M599.34 -38.06 L599.34 -39.94 L596.66 -39.94 L596.66 -30.06 L599.34 -30.06 L599.34 -38.06 z M603.37 -42.392A 1.24 1.24 0 0 0 603.333 -44.145A 1.24 1.24 0 0 0 601.58 -44.108A 1.24 1.24 0 0 0 601.617 -42.355A 1.24 1.24 0 0 0 603.37 -42.392 z M614.975 -44.49A 1.24 1.24 0 0 0 613.735 -43.25A 1.24 1.24 0 0 0 614.975 -42.01A 1.24 1.24 0 0 0 616.215 -43.25A 1.24 1.24 0 0 0 614.975 -44.49 z M621.14 -49.06 L621.14 -54.94 L618.46 -54.94 L618.46 -45.06 L621.14 -45.06 L621.14 -49.06 z M632.464 -63.221 L628.232 -54.434 L630.647 -53.272 L634.934 -62.173 L632.519 -63.336 L632.464 -63.221 z M639.76 -99.94 L639.76 -95.06 L642.44 -95.06 L642.44 -104.94 L639.76 -104.94 L639.76 -99.94 z M632.634 -136.719 L634.934 -137.827 L630.647 -146.728 L628.232 -145.566 L632.519 -136.664 L632.634 -136.719 z M488.333 -157.645A 1.24 1.24 0 0 0 486.58 -157.608A 1.24 1.24 0 0 0 486.617 -155.855A 1.24 1.24 0 0 0 488.37 -155.892A 1.24 1.24 0 0 0 488.333 -157.645 z M474.975 -168.01A 1.24 1.24 0 0 0 476.215 -169.25A 1.24 1.24 0 0 0 474.975 -170.49A 1.24 1.24 0 0 0 473.735 -169.25A 1.24 1.24 0 0 0 474.975 -168.01 z M450.24 -104.82 L450.24 -104.94 L447.56 -104.94 L447.56 -95.06 L450.24 -95.06 L450.24 -104.82 z M445.069 -105.083A 100.06 100.06 0 0 1 550.083 -199.931A 100.06 100.06 0 0 1 644.931 -94.917A 100.06 100.06 0 0 1 539.917 -0.069A 100.06 100.06 0 0 1 445.069 -105.083 z"/>
        <path id="op_2D_Profile3-6-1" fill="none" stroke="rgb(0,0,255)" stroke-width="0.1" d=" M545.921 -101.885 L547.421 -103.385A 0.06 0.06 0 0 1 547.506 -103.385A 0.06 0.06 0 0 1 547.524 -103.342 L547.524 -96.592 M543.654 -97.952A 2.122 2.122 0 0 1 541.651 -96.533 L539.964 -96.533A 0.06 0.06 0 0 1 539.904 -96.592 L539.904 -103.342A 0.06 0.06 0 0 1 539.964 -103.402 L541.651 -103.402A 2.123 2.123 0 0 1 543.774 -101.28 L543.774 -98.655A 2.123 2.123 0 0 1 543.654 -97.952 z"/>
    </g>
    <g id="Setup3">
        <path id="op_2D_Profile4-8-2" fill="none" stroke="rgb(255,0,0)" stroke-width="0.1" d=" M678.86 -140.18 L678.86 -140.06 L681.54 -140.06 L681.54 -149.94 L678.86 -149.94 L678.86 -140.18 z M678.6 -132.06 L680.54 -132.06 L680.54 -134.14 L662.46 -134.14 L662.46 -118.26 L664.54 -118.26 L664.54 -132A 0.06 0.06 0 0 1 664.6 -132.06 L678.6 -132.06 z M666.86 -89.94 L666.86 -70.06 L678.74 -70.06 L678.74 -129.94 L666.86 -129.94 L666.86 -89.94 z M676.54 -67.94 L664.6 -67.94A 0.06 0.06 0 0 1 664.54 -68 L664.54 -81.74 L662.46 -81.74 L662.46 -65.86 L680.54 -65.86 L680.54 -67.94 L676.54 -67.94 z M681.54 -57.06 L681.54 -62.74 L678.86 -62.74 L678.86 -50.06 L681.54 -50.06 L681.54 -57.06 z M691.275 -39.19A 2.19 2.19 0 0 0 689.085 -37A 2.19 2.19 0 0 0 691.275 -34.81A 2.19 2.19 0 0 0 693.465 -37A 2.19 2.19 0 0 0 691.275 -39.19 z M700.66 -59.74 L700.66 -50.06 L703.34 -50.06 L703.34 -62.74 L700.66 -62.74 L700.66 -59.74 z M719.61 -108.52 L719.61 -100.76 L722.29 -100.76 L722.29 -108.64 L719.61 -108.64 L719.61 -108.52 z M719.61 -118.32 L719.61 -110.56 L722.29 -110.56 L722.29 -118.44 L719.61 -118.44 L719.61 -118.32 z M719.73 -126.06 L722.29 -126.06 L722.29 -133.94 L719.61 -133.94 L719.61 -126.06 L719.73 -126.06 z M709.22 -131.14 L686.61 -131.14 L686.61 -121.26 L709.34 -121.26 L709.34 -131.14 L709.22 -131.14 z M700.66 -145.94 L700.66 -140.06 L703.34 -140.06 L703.34 -149.94 L700.66 -149.94 L700.66 -145.94 z M693.008 -161.662A 2.19 2.19 0 0 0 692.613 -164.733A 2.19 2.19 0 0 0 689.542 -164.338A 2.19 2.19 0 0 0 689.937 -161.267A 2.19 2.19 0 0 0 693.008 -161.662 z M741.49 -170.4 L741.49 -181.34 L739.41 -181.34 L739.41 -165.4A 0.06 0.06 0 0 1 739.35 -165.34 L724.51 -165.34 L724.51 -160.06 L744.39 -160.06 L744.39 -165.34 L741.55 -165.34A 0.06 0.06 0 0 1 741.49 -165.4 L741.49 -170.4 z M747.23 -171.46 L783.23 -171.46 L783.23 -181.4A 0.06 0.06 0 0 1 783.29 -181.46 L785.43 -181.46 L785.43 -187.34 L744.91 -187.34 L744.91 -181.46 L747.05 -181.46A 0.06 0.06 0 0 1 747.11 -181.4 L747.11 -171.46 L747.23 -171.46 z M765.73 -160.06 L787.69 -160.06 L787.69 -175.94 L785.61 -175.94 L785.61 -165.4A 0.06 0.06 0 0 1 785.55 -165.34 L765.61 -165.34 L765.61 -160.06 L765.73 -160.06 z M768.49 -142.34 L744.61 -142.34 L744.61 -136.46 L785.49 -136.46 L785.49 -142.34 L768.49 -142.34 z M769.43 -126.06 L771.99 -126.06 L771.99 -133.94 L769.31 -133.94 L769.31 -126.06 L769.43 -126.06 z M769.43 -110.56 L771.99 -110.56 L771.99 -118.44 L769.31 -118.44 L769.31 -110.56 L769.43 -110.56 z M771.87 -108.64 L769.31 -108.64 L769.31 -100.76 L771.99 -100.76 L771.99 -108.64 L771.87 -108.64 z M806.66 -148.94 L806.66 -140.06 L809.34 -140.06 L809.34 -149.94 L806.66 -149.94 L806.66 -148.94 z M818.725 -160.81A 2.19 2.19 0 0 0 820.915 -163A 2.19 2.19 0 0 0 818.725 -165.19A 2.19 2.19 0 0 0 816.535 -163A 2.19 2.19 0 0 0 818.725 -160.81 z M828.46 -140.18 L828.46 -140.06 L831.14 -140.06 L831.14 -149.94 L828.46 -149.94 L828.46 -140.18 z M830.46 -132.06 L845.4 -132.06A 0.06 0.06 0 0 1 845.46 -132 L845.46 -118.26 L847.54 -118.26 L847.54 -134.14 L829.46 -134.14 L829.46 -132.06 L830.46 -132.06 z M843.14 -89.06 L843.14 -129.94 L831.26 -129.94 L831.26 -70.06 L843.14 -70.06 L843.14 -89.06 z M833.4 -67.94 L829.46 -67.94 L829.46 -65.86 L847.54 -65.86 L847.54 -81.74 L845.46 -81.74 L845.46 -68A 0.06 0.06 0 0 1 845.4 -67.94 L833.4 -67.94 z M828.46 -57.74 L828.46 -50.06 L831.14 -50.06 L831.14 -62.74 L828.46 -62.74 L828.46 -57.74 z M818.725 -39.19A 2.19 2.19 0 0 0 816.535 -37A 2.19 2.19 0 0 0 818.725 -34.81A 2.19 2.19 0 0 0 820.915 -37A 2.19 2.19 0 0 0 818.725 -39.19 z M809.34 -50.18 L809.34 -62.74 L806.66 -62.74 L806.66 -50.06 L809.34 -50.06 L809.34 -50.18 z M828.754 -32.381A 100.06 100.06 0 0 1 687.381 -26.246A 100.06 100.06 0 0 1 681.246 -167.619A 100.06 100.06 0 0 1 822.619 -173.754A 100.06 100.06 0 0 1 828.754 -32.381 z"/>
        <path id="op_2D_Profile5-9-3" fill="none" stroke="rgb(0,0,255)" stroke-width="0.1" d=" M752.205 -146.992 L752.205 -149.992 L752.205 -153.742 L754.08 -153.742A 1.875 1.875 0 0 1 755.955 -151.867A 1.875 1.875 0 0 1 754.08 -149.992 L752.205 -149.992 M758.205 -152.242 L759.705 -153.742 L759.705 -146.992"/>
    </g>
    <g id="Setup4">
        <path id="op_2D_Profile6-11-4" fill="none" stroke="rgb(255,0,0)" stroke-width="0.1" d=" M864.951 0.035A 0.06 0.06 0 0 1 864.94 0 L864.94 -23.796A 0.06 0.06 0 0 1 865 -23.856 L873 -23.856A 0.06 0.06 0 0 1 873.06 -23.796 L873.06 -21.056 L880.44 -21.056 L880.44 -23.796A 0.06 0.06 0 0 1 880.5 -23.856 L888.5 -23.856A 0.06 0.06 0 0 1 888.56 -23.796 L888.56 -5.056 L890.24 -5.056 L890.24 -23.796A 0.06 0.06 0 0 1 890.3 -23.856 L898.3 -23.856A 0.06 0.06 0 0 1 898.36 -23.796 L898.36 0A 0.06 0.06 0 0 1 898.3 0.06 L865 0.06A 0.06 0.06 0 0 1 864.951 0.035 z"/>
        <path id="op_2D_Profile7-12-5" fill="none" stroke="rgb(0,0,255)" stroke-width="0.1" d=" M879.357 -10.245 L881.607 -16.995A 0.06 0.06 0 0 1 881.683 -17.033A 0.06 0.06 0 0 1 881.721 -16.995 L883.971 -10.245 M877.164 -10.166 L873.414 -10.166A 0.06 0.06 0 0 1 873.354 -10.226A 0.06 0.06 0 0 1 873.361 -10.255 L877.062 -16.916 L873.414 -16.916 M871.206 -11.684 L869.706 -10.184A 0.06 0.06 0 0 1 869.621 -10.184A 0.06 0.06 0 0 1 869.604 -10.226 L869.604 -16.976"/>
    </g>
    <g id="Setup5">
        <path id="op_2D_Profile8-14-6" fill="none" stroke="rgb(255,0,0)" stroke-width="0.1" d=" M923.74 -23.796A 0.06 0.06 0 0 1 923.8 -23.856 L931.8 -23.856A 0.06 0.06 0 0 1 931.86 -23.796 L931.86 -5.056 L933.54 -5.056 L933.54 -23.796A 0.06 0.06 0 0 1 933.6 -23.856 L941.6 -23.856A 0.06 0.06 0 0 1 941.66 -23.796 L941.66 0A 0.06 0.06 0 0 1 941.6 0.06 L908.3 0.06A 0.06 0.06 0 0 1 908.24 0 L908.24 -23.796A 0.06 0.06 0 0 1 908.3 -23.856 L916.3 -23.856A 0.06 0.06 0 0 1 916.36 -23.796 L916.36 -21.056 L923.74 -21.056 L923.74 -23.796 z"/>
        <path id="op_2D_Profile9-15-7" fill="none" stroke="rgb(0,0,255)" stroke-width="0.1" d=" M922.7 -10.205 L924.95 -16.955A 0.06 0.06 0 0 1 925.026 -16.993A 0.06 0.06 0 0 1 925.064 -16.955 L927.314 -10.205 M920.507 -10.126 L916.757 -10.126A 0.06 0.06 0 0 1 916.697 -10.186A 0.06 0.06 0 0 1 916.704 -10.215 L920.405 -16.876 L916.757 -16.876 M914.549 -11.643 L913.049 -10.143A 0.06 0.06 0 0 1 912.964 -10.143A 0.06 0.06 0 0 1 912.947 -10.186 L912.947 -16.936"/>
    </g>
    <g id="Setup6">
        <path id="op_2D_Profile10-17-8" fill="none" stroke="rgb(255,0,0)" stroke-width="0.1" d=" M1051.6 -113.593A 77.193 77.193 0 0 0 974.407 -36.4A 77.193 77.193 0 0 0 983.513 -0.028A 0.06 0.06 0 0 1 983.488 0.053A 0.06 0.06 0 0 1 983.46 0.06 L958.46 0.06A 0.06 0.06 0 0 1 958.404 0.022A 100.06 100.06 0 0 1 1015.178 -129.596A 100.06 100.06 0 0 1 1144.796 -72.822A 100.06 100.06 0 0 1 1144.796 0.022A 0.06 0.06 0 0 1 1144.74 0.06 L1119.74 0.06A 0.06 0.06 0 0 1 1119.68 0A 0.06 0.06 0 0 1 1119.687 -0.028A 77.193 77.193 0 0 0 1087.972 -104.487A 77.193 77.193 0 0 0 1051.6 -113.593 z"/>
        <path id="op_2D_Profile11-18-9" fill="none" stroke="rgb(0,0,255)" stroke-width="0.1" d=" M1055.444 -126.959A 1.603 1.603 0 0 1 1057.001 -128.128A 1.555 1.555 0 0 1 1058.563 -126.579A 1.555 1.555 0 0 1 1058.327 -125.749 L1055.609 -121.378 L1058.501 -121.378 M1053.251 -121.258 L1049.501 -121.258A 0.06 0.06 0 0 1 1049.441 -121.318A 0.06 0.06 0 0 1 1049.449 -121.347 L1053.149 -128.008 L1049.501 -128.008 M1047.308 -128.049 L1045.058 -121.299A 0.06 0.06 0 0 1 1044.982 -121.261A 0.06 0.06 0 0 1 1044.944 -121.299 L1042.694 -128.049"/>
    </g>
    <g id="Setup8">
        <path id="op_2D_Profile12-21-10" fill="none" stroke="rgb(255,0,0)" stroke-width="0.1" d=" M1197.86 0A 0.06 0.06 0 0 1 1197.8 0.06 L1188.7 0.06A 0.06 0.06 0 0 1 1188.64 0 L1188.64 -5.74 L1182.76 -5.74 L1182.76 0A 0.06 0.06 0 0 1 1182.7 0.06 L1173.6 0.06A 0.06 0.06 0 0 1 1173.54 0 L1173.54 -5.74 L1161.6 -5.74A 0.06 0.06 0 0 1 1161.54 -5.8 L1161.54 -10A 0.06 0.06 0 0 1 1161.6 -10.06 L1163.54 -10.06 L1163.54 -25.94 L1161.6 -25.94A 0.06 0.06 0 0 1 1161.54 -26 L1161.54 -37.6A 0.06 0.06 0 0 1 1161.6 -37.66 L1209.8 -37.66A 0.06 0.06 0 0 1 1209.86 -37.6 L1209.86 -26A 0.06 0.06 0 0 1 1209.8 -25.94 L1207.86 -25.94 L1207.86 -10.06 L1209.8 -10.06A 0.06 0.06 0 0 1 1209.86 -10 L1209.86 -5.8A 0.06 0.06 0 0 1 1209.8 -5.74 L1197.86 -5.74 L1197.86 0 z"/>
        <path id="op_2D_Profile13-22-11" fill="none" stroke="rgb(0,0,255)" stroke-width="0.1" d=" M1167.725 -12.065 L1169.6 -12.065 M1171.027 -13.103A 1.5 1.5 0 0 1 1169.607 -12.065A 1.875 1.875 0 0 1 1171.475 -10.19A 1.875 1.875 0 0 1 1170.926 -8.864A 1.875 1.875 0 0 1 1169.6 -8.315 L1167.725 -8.315 L1167.725 -15.065 L1169.6 -15.065A 1.5 1.5 0 0 1 1171.1 -13.565A 1.5 1.5 0 0 1 1171.027 -13.103 z M1173.725 -15.065 L1175.225 -15.065A 1.5 1.5 0 0 1 1176.725 -13.565A 1.5 1.5 0 0 1 1175.232 -12.065A 1.5 1.5 0 0 1 1176.725 -10.565 L1176.725 -9.815A 1.5 1.5 0 0 1 1175.225 -8.315 L1173.725 -8.315 M1175.225 -12.065 L1174.475 -12.065"/>
    </g>
    <g id="Setup9">
        <path id="op_2D_Profile14-24-12" fill="none" stroke="rgb(255,0,0)" stroke-width="0.1" d=" M1268 -31.86A 0.06 0.06 0 0 1 1268.06 -31.8 L1268.06 -27.6A 0.06 0.06 0 0 1 1268 -27.54 L1266.06 -27.54 L1266.06 -11.66 L1268 -11.66A 0.06 0.06 0 0 1 1268.06 -11.6 L1268.06 0A 0.06 0.06 0 0 1 1268 0.06 L1219.8 0.06A 0.06 0.06 0 0 1 1219.74 0 L1219.74 -11.6A 0.06 0.06 0 0 1 1219.8 -11.66 L1221.74 -11.66 L1221.74 -27.54 L1219.8 -27.54A 0.06 0.06 0 0 1 1219.74 -27.6 L1219.74 -31.8A 0.06 0.06 0 0 1 1219.8 -31.86 L1231.74 -31.86 L1231.74 -37.6A 0.06 0.06 0 0 1 1231.8 -37.66 L1240.9 -37.66A 0.06 0.06 0 0 1 1240.96 -37.6 L1240.96 -31.86 L1246.84 -31.86 L1246.84 -37.6A 0.06 0.06 0 0 1 1246.9 -37.66 L1256 -37.66A 0.06 0.06 0 0 1 1256.06 -37.6 L1256.06 -31.86 L1268 -31.86 z"/>
        <path id="op_2D_Profile15-25-13" fill="none" stroke="rgb(0,0,255)" stroke-width="0.1" d=" M1261.99 -25.342 L1260.115 -25.342 M1258.688 -24.304A 1.5 1.5 0 0 1 1260.108 -25.342 L1260.107 -25.342A 1.875 1.875 0 0 1 1258.24 -27.217A 1.875 1.875 0 0 1 1258.789 -28.543A 1.875 1.875 0 0 1 1260.115 -29.092 L1261.99 -29.092 L1261.99 -22.342 L1260.115 -22.342A 1.5 1.5 0 0 1 1258.615 -23.842A 1.5 1.5 0 0 1 1258.688 -24.304 z M1255.99 -22.342 L1254.49 -22.342A 1.5 1.5 0 0 1 1252.99 -23.842A 1.5 1.5 0 0 1 1254.483 -25.342A 1.5 1.5 0 0 1 1252.99 -26.842 L1252.99 -27.592A 1.5 1.5 0 0 1 1254.49 -29.092 L1255.99 -29.092"/>
    </g>
    <g id="Setup10">
        <path id="op_2D_Profile16-27-14" fill="none" stroke="rgb(255,0,0)" stroke-width="0.1" d=" M1300.877 -13.458A 10.441 10.441 0 0 0 1297.252 -22.454A 10.44 10.44 0 0 0 1282.536 -21.262A 10.44 10.44 0 0 0 1283.728 -6.546A 10.44 10.44 0 0 0 1297.252 -6.546A 10.441 10.441 0 0 0 1300.877 -13.458 z M1309.478 -14.011A 0.79 0.79 0 0 0 1308.688 -13.221A 0.79 0.79 0 0 0 1309.478 -12.431A 0.79 0.79 0 0 0 1310.268 -13.221A 0.79 0.79 0 0 0 1309.478 -14.011 z M1313.017 -12.084A 2.69 2.69 0 0 0 1316.616 -13.317A 2.69 2.69 0 0 0 1315.383 -16.916A 2.69 2.69 0 0 0 1311.784 -15.683A 2.69 2.69 0 0 0 1313.017 -12.084 z M1315.479 -10.568A 0.79 0.79 0 0 0 1314.689 -9.778A 0.79 0.79 0 0 0 1315.479 -8.988A 0.79 0.79 0 0 0 1316.269 -9.778A 0.79 0.79 0 0 0 1315.479 -10.568 z M1318.132 -15.779A 0.79 0.79 0 0 0 1318.922 -14.989A 0.79 0.79 0 0 0 1319.712 -15.779A 0.79 0.79 0 0 0 1318.922 -16.569A 0.79 0.79 0 0 0 1318.132 -15.779 z M1313.58 -18.786A 0.79 0.79 0 0 0 1313.711 -19.222A 0.79 0.79 0 0 0 1312.921 -20.012A 0.79 0.79 0 0 0 1312.131 -19.222A 0.79 0.79 0 0 0 1312.921 -18.432A 0.79 0.79 0 0 0 1313.58 -18.786 z M1313.58 -26.06 L1314.14 -26.06 L1314.14 -28.8A 0.06 0.06 0 0 1 1314.2 -28.86 L1326.2 -28.86A 0.06 0.06 0 0 1 1326.26 -28.8 L1326.26 -18.9A 0.06 0.06 0 0 1 1326.2 -18.84 L1324.26 -18.84 L1324.26 -10.16 L1326.2 -10.16A 0.06 0.06 0 0 1 1326.26 -10.1 L1326.26 -0.2A 0.06 0.06 0 0 1 1326.2 -0.14 L1314.2 -0.14A 0.06 0.06 0 0 1 1314.14 -0.2 L1314.14 -2.94 L1305.16 -2.94 L1305.16 0A 0.06 0.06 0 0 1 1305.1 0.06 L1299.1 0.06A 0.06 0.06 0 0 1 1299.04 0 L1299.04 -2.94 L1290.06 -2.94 L1290.06 -0.2A 0.06 0.06 0 0 1 1290 -0.14 L1278 -0.14A 0.06 0.06 0 0 1 1277.94 -0.2 L1277.94 -28.8A 0.06 0.06 0 0 1 1278 -28.86 L1290 -28.86A 0.06 0.06 0 0 1 1290.06 -28.8 L1290.06 -26.06 L1299.04 -26.06 L1299.04 -29A 0.06 0.06 0 0 1 1299.1 -29.06 L1305.1 -29.06A 0.06 0.06 0 0 1 1305.16 -29 L1305.16 -26.06 L1313.58 -26.06 z"/>
        <path id="op_2D_Profile17-28-15" fill="none" stroke="rgb(0,0,255)" stroke-width="0.1" d=" M1316.526 -24.39A 1.543 1.543 0 0 1 1315.401 -25.89A 1.495 1.495 0 0 1 1316.89 -27.392A 1.495 1.495 0 0 1 1317.689 -27.165 L1322.151 -24.39 L1322.151 -27.39 M1318.401 -18.39 L1318.401 -20.265 M1318.277 -20.862A 1.5 1.5 0 0 1 1318.401 -20.272A 1.875 1.875 0 0 1 1320.276 -22.14A 1.875 1.875 0 0 1 1322.151 -20.265 L1322.151 -18.39 L1315.401 -18.39 L1315.401 -20.265A 1.5 1.5 0 0 1 1316.901 -21.765A 1.5 1.5 0 0 1 1318.277 -20.862 z"/>
    </g>
    <g id="Setup11">
        <path id="op_2D_Profile18-30-16" fill="none" stroke="rgb(255,0,0)" stroke-width="0.1" d=" M1341.135 -22.714A 1.59 1.59 0 0 0 1341.486 -24.935A 1.59 1.59 0 0 0 1339.265 -25.286A 1.59 1.59 0 0 0 1338.914 -23.065A 1.59 1.59 0 0 0 1341.135 -22.714 z M1341 -21.561A 10.44 10.44 0 0 0 1341.629 -6.81A 10.44 10.44 0 0 0 1355.452 -6.546A 0.06 0.06 0 0 1 1355.491 -6.56 L1376.303 -6.56A 7.06 7.06 0 0 1 1379.34 -9.362 L1379.34 -19.638A 7.06 7.06 0 0 1 1376.303 -22.44 L1355.491 -22.44A 0.06 0.06 0 0 1 1355.452 -22.454A 10.44 10.44 0 0 0 1341 -21.561 z M1341.486 -5.935A 1.59 1.59 0 0 0 1339.265 -6.286A 1.59 1.59 0 0 0 1338.914 -4.065A 1.59 1.59 0 0 0 1341.135 -3.714A 1.59 1.59 0 0 0 1341.486 -5.935 z M1379.465 -6.286A 1.59 1.59 0 0 0 1379.114 -4.065A 1.59 1.59 0 0 0 1381.335 -3.714A 1.59 1.59 0 0 0 1381.686 -5.935A 1.59 1.59 0 0 0 1379.465 -6.286 z M1380.316 -22.412A 1.59 1.59 0 0 0 1381.988 -23.916A 1.59 1.59 0 0 0 1380.484 -25.588A 1.59 1.59 0 0 0 1378.812 -24.084A 1.59 1.59 0 0 0 1380.316 -22.412 z M1384.46 -22.412 L1384.46 -18.9A 0.06 0.06 0 0 1 1384.4 -18.84 L1382.46 -18.84 L1382.46 -10.16 L1384.4 -10.16A 0.06 0.06 0 0 1 1384.46 -10.1 L1384.46 -0.2A 0.06 0.06 0 0 1 1384.4 -0.14 L1372.4 -0.14A 0.06 0.06 0 0 1 1372.34 -0.2 L1372.34 -2.94 L1363.36 -2.94 L1363.36 0A 0.06 0.06 0 0 1 1363.3 0.06 L1357.3 0.06A 0.06 0.06 0 0 1 1357.24 0 L1357.24 -2.94 L1348.26 -2.94 L1348.26 -0.2A 0.06 0.06 0 0 1 1348.2 -0.14 L1336.2 -0.14A 0.06 0.06 0 0 1 1336.14 -0.2 L1336.14 -28.8A 0.06 0.06 0 0 1 1336.2 -28.86 L1348.2 -28.86A 0.06 0.06 0 0 1 1348.26 -28.8 L1348.26 -26.06 L1357.24 -26.06 L1357.24 -29A 0.06 0.06 0 0 1 1357.3 -29.06 L1363.3 -29.06A 0.06 0.06 0 0 1 1363.36 -29 L1363.36 -26.06 L1372.34 -26.06 L1372.34 -28.8A 0.06 0.06 0 0 1 1372.4 -28.86 L1384.4 -28.86A 0.06 0.06 0 0 1 1384.46 -28.8 L1384.46 -22.412 z"/>
        <path id="op_2D_Profile19-31-17" fill="none" stroke="rgb(0,0,255)" stroke-width="0.1" d=" M1362.052 -25.382 L1361.115 -25.382 M1360.633 -25.206A 0.75 0.75 0 0 1 1361.112 -25.382A 0.938 0.938 0 0 1 1360.177 -26.322A 0.938 0.938 0 0 1 1361.115 -27.257 L1362.052 -27.257 L1362.052 -23.882 L1361.115 -23.882A 0.75 0.75 0 0 1 1360.365 -24.632A 0.75 0.75 0 0 1 1360.633 -25.206 z M1359.052 -24.632 L1358.302 -23.882 L1358.302 -27.257"/>
    </g>
    <g id="Setup12">
        <path id="op_2D_Profile20-33-18" fill="none" stroke="rgb(255,0,0)" stroke-width="0.1" d=" M1403.74 -9.278A 1.34 1.34 0 0 0 1402.4 -10.618A 1.34 1.34 0 0 0 1401.06 -9.278A 1.34 1.34 0 0 0 1402.4 -7.938A 1.34 1.34 0 0 0 1403.74 -9.278 z M1462.8 -29.721A 1.34 1.34 0 0 0 1464.031 -28.28A 1.34 1.34 0 0 0 1465.472 -29.512A 1.34 1.34 0 0 0 1464.241 -30.952A 1.34 1.34 0 0 0 1462.8 -29.721 z M1446.588 -75.002A 1.34 1.34 0 0 0 1447.398 -76.716A 1.34 1.34 0 0 0 1445.684 -77.526A 1.34 1.34 0 0 0 1444.874 -75.812A 1.34 1.34 0 0 0 1446.588 -75.002 z M1454.138 -77.916 L1471.656 -32.518A 8.06 8.06 0 0 1 1471.503 -26.346A 8.06 8.06 0 0 1 1467.028 -22.093 L1412.074 -0.966A 15.41 15.41 0 0 1 1398.119 -2.447 L1397.994 -2.529A 8.06 8.06 0 0 1 1395.651 -13.684 L1439.387 -80.67A 8.06 8.06 0 0 1 1450.542 -83.013A 8.06 8.06 0 0 1 1453.656 -79.166 L1454.138 -77.916 z"/>
        <path id="op_2D_Profile21-34-19" fill="none" stroke="rgb(0,0,255)" stroke-width="0.1" d=" M1450.85 -61.113 L1452.725 -61.113 M1448.975 -61.113 L1450.85 -61.113 L1450.85 -67.863 M1446.725 -67.863 L1444.475 -61.113 L1442.225 -67.863 M1446.069 -65.988 L1442.882 -65.988 M1439.975 -62.238A 1.543 1.543 0 0 1 1438.475 -61.113A 1.495 1.495 0 0 1 1436.973 -62.601A 1.495 1.495 0 0 1 1437.2 -63.401 L1439.975 -67.863 L1436.975 -67.863"/>
    </g>
    <g id="Setup14">
        <path id="op_2D_Profile23-38-20" fill="none" stroke="rgb(255,0,0)" stroke-width="0.1" d=" M1513.036 -199.24A 2.44 2.44 0 0 0 1510.596 -196.8A 2.44 2.44 0 0 0 1513.036 -194.36A 2.44 2.44 0 0 0 1515.476 -196.8A 2.44 2.44 0 0 0 1513.036 -199.24 z M1528.396 -199.24 L1528.396 0A 0.06 0.06 0 0 1 1528.336 0.06 L1482.136 0.06A 0.06 0.06 0 0 1 1482.076 0 L1482.076 -176A 0.06 0.06 0 0 1 1482.136 -176.06 L1484.276 -176.06 L1484.276 -240A 0.06 0.06 0 0 1 1484.336 -240.06 L1528.336 -240.06A 0.06 0.06 0 0 1 1528.396 -240 L1528.396 -199.24 z"/>
        <path id="op_2D_Profile24-39-21" fill="none" stroke="rgb(0,0,255)" stroke-width="0.1" d=" M1522.081 -237.453 L1525.831 -237.453 L1522.081 -230.703 L1525.831 -230.703 M1519.831 -232.203 L1518.331 -230.703 L1518.331 -237.453"/>
    </g>
</svg>

