<?xml version="1.0" encoding="UTF-8" standalone="no"?>
<svg
   xmlns:dc="http://purl.org/dc/elements/1.1/"
   xmlns:cc="http://creativecommons.org/ns#"
   xmlns:rdf="http://www.w3.org/1999/02/22-rdf-syntax-ns#"
   xmlns:svg="http://www.w3.org/2000/svg"
   xmlns="http://www.w3.org/2000/svg"
   xmlns:sodipodi="http://sodipodi.sourceforge.net/DTD/sodipodi-0.dtd"
   xmlns:inkscape="http://www.inkscape.org/namespaces/inkscape"
   width="667.4599994659425mm"
   height="630.0600004196167mm"
   viewBox="-10 -610 667.4599994659425 630.0600004196167"
   version="1.1"
   id="svg13"
   sodipodi:docname="CAM-3mm-podvozek.svg"
   inkscape:version="0.92.4 (5da689c313, 2019-01-14)">
  <metadata
     id="metadata19">
    <rdf:RDF>
      <cc:Work
         rdf:about="">
        <dc:format>image/svg+xml</dc:format>
        <dc:type
           rdf:resource="http://purl.org/dc/dcmitype/StillImage" />
      </cc:Work>
    </rdf:RDF>
  </metadata>
  <defs
     id="defs17" />
  <sodipodi:namedview
     pagecolor="#ffffff"
     bordercolor="#666666"
     borderopacity="1"
     objecttolerance="10"
     gridtolerance="10"
     guidetolerance="10"
     inkscape:pageopacity="0"
     inkscape:pageshadow="2"
     inkscape:window-width="1920"
     inkscape:window-height="1017"
     id="namedview15"
     showgrid="false"
     inkscape:zoom="0.79283455"
     inkscape:cx="1994.9604"
     inkscape:cy="250.81887"
     inkscape:window-x="-8"
     inkscape:window-y="-8"
     inkscape:window-maximized="1"
     inkscape:current-layer="svg13" />
  <polyline
     points="0,0 425,0 425,-600 0,-600 0,0"
     stroke="rgb(0,0,0)"
     stroke-width="0.1"
     fill="none"
     id="polyline2" />
  <g
     id="Setup28"
     style="stroke-width:0.26458332;stroke-miterlimit:4;stroke-dasharray:none">
    <path
       id="op_2D_Profile60-91-0"
       d="m 471.7,-26.81 a 1.44,1.44 0 0 0 1.44,-1.44 v -5 a 1.44,1.44 0 0 0 -1.44,-1.44 1.44,1.44 0 0 0 -1.44,1.44 v 5 a 1.44,1.44 0 0 0 1.44,1.44 z m 1.107,4.138 a 1.44,1.44 0 0 0 -2.029,-0.185 1.44,1.44 0 0 0 -0.518,1.107 v 5 a 1.44,1.44 0 0 0 1.44,1.44 1.44,1.44 0 0 0 1.44,-1.44 v -5 a 1.44,1.44 0 0 0 -0.333,-0.922 z m 52.971,5.065 a 1.44,1.44 0 0 0 -0.518,1.107 v 5 a 1.44,1.44 0 0 0 1.44,1.44 1.44,1.44 0 0 0 1.44,-1.44 v -5 a 1.44,1.44 0 0 0 -1.44,-1.44 1.44,1.44 0 0 0 -0.922,0.333 z m 0.839,-14.455 a 1.44,1.44 0 0 0 1.071,-0.391 1.44,1.44 0 0 0 0.452,-1.047 v -5 a 1.44,1.44 0 0 0 -1.44,-1.44 1.44,1.44 0 0 0 -1.44,1.44 v 5 a 1.44,1.44 0 0 0 1.357,1.438 z m 3.193,-9.477 v 0.479 h 23.59 a 0.06,0.06 0 0 1 0.06,0.06 v 10 a 0.06,0.06 0 0 1 -0.06,0.06 h -2.94 V -3 a 0.06,0.06 0 0 1 -0.06,0.06 H 529.81 V 0 a 0.06,0.06 0 0 1 -0.06,0.06 h -20 A 0.06,0.06 0 0 1 509.69,0 V -2.94 H 488.71 V 0 a 0.06,0.06 0 0 1 -0.06,0.06 h -20 A 0.06,0.06 0 0 1 468.59,0 V -2.94 H 448 A 0.06,0.06 0 0 1 447.94,-3 V -30.94 H 445 A 0.06,0.06 0 0 1 444.94,-31 v -10 a 0.06,0.06 0 0 1 0.06,-0.06 h 23.59 V -44 a 0.06,0.06 0 0 1 0.06,-0.06 h 20 a 0.06,0.06 0 0 1 0.06,0.06 v 2.94 h 20.98 V -44 a 0.06,0.06 0 0 1 0.06,-0.06 h 20 a 0.06,0.06 0 0 1 0.06,0.06 z"
       inkscape:connector-curvature="0"
       style="fill:none;stroke:#ff0000;stroke-width:0.26458332;stroke-miterlimit:4;stroke-dasharray:none" />
    <path
       id="op_2D_Profile61-92-1"
       d="m 492.479,-26.548 h 1.875 m 0.44,-0.066 a 1.5,1.5 0 0 1 -0.433,0.066 h 0.001 a 1.875,1.875 0 0 1 1.867,1.875 1.875,1.875 0 0 1 -1.875,1.875 h -1.875 v -3.75 -3 h 1.875 a 1.5,1.5 0 0 1 1.5,1.5 1.5,1.5 0 0 1 -1.06,1.434 z m 7.421,-1.111 a 2.063,2.063 0 0 1 0.014,0.24 v 2.625 a 2.062,2.062 0 0 1 -2.062,2.062 h -1.688 v -6.75 h 1.688 a 2.063,2.063 0 0 1 2.048,1.823 z m 2.264,-0.323 1.5,-1.5 v 6.75"
       inkscape:connector-curvature="0"
       style="fill:none;stroke:#0000ff;stroke-width:0.26458332;stroke-miterlimit:4;stroke-dasharray:none" />
  </g>
  <g
     id="Setup32"
     style="stroke-width:0.26458332;stroke-miterlimit:4;stroke-dasharray:none">
    <path
       id="op_2D_Profile62-97-2"
       d="M 563.4,-14.94 A 0.06,0.06 0 0 1 563.34,-15 v -6 a 0.06,0.06 0 0 1 0.06,-0.06 h 32 a 0.06,0.06 0 0 1 0.06,0.06 v 6 a 0.06,0.06 0 0 1 -0.06,0.06 h -9.94 V 0 a 0.06,0.06 0 0 1 -0.06,0.06 h -12 A 0.06,0.06 0 0 1 573.34,0 v -14.94 z"
       inkscape:connector-curvature="0"
       style="fill:none;stroke:#ff0000;stroke-width:0.26458332;stroke-miterlimit:4;stroke-dasharray:none" />
    <path
       id="op_2D_Profile63-98-3"
       d="m 580.294,-2.913 a 2.307,2.307 0 0 0 -0.187,0.843 0.458,0.458 0 0 0 0.433,0.481 0.458,0.458 0 0 0 0.42,-0.228 l 0.497,-1.031 a 0.47,0.47 0 0 1 0.631,-0.21 0.47,0.47 0 0 1 0.26,0.416 1.886,1.886 0 0 1 -0.188,1.032 m -2.053,-2.813 v -0.656 a 0.656,0.656 0 0 1 0.656,-0.656 h 0.469 1.125 v 0.937 a 0.563,0.563 0 0 1 -0.563,0.563 0.563,0.563 0 0 1 -0.562,-0.563 v -0.937 m -1.125,-1.125 h -1.125 m 1.125,0 v -0.844 a 0.656,0.656 0 0 1 0.656,-0.656 h 0.938 a 0.656,0.656 0 0 1 0.656,0.656 v 0.844 z m 2.25,-3 a 0.375,0.375 0 0 1 -0.375,0.375 h -3 m 1.125,-2.25 a 0.75,0.75 0 0 1 0.75,-0.75 h 0.75 a 0.75,0.75 0 0 1 0.75,0.75 0.75,0.75 0 0 1 -0.75,0.75 h -0.75 a 0.75,0.75 0 0 1 -0.75,-0.75 z m 2.25,-1.875 h -2.25 v -0.844 a 0.656,0.656 0 0 1 0.656,-0.656 h 1.594 m -2.25,-1.313 v -0.656 a 0.656,0.656 0 0 1 0.656,-0.656 h 0.469 1.125 v 0.937 a 0.563,0.563 0 0 1 -0.563,0.563 0.563,0.563 0 0 1 -0.562,-0.563 v -0.937"
       inkscape:connector-curvature="0"
       style="fill:none;stroke:#0000ff;stroke-width:0.26458332;stroke-miterlimit:4;stroke-dasharray:none" />
  </g>
  <g
     id="Setup33"
     style="stroke-width:0.26458332;stroke-miterlimit:4;stroke-dasharray:none">
    <path
       id="op_2D_Profile64-100-4"
       d="M 605.4,-14.94 A 0.06,0.06 0 0 1 605.34,-15 v -6 a 0.06,0.06 0 0 1 0.06,-0.06 h 32 a 0.06,0.06 0 0 1 0.06,0.06 v 6 a 0.06,0.06 0 0 1 -0.06,0.06 h -9.94 V 0 a 0.06,0.06 0 0 1 -0.06,0.06 h -12 A 0.06,0.06 0 0 1 615.34,0 v -14.94 z"
       inkscape:connector-curvature="0"
       style="fill:none;stroke:#ff0000;stroke-width:0.26458332;stroke-miterlimit:4;stroke-dasharray:none" />
    <path
       id="op_2D_Profile65-101-5"
       d="m 620.929,-2.913 a 2.307,2.307 0 0 0 -0.187,0.843 0.458,0.458 0 0 0 0.433,0.481 0.458,0.458 0 0 0 0.42,-0.228 l 0.497,-1.031 a 0.47,0.47 0 0 1 0.631,-0.21 0.47,0.47 0 0 1 0.259,0.416 1.886,1.886 0 0 1 -0.187,1.032 m -2.053,-2.813 v -0.656 a 0.656,0.656 0 0 1 0.656,-0.656 h 0.469 1.125 v 0.937 a 0.563,0.563 0 0 1 -0.563,0.563 0.563,0.563 0 0 1 -0.562,-0.563 v -0.937 m -1.125,-1.125 v -0.844 a 0.656,0.656 0 0 1 0.656,-0.656 h 0.938 a 0.656,0.656 0 0 1 0.656,0.656 v 0.844 z m 0,0 h -1.125 m 3.375,-3 a 0.375,0.375 0 0 1 -0.11,0.265 0.375,0.375 0 0 1 -0.265,0.11 h -3 m 1.125,-2.25 a 0.75,0.75 0 0 1 0.75,-0.75 h 0.75 a 0.75,0.75 0 0 1 0.75,0.75 0.75,0.75 0 0 1 -0.75,0.75 h -0.75 a 0.75,0.75 0 0 1 -0.75,-0.75 z m 2.25,-1.875 h -2.25 v -0.844 a 0.656,0.656 0 0 1 0.656,-0.656 h 1.594 m -2.25,-1.313 v -0.656 a 0.656,0.656 0 0 1 0.656,-0.656 h 0.469 1.125 v 0.937 a 0.563,0.563 0 0 1 -0.563,0.563 0.563,0.563 0 0 1 -0.562,-0.563 v -0.937"
       inkscape:connector-curvature="0"
       style="fill:none;stroke:#0000ff;stroke-width:0.26458332;stroke-miterlimit:4;stroke-dasharray:none" />
  </g>
  <g
     id="g830"
     transform="translate(-0.23597441,-27.137057)"
     style="stroke-width:0.26458332;stroke-miterlimit:4;stroke-dasharray:none">
    <path
       style="fill:none;stroke:#ff0000;stroke-width:0.26458332;stroke-miterlimit:4;stroke-dasharray:none"
       inkscape:connector-curvature="0"
       d="M 563.4,-14.94 A 0.06,0.06 0 0 1 563.34,-15 v -6 a 0.06,0.06 0 0 1 0.06,-0.06 h 32 a 0.06,0.06 0 0 1 0.06,0.06 v 6 a 0.06,0.06 0 0 1 -0.06,0.06 h -9.94 V 0 a 0.06,0.06 0 0 1 -0.06,0.06 h -12 A 0.06,0.06 0 0 1 573.34,0 v -14.94 z"
       id="path826" />
    <path
       style="fill:none;stroke:#0000ff;stroke-width:0.26458332;stroke-miterlimit:4;stroke-dasharray:none"
       inkscape:connector-curvature="0"
       d="m 580.294,-2.913 a 2.307,2.307 0 0 0 -0.187,0.843 0.458,0.458 0 0 0 0.433,0.481 0.458,0.458 0 0 0 0.42,-0.228 l 0.497,-1.031 a 0.47,0.47 0 0 1 0.631,-0.21 0.47,0.47 0 0 1 0.26,0.416 1.886,1.886 0 0 1 -0.188,1.032 m -2.053,-2.813 v -0.656 a 0.656,0.656 0 0 1 0.656,-0.656 h 0.469 1.125 v 0.937 a 0.563,0.563 0 0 1 -0.563,0.563 0.563,0.563 0 0 1 -0.562,-0.563 v -0.937 m -1.125,-1.125 h -1.125 m 1.125,0 v -0.844 a 0.656,0.656 0 0 1 0.656,-0.656 h 0.938 a 0.656,0.656 0 0 1 0.656,0.656 v 0.844 z m 2.25,-3 a 0.375,0.375 0 0 1 -0.375,0.375 h -3 m 1.125,-2.25 a 0.75,0.75 0 0 1 0.75,-0.75 h 0.75 a 0.75,0.75 0 0 1 0.75,0.75 0.75,0.75 0 0 1 -0.75,0.75 h -0.75 a 0.75,0.75 0 0 1 -0.75,-0.75 z m 2.25,-1.875 h -2.25 v -0.844 a 0.656,0.656 0 0 1 0.656,-0.656 h 1.594 m -2.25,-1.313 v -0.656 a 0.656,0.656 0 0 1 0.656,-0.656 h 0.469 1.125 v 0.937 a 0.563,0.563 0 0 1 -0.563,0.563 0.563,0.563 0 0 1 -0.562,-0.563 v -0.937"
       id="path828" />
  </g>
  <g
     id="g836"
     transform="translate(-0.23597441,-27.137057)"
     style="stroke-width:0.26458332;stroke-miterlimit:4;stroke-dasharray:none">
    <path
       style="fill:none;stroke:#ff0000;stroke-width:0.26458332;stroke-miterlimit:4;stroke-dasharray:none"
       inkscape:connector-curvature="0"
       d="M 605.4,-14.94 A 0.06,0.06 0 0 1 605.34,-15 v -6 a 0.06,0.06 0 0 1 0.06,-0.06 h 32 a 0.06,0.06 0 0 1 0.06,0.06 v 6 a 0.06,0.06 0 0 1 -0.06,0.06 h -9.94 V 0 a 0.06,0.06 0 0 1 -0.06,0.06 h -12 A 0.06,0.06 0 0 1 615.34,0 v -14.94 z"
       id="path832" />
    <path
       style="fill:none;stroke:#0000ff;stroke-width:0.26458332;stroke-miterlimit:4;stroke-dasharray:none"
       inkscape:connector-curvature="0"
       d="m 620.929,-2.913 a 2.307,2.307 0 0 0 -0.187,0.843 0.458,0.458 0 0 0 0.433,0.481 0.458,0.458 0 0 0 0.42,-0.228 l 0.497,-1.031 a 0.47,0.47 0 0 1 0.631,-0.21 0.47,0.47 0 0 1 0.259,0.416 1.886,1.886 0 0 1 -0.187,1.032 m -2.053,-2.813 v -0.656 a 0.656,0.656 0 0 1 0.656,-0.656 h 0.469 1.125 v 0.937 a 0.563,0.563 0 0 1 -0.563,0.563 0.563,0.563 0 0 1 -0.562,-0.563 v -0.937 m -1.125,-1.125 v -0.844 a 0.656,0.656 0 0 1 0.656,-0.656 h 0.938 a 0.656,0.656 0 0 1 0.656,0.656 v 0.844 z m 0,0 h -1.125 m 3.375,-3 a 0.375,0.375 0 0 1 -0.11,0.265 0.375,0.375 0 0 1 -0.265,0.11 h -3 m 1.125,-2.25 a 0.75,0.75 0 0 1 0.75,-0.75 h 0.75 a 0.75,0.75 0 0 1 0.75,0.75 0.75,0.75 0 0 1 -0.75,0.75 h -0.75 a 0.75,0.75 0 0 1 -0.75,-0.75 z m 2.25,-1.875 h -2.25 v -0.844 a 0.656,0.656 0 0 1 0.656,-0.656 h 1.594 m -2.25,-1.313 v -0.656 a 0.656,0.656 0 0 1 0.656,-0.656 h 0.469 1.125 v 0.937 a 0.563,0.563 0 0 1 -0.563,0.563 0.563,0.563 0 0 1 -0.562,-0.563 v -0.937"
       id="path834" />
  </g>
</svg>
