<?xml version="1.0" encoding="UTF-8" standalone="no"?>
<svg xmlns="http://www.w3.org/2000/svg" width="1088.555237298674mm" height="431.9074926376343mm" viewBox="-10 -410 1088.555237298674 431.9074926376343">
    <polyline points="0,0 500,0 500,-400 0,-400 0,0"  stroke="rgb(0,0,0)" stroke-width="0.1" fill="none"/>
    <g id="Setup1">
        <path id="op_2D_Profile1-3-0" fill="none" stroke="rgb(255,0,0)" stroke-width="0.1" d=" M546.105 -9.336A 1.34 1.34 0 0 0 544.664 -8.105A 1.34 1.34 0 0 0 545.895 -6.664A 1.34 1.34 0 0 0 547.336 -7.895A 1.34 1.34 0 0 0 546.105 -9.336 z M547.227 -37.333A 1.44 1.44 0 0 0 548.667 -35.893A 1.44 1.44 0 0 0 550.107 -37.333A 1.44 1.44 0 0 0 548.667 -38.773A 1.44 1.44 0 0 0 547.227 -37.333 z M542.227 -41.745A 1.44 1.44 0 0 0 544.255 -41.56A 1.44 1.44 0 0 0 544.44 -43.588A 1.44 1.44 0 0 0 542.412 -43.773A 1.44 1.44 0 0 0 542.227 -41.745 z M528.993 -53.747A 1.34 1.34 0 0 0 528.9 -55.64A 1.34 1.34 0 0 0 527.007 -55.548A 1.34 1.34 0 0 0 527.1 -53.655A 1.34 1.34 0 0 0 528.993 -53.747 z M528.993 -46.588 L528 -46.588A 8.06 8.06 0 0 1 519.94 -54.648A 8.06 8.06 0 0 1 528 -62.708 L540.94 -62.708 L540.94 -66.648A 0.06 0.06 0 0 1 541 -66.708 L548.44 -66.708 L548.44 -72.648A 0.06 0.06 0 0 1 548.5 -72.708 L556.5 -72.708A 0.06 0.06 0 0 1 556.56 -72.648 L556.56 -66.708 L564 -66.708A 0.06 0.06 0 0 1 564.06 -66.648 L564.06 -62.708 L567 -62.708A 0.06 0.06 0 0 1 567.06 -62.648 L567.06 -46.648A 0.06 0.06 0 0 1 567 -46.588 L564.06 -46.588 L564.06 -34.908 L567 -34.908A 0.06 0.06 0 0 1 567.06 -34.848 L567.06 -13.738A 13.798 13.798 0 0 1 553.262 0.06 L548.366 0.06A 10.426 10.426 0 0 1 537.94 -10.366 L537.94 -34.848A 0.06 0.06 0 0 1 538 -34.908 L540.94 -34.908 L540.94 -46.588 L528.993 -46.588 z"/>
    </g>
    <g id="Setup2">
        <path id="op_2D_Profile2-5-1" fill="none" stroke="rgb(255,0,0)" stroke-width="0.1" d=" M617.34 -19.8A 1.34 1.34 0 0 0 616 -21.14A 1.34 1.34 0 0 0 614.66 -19.8A 1.34 1.34 0 0 0 616 -18.46A 1.34 1.34 0 0 0 617.34 -19.8 z M624.06 -19.8A 8.06 8.06 0 0 1 616 -11.74 L603.06 -11.74 L603.06 0A 0.06 0.06 0 0 1 603 0.06 L580 0.06A 0.06 0.06 0 0 1 579.94 0 L579.94 -11.74 L577 -11.74A 0.06 0.06 0 0 1 576.94 -11.8 L576.94 -27.8A 0.06 0.06 0 0 1 577 -27.86 L579.94 -27.86 L579.94 -31.8A 0.06 0.06 0 0 1 580 -31.86 L603 -31.86A 0.06 0.06 0 0 1 603.06 -31.8 L603.06 -27.86 L616 -27.86A 8.06 8.06 0 0 1 624.06 -19.8 z"/>
    </g>
    <g id="Setup3">
        <path id="op_2D_Profile3-7-2" fill="none" stroke="rgb(255,0,0)" stroke-width="0.1" d=" M707.155 -19.959A 1.34 1.34 0 0 0 708.495 -18.619A 1.34 1.34 0 0 0 709.835 -19.959A 1.34 1.34 0 0 0 708.495 -21.299A 1.34 1.34 0 0 0 707.155 -19.959 z M649.533 -17.21A 1.44 1.44 0 0 0 650.689 -15.534A 1.44 1.44 0 0 0 652.366 -16.689A 1.44 1.44 0 0 0 651.21 -18.366A 1.44 1.44 0 0 0 649.533 -17.21 z M641.972 -15.843A 1.44 1.44 0 0 0 642.157 -17.871A 1.44 1.44 0 0 0 640.129 -18.056A 1.44 1.44 0 0 0 639.944 -16.028A 1.44 1.44 0 0 0 641.972 -15.843 z M642.157 -7.972A 1.44 1.44 0 0 0 640.129 -8.157A 1.44 1.44 0 0 0 639.944 -6.129A 1.44 1.44 0 0 0 641.972 -5.944A 1.44 1.44 0 0 0 642.157 -7.972 z M649.518 -7.2A 1.44 1.44 0 0 0 650.8 -5.618A 1.44 1.44 0 0 0 652.382 -6.9A 1.44 1.44 0 0 0 651.1 -8.482A 1.44 1.44 0 0 0 649.518 -7.2 z M650.781 -0.639 L648.28 -0.157A 12.06 12.06 0 0 1 635.474 -6.114A 12.06 12.06 0 0 1 634.037 -10.476A 12.06 12.06 0 0 1 636.703 -19.681A 12.06 12.06 0 0 1 645.239 -24.036 L707.987 -28.003A 8.06 8.06 0 0 1 716.539 -20.467A 8.06 8.06 0 0 1 710.019 -12.044 L650.781 -0.639 z"/>
    </g>
    <g id="Setup4">
        <path id="op_2D_Profile4-9-3" fill="none" stroke="rgb(255,0,0)" stroke-width="0.1" d=" M742.005 -16.95A 1.44 1.44 0 0 0 743.445 -15.51A 1.44 1.44 0 0 0 744.885 -16.95A 1.44 1.44 0 0 0 743.445 -18.39A 1.44 1.44 0 0 0 742.005 -16.95 z M734.467 -15.843A 1.44 1.44 0 0 0 734.652 -17.871A 1.44 1.44 0 0 0 732.624 -18.056A 1.44 1.44 0 0 0 732.439 -16.028A 1.44 1.44 0 0 0 734.467 -15.843 z M734.652 -7.972A 1.44 1.44 0 0 0 732.624 -8.157A 1.44 1.44 0 0 0 732.439 -6.129A 1.44 1.44 0 0 0 734.467 -5.944A 1.44 1.44 0 0 0 734.652 -7.972 z M742.013 -7.2A 1.44 1.44 0 0 0 743.295 -5.618A 1.44 1.44 0 0 0 744.877 -6.9A 1.44 1.44 0 0 0 743.595 -8.482A 1.44 1.44 0 0 0 742.013 -7.2 z M745.624 -2.273A 12.06 12.06 0 0 1 738.495 0.06A 12.06 12.06 0 0 1 726.435 -12A 12.06 12.06 0 0 1 738.495 -24.06A 12.06 12.06 0 0 1 750.555 -12A 12.06 12.06 0 0 1 747.023 -3.472A 12.06 12.06 0 0 1 745.624 -2.273 z"/>
    </g>
    <g id="Setup5">
        <path id="op_2D_Profile5-11-4" fill="none" stroke="rgb(255,0,0)" stroke-width="0.1" d=" M768.6 -9.336A 1.34 1.34 0 0 0 767.159 -8.105A 1.34 1.34 0 0 0 768.39 -6.664A 1.34 1.34 0 0 0 769.831 -7.895A 1.34 1.34 0 0 0 768.6 -9.336 z M769.722 -37.333A 1.44 1.44 0 0 0 771.162 -35.893A 1.44 1.44 0 0 0 772.602 -37.333A 1.44 1.44 0 0 0 771.162 -38.773A 1.44 1.44 0 0 0 769.722 -37.333 z M766.678 -41.504A 1.44 1.44 0 0 0 766.992 -43.516A 1.44 1.44 0 0 0 764.98 -43.83A 1.44 1.44 0 0 0 764.665 -41.818A 1.44 1.44 0 0 0 766.678 -41.504 z M760.435 -41.504 L760.435 -72.648A 0.06 0.06 0 0 1 760.495 -72.708 L776.495 -72.708A 0.06 0.06 0 0 1 776.555 -72.648 L776.555 -3A 3.06 3.06 0 0 1 773.495 0.06 L770.861 0.06A 10.426 10.426 0 0 1 760.435 -10.366 L760.435 -41.504 z"/>
    </g>
    <g id="Setup7">
        <path id="op_2D_Profile6-18-5" fill="none" stroke="rgb(255,0,0)" stroke-width="0.1" d=" M796.24 -6.44A 1.44 1.44 0 0 0 796.055 -4.412A 1.44 1.44 0 0 0 798.083 -4.227A 1.44 1.44 0 0 0 798.268 -6.255A 1.44 1.44 0 0 0 796.24 -6.44 z M792.868 -9.67A 1.44 1.44 0 0 0 792.825 -11.706A 1.44 1.44 0 0 0 790.789 -11.663A 1.44 1.44 0 0 0 790.832 -9.627A 1.44 1.44 0 0 0 792.868 -9.67 z M792.868 -16.06 L802.495 -16.06A 0.06 0.06 0 0 1 802.555 -16 L802.555 0A 0.06 0.06 0 0 1 802.495 0.06 L786.495 0.06A 0.06 0.06 0 0 1 786.435 0 L786.435 -16A 0.06 0.06 0 0 1 786.495 -16.06 L792.868 -16.06 z"/>
    </g>
    <g id="Setup8">
        <path id="op_2D_Profile7-20-6" fill="none" stroke="rgb(255,0,0)" stroke-width="0.1" d=" M820.6 -9.336A 1.34 1.34 0 0 0 819.159 -8.105A 1.34 1.34 0 0 0 820.39 -6.664A 1.34 1.34 0 0 0 821.831 -7.895A 1.34 1.34 0 0 0 820.6 -9.336 z M821.722 -37.333A 1.44 1.44 0 0 0 823.162 -35.893A 1.44 1.44 0 0 0 824.602 -37.333A 1.44 1.44 0 0 0 823.162 -38.773A 1.44 1.44 0 0 0 821.722 -37.333 z M818.678 -41.504A 1.44 1.44 0 0 0 818.992 -43.516A 1.44 1.44 0 0 0 816.98 -43.83A 1.44 1.44 0 0 0 816.665 -41.818A 1.44 1.44 0 0 0 818.678 -41.504 z M812.435 -41.504 L812.435 -48A 0.06 0.06 0 0 1 812.495 -48.06 L828.495 -48.06A 0.06 0.06 0 0 1 828.555 -48 L828.555 -3A 3.06 3.06 0 0 1 825.495 0.06 L815.495 0.06A 3.06 3.06 0 0 1 812.435 -3 L812.435 -41.504 z"/>
    </g>
    <g id="Setup9">
        <path id="op_2D_Profile8-22-7" fill="none" stroke="rgb(255,0,0)" stroke-width="0.1" d=" M858.495 -6.66A 1.34 1.34 0 0 0 859.835 -8A 1.34 1.34 0 0 0 858.495 -9.34A 1.34 1.34 0 0 0 857.155 -8A 1.34 1.34 0 0 0 858.495 -6.66 z M862.854 -4.713A 8.06 8.06 0 0 1 855.495 0.06 L838.495 0.06A 0.06 0.06 0 0 1 838.435 0 L838.435 -19.427A 0.06 0.06 0 0 1 838.456 -19.472A 0.06 0.06 0 0 1 838.503 -19.487 L856.59 -17.007A 8.06 8.06 0 0 1 863.555 -9.022 L863.555 -8A 8.06 8.06 0 0 1 862.854 -4.713 z"/>
    </g>
    <g id="Setup10">
        <path id="op_2D_Profile9-24-8" fill="none" stroke="rgb(255,0,0)" stroke-width="0.1" d=" M877.155 -8A 1.34 1.34 0 0 0 878.495 -6.66A 1.34 1.34 0 0 0 879.835 -8A 1.34 1.34 0 0 0 878.495 -9.34A 1.34 1.34 0 0 0 877.155 -8 z M873.435 -8 L873.435 -9.022A 8.06 8.06 0 0 1 880.401 -17.007 L898.487 -19.487A 0.06 0.06 0 0 1 898.535 -19.472A 0.06 0.06 0 0 1 898.555 -19.427 L898.555 0A 0.06 0.06 0 0 1 898.495 0.06 L881.495 0.06A 8.06 8.06 0 0 1 873.435 -8 z"/>
    </g>
    <g id="Setup11">
        <path id="op_2D_Profile10-26-9" fill="none" stroke="rgb(255,0,0)" stroke-width="0.1" d=" M916.495 -9.34A 1.34 1.34 0 0 0 915.155 -8A 1.34 1.34 0 0 0 916.495 -6.66A 1.34 1.34 0 0 0 917.835 -8A 1.34 1.34 0 0 0 916.495 -9.34 z M916.495 -16.06A 8.06 8.06 0 0 1 924.555 -8A 8.06 8.06 0 0 1 916.495 0.06A 8.06 8.06 0 0 1 910.796 -2.301A 8.06 8.06 0 0 1 908.435 -8A 8.06 8.06 0 0 1 916.495 -16.06 z"/>
    </g>
    <g id="Setup12">
        <path id="op_2D_Profile11-28-10" fill="none" stroke="rgb(255,0,0)" stroke-width="0.1" d=" M942.495 -6.66A 1.34 1.34 0 0 0 943.835 -8A 1.34 1.34 0 0 0 942.495 -9.34A 1.34 1.34 0 0 0 941.155 -8A 1.34 1.34 0 0 0 942.495 -6.66 z M942.495 0.06A 8.06 8.06 0 0 1 934.435 -8A 8.06 8.06 0 0 1 942.495 -16.06A 8.06 8.06 0 0 1 950.555 -8A 8.06 8.06 0 0 1 948.195 -2.301A 8.06 8.06 0 0 1 942.495 0.06 z"/>
    </g>
    <g id="Setup13">
        <path id="op_2D_Profile12-30-11" fill="none" stroke="rgb(255,0,0)" stroke-width="0.1" d=" M968.39 -22.664A 1.34 1.34 0 0 0 969.831 -23.895A 1.34 1.34 0 0 0 968.6 -25.336A 1.34 1.34 0 0 0 967.159 -24.105A 1.34 1.34 0 0 0 968.39 -22.664 z M967.269 -10.667A 1.44 1.44 0 0 0 965.829 -12.107A 1.44 1.44 0 0 0 964.389 -10.667A 1.44 1.44 0 0 0 965.829 -9.227A 1.44 1.44 0 0 0 967.269 -10.667 z M970.313 -6.496A 1.44 1.44 0 0 0 969.999 -4.484A 1.44 1.44 0 0 0 972.011 -4.17A 1.44 1.44 0 0 0 972.325 -6.182A 1.44 1.44 0 0 0 970.313 -6.496 z M976.555 -6.496 L976.555 0A 0.06 0.06 0 0 1 976.495 0.06 L960.495 0.06A 0.06 0.06 0 0 1 960.435 0 L960.435 -24A 8.06 8.06 0 0 1 968.495 -32.06A 8.06 8.06 0 0 1 976.555 -24 L976.555 -6.496 z"/>
    </g>
    <g id="Setup14">
        <path id="op_2D_Profile13-32-12" fill="none" stroke="rgb(255,0,0)" stroke-width="0.1" d=" M996.24 -6.44A 1.44 1.44 0 0 0 996.055 -4.412A 1.44 1.44 0 0 0 998.083 -4.227A 1.44 1.44 0 0 0 998.268 -6.255A 1.44 1.44 0 0 0 996.24 -6.44 z M992.868 -9.67A 1.44 1.44 0 0 0 992.825 -11.706A 1.44 1.44 0 0 0 990.789 -11.663A 1.44 1.44 0 0 0 990.832 -9.627A 1.44 1.44 0 0 0 992.868 -9.67 z M992.868 -16.06 L1002.495 -16.06A 0.06 0.06 0 0 1 1002.555 -16 L1002.555 0A 0.06 0.06 0 0 1 1002.495 0.06 L986.495 0.06A 0.06 0.06 0 0 1 986.435 0 L986.435 -16A 0.06 0.06 0 0 1 986.495 -16.06 L992.868 -16.06 z"/>
    </g>
    <g id="Setup15">
        <path id="op_2D_Profile14-34-13" fill="none" stroke="rgb(255,0,0)" stroke-width="0.1" d=" M1020.495 -9.34A 1.34 1.34 0 0 0 1019.155 -8A 1.34 1.34 0 0 0 1020.495 -6.66A 1.34 1.34 0 0 0 1021.835 -8A 1.34 1.34 0 0 0 1020.495 -9.34 z M1020.495 -16.06 L1030.495 -16.06A 0.06 0.06 0 0 1 1030.555 -16 L1030.555 0A 0.06 0.06 0 0 1 1030.495 0.06 L1020.495 0.06A 8.06 8.06 0 0 1 1012.435 -8A 8.06 8.06 0 0 1 1020.495 -16.06 z"/>
    </g>
    <g id="Setup16">
        <path id="op_2D_Profile15-36-14" fill="none" stroke="rgb(255,0,0)" stroke-width="0.1" d=" M1050.495 -9.34A 1.34 1.34 0 0 0 1049.155 -8A 1.34 1.34 0 0 0 1050.495 -6.66A 1.34 1.34 0 0 0 1051.835 -8A 1.34 1.34 0 0 0 1050.495 -9.34 z M1050.495 -16.06A 8.06 8.06 0 0 1 1058.555 -8A 8.06 8.06 0 0 1 1050.495 0.06 L1040.495 0.06A 0.06 0.06 0 0 1 1040.435 0 L1040.435 -16A 0.06 0.06 0 0 1 1040.495 -16.06 L1050.495 -16.06 z"/>
    </g>
</svg>

