<?xml version="1.0" encoding="UTF-8" standalone="no"?>
<svg xmlns="http://www.w3.org/2000/svg" width="1013.5552372986738mm" height="631.9074926376343mm" viewBox="-10 -610 1013.5552372986738 631.9074926376343">
    <polyline points="0,0 425,0 425,-600 0,-600 0,0"  stroke="rgb(0,0,0)" stroke-width="0.1" fill="none"/>
    <g id="Setup1">
        <path id="op_2D_Profile1-3-0" fill="none" stroke="rgb(255,0,0)" stroke-width="0.1" d=" M471.183 -9.378A 1.39 1.39 0 0 0 469.622 -8.183A 1.39 1.39 0 0 0 470.817 -6.622A 1.39 1.39 0 0 0 472.378 -7.817A 1.39 1.39 0 0 0 471.183 -9.378 z M472.227 -37.333A 1.44 1.44 0 0 0 473.667 -35.893A 1.44 1.44 0 0 0 475.107 -37.333A 1.44 1.44 0 0 0 473.667 -38.773A 1.44 1.44 0 0 0 472.227 -37.333 z M467.227 -41.745A 1.44 1.44 0 0 0 469.255 -41.56A 1.44 1.44 0 0 0 469.44 -43.588A 1.44 1.44 0 0 0 467.412 -43.773A 1.44 1.44 0 0 0 467.227 -41.745 z M454.03 -53.714A 1.39 1.39 0 0 0 453.934 -55.677A 1.39 1.39 0 0 0 451.97 -55.581A 1.39 1.39 0 0 0 452.066 -53.618A 1.39 1.39 0 0 0 454.03 -53.714 z M454.03 -46.588 L453 -46.588A 8.06 8.06 0 0 1 444.94 -54.648A 8.06 8.06 0 0 1 453 -62.708 L465.94 -62.708 L465.94 -66.848A 0.06 0.06 0 0 1 466 -66.908 L473.04 -66.908 L473.04 -72.648A 0.06 0.06 0 0 1 473.1 -72.708 L481.9 -72.708A 0.06 0.06 0 0 1 481.96 -72.648 L481.96 -66.908 L489 -66.908A 0.06 0.06 0 0 1 489.06 -66.848 L489.06 -62.708 L492 -62.708A 0.06 0.06 0 0 1 492.06 -62.648 L492.06 -46.648A 0.06 0.06 0 0 1 492 -46.588 L489.06 -46.588 L489.06 -35.108 L492 -35.108A 0.06 0.06 0 0 1 492.06 -35.048 L492.06 -13.738A 13.798 13.798 0 0 1 478.262 0.06 L473.366 0.06A 10.426 10.426 0 0 1 462.94 -10.366 L462.94 -35.048A 0.06 0.06 0 0 1 463 -35.108 L465.94 -35.108 L465.94 -46.588 L454.03 -46.588 z"/>
    </g>
    <g id="Setup2">
        <path id="op_2D_Profile2-5-1" fill="none" stroke="rgb(255,0,0)" stroke-width="0.1" d=" M539.61 -19.6A 1.39 1.39 0 0 0 541 -18.21A 1.39 1.39 0 0 0 542.39 -19.6A 1.39 1.39 0 0 0 541 -20.99A 1.39 1.39 0 0 0 539.61 -19.6 z M539.61 -11.54 L528.06 -11.54 L528.06 0A 0.06 0.06 0 0 1 528 0.06 L505 0.06A 0.06 0.06 0 0 1 504.94 0 L504.94 -11.54 L502 -11.54A 0.06 0.06 0 0 1 501.94 -11.6 L501.94 -27.6A 0.06 0.06 0 0 1 502 -27.66 L504.94 -27.66 L504.94 -31.8A 0.06 0.06 0 0 1 505 -31.86 L528 -31.86A 0.06 0.06 0 0 1 528.06 -31.8 L528.06 -27.66 L541 -27.66A 8.06 8.06 0 0 1 549.06 -19.6A 8.06 8.06 0 0 1 541 -11.54 L539.61 -11.54 z"/>
    </g>
    <g id="Setup3">
        <path id="op_2D_Profile3-7-2" fill="none" stroke="rgb(255,0,0)" stroke-width="0.1" d=" M632.155 -19.959A 1.34 1.34 0 0 0 633.495 -18.619A 1.34 1.34 0 0 0 634.835 -19.959A 1.34 1.34 0 0 0 633.495 -21.299A 1.34 1.34 0 0 0 632.155 -19.959 z M574.533 -17.21A 1.44 1.44 0 0 0 575.689 -15.534A 1.44 1.44 0 0 0 577.366 -16.689A 1.44 1.44 0 0 0 576.21 -18.366A 1.44 1.44 0 0 0 574.533 -17.21 z M566.972 -15.843A 1.44 1.44 0 0 0 567.157 -17.871A 1.44 1.44 0 0 0 565.129 -18.056A 1.44 1.44 0 0 0 564.944 -16.028A 1.44 1.44 0 0 0 566.972 -15.843 z M567.157 -7.972A 1.44 1.44 0 0 0 565.129 -8.157A 1.44 1.44 0 0 0 564.944 -6.129A 1.44 1.44 0 0 0 566.972 -5.944A 1.44 1.44 0 0 0 567.157 -7.972 z M574.518 -7.2A 1.44 1.44 0 0 0 575.8 -5.618A 1.44 1.44 0 0 0 577.382 -6.9A 1.44 1.44 0 0 0 576.1 -8.482A 1.44 1.44 0 0 0 574.518 -7.2 z M575.781 -0.639 L573.28 -0.157A 12.06 12.06 0 0 1 560.474 -6.114A 12.06 12.06 0 0 1 559.037 -10.476A 12.06 12.06 0 0 1 561.703 -19.681A 12.06 12.06 0 0 1 570.239 -24.036 L632.987 -28.003A 8.06 8.06 0 0 1 641.539 -20.467A 8.06 8.06 0 0 1 635.019 -12.044 L575.781 -0.639 z"/>
    </g>
    <g id="Setup4">
        <path id="op_2D_Profile4-9-3" fill="none" stroke="rgb(255,0,0)" stroke-width="0.1" d=" M667.005 -16.95A 1.44 1.44 0 0 0 668.445 -15.51A 1.44 1.44 0 0 0 669.885 -16.95A 1.44 1.44 0 0 0 668.445 -18.39A 1.44 1.44 0 0 0 667.005 -16.95 z M659.467 -15.843A 1.44 1.44 0 0 0 659.652 -17.871A 1.44 1.44 0 0 0 657.624 -18.056A 1.44 1.44 0 0 0 657.439 -16.028A 1.44 1.44 0 0 0 659.467 -15.843 z M659.652 -7.972A 1.44 1.44 0 0 0 657.624 -8.157A 1.44 1.44 0 0 0 657.439 -6.129A 1.44 1.44 0 0 0 659.467 -5.944A 1.44 1.44 0 0 0 659.652 -7.972 z M667.013 -7.2A 1.44 1.44 0 0 0 668.295 -5.618A 1.44 1.44 0 0 0 669.877 -6.9A 1.44 1.44 0 0 0 668.595 -8.482A 1.44 1.44 0 0 0 667.013 -7.2 z M670.624 -2.273A 12.06 12.06 0 0 1 663.495 0.06A 12.06 12.06 0 0 1 651.435 -12A 12.06 12.06 0 0 1 663.495 -24.06A 12.06 12.06 0 0 1 675.555 -12A 12.06 12.06 0 0 1 672.023 -3.472A 12.06 12.06 0 0 1 670.624 -2.273 z"/>
    </g>
    <g id="Setup5">
        <path id="op_2D_Profile5-11-4" fill="none" stroke="rgb(255,0,0)" stroke-width="0.1" d=" M693.678 -9.378A 1.39 1.39 0 0 0 692.117 -8.183A 1.39 1.39 0 0 0 693.312 -6.622A 1.39 1.39 0 0 0 694.873 -7.817A 1.39 1.39 0 0 0 693.678 -9.378 z M694.976 -36.516A 1.44 1.44 0 0 0 696.979 -36.148A 1.44 1.44 0 0 0 697.348 -38.151A 1.44 1.44 0 0 0 695.345 -38.519A 1.44 1.44 0 0 0 694.976 -36.516 z M691.634 -41.473A 1.44 1.44 0 0 0 692.022 -43.472A 1.44 1.44 0 0 0 690.024 -43.861A 1.44 1.44 0 0 0 689.635 -41.862A 1.44 1.44 0 0 0 691.634 -41.473 z M685.435 -41.473 L685.435 -48A 0.06 0.06 0 0 1 685.495 -48.06 L701.495 -48.06A 0.06 0.06 0 0 1 701.555 -48 L701.555 -3A 3.06 3.06 0 0 1 698.495 0.06 L695.861 0.06A 10.426 10.426 0 0 1 685.435 -10.366 L685.435 -41.473 z"/>
    </g>
    <g id="Setup7">
        <path id="op_2D_Profile6-18-5" fill="none" stroke="rgb(255,0,0)" stroke-width="0.1" d=" M721.24 -6.44A 1.44 1.44 0 0 0 721.055 -4.412A 1.44 1.44 0 0 0 723.083 -4.227A 1.44 1.44 0 0 0 723.268 -6.255A 1.44 1.44 0 0 0 721.24 -6.44 z M717.868 -9.67A 1.44 1.44 0 0 0 717.825 -11.706A 1.44 1.44 0 0 0 715.789 -11.663A 1.44 1.44 0 0 0 715.832 -9.627A 1.44 1.44 0 0 0 717.868 -9.67 z M717.868 -16.06 L727.495 -16.06A 0.06 0.06 0 0 1 727.555 -16 L727.555 0A 0.06 0.06 0 0 1 727.495 0.06 L711.495 0.06A 0.06 0.06 0 0 1 711.435 0 L711.435 -16A 0.06 0.06 0 0 1 711.495 -16.06 L717.868 -16.06 z"/>
    </g>
    <g id="Setup8">
        <path id="op_2D_Profile7-20-6" fill="none" stroke="rgb(255,0,0)" stroke-width="0.1" d=" M745.678 -9.378A 1.39 1.39 0 0 0 744.117 -8.183A 1.39 1.39 0 0 0 745.312 -6.622A 1.39 1.39 0 0 0 746.873 -7.817A 1.39 1.39 0 0 0 745.678 -9.378 z M746.722 -37.333A 1.44 1.44 0 0 0 748.162 -35.893A 1.44 1.44 0 0 0 749.602 -37.333A 1.44 1.44 0 0 0 748.162 -38.773A 1.44 1.44 0 0 0 746.722 -37.333 z M743.678 -41.504A 1.44 1.44 0 0 0 743.992 -43.516A 1.44 1.44 0 0 0 741.98 -43.83A 1.44 1.44 0 0 0 741.665 -41.818A 1.44 1.44 0 0 0 743.678 -41.504 z M737.435 -41.504 L737.435 -48A 0.06 0.06 0 0 1 737.495 -48.06 L753.495 -48.06A 0.06 0.06 0 0 1 753.555 -48 L753.555 -3A 3.06 3.06 0 0 1 750.495 0.06 L740.495 0.06A 3.06 3.06 0 0 1 737.435 -3 L737.435 -41.504 z"/>
    </g>
    <g id="Setup9">
        <path id="op_2D_Profile8-22-7" fill="none" stroke="rgb(255,0,0)" stroke-width="0.1" d=" M783.495 -6.66A 1.34 1.34 0 0 0 784.835 -8A 1.34 1.34 0 0 0 783.495 -9.34A 1.34 1.34 0 0 0 782.155 -8A 1.34 1.34 0 0 0 783.495 -6.66 z M787.854 -4.713A 8.06 8.06 0 0 1 780.495 0.06 L763.495 0.06A 0.06 0.06 0 0 1 763.435 0 L763.435 -19.427A 0.06 0.06 0 0 1 763.456 -19.472A 0.06 0.06 0 0 1 763.503 -19.487 L781.59 -17.007A 8.06 8.06 0 0 1 788.555 -9.022 L788.555 -8A 8.06 8.06 0 0 1 787.854 -4.713 z"/>
    </g>
    <g id="Setup10">
        <path id="op_2D_Profile9-24-8" fill="none" stroke="rgb(255,0,0)" stroke-width="0.1" d=" M802.155 -8A 1.34 1.34 0 0 0 803.495 -6.66A 1.34 1.34 0 0 0 804.835 -8A 1.34 1.34 0 0 0 803.495 -9.34A 1.34 1.34 0 0 0 802.155 -8 z M798.435 -8 L798.435 -9.022A 8.06 8.06 0 0 1 805.401 -17.007 L823.487 -19.487A 0.06 0.06 0 0 1 823.535 -19.472A 0.06 0.06 0 0 1 823.555 -19.427 L823.555 0A 0.06 0.06 0 0 1 823.495 0.06 L806.495 0.06A 8.06 8.06 0 0 1 798.435 -8 z"/>
    </g>
    <g id="Setup11">
        <path id="op_2D_Profile10-26-9" fill="none" stroke="rgb(255,0,0)" stroke-width="0.1" d=" M841.495 -9.34A 1.34 1.34 0 0 0 840.155 -8A 1.34 1.34 0 0 0 841.495 -6.66A 1.34 1.34 0 0 0 842.835 -8A 1.34 1.34 0 0 0 841.495 -9.34 z M841.495 -16.06A 8.06 8.06 0 0 1 849.555 -8A 8.06 8.06 0 0 1 841.495 0.06A 8.06 8.06 0 0 1 835.796 -2.301A 8.06 8.06 0 0 1 833.435 -8A 8.06 8.06 0 0 1 841.495 -16.06 z"/>
    </g>
    <g id="Setup12">
        <path id="op_2D_Profile11-28-10" fill="none" stroke="rgb(255,0,0)" stroke-width="0.1" d=" M867.495 -6.66A 1.34 1.34 0 0 0 868.835 -8A 1.34 1.34 0 0 0 867.495 -9.34A 1.34 1.34 0 0 0 866.155 -8A 1.34 1.34 0 0 0 867.495 -6.66 z M867.495 0.06A 8.06 8.06 0 0 1 859.435 -8A 8.06 8.06 0 0 1 867.495 -16.06A 8.06 8.06 0 0 1 875.555 -8A 8.06 8.06 0 0 1 873.195 -2.301A 8.06 8.06 0 0 1 867.495 0.06 z"/>
    </g>
    <g id="Setup13">
        <path id="op_2D_Profile12-30-11" fill="none" stroke="rgb(255,0,0)" stroke-width="0.1" d=" M893.39 -22.664A 1.34 1.34 0 0 0 894.831 -23.895A 1.34 1.34 0 0 0 893.6 -25.336A 1.34 1.34 0 0 0 892.159 -24.105A 1.34 1.34 0 0 0 893.39 -22.664 z M892.269 -10.667A 1.44 1.44 0 0 0 890.829 -12.107A 1.44 1.44 0 0 0 889.389 -10.667A 1.44 1.44 0 0 0 890.829 -9.227A 1.44 1.44 0 0 0 892.269 -10.667 z M895.313 -6.496A 1.44 1.44 0 0 0 894.999 -4.484A 1.44 1.44 0 0 0 897.011 -4.17A 1.44 1.44 0 0 0 897.325 -6.182A 1.44 1.44 0 0 0 895.313 -6.496 z M901.555 -6.496 L901.555 0A 0.06 0.06 0 0 1 901.495 0.06 L885.495 0.06A 0.06 0.06 0 0 1 885.435 0 L885.435 -24A 8.06 8.06 0 0 1 893.495 -32.06A 8.06 8.06 0 0 1 901.555 -24 L901.555 -6.496 z"/>
    </g>
    <g id="Setup14">
        <path id="op_2D_Profile13-32-12" fill="none" stroke="rgb(255,0,0)" stroke-width="0.1" d=" M921.24 -6.44A 1.44 1.44 0 0 0 921.055 -4.412A 1.44 1.44 0 0 0 923.083 -4.227A 1.44 1.44 0 0 0 923.268 -6.255A 1.44 1.44 0 0 0 921.24 -6.44 z M917.868 -9.67A 1.44 1.44 0 0 0 917.825 -11.706A 1.44 1.44 0 0 0 915.789 -11.663A 1.44 1.44 0 0 0 915.832 -9.627A 1.44 1.44 0 0 0 917.868 -9.67 z M917.868 -16.06 L927.495 -16.06A 0.06 0.06 0 0 1 927.555 -16 L927.555 0A 0.06 0.06 0 0 1 927.495 0.06 L911.495 0.06A 0.06 0.06 0 0 1 911.435 0 L911.435 -16A 0.06 0.06 0 0 1 911.495 -16.06 L917.868 -16.06 z"/>
    </g>
    <g id="Setup15">
        <path id="op_2D_Profile14-34-13" fill="none" stroke="rgb(255,0,0)" stroke-width="0.1" d=" M945.495 -9.39A 1.39 1.39 0 0 0 944.105 -8A 1.39 1.39 0 0 0 945.495 -6.61A 1.39 1.39 0 0 0 946.885 -8A 1.39 1.39 0 0 0 945.495 -9.39 z M945.495 -16.06 L955.495 -16.06A 0.06 0.06 0 0 1 955.555 -16 L955.555 0A 0.06 0.06 0 0 1 955.495 0.06 L945.495 0.06A 8.06 8.06 0 0 1 937.435 -8A 8.06 8.06 0 0 1 945.495 -16.06 z"/>
    </g>
    <g id="Setup16">
        <path id="op_2D_Profile15-36-14" fill="none" stroke="rgb(255,0,0)" stroke-width="0.1" d=" M975.495 -9.39A 1.39 1.39 0 0 0 974.105 -8A 1.39 1.39 0 0 0 975.495 -6.61A 1.39 1.39 0 0 0 976.885 -8A 1.39 1.39 0 0 0 975.495 -9.39 z M975.495 -16.06A 8.06 8.06 0 0 1 983.555 -8A 8.06 8.06 0 0 1 975.495 0.06 L965.495 0.06A 0.06 0.06 0 0 1 965.435 0 L965.435 -16A 0.06 0.06 0 0 1 965.495 -16.06 L975.495 -16.06 z"/>
    </g>
</svg>

