<?xml version="1.0" encoding="UTF-8" standalone="no"?>
<!-- Created with Inkscape (http://www.inkscape.org/) -->

<svg
   xmlns:dc="http://purl.org/dc/elements/1.1/"
   xmlns:cc="http://creativecommons.org/ns#"
   xmlns:rdf="http://www.w3.org/1999/02/22-rdf-syntax-ns#"
   xmlns:svg="http://www.w3.org/2000/svg"
   xmlns="http://www.w3.org/2000/svg"
   xmlns:sodipodi="http://sodipodi.sourceforge.net/DTD/sodipodi-0.dtd"
   xmlns:inkscape="http://www.inkscape.org/namespaces/inkscape"
   version="1.1"
   id="svg2"
   xml:space="preserve"
   width="763.38531"
   height="332.17999"
   viewBox="0 0 763.38531 332.17999"
   sodipodi:docname="Avast.svg"
   inkscape:version="0.92.4 (5da689c313, 2019-01-14)"><metadata
     id="metadata8"><rdf:RDF><cc:Work
         rdf:about=""><dc:format>image/svg+xml</dc:format><dc:type
           rdf:resource="http://purl.org/dc/dcmitype/StillImage" /><dc:title></dc:title></cc:Work></rdf:RDF></metadata><defs
     id="defs6"><clipPath
       clipPathUnits="userSpaceOnUse"
       id="clipPath18"><path
         d="M 0,249.135 H 572.539 V 0 H 0 Z"
         id="path16"
         inkscape:connector-curvature="0" /></clipPath></defs><sodipodi:namedview
     pagecolor="#ffffff"
     bordercolor="#666666"
     borderopacity="1"
     objecttolerance="10"
     gridtolerance="10"
     guidetolerance="10"
     inkscape:pageopacity="0"
     inkscape:pageshadow="2"
     inkscape:window-width="1920"
     inkscape:window-height="1017"
     id="namedview4"
     showgrid="false"
     inkscape:zoom="0.56328042"
     inkscape:cx="381.69266"
     inkscape:cy="166.09"
     inkscape:window-x="-8"
     inkscape:window-y="-8"
     inkscape:window-maximized="1"
     inkscape:current-layer="g10" /><g
     id="g10"
     inkscape:groupmode="layer"
     inkscape:label="avast-logo-2016-cmyk black, white"
     transform="matrix(1.3333333,0,0,-1.3333333,0,332.18)"><g
       id="g12"><g
         id="g14"
         clip-path="url(#clipPath18)"><g
           id="g20"
           transform="translate(189.165,98.7295)"><path
             d="m 0,0 c -4.899,4.613 -8.149,5.256 -12.122,8.166 -12.161,8.905 -15.095,27.568 -5.759,39.735 2.668,3.479 5.988,5.932 9.725,8.415 3.882,2.58 7.422,6.323 9.256,10.212 3.683,7.81 2.808,17.685 -2.908,25.056 -5.438,7.013 -13.992,10.671 -23.336,8.95 -4.407,-0.811 -8.115,-2.634 -11.855,-5.973 -3.842,-3.43 -4.821,-6.952 -9.218,-11.261 -6.935,-6.797 -15.25,-10.129 -25.1,-9.458 -4.827,0.329 -8.9,1.475 -13.749,4.213 -5.216,2.944 -7.254,6.47 -11.273,7.387 -4.177,0.953 -8.818,-0.211 -11.602,-3.41 -3.796,-4.361 -3.296,-8.423 -1.647,-13.637 1.561,-4.93 2.897,-9.711 3.153,-14.918 0.252,-5.12 -0.337,-10.283 -1.795,-15.2 -2.665,-8.987 -9.22,-17.424 -15.499,-22.982 -5.175,-4.582 -8.833,-5.314 -12.151,-8.516 -3.226,-3.113 -5.324,-7.39 -5.324,-12.227 0,-8.372 6.001,-15.356 13.941,-16.831 6.207,-1.153 12.129,1.676 13.979,2.26 12.89,4.065 29.078,3.565 40.776,0.154 9.674,-2.822 18.041,-7.819 25.848,-14.144 3.755,-3.043 6.602,-7.133 10.552,-9.949 10.151,-7.246 27.683,-8.652 38.895,5.799 C 10.378,-28.375 12.2,-11.485 0,0"
             style="fill:#100f0d;fill-opacity:1;fill-rule:evenodd;stroke:none"
             id="path22"
             inkscape:connector-curvature="0" /></g><g
           id="g24"
           transform="translate(122.1611,112.0684)"><path
             d="m 0,0 c -7.881,0 -13.556,7.187 -13.556,14.93 0,8.176 5.843,14.892 13.556,14.892 8.324,0 13.557,-7.455 13.557,-14.892 C 13.557,7.068 7.975,0 0,0 m 18.79,39.442 c -3.782,0 -5.238,-2.986 -5.238,-5.155 v -4.01 c -3.905,5.251 -9.178,8.745 -16.381,8.745 -5.881,0 -10.896,-2.368 -15.046,-7.103 -4.148,-4.735 -6.223,-10.45 -6.223,-17.145 0,-6.669 2.075,-12.372 6.223,-17.108 4.15,-4.76 9.165,-7.139 15.046,-7.139 7.72,0 13.065,4.205 16.381,8.782 v -4.315 c 0,-1.931 1.552,-5.002 5.193,-5.002 3.599,0 5.116,3.133 5.116,5.154 v 39.141 c 0,3.319 -2.842,5.155 -5.071,5.155"
             style="fill:#ffffff;fill-opacity:1;fill-rule:evenodd;stroke:none"
             id="path26"
             inkscape:connector-curvature="0" /></g><g
           id="g28"
           transform="translate(342.2959,160.627)"><path
             d="m 0,0 c -4.812,1.893 -8.382,-1.728 -9.261,-4.057 l -17.382,-45.589 -17.379,45.589 c -0.88,2.329 -4.451,5.95 -9.262,4.057 -5.194,-2.043 -4.944,-6.927 -4.07,-9.113 0,0 14.479,-38.015 19.171,-50.301 2.699,-7.065 7.992,-8.562 11.54,-8.568 3.55,0.006 8.844,1.503 11.541,8.568 C -10.409,-47.128 4.07,-9.113 4.07,-9.113 4.943,-6.927 5.193,-2.043 0,0"
             style="fill:#100f0d;fill-opacity:1;fill-rule:evenodd;stroke:none"
             id="path30"
             inkscape:connector-curvature="0" /></g><g
           id="g32"
           transform="translate(242.3564,106.2939)"><path
             d="m 0,0 c -10.918,0 -18.782,9.959 -18.782,20.686 0,11.328 8.094,20.632 18.782,20.632 11.533,0 18.78,-10.329 18.78,-20.632 C 18.78,9.793 11.047,0 0,0 m 26.249,54.862 c -5.241,0 -7.258,-4.136 -7.258,-7.142 V 42.165 C 13.583,49.439 6.275,54.28 -3.704,54.28 c -8.148,0 -15.096,-3.28 -20.845,-9.841 -5.747,-6.56 -8.622,-14.478 -8.622,-23.753 0,-9.241 2.875,-17.142 8.622,-23.702 5.749,-6.596 12.697,-9.893 20.845,-9.893 10.695,0 18.102,5.828 22.695,12.168 v -5.978 c 0,-2.676 2.153,-6.93 7.196,-6.93 4.987,0 7.088,4.342 7.088,7.141 V 47.72 c 0,4.6 -3.938,7.142 -7.026,7.142"
             style="fill:#100f0d;fill-opacity:1;fill-rule:evenodd;stroke:none"
             id="path34"
             inkscape:connector-curvature="0" /></g><g
           id="g36"
           transform="translate(382.8262,106.2939)"><path
             d="m 0,0 c -10.918,0 -18.781,9.959 -18.781,20.686 0,11.328 8.093,20.632 18.781,20.632 11.533,0 18.78,-10.329 18.78,-20.632 C 18.78,9.793 11.048,0 0,0 m 26.249,54.862 c -5.24,0 -7.257,-4.136 -7.257,-7.142 V 42.165 C 13.583,49.439 6.275,54.28 -3.703,54.28 c -8.149,0 -15.096,-3.28 -20.845,-9.841 -5.748,-6.56 -8.623,-14.478 -8.623,-23.753 0,-9.241 2.875,-17.142 8.623,-23.702 5.749,-6.596 12.696,-9.893 20.845,-9.893 10.695,0 18.101,5.828 22.695,12.168 v -5.978 c 0,-2.676 2.152,-6.93 7.195,-6.93 4.987,0 7.088,4.342 7.088,7.141 V 47.72 c 0,4.6 -3.938,7.142 -7.026,7.142"
             style="fill:#100f0d;fill-opacity:1;fill-rule:evenodd;stroke:none"
             id="path38"
             inkscape:connector-curvature="0" /></g><g
           id="g40"
           transform="translate(428.1396,100.5352)"><path
             d="m 0,0 c -1.628,0.878 -2.881,2.757 -2.881,5.261 0,3.381 2.629,6.136 6.138,6.136 1.253,0 2.38,-0.376 3.256,-0.876 6.385,-4.258 13.024,-6.387 19.037,-6.387 6.512,0 10.268,2.756 10.268,7.138 v 0.25 c 0,5.136 -7.012,6.637 -14.777,9.015 -9.77,2.758 -20.666,7.019 -20.666,19.67 v 0.25 c 0,12.524 10.396,20.164 23.547,20.164 7.014,0 14.401,-2.004 20.788,-5.385 2.128,-1.128 3.633,-3.131 3.633,-5.761 0,-3.508 -2.756,-6.139 -6.263,-6.139 -1.252,0 -2.005,0.251 -3.006,0.752 -5.386,2.756 -10.896,4.51 -15.529,4.51 -5.886,0 -9.268,-2.756 -9.268,-6.514 v -0.25 c 0,-4.885 7.139,-6.638 14.905,-9.142 9.641,-3.007 20.539,-7.641 20.539,-19.542 V 12.9 C 49.721,-1.002 38.948,-7.891 25.175,-7.891 16.782,-7.891 7.64,-5.262 0,0"
             style="fill:#100f0d;fill-opacity:1;fill-rule:nonzero;stroke:none"
             id="path42"
             inkscape:connector-curvature="0" /></g><g
           id="g44"
           transform="translate(491.5928,111.917)"><path
             d="m 0,0 v 34.371 h -2.889 c -3.625,0 -6.5,2.871 -6.5,6.492 0,3.619 2.875,6.49 6.5,6.49 H 0 v 10.202 c 0,4.119 2.986,7.49 7.236,7.49 4.125,0 7.077,-3.371 7.077,-7.49 V 47.353 h 11.298 c 3.625,0 6.625,-2.871 6.625,-6.49 0,-3.621 -3,-6.492 -6.625,-6.492 H 14.313 V 2.374 c 0,-5.867 3.423,-8.241 8.548,-8.241 1.75,0 3.25,0.375 3.75,0.375 3.375,0 6.375,-2.746 6.375,-6.242 0,-2.747 -1.875,-4.994 -4,-5.869 -3.25,-1.121 -6.375,-1.746 -10.375,-1.746 C 7.486,-19.349 0,-14.481 0,0"
             style="fill:#100f0d;fill-opacity:1;fill-rule:nonzero;stroke:none"
             id="path46"
             inkscape:connector-curvature="0" /></g></g></g></g></svg>