<?xml version="1.0" encoding="UTF-8" standalone="no"?>
<!-- Created with Inkscape (http://www.inkscape.org/) -->

<svg
   xmlns:dc="http://purl.org/dc/elements/1.1/"
   xmlns:cc="http://creativecommons.org/ns#"
   xmlns:rdf="http://www.w3.org/1999/02/22-rdf-syntax-ns#"
   xmlns:svg="http://www.w3.org/2000/svg"
   xmlns="http://www.w3.org/2000/svg"
   xmlns:sodipodi="http://sodipodi.sourceforge.net/DTD/sodipodi-0.dtd"
   xmlns:inkscape="http://www.inkscape.org/namespaces/inkscape"
   version="1.1"
   id="svg2"
   xml:space="preserve"
   width="793.70667"
   height="377.94666"
   viewBox="0 0 793.70667 377.94666"
   sodipodi:docname="FabLab.svg"
   inkscape:version="0.92.4 (5da689c313, 2019-01-14)"><metadata
     id="metadata8"><rdf:RDF><cc:Work
         rdf:about=""><dc:format>image/svg+xml</dc:format><dc:type
           rdf:resource="http://purl.org/dc/dcmitype/StillImage" /><dc:title /></cc:Work></rdf:RDF></metadata><defs
     id="defs6"><clipPath
       clipPathUnits="userSpaceOnUse"
       id="clipPath38"><path
         d="M 0,283.46 H 595.28 V 0 H 0 Z"
         id="path36"
         inkscape:connector-curvature="0" /></clipPath></defs><sodipodi:namedview
     pagecolor="#ffffff"
     bordercolor="#666666"
     borderopacity="1"
     objecttolerance="10"
     gridtolerance="10"
     guidetolerance="10"
     inkscape:pageopacity="0"
     inkscape:pageshadow="2"
     inkscape:window-width="1920"
     inkscape:window-height="1017"
     id="namedview4"
     showgrid="false"
     inkscape:zoom="0.87941809"
     inkscape:cx="54.62314"
     inkscape:cy="217.41993"
     inkscape:window-x="-8"
     inkscape:window-y="1072"
     inkscape:window-maximized="1"
     inkscape:current-layer="g10" /><g
     id="g10"
     inkscape:groupmode="layer"
     inkscape:label="FabLabBrno_Logo"
     transform="matrix(1.3333333,0,0,-1.3333333,0,377.94667)"><g
       id="g858"><g
         style="fill:#000000;fill-opacity:1"
         transform="translate(82.0566,214.7862)"
         id="g12"><path
           inkscape:connector-curvature="0"
           id="path14"
           style="fill:#000000;fill-opacity:1;fill-rule:nonzero;stroke:none"
           d="M 0,0 H 44.309 V -11.638 H 12.801 V -24.024 H 40.567 V -35.665 H 12.801 V -58.193 H 0 Z" /></g><g
         style="fill:#000000;fill-opacity:1"
         transform="translate(82.0566,131.8204)"
         id="g16"><path
           inkscape:connector-curvature="0"
           id="path18"
           style="fill:#000000;fill-opacity:1;fill-rule:nonzero;stroke:none"
           d="M 0,0 H 12.801 V -46.552 H 41.815 V -58.189 H 0 Z" /></g><g
         style="fill:#000000;fill-opacity:1"
         transform="translate(321.3418,73.628)"
         id="g20"><path
           inkscape:connector-curvature="0"
           id="path22"
           style="fill:#000000;fill-opacity:1;fill-rule:nonzero;stroke:none"
           d="M 0,0 H -41.813 V 11.638 H -12.8 V 58.193 H 0 Z" /></g><g
         style="fill:#000000;fill-opacity:1"
         transform="translate(321.3418,156.5923)"
         id="g24"><path
           inkscape:connector-curvature="0"
           id="path26"
           style="fill:#000000;fill-opacity:1;fill-rule:nonzero;stroke:none"
           d="M 0,0 H -12.8 V 46.555 H -41.813 V 58.193 H 0 Z" /></g><g
         style="fill:#000000;fill-opacity:1"
         transform="translate(169.6172,140.6075)"
         id="g28"><path
           inkscape:connector-curvature="0"
           id="path30"
           style="fill:#000000;fill-opacity:1;fill-rule:nonzero;stroke:none"
           d="M 0,0 -7.732,18.875 -15.463,0 Z M -13.466,34.254 H -1.662 L 23.277,-24.358 H 9.894 l -5.321,13.052 h -24.608 l -5.32,-13.052 h -13.053 z" /></g><g
         style="fill:#000000;fill-opacity:1"
         id="g32"><g
           style="fill:#000000;fill-opacity:1"
           clip-path="url(#clipPath38)"
           id="g34"><g
             style="fill:#000000;fill-opacity:1"
             transform="translate(245.3076,140.2774)"
             id="g40"><path
               inkscape:connector-curvature="0"
               id="path42"
               style="fill:#000000;fill-opacity:1;fill-rule:nonzero;stroke:none"
               d="M 0,0 H -14.797 V -12.801 H 0.416 c 5.654,0 9.062,1.993 9.062,6.316 V -6.32 C 9.478,-2.411 6.568,0 0,0 m 6.236,16.958 c 0,3.826 -2.993,5.985 -8.396,5.985 H -14.797 V 10.641 h 11.805 c 5.652,0 9.228,1.829 9.228,6.152 z M -27.267,34.167 H -0.25 c 6.651,0 11.89,-1.829 15.215,-5.153 2.66,-2.66 3.99,-5.903 3.99,-9.893 v -0.169 c 0,-6.566 -3.492,-10.223 -7.647,-12.55 6.733,-2.58 10.89,-6.486 10.89,-14.3 v -0.168 c 0,-10.642 -8.646,-15.962 -21.782,-15.962 h -27.683 z" /></g><g
             style="fill:#000000;fill-opacity:1"
             transform="translate(378.5293,197.6407)"
             id="g44"><path
               inkscape:connector-curvature="0"
               id="path46"
               style="fill:#000000;fill-opacity:1;fill-rule:nonzero;stroke:none"
               d="m 0,0 h -7.361 v -6.368 h 7.566 c 2.813,0 4.509,0.993 4.509,3.142 v 0.084 C 4.714,-1.199 3.267,0 0,0 m 3.102,8.438 c 0,1.903 -1.489,2.978 -4.18,2.978 H -7.361 V 5.293 h 5.869 c 2.815,0 4.594,0.91 4.594,3.061 z m -16.669,8.561 h 13.442 c 3.307,0 5.913,-0.91 7.567,-2.566 1.324,-1.324 1.987,-2.936 1.987,-4.92 V 9.429 c 0,-3.267 -1.738,-5.085 -3.806,-6.243 3.352,-1.284 5.419,-3.227 5.419,-7.113 v -0.084 c 0,-5.293 -4.304,-7.94 -10.837,-7.94 h -13.772 z" /></g><g
             style="fill:#000000;fill-opacity:1"
             transform="translate(416.4736,200.5767)"
             id="g48"><path
               inkscape:connector-curvature="0"
               id="path50"
               style="fill:#000000;fill-opacity:1;fill-rule:nonzero;stroke:none"
               d="m 0,0 c 3.102,0 4.88,1.654 4.88,4.095 v 0.084 c 0,2.728 -1.903,4.135 -5.005,4.135 H -6.452 V 0 Z M -12.823,14.063 H 0.411 c 3.681,0 6.536,-1.034 8.439,-2.937 1.613,-1.613 2.482,-3.889 2.482,-6.617 V 4.425 c 0,-4.671 -2.526,-7.607 -6.207,-8.974 L 12.2,-14.887 H 4.755 l -6.203,9.263 h -5.004 v -9.263 h -6.371 z" /></g><g
             style="fill:#000000;fill-opacity:1"
             transform="translate(442.2217,214.6397)"
             id="g52"><path
               inkscape:connector-curvature="0"
               id="path54"
               style="fill:#000000;fill-opacity:1;fill-rule:nonzero;stroke:none"
               d="M 0,0 H 5.872 L 19.437,-17.824 V 0 h 6.287 V -28.95 H 20.306 L 6.287,-10.547 V -28.95 H 0 Z" /></g><g
             style="fill:#000000;fill-opacity:1"
             transform="translate(506.2666,200.0821)"
             id="g56"><path
               inkscape:connector-curvature="0"
               id="path58"
               style="fill:#000000;fill-opacity:1;fill-rule:nonzero;stroke:none"
               d="m 0,0 v 0.081 c 0,4.963 -3.64,9.099 -8.769,9.099 -5.125,0 -8.684,-4.052 -8.684,-9.015 V 0.081 c 0,-4.96 3.64,-9.096 8.768,-9.096 C -3.556,-9.015 0,-4.964 0,0 m -24.11,0 v 0.081 c 0,8.23 6.492,14.971 15.425,14.971 8.935,0 15.343,-6.657 15.343,-14.887 V 0.081 c 0,-8.23 -6.493,-14.969 -15.427,-14.969 -8.93,0 -15.341,6.658 -15.341,14.888" /></g></g></g></g></g></svg>