<?xml version="1.0" encoding="UTF-8" standalone="no"?>
<!-- Created with Inkscape (http://www.inkscape.org/) -->

<svg
   xmlns:dc="http://purl.org/dc/elements/1.1/"
   xmlns:cc="http://creativecommons.org/ns#"
   xmlns:rdf="http://www.w3.org/1999/02/22-rdf-syntax-ns#"
   xmlns:svg="http://www.w3.org/2000/svg"
   xmlns="http://www.w3.org/2000/svg"
   xmlns:sodipodi="http://sodipodi.sourceforge.net/DTD/sodipodi-0.dtd"
   xmlns:inkscape="http://www.inkscape.org/namespaces/inkscape"
   version="1.1"
   id="svg2"
   xml:space="preserve"
   width="400.4068"
   height="91.281876"
   viewBox="0 0 400.40679 91.281876"
   sodipodi:docname="Gatema.svg"
   inkscape:version="0.92.4 (5da689c313, 2019-01-14)"><metadata
     id="metadata8"><rdf:RDF><cc:Work
         rdf:about=""><dc:format>image/svg+xml</dc:format><dc:type
           rdf:resource="http://purl.org/dc/dcmitype/StillImage" /><dc:title></dc:title></cc:Work></rdf:RDF></metadata><defs
     id="defs6"><clipPath
       clipPathUnits="userSpaceOnUse"
       id="clipPath18"><path
         d="M 0,595.28 H 841.89 V 0 H 0 Z"
         id="path16"
         inkscape:connector-curvature="0" /></clipPath></defs><sodipodi:namedview
     pagecolor="#ffffff"
     bordercolor="#666666"
     borderopacity="1"
     objecttolerance="10"
     gridtolerance="10"
     guidetolerance="10"
     inkscape:pageopacity="0"
     inkscape:pageshadow="2"
     inkscape:window-width="1920"
     inkscape:window-height="1017"
     id="namedview4"
     showgrid="false"
     fit-margin-top="0"
     fit-margin-left="0"
     fit-margin-right="0"
     fit-margin-bottom="0"
     inkscape:zoom="0.84100188"
     inkscape:cx="219.25113"
     inkscape:cy="9.9367294"
     inkscape:window-x="-8"
     inkscape:window-y="-8"
     inkscape:window-maximized="1"
     inkscape:current-layer="g10" /><g
     id="g10"
     inkscape:groupmode="layer"
     inkscape:label="gatema_logo_CMYK"
     transform="matrix(1.3333333,0,0,-1.3333333,-368.45039,449.2828)"><g
       id="g12"><g
         id="g14"
         clip-path="url(#clipPath18)"><g
           id="g20"
           transform="translate(343.9321,286.2344)"><path
             d="M 0,0 C 0.535,1.325 1.418,2.224 2.91,2.874 4.401,3.516 6.517,3.845 9.32,3.843 H 20.847 V 1.617 C 20.85,-1.038 20.34,-4.03 18.74,-6.286 17.939,-7.417 16.875,-8.378 15.427,-9.071 13.979,-9.763 12.137,-10.188 9.785,-10.188 H 7.926 c -2.394,-0.002 -4.539,0.582 -6.037,1.71 -1.493,1.133 -2.409,2.762 -2.42,5.166 0,1.329 0.178,2.426 0.531,3.312 m 20.647,30.382 c -2.505,1.113 -5.693,1.746 -9.746,1.746 -6.355,0.005 -10.491,-1.697 -13.12,-4.219 -2.63,-2.52 -3.695,-5.768 -4.174,-8.686 l -0.009,-0.06 v -0.06 l -0.037,-0.188 -0.032,-0.141 c -0.008,-0.056 -0.023,-0.106 -0.025,-0.231 -0.003,-0.583 0.204,-1.145 0.603,-1.542 0.397,-0.399 0.959,-0.605 1.541,-0.603 h 4 c 0.638,-0.012 1.207,0.263 1.534,0.644 0.332,0.374 0.469,0.777 0.573,1.079 l 0.016,0.047 0.008,0.049 c 0.179,0.94 0.416,1.792 0.764,2.53 0.526,1.107 1.266,1.966 2.542,2.61 1.277,0.641 3.133,1.04 5.816,1.039 2.345,10e-4 4.12,-0.35 5.453,-0.93 1.996,-0.876 3.058,-2.225 3.706,-3.951 0.637,-1.724 0.789,-3.829 0.787,-5.994 V 11.109 H 9.135 C 4.78,11.105 0.373,10.437 -3.034,8.271 -4.734,7.188 -6.175,5.72 -7.173,3.8 c -1,-1.918 -1.556,-4.272 -1.556,-7.112 -0.007,-4.777 1.715,-8.453 4.581,-10.861 2.86,-2.412 6.785,-3.56 11.144,-3.56 h 1.859 c 2.809,0.002 5.616,0.627 8.003,1.849 1.55,0.795 2.922,1.852 3.989,3.156 v -1.744 c -0.003,-0.638 0.232,-1.244 0.661,-1.67 0.427,-0.429 1.031,-0.664 1.67,-0.662 h 3.627 c 0.614,0 1.193,0.239 1.625,0.651 0.431,0.412 0.709,1.013 0.707,1.681 v 27.807 c -0.006,4.089 -0.381,8.75 -2.909,12.477 -1.264,1.86 -3.076,3.459 -5.581,4.57"
             style="fill:#231f20;fill-opacity:1;fill-rule:nonzero;stroke:none"
             id="path22"
             inkscape:connector-curvature="0" /></g><g
           id="g24"
           transform="translate(405.2388,317.4316)"><path
             d="m 0,0 h -9.759 v 9.76 c -0.014,1.289 -1.091,2.323 -2.424,2.331 h -3.628 c -0.667,0.002 -1.269,-0.276 -1.679,-0.708 -0.413,-0.43 -0.651,-1.01 -0.651,-1.623 V 6.226 C -18.14,4.81 -18.283,3.713 -18.546,2.891 -18.742,2.272 -19,1.81 -19.315,1.447 -19.787,0.907 -20.406,0.555 -21.288,0.321 -22.166,0.089 -23.29,-0.001 -24.645,0 c -0.667,0.002 -1.269,-0.275 -1.68,-0.707 -0.413,-0.431 -0.652,-1.01 -0.652,-1.624 v -3.255 c -0.004,-0.638 0.241,-1.244 0.686,-1.645 0.442,-0.406 1.034,-0.595 1.646,-0.593 h 6.411 v -23.059 c 0,-2.743 0.127,-5.167 0.532,-7.288 0.304,-1.59 0.766,-3.012 1.463,-4.254 1.041,-1.867 2.632,-3.303 4.85,-4.219 2.219,-0.919 5.05,-1.355 8.693,-1.357 H 0 c 0.614,0 1.193,0.238 1.625,0.65 0.432,0.413 0.709,1.014 0.707,1.682 v 3.348 c 0.002,0.666 -0.275,1.269 -0.708,1.679 -0.431,0.414 -1.011,0.651 -1.624,0.651 h -1.859 c -1.894,0 -3.339,0.14 -4.4,0.449 -0.797,0.232 -1.37,0.547 -1.813,0.959 -0.658,0.613 -1.085,1.504 -1.349,2.891 -0.262,1.38 -0.339,3.216 -0.338,5.553 V -7.824 H 0 c 0.584,0 1.156,0.193 1.601,0.582 0.446,0.386 0.736,0.989 0.731,1.656 v 3.255 C 2.33,-1.687 2.051,-1.112 1.636,-0.696 1.219,-0.281 0.645,-0.002 0,0"
             style="fill:#231f20;fill-opacity:1;fill-rule:nonzero;stroke:none"
             id="path26"
             inkscape:connector-curvature="0" /></g><g
           id="g28"
           transform="translate(421.7993,297.8027)"><path
             d="m 0,0 c 0.002,4.18 1.23,7.372 3.218,9.523 1.992,2.149 4.764,3.301 8.028,3.305 C 14.56,12.824 17.33,11.671 19.31,9.524 21.285,7.375 22.492,4.183 22.494,0 V -0.553 H 0 Z M 11.246,20.56 C 5.677,20.562 0.697,18.582 -2.87,14.89 -6.44,11.201 -8.571,5.829 -8.568,-0.837 v -7.068 c -0.003,-6.668 2.152,-12.041 5.746,-15.729 3.591,-3.691 8.593,-5.67 14.161,-5.668 3.327,0.002 7.151,0.791 10.573,2.852 3.42,2.056 6.416,5.408 8,10.412 l 0.004,0.012 0.001,0.009 c 0.086,0.299 0.172,0.538 0.25,0.784 0.077,0.242 0.151,0.504 0.151,0.818 0.002,0.502 -0.188,0.988 -0.533,1.332 -0.342,0.346 -0.828,0.535 -1.332,0.533 h -4.28 c -0.64,0.008 -1.191,-0.25 -1.539,-0.59 -0.351,-0.338 -0.531,-0.716 -0.644,-0.996 l -0.004,-0.008 c -1.348,-3.447 -3.164,-5.248 -5.043,-6.248 -1.883,-0.996 -3.887,-1.179 -5.604,-1.179 -3.256,0.004 -6.058,1.199 -8.078,3.355 C 1.246,-16.06 0.002,-12.913 0,-8.929 v 1.296 h 28.544 c 0.614,0.001 1.207,0.183 1.67,0.573 0.465,0.385 0.76,0.998 0.754,1.665 v 4.651 c 0.002,6.531 -2.129,11.876 -5.683,15.574 -3.553,3.701 -8.51,5.732 -14.039,5.73"
             style="fill:#231f20;fill-opacity:1;fill-rule:nonzero;stroke:none"
             id="path30"
             inkscape:connector-curvature="0" /></g><g
           id="g32"
           transform="translate(520.8691,316.8091)"><path
             d="m 0,0 c -2.311,1.031 -5.115,1.553 -8.492,1.553 -3.551,0.002 -6.608,-0.796 -9.145,-2.341 -2.168,-1.319 -3.941,-3.18 -5.342,-5.493 -1.347,2.354 -3.128,4.22 -5.308,5.53 -2.553,1.534 -5.627,2.305 -9.129,2.304 -3.576,0.003 -6.367,-0.975 -8.484,-2.393 -1.276,-0.854 -2.303,-1.862 -3.135,-2.899 v 2.031 c 0,0.613 -0.238,1.193 -0.651,1.624 -0.412,0.431 -1.013,0.709 -1.681,0.707 h -3.906 c -0.666,0.004 -1.27,-0.286 -1.657,-0.731 -0.388,-0.445 -0.582,-1.017 -0.582,-1.6 v -43.338 c 0,-0.614 0.188,-1.205 0.594,-1.647 0.402,-0.445 1.008,-0.691 1.645,-0.685 h 3.906 c 0.638,-0.002 1.244,0.232 1.67,0.662 0.429,0.425 0.664,1.029 0.662,1.67 v 24.644 c -0.004,4.258 0.611,7.874 2.183,10.327 0.788,1.231 1.799,2.185 3.131,2.853 1.332,0.665 3,1.043 5.096,1.044 1.99,0 3.588,-0.32 4.863,-0.909 1.907,-0.889 3.157,-2.366 3.992,-4.568 0.829,-2.199 1.184,-5.111 1.182,-8.654 v -24.737 c -0.002,-0.641 0.233,-1.245 0.662,-1.67 0.428,-0.43 1.031,-0.664 1.67,-0.662 h 3.906 c 0.639,-0.002 1.245,0.232 1.67,0.662 0.428,0.425 0.662,1.031 0.66,1.67 v 24.737 c -0.003,4.63 0.682,8.212 2.268,10.543 0.791,1.169 1.797,2.046 3.106,2.653 1.306,0.605 2.933,0.935 4.945,0.935 2.148,0 3.824,-0.369 5.135,-1.018 1.957,-0.976 3.17,-2.575 3.949,-4.807 0.771,-2.228 1.049,-5.07 1.047,-8.306 v -24.737 c -0.002,-0.641 0.23,-1.235 0.638,-1.659 0.407,-0.427 0.987,-0.675 1.6,-0.673 h 3.906 c 0.641,0 1.244,0.226 1.696,0.64 0.451,0.412 0.732,1.024 0.728,1.692 v 24.272 C 8.992,-14.017 8.125,-8.484 5.449,-4.541 4.113,-2.574 2.311,-1.028 0,0"
             style="fill:#231f20;fill-opacity:1;fill-rule:nonzero;stroke:none"
             id="path34"
             inkscape:connector-curvature="0" /></g><g
           id="g36"
           transform="translate(547.5059,286.2344)"><path
             d="m 0,0 c 0.537,1.325 1.418,2.224 2.912,2.874 1.49,0.642 3.608,0.971 6.41,0.969 H 20.848 V 1.617 C 20.852,-1.038 20.342,-4.03 18.742,-6.286 17.941,-7.417 16.877,-8.378 15.43,-9.071 13.98,-9.763 12.139,-10.188 9.787,-10.188 H 7.928 c -2.395,-0.002 -4.539,0.582 -6.037,1.71 -1.495,1.133 -2.411,2.762 -2.422,5.166 0,1.329 0.179,2.426 0.531,3.312 m 26.229,25.812 c -1.264,1.86 -3.075,3.459 -5.581,4.57 -2.505,1.113 -5.693,1.746 -9.746,1.746 -6.355,0.005 -10.49,-1.697 -13.119,-4.219 -2.629,-2.52 -3.697,-5.767 -4.176,-8.686 l -0.009,-0.059 v -0.062 -0.001 l -0.035,-0.189 -0.032,-0.141 c -0.01,-0.056 -0.023,-0.105 -0.025,-0.228 -0.002,-0.583 0.205,-1.145 0.603,-1.542 0.397,-0.399 0.959,-0.605 1.541,-0.603 h 4 c 0.639,-0.012 1.207,0.263 1.534,0.644 0.332,0.374 0.47,0.777 0.574,1.079 l 0.015,0.047 0.008,0.049 c 0.18,0.94 0.416,1.792 0.764,2.53 0.527,1.107 1.266,1.966 2.543,2.61 1.277,0.641 3.131,1.04 5.814,1.039 2.346,10e-4 4.119,-0.35 5.453,-0.93 1.997,-0.876 3.059,-2.225 3.706,-3.951 0.638,-1.724 0.789,-3.829 0.787,-5.994 V 11.109 H 9.137 C 4.783,11.105 0.375,10.437 -3.031,8.271 -4.732,7.188 -6.172,5.72 -7.17,3.8 c -1,-1.918 -1.557,-4.272 -1.557,-7.112 -0.007,-4.777 1.715,-8.453 4.581,-10.861 2.859,-2.412 6.783,-3.56 11.142,-3.56 h 1.861 c 2.809,0.002 5.616,0.627 8.004,1.849 1.549,0.795 2.92,1.852 3.987,3.156 v -1.744 c -0.002,-0.64 0.232,-1.244 0.662,-1.67 0.427,-0.429 1.031,-0.664 1.67,-0.662 h 3.627 c 0.613,0 1.193,0.239 1.623,0.651 0.431,0.412 0.709,1.013 0.707,1.681 v 27.807 c -0.006,4.089 -0.381,8.75 -2.908,12.477"
             style="fill:#231f20;fill-opacity:1;fill-rule:nonzero;stroke:none"
             id="path38"
             inkscape:connector-curvature="0" /></g><g
           id="g40"
           transform="translate(311.8589,280.6904)"><path
             d="m 0,0 c -2.515,-2.395 -6.01,-4.082 -10.776,-4.086 -4.04,0 -7.709,1.35 -10.532,3.867 -2.799,2.502 -4.777,6.167 -5.41,10.903 h -8.636 l 0.007,-0.065 c 0.648,-6.328 3.151,-12.029 7.295,-16.158 4.142,-4.129 9.928,-6.654 16.996,-6.65 4.191,0 8.119,1.076 11.368,2.99 z"
             style="fill:#d9172a;fill-opacity:1;fill-rule:nonzero;stroke:none"
             id="path42"
             inkscape:connector-curvature="0" /></g><g
           id="g44"
           transform="translate(284.9058,296.4761)"><path
             d="m 0,0 v 14.161 c 0.002,5.843 1.827,10.383 4.726,13.471 2.901,3.087 6.893,4.748 11.357,4.751 4.789,-0.004 8.41,-1.751 10.992,-4.305 2.579,-2.554 4.098,-5.943 4.54,-9.183 h 0.001 c 0.058,-0.571 0.187,-1.071 0.544,-1.479 0.18,-0.204 0.417,-0.358 0.663,-0.445 0.246,-0.089 0.496,-0.119 0.744,-0.119 h 4.93 c 0.464,-0.002 0.926,0.138 1.267,0.457 0.344,0.316 0.511,0.78 0.507,1.223 0.002,0.366 -0.008,0.859 -0.199,1.621 -0.955,5.484 -3.439,10.566 -7.46,14.286 -4.019,3.723 -9.574,6.051 -16.529,6.047 C 9.111,40.488 2.925,37.922 -1.498,33.352 -5.924,28.784 -8.571,22.231 -8.568,14.346 V 0 Z"
             style="fill:#231f20;fill-opacity:1;fill-rule:nonzero;stroke:none"
             id="path46"
             inkscape:connector-curvature="0" /></g><g
           id="g48"
           transform="translate(322.7515,304.0391)"><path
             d="m 0,0 h -21.204 c -0.667,0.002 -1.27,-0.275 -1.681,-0.707 -0.413,-0.43 -0.651,-1.01 -0.651,-1.624 v -3.348 c -0.003,-0.639 0.232,-1.243 0.662,-1.67 0.427,-0.428 1.031,-0.664 1.67,-0.661 h 15.246 v -2.985 l 0.505,-22.072 c 0.11,-0.332 0.284,-0.637 0.528,-0.879 0.427,-0.43 1.031,-0.664 1.67,-0.662 H 0 c 0.64,0 1.245,0.226 1.695,0.64 0.451,0.412 0.733,1.024 0.73,1.692 V -2.331 C 2.411,-1.041 1.333,-0.008 0,0"
             style="fill:#231f20;fill-opacity:1;fill-rule:nonzero;stroke:none"
             id="path50"
             inkscape:connector-curvature="0" /></g></g></g></g></svg>