<?xml version="1.0" encoding="UTF-8" standalone="no"?>
<!-- Created with Inkscape (http://www.inkscape.org/) -->

<svg
   xmlns:dc="http://purl.org/dc/elements/1.1/"
   xmlns:cc="http://creativecommons.org/ns#"
   xmlns:rdf="http://www.w3.org/1999/02/22-rdf-syntax-ns#"
   xmlns:svg="http://www.w3.org/2000/svg"
   xmlns="http://www.w3.org/2000/svg"
   xmlns:sodipodi="http://sodipodi.sourceforge.net/DTD/sodipodi-0.dtd"
   xmlns:inkscape="http://www.inkscape.org/namespaces/inkscape"
   version="1.1"
   id="svg2"
   xml:space="preserve"
   width="1122.52"
   height="793.70667"
   viewBox="0 0 1122.52 793.70667"
   sodipodi:docname="Helceletka.svg"
   inkscape:version="0.92.4 (5da689c313, 2019-01-14)"><metadata
     id="metadata8"><rdf:RDF><cc:Work
         rdf:about=""><dc:format>image/svg+xml</dc:format><dc:type
           rdf:resource="http://purl.org/dc/dcmitype/StillImage" /><dc:title></dc:title></cc:Work></rdf:RDF></metadata><defs
     id="defs6"><clipPath
       clipPathUnits="userSpaceOnUse"
       id="clipPath18"><path
         d="M 0,595.28 H 841.89 V 0 H 0 Z"
         id="path16"
         inkscape:connector-curvature="0" /></clipPath><clipPath
       clipPathUnits="userSpaceOnUse"
       id="clipPath198"><path
         d="M 0,595.28 H 841.89 V 0 H 0 Z"
         id="path196"
         inkscape:connector-curvature="0" /></clipPath></defs><sodipodi:namedview
     pagecolor="#ffffff"
     bordercolor="#666666"
     borderopacity="1"
     objecttolerance="10"
     gridtolerance="10"
     guidetolerance="10"
     inkscape:pageopacity="0"
     inkscape:pageshadow="2"
     inkscape:window-width="1920"
     inkscape:window-height="1017"
     id="namedview4"
     showgrid="false"
     inkscape:zoom="0.42050094"
     inkscape:cx="297.5247"
     inkscape:cy="58.728825"
     inkscape:window-x="-8"
     inkscape:window-y="-8"
     inkscape:window-maximized="1"
     inkscape:current-layer="g10" /><g
     id="g10"
     inkscape:groupmode="layer"
     inkscape:label="helceletka_logo"
     transform="matrix(1.3333333,0,0,-1.3333333,0,793.70667)"><g
       id="g192"><g
         id="g194"
         clip-path="url(#clipPath198)"><g
           id="g200"
           transform="translate(249.46,125.3506)"><path
             d="m 0,0 c 0.629,-0.085 1.543,-0.115 2.517,-0.115 5.345,0 8.204,2.991 8.204,8.223 0.028,4.574 -2.544,7.479 -7.805,7.479 -1.286,0 -2.258,-0.115 -2.916,-0.26 z m -2.487,17.14 c 1.515,0.258 3.318,0.431 5.289,0.431 3.573,0 6.118,-0.862 7.804,-2.418 1.745,-1.581 2.745,-3.824 2.745,-6.958 0,-3.163 -1,-5.753 -2.773,-7.532 -1.83,-1.813 -4.803,-2.79 -8.547,-2.79 -1.801,0 -3.26,0.085 -4.518,0.23 z"
             style="fill:#110f0d;fill-opacity:1;fill-rule:nonzero;stroke:none"
             id="path202"
             inkscape:connector-curvature="0" /></g><g
           id="g204"
           transform="translate(249.46,125.3506)"><path
             d="m 0,0 c 0.629,-0.085 1.543,-0.115 2.517,-0.115 5.345,0 8.204,2.991 8.204,8.223 0.028,4.574 -2.544,7.479 -7.805,7.479 -1.286,0 -2.258,-0.115 -2.916,-0.26 z m -2.487,17.14 c 1.515,0.258 3.318,0.431 5.289,0.431 3.573,0 6.118,-0.862 7.804,-2.418 1.745,-1.581 2.745,-3.824 2.745,-6.958 0,-3.163 -1,-5.753 -2.773,-7.532 -1.83,-1.813 -4.803,-2.79 -8.547,-2.79 -1.801,0 -3.26,0.085 -4.518,0.23 z"
             style="fill:none;stroke:#231f20;stroke-width:2;stroke-linecap:butt;stroke-linejoin:miter;stroke-miterlimit:10;stroke-dasharray:none;stroke-opacity:1"
             id="path206"
             inkscape:connector-curvature="0" /></g><g
           id="g208"
           transform="translate(286.2734,145.8564)"><path
             d="m 0,0 c 0,-0.75 0.544,-1.468 1.374,-1.468 0.829,0 1.373,0.66 1.373,1.524 0,0.834 -0.544,1.523 -1.402,1.523 C 0.487,1.579 0,0.832 0,0 m 4.233,0 c 0,-1.439 -1.172,-2.531 -2.831,-2.531 -1.715,0 -2.858,1.118 -2.858,2.531 0,1.435 1.086,2.614 2.887,2.614 1.714,0 2.802,-1.15 2.802,-2.614 m -7.434,-3.079 v -11.503 c 0,-4.314 1.916,-6.153 4.488,-6.153 2.831,0 4.691,1.897 4.691,6.153 v 11.503 h 2.514 v -11.329 c 0,-5.955 -3.116,-8.369 -7.289,-8.369 -3.946,0 -6.918,2.242 -6.918,8.28 v 11.418 z"
             style="fill:#110f0d;fill-opacity:1;fill-rule:nonzero;stroke:none"
             id="path210"
             inkscape:connector-curvature="0" /></g><g
           id="g212"
           transform="translate(286.2734,145.8564)"><path
             d="m 0,0 c 0,-0.75 0.544,-1.468 1.374,-1.468 0.829,0 1.373,0.66 1.373,1.524 0,0.834 -0.544,1.523 -1.402,1.523 C 0.487,1.579 0,0.832 0,0 Z m 4.233,0 c 0,-1.439 -1.172,-2.531 -2.831,-2.531 -1.715,0 -2.858,1.118 -2.858,2.531 0,1.435 1.086,2.614 2.887,2.614 1.714,0 2.802,-1.15 2.802,-2.614 z m -7.434,-3.079 v -11.503 c 0,-4.314 1.916,-6.153 4.488,-6.153 2.831,0 4.691,1.897 4.691,6.153 v 11.503 h 2.514 v -11.329 c 0,-5.955 -3.116,-8.369 -7.289,-8.369 -3.946,0 -6.918,2.242 -6.918,8.28 v 11.418 z"
             style="fill:none;stroke:#231f20;stroke-width:2;stroke-linecap:butt;stroke-linejoin:miter;stroke-miterlimit:10;stroke-dasharray:none;stroke-opacity:1"
             id="path214"
             inkscape:connector-curvature="0" /></g><g
           id="g216"
           transform="translate(329.8931,131.9063)"><path
             d="M 0,0 C -0.144,2.703 -0.314,5.981 -0.314,8.369 H -0.372 C -1.057,6.126 -1.831,3.682 -2.804,1.008 l -3.402,-9.404 h -1.886 l -3.144,9.23 c -0.914,2.761 -1.659,5.234 -2.201,7.535 h -0.058 C -13.552,5.955 -13.693,2.731 -13.866,-0.2 l -0.515,-8.311 h -2.373 l 1.344,19.382 h 3.172 l 3.29,-9.374 c 0.801,-2.387 1.429,-4.516 1.942,-6.529 h 0.058 c 0.512,1.956 1.2,4.085 2.056,6.529 l 3.433,9.374 H 1.714 L 2.915,-8.511 H 0.456 Z"
             style="fill:#110f0d;fill-opacity:1;fill-rule:nonzero;stroke:none"
             id="path218"
             inkscape:connector-curvature="0" /></g><g
           id="g220"
           transform="translate(329.8931,131.9063)"><path
             d="M 0,0 C -0.144,2.703 -0.314,5.981 -0.314,8.369 H -0.372 C -1.057,6.126 -1.831,3.682 -2.804,1.008 l -3.402,-9.404 h -1.886 l -3.144,9.23 c -0.914,2.761 -1.659,5.234 -2.201,7.535 h -0.058 C -13.552,5.955 -13.693,2.731 -13.866,-0.2 l -0.515,-8.311 h -2.373 l 1.344,19.382 h 3.172 l 3.29,-9.374 c 0.801,-2.387 1.429,-4.516 1.942,-6.529 h 0.058 c 0.512,1.956 1.2,4.085 2.056,6.529 l 3.433,9.374 H 1.714 L 2.915,-8.511 H 0.456 Z"
             style="fill:none;stroke:#231f20;stroke-width:2;stroke-linecap:butt;stroke-linejoin:miter;stroke-miterlimit:10;stroke-dasharray:none;stroke-opacity:1"
             id="path222"
             inkscape:connector-curvature="0" /></g><g
           id="g224"
           transform="translate(374.3242,125.3506)"><path
             d="m 0,0 c 0.63,-0.085 1.544,-0.115 2.517,-0.115 5.345,0 8.205,2.991 8.205,8.223 0.028,4.574 -2.544,7.479 -7.807,7.479 -1.285,0 -2.256,-0.115 -2.915,-0.26 z m -2.485,17.14 c 1.514,0.258 3.317,0.431 5.289,0.431 3.572,0 6.117,-0.862 7.802,-2.418 1.746,-1.581 2.745,-3.824 2.745,-6.958 0,-3.163 -0.999,-5.753 -2.771,-7.532 -1.831,-1.813 -4.804,-2.79 -8.55,-2.79 -1.8,0 -3.257,0.085 -4.515,0.23 z"
             style="fill:#110f0d;fill-opacity:1;fill-rule:nonzero;stroke:none"
             id="path226"
             inkscape:connector-curvature="0" /></g><g
           id="g228"
           transform="translate(374.3242,125.3506)"><path
             d="m 0,0 c 0.63,-0.085 1.544,-0.115 2.517,-0.115 5.345,0 8.205,2.991 8.205,8.223 0.028,4.574 -2.544,7.479 -7.807,7.479 -1.285,0 -2.256,-0.115 -2.915,-0.26 z m -2.485,17.14 c 1.514,0.258 3.317,0.431 5.289,0.431 3.572,0 6.117,-0.862 7.802,-2.418 1.746,-1.581 2.745,-3.824 2.745,-6.958 0,-3.163 -0.999,-5.753 -2.771,-7.532 -1.831,-1.813 -4.804,-2.79 -8.55,-2.79 -1.8,0 -3.257,0.085 -4.515,0.23 z"
             style="fill:none;stroke:#231f20;stroke-width:2;stroke-linecap:butt;stroke-linejoin:miter;stroke-miterlimit:10;stroke-dasharray:none;stroke-opacity:1"
             id="path230"
             inkscape:connector-curvature="0" /></g><g
           id="g232"
           transform="translate(409.6816,143.8125)"><path
             d="m 0,0 -3.001,3.276 h 2.114 L 0.942,1.294 H 1 L 2.8,3.276 H 4.828 L 1.915,0 Z m 5.719,-11.33 h -7.462 v -6.989 h 8.347 v -2.098 H -4.259 V -1.035 H 6.175 v -2.1 h -7.918 v -6.124 h 7.462 z"
             style="fill:#110f0d;fill-opacity:1;fill-rule:nonzero;stroke:none"
             id="path234"
             inkscape:connector-curvature="0" /></g><g
           id="g236"
           transform="translate(409.6816,143.8125)"><path
             d="m 0,0 -3.001,3.276 h 2.114 L 0.942,1.294 H 1 L 2.8,3.276 H 4.828 L 1.915,0 Z m 5.719,-11.33 h -7.462 v -6.989 h 8.347 v -2.098 H -4.259 V -1.035 H 6.175 v -2.1 h -7.918 v -6.124 h 7.462 z"
             style="fill:none;stroke:#231f20;stroke-width:2;stroke-linecap:butt;stroke-linejoin:miter;stroke-miterlimit:10;stroke-dasharray:none;stroke-opacity:1"
             id="path238"
             inkscape:connector-curvature="0" /></g><g
           id="g240"
           transform="translate(438.2031,140.6514)"><path
             d="M 0,0 H -5.86 V 2.126 H 8.404 V 0 H 2.517 V -17.256 H 0 Z"
             style="fill:#110f0d;fill-opacity:1;fill-rule:nonzero;stroke:none"
             id="path242"
             inkscape:connector-curvature="0" /></g><g
           id="g244"
           transform="translate(438.2031,140.6514)"><path
             d="M 0,0 H -5.86 V 2.126 H 8.404 V 0 H 2.517 V -17.256 H 0 Z"
             style="fill:none;stroke:#231f20;stroke-width:2;stroke-linecap:butt;stroke-linejoin:miter;stroke-miterlimit:10;stroke-dasharray:none;stroke-opacity:1"
             id="path246"
             inkscape:connector-curvature="0" /></g><path
           d="m 465.808,123.396 h -2.515 v 19.382 h 2.515 z m 2.945,23.782 -3.66,-3.365 h -2.03 l 2.658,3.365 z"
           style="fill:#110f0d;fill-opacity:1;fill-rule:nonzero;stroke:none"
           id="path248"
           inkscape:connector-curvature="0" /><path
           d="m 465.808,123.396 h -2.515 v 19.382 h 2.515 z m 2.945,23.782 -3.66,-3.365 h -2.03 l 2.658,3.365 z"
           style="fill:none;stroke:#231f20;stroke-width:2;stroke-linecap:butt;stroke-linejoin:miter;stroke-miterlimit:10;stroke-dasharray:none;stroke-opacity:1"
           id="path250"
           inkscape:connector-curvature="0" /><g
           id="g252"
           transform="translate(514.8076,131.4482)"><path
             d="m 0,0 -1.917,5.577 c -0.43,1.266 -0.715,2.418 -1,3.536 h -0.06 C -3.26,7.995 -3.548,6.784 -3.947,5.607 L -5.832,0 Z m -6.352,-1.956 -1.997,-6.097 h -2.574 l 6.575,19.382 h 2.972 L 5.201,-8.053 H 2.543 l -2.059,6.097 z"
             style="fill:#110f0d;fill-opacity:1;fill-rule:nonzero;stroke:none"
             id="path254"
             inkscape:connector-curvature="0" /></g><g
           id="g256"
           transform="translate(514.8076,131.4482)"><path
             d="m 0,0 -1.917,5.577 c -0.43,1.266 -0.715,2.418 -1,3.536 h -0.06 C -3.26,7.995 -3.548,6.784 -3.947,5.607 L -5.832,0 Z m -6.352,-1.956 -1.997,-6.097 h -2.574 l 6.575,19.382 h 2.972 L 5.201,-8.053 H 2.543 l -2.059,6.097 z"
             style="fill:none;stroke:#231f20;stroke-width:2;stroke-linecap:butt;stroke-linejoin:miter;stroke-miterlimit:10;stroke-dasharray:none;stroke-opacity:1"
             id="path258"
             inkscape:connector-curvature="0" /></g><g
           id="g260"
           transform="translate(574.2744,131.9063)"><path
             d="M 0,0 C -0.142,2.703 -0.316,5.981 -0.316,8.369 H -0.371 C -1.06,6.126 -1.831,3.682 -2.804,1.008 l -3.399,-9.404 h -1.889 l -3.144,9.23 c -0.918,2.761 -1.657,5.234 -2.201,7.535 h -0.057 C -13.552,5.955 -13.693,2.731 -13.866,-0.2 l -0.513,-8.311 h -2.375 l 1.345,19.382 h 3.173 l 3.289,-9.374 c 0.801,-2.387 1.428,-4.516 1.941,-6.529 h 0.058 c 0.515,1.956 1.201,4.085 2.058,6.529 l 3.433,9.374 H 1.714 L 2.915,-8.511 H 0.456 Z"
             style="fill:#110f0d;fill-opacity:1;fill-rule:nonzero;stroke:none"
             id="path262"
             inkscape:connector-curvature="0" /></g><g
           id="g264"
           transform="translate(574.2744,131.9063)"><path
             d="M 0,0 C -0.142,2.703 -0.316,5.981 -0.316,8.369 H -0.371 C -1.06,6.126 -1.831,3.682 -2.804,1.008 l -3.399,-9.404 h -1.889 l -3.144,9.23 c -0.918,2.761 -1.657,5.234 -2.201,7.535 h -0.057 C -13.552,5.955 -13.693,2.731 -13.866,-0.2 l -0.513,-8.311 h -2.375 l 1.345,19.382 h 3.173 l 3.289,-9.374 c 0.801,-2.387 1.428,-4.516 1.941,-6.529 h 0.058 c 0.515,1.956 1.201,4.085 2.058,6.529 l 3.433,9.374 H 1.714 L 2.915,-8.511 H 0.456 Z"
             style="fill:none;stroke:#231f20;stroke-width:2;stroke-linecap:butt;stroke-linejoin:miter;stroke-miterlimit:10;stroke-dasharray:none;stroke-opacity:1"
             id="path266"
             inkscape:connector-curvature="0" /></g><g
           id="g268"
           transform="translate(595.5693,142.7773)"><path
             d="m 0,0 h 2.515 v -17.284 h 8.23 v -2.098 H 0 Z"
             style="fill:#110f0d;fill-opacity:1;fill-rule:nonzero;stroke:none"
             id="path270"
             inkscape:connector-curvature="0" /></g><g
           id="g272"
           transform="translate(595.5693,142.7773)"><path
             d="m 0,0 h 2.515 v -17.284 h 8.23 v -2.098 H 0 Z"
             style="fill:none;stroke:#231f20;stroke-width:2;stroke-linecap:butt;stroke-linejoin:miter;stroke-miterlimit:10;stroke-dasharray:none;stroke-opacity:1"
             id="path274"
             inkscape:connector-curvature="0" /></g><g
           id="g276"
           transform="translate(634.4629,147.1777)"><path
             d="m 0,0 -3.658,-3.365 h -2.03 L -3.03,0 Z m -1.343,-15.729 -1.917,5.577 c -0.427,1.265 -0.712,2.418 -0.995,3.536 h -0.062 c -0.286,-1.118 -0.573,-2.329 -0.971,-3.506 l -1.886,-5.607 z m -6.346,-1.957 -1.999,-6.096 h -2.573 L -5.688,-4.4 h 2.972 L 3.863,-23.782 H 1.201 l -2.057,6.096 z"
             style="fill:#110f0d;fill-opacity:1;fill-rule:nonzero;stroke:none"
             id="path278"
             inkscape:connector-curvature="0" /></g><g
           id="g280"
           transform="translate(634.4629,147.1777)"><path
             d="m 0,0 -3.658,-3.365 h -2.03 L -3.03,0 Z m -1.343,-15.729 -1.917,5.577 c -0.427,1.265 -0.712,2.418 -0.995,3.536 h -0.062 c -0.286,-1.118 -0.573,-2.329 -0.971,-3.506 l -1.886,-5.607 z m -6.346,-1.957 -1.999,-6.096 h -2.573 L -5.688,-4.4 h 2.972 L 3.863,-23.782 H 1.201 l -2.057,6.096 z"
             style="fill:none;stroke:#231f20;stroke-width:2;stroke-linecap:butt;stroke-linejoin:miter;stroke-miterlimit:10;stroke-dasharray:none;stroke-opacity:1"
             id="path282"
             inkscape:connector-curvature="0" /></g><g
           id="g284"
           transform="translate(658.2119,125.3506)"><path
             d="m 0,0 c 0.633,-0.085 1.546,-0.115 2.517,-0.115 5.345,0 8.203,2.991 8.203,8.223 0.03,4.574 -2.541,7.479 -7.801,7.479 -1.291,0 -2.258,-0.115 -2.919,-0.26 z m -2.483,17.14 c 1.514,0.258 3.312,0.431 5.29,0.431 3.569,0 6.114,-0.862 7.801,-2.418 1.741,-1.581 2.746,-3.824 2.746,-6.958 0,-3.163 -1.005,-5.753 -2.776,-7.532 -1.827,-1.813 -4.802,-2.79 -8.546,-2.79 -1.8,0 -3.26,0.085 -4.515,0.23 z"
             style="fill:#110f0d;fill-opacity:1;fill-rule:nonzero;stroke:none"
             id="path286"
             inkscape:connector-curvature="0" /></g><g
           id="g288"
           transform="translate(658.2119,125.3506)"><path
             d="m 0,0 c 0.633,-0.085 1.546,-0.115 2.517,-0.115 5.345,0 8.203,2.991 8.203,8.223 0.03,4.574 -2.541,7.479 -7.801,7.479 -1.291,0 -2.258,-0.115 -2.919,-0.26 z m -2.483,17.14 c 1.514,0.258 3.312,0.431 5.29,0.431 3.569,0 6.114,-0.862 7.801,-2.418 1.741,-1.581 2.746,-3.824 2.746,-6.958 0,-3.163 -1.005,-5.753 -2.776,-7.532 -1.827,-1.813 -4.802,-2.79 -8.546,-2.79 -1.8,0 -3.26,0.085 -4.515,0.23 z"
             style="fill:none;stroke:#231f20;stroke-width:2;stroke-linecap:butt;stroke-linejoin:miter;stroke-miterlimit:10;stroke-dasharray:none;stroke-opacity:1"
             id="path290"
             inkscape:connector-curvature="0" /></g><g
           id="g292"
           transform="translate(699.2861,132.4824)"><path
             d="M 0,0 H -7.462 V -6.989 H 0.885 V -9.087 H -9.979 V 10.295 H 0.456 v -2.1 H -7.462 V 2.071 H 0 Z"
             style="fill:#110f0d;fill-opacity:1;fill-rule:nonzero;stroke:none"
             id="path294"
             inkscape:connector-curvature="0" /></g><g
           id="g296"
           transform="translate(699.2861,132.4824)"><path
             d="M 0,0 H -7.462 V -6.989 H 0.885 V -9.087 H -9.979 V 10.295 H 0.456 v -2.1 H -7.462 V 2.071 H 0 Z"
             style="fill:none;stroke:#231f20;stroke-width:2;stroke-linecap:butt;stroke-linejoin:miter;stroke-miterlimit:10;stroke-dasharray:none;stroke-opacity:1"
             id="path298"
             inkscape:connector-curvature="0" /></g><g
           id="g300"
           transform="translate(723.0615,143.8125)"><path
             d="m 0,0 -3.003,3.276 h 2.116 L 0.944,1.294 H 1 L 2.8,3.276 H 4.83 L 1.887,0 Z M -6.404,-18.951 4.26,-3.22 v 0.085 h -9.748 v 2.1 H 7.52 V -2.559 L -3.118,-18.23 v -0.089 H 7.663 v -2.098 H -6.404 Z"
             style="fill:#110f0d;fill-opacity:1;fill-rule:nonzero;stroke:none"
             id="path302"
             inkscape:connector-curvature="0" /></g><g
           id="g304"
           transform="translate(723.0615,143.8125)"><path
             d="m 0,0 -3.003,3.276 h 2.116 L 0.944,1.294 H 1 L 2.8,3.276 H 4.83 L 1.887,0 Z M -6.404,-18.951 4.26,-3.22 v 0.085 h -9.748 v 2.1 H 7.52 V -2.559 L -3.118,-18.23 v -0.089 H 7.663 v -2.098 H -6.404 Z"
             style="fill:none;stroke:#231f20;stroke-width:2;stroke-linecap:butt;stroke-linejoin:miter;stroke-miterlimit:10;stroke-dasharray:none;stroke-opacity:1"
             id="path306"
             inkscape:connector-curvature="0" /></g><g
           id="g308"
           transform="translate(758.3018,132.4824)"><path
             d="M 0,0 H -7.461 V -6.989 H 0.885 V -9.087 H -9.976 V 10.295 H 0.458 v -2.1 H -7.461 V 2.071 H 0 Z"
             style="fill:#110f0d;fill-opacity:1;fill-rule:nonzero;stroke:none"
             id="path310"
             inkscape:connector-curvature="0" /></g><g
           id="g312"
           transform="translate(758.3018,132.4824)"><path
             d="M 0,0 H -7.461 V -6.989 H 0.885 V -9.087 H -9.976 V 10.295 H 0.458 v -2.1 H -7.461 V 2.071 H 0 Z"
             style="fill:none;stroke:#231f20;stroke-width:2;stroke-linecap:butt;stroke-linejoin:miter;stroke-miterlimit:10;stroke-dasharray:none;stroke-opacity:1"
             id="path314"
             inkscape:connector-curvature="0" /></g><g
           id="g316"
           transform="translate(260.1611,221.5244)"><path
             d="M 0,0 V -23.854 H 22.98 V 0 H 36.896 V -62.069 H 22.98 V -36.1 H 0 V -62.069 H -13.917 V 0 Z"
             style="fill:#231f20;fill-opacity:1;fill-rule:nonzero;stroke:none"
             id="path318"
             inkscape:connector-curvature="0" /></g><g
           id="g320"
           transform="translate(345.9355,185.7002)"><path
             d="m 0,0 h -22.704 v -14.735 h 25.36 v -11.51 H -36.618 V 35.824 H 1.375 V 24.313 H -22.704 V 11.419 H 0 Z"
             style="fill:#231f20;fill-opacity:1;fill-rule:nonzero;stroke:none"
             id="path322"
             inkscape:connector-curvature="0" /></g><g
           id="g324"
           transform="translate(358.1958,221.5244)"><path
             d="M 0,0 H 13.917 V -50.283 H 38.454 V -62.069 H 0 Z"
             style="fill:#231f20;fill-opacity:1;fill-rule:nonzero;stroke:none"
             id="path326"
             inkscape:connector-curvature="0" /></g><g
           id="g328"
           transform="translate(446.6289,161.1104)"><path
             d="m 0,0 c -2.475,-1.197 -8.328,-2.67 -15.745,-2.67 -21.333,0 -32.319,13.447 -32.319,31.129 0,21.182 15.011,32.874 33.69,32.874 7.233,0 12.727,-1.38 15.199,-2.761 l -2.93,-11.049 c -2.749,1.197 -6.683,2.3 -11.719,2.3 -10.984,0 -19.592,-6.722 -19.592,-20.537 0,-12.431 7.323,-20.259 19.686,-20.259 4.298,0 8.876,0.827 11.715,2.025 z"
             style="fill:#231f20;fill-opacity:1;fill-rule:nonzero;stroke:none"
             id="path330"
             inkscape:connector-curvature="0" /></g><g
           id="g332"
           transform="translate(492.582,185.7002)"><path
             d="M 0,0 H -22.708 V -14.735 H 2.656 v -11.51 H -36.625 V 35.824 H 1.371 V 24.313 H -22.708 V 11.419 H 0 Z"
             style="fill:#231f20;fill-opacity:1;fill-rule:nonzero;stroke:none"
             id="path334"
             inkscape:connector-curvature="0" /></g><g
           id="g336"
           transform="translate(504.8428,221.5244)"><path
             d="M 0,0 H 13.914 V -50.283 H 38.451 V -62.069 H 0 Z"
             style="fill:#231f20;fill-opacity:1;fill-rule:nonzero;stroke:none"
             id="path338"
             inkscape:connector-curvature="0" /></g><g
           id="g340"
           transform="translate(588.2402,185.7002)"><path
             d="M 0,0 H -22.705 V -14.735 H 2.654 v -11.51 H -36.622 V 35.824 H 1.371 V 24.313 H -22.705 V 11.419 H 0 Z"
             style="fill:#231f20;fill-opacity:1;fill-rule:nonzero;stroke:none"
             id="path342"
             inkscape:connector-curvature="0" /></g><g
           id="g344"
           transform="translate(612.8584,209.7363)"><path
             d="M 0,0 H -16.663 V 11.788 H 30.76 V 0 H 13.915 V -50.281 H 0 Z"
             style="fill:#231f20;fill-opacity:1;fill-rule:nonzero;stroke:none"
             id="path346"
             inkscape:connector-curvature="0" /></g><g
           id="g348"
           transform="translate(651.0273,221.5244)"><path
             d="m 0,0 h 13.823 v -27.444 h 0.184 c 1.374,2.393 2.838,4.604 4.304,6.815 L 32.228,0 h 17.21 L 29.023,-26.432 50.443,-62.069 H 34.242 l -15.199,26.797 -5.22,-6.539 V -62.069 H 0 Z"
             style="fill:#231f20;fill-opacity:1;fill-rule:nonzero;stroke:none"
             id="path350"
             inkscape:connector-curvature="0" /></g><g
           id="g352"
           transform="translate(738.4492,185.8828)"><path
             d="m 0,0 -3.844,13.171 c -1.1,3.684 -2.197,8.289 -3.113,11.973 H -7.141 C -8.054,21.46 -8.972,16.762 -9.978,13.171 L -13.638,0 Z m -15.652,-10.495 -4.397,-15.933 h -14.373 l 18.77,62.07 H 2.656 l 19.227,-62.07 H 6.776 l -4.761,15.933 z"
             style="fill:#231f20;fill-opacity:1;fill-rule:nonzero;stroke:none"
             id="path354"
             inkscape:connector-curvature="0" /></g><g
           id="g356"
           transform="translate(109.5,169.9902)"><path
             d="m 0,0 c -11.35,11.37 -11.35,29.805 0,41.175 11.352,11.369 29.753,11.369 41.107,0"
             style="fill:#231f20;fill-opacity:1;fill-rule:nonzero;stroke:none"
             id="path358"
             inkscape:connector-curvature="0" /></g><g
           id="g360"
           transform="translate(150.6113,211.1582)"><path
             d="m 0,0 c 11.347,11.362 29.74,11.362 41.085,0 11.345,-11.363 11.345,-29.787 0,-41.147"
             style="fill:#231f20;fill-opacity:1;fill-rule:nonzero;stroke:none"
             id="path362"
             inkscape:connector-curvature="0" /></g><g
           id="g364"
           transform="translate(109.4956,169.9971)"><path
             d="m 0,0 v -38.286 h 19.567 c 0,11.907 9.638,21.562 21.527,21.562 11.889,0 21.527,-9.655 21.527,-21.562 H 82.188 V 0 Z"
             style="fill:#110f0d;fill-opacity:1;fill-rule:nonzero;stroke:none"
             id="path366"
             inkscape:connector-curvature="0" /></g><g
           id="g368"
           transform="translate(221.6978,172.7607)"><path
             d="m 0,0 c 0,-39.295 -31.69,-71.152 -70.79,-71.152 -39.095,0 -70.79,31.857 -70.79,71.152 0,39.294 31.695,71.154 70.79,71.154 C -31.69,71.154 0,39.294 0,0 Z"
             style="fill:none;stroke:#231f20;stroke-width:1.5;stroke-linecap:butt;stroke-linejoin:miter;stroke-miterlimit:10;stroke-dasharray:none;stroke-opacity:1"
             id="path370"
             inkscape:connector-curvature="0" /></g></g></g></g></svg>