<?xml version="1.0" encoding="UTF-8" standalone="no"?>
<!-- Creator: CorelDRAW X6 -->

<svg
   xmlns:dc="http://purl.org/dc/elements/1.1/"
   xmlns:cc="http://creativecommons.org/ns#"
   xmlns:rdf="http://www.w3.org/1999/02/22-rdf-syntax-ns#"
   xmlns:svg="http://www.w3.org/2000/svg"
   xmlns="http://www.w3.org/2000/svg"
   xmlns:sodipodi="http://sodipodi.sourceforge.net/DTD/sodipodi-0.dtd"
   xmlns:inkscape="http://www.inkscape.org/namespaces/inkscape"
   xml:space="preserve"
   width="3.63889in"
   height="1in"
   version="1.1"
   style="shape-rendering:geometricPrecision; text-rendering:geometricPrecision; image-rendering:optimizeQuality; fill-rule:evenodd; clip-rule:evenodd"
   viewBox="0 0 3639 1000"
   id="svg48"
   sodipodi:docname="Honeywell.svg"
   inkscape:version="0.92.4 (5da689c313, 2019-01-14)"><metadata
   id="metadata52"><rdf:RDF><cc:Work
       rdf:about=""><dc:format>image/svg+xml</dc:format><dc:type
         rdf:resource="http://purl.org/dc/dcmitype/StillImage" /></cc:Work></rdf:RDF></metadata><sodipodi:namedview
   pagecolor="#ffffff"
   bordercolor="#666666"
   borderopacity="1"
   objecttolerance="10"
   gridtolerance="10"
   guidetolerance="10"
   inkscape:pageopacity="0"
   inkscape:pageshadow="2"
   inkscape:window-width="1920"
   inkscape:window-height="1017"
   id="namedview50"
   showgrid="false"
   inkscape:zoom="1.6259537"
   inkscape:cx="115.12502"
   inkscape:cy="22.70814"
   inkscape:window-x="-8"
   inkscape:window-y="-8"
   inkscape:window-maximized="1"
   inkscape:current-layer="Layer_x0020_1" />
 <defs
   id="defs4">
  <style
   type="text/css"
   id="style2">
   <![CDATA[
    .fil0 {fill:#333436;fill-rule:nonzero}
   ]]>
  </style>
 </defs>
 <g
   id="Layer_x0020_1">
  <metadata
   id="CorelCorpID_0Corel-Layer" />
  <path
   class="fil0"
   d="M3494 -11l0 529 146 0 0 -529 -146 0zm-46 0l-146 0 0 529 146 0 0 -529zm-2994 0l-163 0 0 220 -128 0 0 -220 -164 0 0 529 164 0 0 -241 128 0 0 241 163 0 0 -529zm2308 143l-59 216 -66 -216 -133 0 -59 216 -67 -216 -209 0 -76 184 -71 -184 -166 0 154 395c0,0 0,4 -3,15 -3,11 -14,39 -33,59 -19,20 -39,14 -39,14 0,0 8,-7 13,-18 5,-11 3,-31 -5,-49 -9,-18 -32,-32 -69,-25 -37,7 -53,40 -49,72 4,32 24,59 76,68 52,9 83,-10 111,-35 28,-25 52,-90 52,-90l161 -394 114 372 129 0 61 -224 70 224 126 0 106 -386 -69 0zm336 130c0,-21 -4,-43 -6,-50l0 -1c-2,-7 -6,-19 -20,-34 -14,-14 -41,-14 -55,-4 -11,8 -24,27 -28,51 -4,20 -4,59 -3,71l113 0c0,-4 0,-13 0,-32zm134 -40c29,55 24,126 24,126l-271 0 0 78c0,0 3,16 9,24 6,8 28,40 103,29 83,-13 80,-72 82,-72l65 0c0,0 -1,39 -28,65 -27,26 -75,52 -129,58 -54,6 -130,7 -191,-44 -36,-30 -52,-62 -63,-92 -13,-37 -17,-109 13,-170 30,-61 108,-110 203,-105 95,5 150,40 184,103zm-1519 40c0,-21 -4,-43 -6,-50l0 -1c-2,-7 -6,-19 -20,-34 -14,-14 -41,-14 -55,-4 -11,8 -24,27 -28,51 -4,20 -3,59 -3,71l113 0c0,-4 0,-13 0,-32zm134 -40c29,55 25,126 24,126l-272 0 0 78c0,0 3,16 9,24 6,8 28,40 103,29 83,-13 80,-72 82,-72l65 0c0,0 -1,39 -28,65 -27,26 -75,52 -129,58 -54,6 -130,7 -191,-44 -36,-30 -52,-62 -63,-92 -13,-37 -17,-109 13,-170 30,-61 108,-110 203,-105 95,5 150,40 183,103zm-521 -89c-55,-23 -108,-9 -139,5 -31,15 -51,45 -52,45l0 -52 -152 0 0 386 152 0 0 -277c0,-6 18,-26 39,-37 21,-11 46,-5 54,5 12,15 12,31 12,41l0 269 150 0 0 -294c-1,-19 -10,-67 -65,-91zm-552 139c0,-30 -5,-52 -9,-63 -8,-20 -22,-42 -46,-42 -3,0 -5,0 -8,1 -13,2 -25,16 -36,40 -10,21 -10,54 -10,99 0,13 0,27 0,42 -1,70 5,90 20,113 8,12 19,20 30,22 9,1 19,-2 27,-9 24,-20 30,-63 31,-76 1,-13 1,-75 0,-127zm139 -53c30,51 33,125 12,185 -21,60 -63,90 -91,105 -28,15 -72,23 -115,23 -43,0 -99,-10 -136,-39 -37,-30 -62,-62 -74,-106 -11,-44 -18,-123 29,-185 47,-62 106,-74 133,-78 24,-4 40,-4 43,-4 0,0 53,-3 95,14 43,17 74,36 104,87z"
   id="path7"
   style="fill:#000000;fill-opacity:1" />
  <polygon
   class="fil0"
   points="126,833 126,845 70,845 70,997 57,997 57,845 1,845 1,833 "
   id="polygon9"
   style="fill:#000000;fill-opacity:1" />
  <polygon
   class="fil0"
   points="289,920 187,920 187,997 173,997 173,833 187,833 187,909 289,909 289,833 302,833 302,997 289,997 "
   id="polygon11"
   style="fill:#000000;fill-opacity:1" />
  <polygon
   class="fil0"
   points="371,833 485,833 485,845 384,845 384,909 473,909 473,920 384,920 384,985 488,985 488,997 371,997 "
   id="polygon13"
   style="fill:#000000;fill-opacity:1" />
  <path
   class="fil0"
   d="M624 845l0 80 49 0c25,0 40,-14 40,-41 0,-27 -13,-39 -41,-39l-49 0zm-14 -11l62 0c38,0 55,17 55,50 0,32 -17,53 -55,53l-48 0 0 60 -14 0 0 -163z"
   id="path15"
   style="fill:#000000;fill-opacity:1" />
  <path
   class="fil0"
   d="M783 915c0,55 21,73 58,73 37,0 58,-17 58,-73 0,-55 -21,-73 -58,-73 -37,0 -58,17 -58,73zm-14 0c0,-60 25,-84 71,-84 48,0 72,24 72,84 0,60 -25,84 -72,84 -47,0 -71,-24 -71,-84z"
   id="path17"
   style="fill:#000000;fill-opacity:1" />
  <polygon
   class="fil0"
   points="1054,835 1094,977 1137,833 1150,833 1101,997 1087,997 1047,854 1007,997 993,997 944,833 958,833 1000,978 1041,835 "
   id="polygon19"
   style="fill:#000000;fill-opacity:1" />
  <polygon
   class="fil0"
   points="1196,833 1310,833 1310,845 1209,845 1209,909 1297,909 1297,920 1209,920 1209,985 1312,985 1312,997 1196,997 "
   id="polygon21"
   style="fill:#000000;fill-opacity:1" />
  <path
   class="fil0"
   d="M1380 845l0 75 49 0c25,0 39,-13 39,-38 0,-25 -13,-37 -40,-37l-48 0zm-14 -11l62 0c37,0 54,17 54,48 0,24 -11,42 -34,48l37 67 -15 0 -36 -65c-1,0 -2,0 -4,0l-50 0 0 65 -14 0 0 -163z"
   id="path23"
   style="fill:#000000;fill-opacity:1" />
  <path
   class="fil0"
   d="M1614 915c0,55 21,73 58,73 37,0 58,-17 58,-73 0,-55 -21,-73 -58,-73 -37,0 -58,17 -58,73zm-14 0c0,-60 25,-84 71,-84 48,0 72,24 72,84 0,60 -25,84 -72,84 -47,0 -71,-24 -71,-84z"
   id="path25"
   style="fill:#000000;fill-opacity:1" />
  <polygon
   class="fil0"
   points="1805,833 1916,833 1916,845 1819,845 1819,910 1906,910 1906,922 1819,922 1819,997 1805,997 "
   id="polygon27"
   style="fill:#000000;fill-opacity:1" />
  <path
   class="fil0"
   d="M2020 915c0,-60 27,-85 80,-85 33,0 54,11 65,37l-31 16c-7,-16 -17,-21 -35,-21 -26,0 -41,12 -41,54 0,42 15,54 41,54 17,0 29,-7 36,-23l31 15c-12,25 -34,39 -68,39 -53,0 -78,-27 -78,-85z"
   id="path29"
   style="fill:#000000;fill-opacity:1" />
  <path
   class="fil0"
   d="M2238 915c0,40 14,54 41,54 27,0 41,-14 41,-54 0,-40 -14,-53 -41,-53 -27,0 -41,13 -41,54zm-39 0c0,-58 26,-85 79,-85 56,0 79,27 79,85 0,58 -26,85 -79,85 -55,0 -79,-28 -79,-85z"
   id="path31"
   style="fill:#000000;fill-opacity:1" />
  <polygon
   class="fil0"
   points="2436,893 2437,997 2400,997 2400,833 2431,833 2510,942 2509,833 2546,833 2546,997 2512,997 "
   id="polygon33"
   style="fill:#000000;fill-opacity:1" />
  <polygon
   class="fil0"
   points="2636,893 2637,997 2601,997 2601,833 2631,833 2711,942 2710,833 2746,833 2746,997 2712,997 "
   id="polygon35"
   style="fill:#000000;fill-opacity:1" />
  <polygon
   class="fil0"
   points="2802,833 2928,833 2928,864 2840,864 2840,899 2916,899 2916,930 2840,930 2840,967 2930,967 2930,997 2802,997 "
   id="polygon37"
   style="fill:#000000;fill-opacity:1" />
  <path
   class="fil0"
   d="M2966 915c0,-60 27,-85 80,-85 33,0 54,11 65,37l-31 16c-7,-16 -17,-21 -35,-21 -26,0 -41,12 -41,54 0,42 15,54 41,54 17,0 29,-7 36,-23l31 15c-12,25 -34,39 -68,39 -53,0 -78,-27 -78,-85z"
   id="path39"
   style="fill:#000000;fill-opacity:1" />
  <polygon
   class="fil0"
   points="3282,833 3282,866 3232,866 3232,997 3194,997 3194,866 3144,866 3144,833 "
   id="polygon41"
   style="fill:#000000;fill-opacity:1" />
  <polygon
   class="fil0"
   points="3324,833 3449,833 3449,864 3361,864 3361,899 3437,899 3437,930 3361,930 3361,967 3451,967 3451,997 3324,997 "
   id="polygon43"
   style="fill:#000000;fill-opacity:1" />
  <path
   class="fil0"
   d="M3560 966c25,0 41,-13 41,-51 0,-36 -13,-50 -38,-50l-30 0 0 102 27 0zm-65 31l0 -163 70 0c51,0 74,25 74,80 0,55 -25,83 -77,83l-68 0z"
   id="path45"
   style="fill:#000000;fill-opacity:1" />
 </g>
</svg>