<svg id="logo" xmlns="http://www.w3.org/2000/svg" viewBox="0 0 393.05 111.61"><title>Logo_RH_BW_RGB_Default</title><path d="M248,431.64h0.57l0.86,1.41H250L249,431.62a0.84,0.84,0,0,0,.85-0.89,0.92,0.92,0,0,0-1.15-.93H247.5v3.25H248v-1.41Zm0-.42v-1h0.67c0.34,0,.71.08,0.71,0.48s-0.37.53-.79,0.53H248Z" transform="translate(-122.43 -337.62)"/><path d="M251.76,431.43a3.19,3.19,0,1,1-3.19-3.19A3.19,3.19,0,0,1,251.76,431.43Zm-3.19-2.63a2.62,2.62,0,1,0,2.62,2.63A2.63,2.63,0,0,0,248.57,428.81Z" transform="translate(-122.43 -337.62)"/><path d="M280.79,404.7c0-5.79-.12-10-0.35-13.89h9.46l0.41,8.21h0.31c2.13-6.09,7.17-9.19,11.83-9.19a10.37,10.37,0,0,1,2.56.24v10.3a16,16,0,0,0-3.29-.31c-5.21,0-8.82,3.31-9.8,8.27a18.06,18.06,0,0,0-.28,3.3V434H280.7Z" transform="translate(-122.43 -337.62)"/><path d="M318.21,415.36c0.29,7.83,6.35,11.26,13.35,11.26a32.91,32.91,0,0,0,11.93-2l1.62,7.52A39.09,39.09,0,0,1,330,434.88c-14,0-22.26-8.67-22.26-21.91,0-11.93,7.24-23.22,21.14-23.22,14.06,0,18.63,11.56,18.63,21a24.47,24.47,0,0,1-.39,4.67Zm19-7.61c0-4-1.69-10.53-9-10.53-6.73,0-9.53,6.1-10,10.53h19Z" transform="translate(-122.43 -337.62)"/><path d="M383.68,415.29a12.9,12.9,0,0,1-.33,3.19,9.69,9.69,0,0,1-9.44,7.78c-6.88,0-10.82-5.8-10.82-13.74S367,398.29,374,398.29a9.6,9.6,0,0,1,9.4,7.67,14.81,14.81,0,0,1,.25,2.85v6.48Zm10.92-41.13-10.92-3.08v24.38H383.5c-1.93-3.19-6.2-5.63-12.11-5.63-10.4,0-19.45,8.6-19.38,23.08,0,13.29,8.18,22.09,18.5,22.09,6.24,0,11.45-3,14-7.82h0.19l0.49,6.84H395c-0.2-2.94-.36-7.7-0.36-12.12V374.16Z" transform="translate(-122.43 -337.62)"/><path d="M423.51,389.78a16.47,16.47,0,0,0-8.72,2.48,15.84,15.84,0,0,0-5.91,6.24h-0.17V378.27L404.42,377v57h4.28V407.58a12.17,12.17,0,0,1,.58-4.26c1.85-5.38,6.92-9.8,13-9.8,8.86,0,11.92,7.1,11.92,14.89V434h4.28v-26.1C438.54,391.83,427.61,389.78,423.51,389.78Z" transform="translate(-122.43 -337.62)"/><path d="M476.93,423.76a70.92,70.92,0,0,0,.63,10.28h-3.94l-0.63-6.2h-0.2A16.34,16.34,0,0,1,459,435c-8.7,0-12.76-6.12-12.76-11.89,0-10,8.81-16,26.41-15.82v-1.16c0-4.28-.83-12.82-11.07-12.75a19,19,0,0,0-10.86,3.22l-1.36-3.11a23.24,23.24,0,0,1,12.69-3.74c12.48,0,14.87,9.37,14.87,17.1v16.88Zm-4.28-12.85c-9.42-.27-21.86,1.16-21.86,11.54,0,6.22,4.1,9,8.61,9a13,13,0,0,0,12.8-8.67,8.4,8.4,0,0,0,.45-2.59v-9.29Z" transform="translate(-122.43 -337.62)"/><path d="M494,381.24v9.53H506.3v3.47H494v28.12c0,5.5,1.71,8.95,6.36,8.95a15.07,15.07,0,0,0,4.92-.68l0.52,3.31a15.45,15.45,0,0,1-6,1c-3.16,0-5.78-1-7.47-3.07-2-2.27-2.63-5.9-2.63-10.32V394.24h-7.3v-3.47h7.3v-8Z" transform="translate(-122.43 -337.62)"/><path d="M511.71,431.73h0.57l0.86,1.41h0.55l-0.93-1.44a0.84,0.84,0,0,0,.85-0.89,0.92,0.92,0,0,0-1.15-.93h-1.24v3.25h0.49v-1.41Zm0-.42v-1h0.67c0.34,0,.71.08,0.71,0.48s-0.37.53-.79,0.53h-0.59Z" transform="translate(-122.43 -337.62)"/><path d="M515.48,431.52a3.19,3.19,0,1,1-3.19-3.19A3.19,3.19,0,0,1,515.48,431.52Zm-3.19-2.62a2.62,2.62,0,1,0,2.62,2.63A2.62,2.62,0,0,0,512.29,428.89Z" transform="translate(-122.43 -337.62)"/><path d="M199.43,429.23a2.39,2.39,0,0,1,.2,2.73,5.36,5.36,0,0,1-1.53,1.81c-0.89.71-2.62,1.53-5,0-1.28-.81-1.36-1.08-3.12-0.86-1.26.17-1.76-1.11-1.31-2.17s2.32-1.91,4.64-.55c1,0.61,2.67,1.91,4.09.76a11.19,11.19,0,0,0,1.76-1.74,0.21,0.21,0,0,1,.15-0.06A0.22,0.22,0,0,1,199.43,429.23Z" transform="translate(-122.43 -337.62)"/><path d="M179,363.59c-3.08,0-5.29.4-7.2,0.45a5.4,5.4,0,0,1-4.08-2.21c-0.57-.71-2.38-1.38-3.36.88a3.91,3.91,0,0,0,2.37,5.06s2.54,4.71,4.46,2.66c1.37-1.45,2.12-2.24,9.41-2.77,3.47-.25,3.83-1.06,3.73-1.91S182.13,363.59,179,363.59Z" transform="translate(-122.43 -337.62)"/><path d="M196.56,353.56H196.2c-0.68,0-1.39,0-2.11.12a17,17,0,0,0-5.93,1.59,0.19,0.19,0,0,0-.11.17,0.2,0.2,0,0,0,.2.19h0q0.61-.1,1.25-0.16c3.91-.39,7.21.26,7.37,1.45,0.12,0.9-1.58,1.85-4.11,2.44a0.27,0.27,0,0,0,0,.53,14.35,14.35,0,0,0,3.6.53c4,0.09,7.36-1.37,7.41-3.26S200.6,353.65,196.56,353.56Z" transform="translate(-122.43 -337.62)"/><path d="M185.53,337.62a63.14,63.14,0,0,0-59.81,83.27h4.39a22.87,22.87,0,0,0,10.54-2.52,5.59,5.59,0,0,1,2.55-.64,5.14,5.14,0,0,1,4.66,2.49,8.53,8.53,0,0,0,2.81,3.16,6.39,6.39,0,0,0,3.89,1c0.83,0,2.09-.24,2.4-1.1s-0.09-1.74-1.3-2.24c-1.71-.71-2.17-1.76-3.08-3.37s-2.87-2.46-3.17-5.49a5.1,5.1,0,0,1,6.65-5.54c3.34,0.86,5.49,5,6.3,6.4a2.06,2.06,0,0,0,3.12.51c1.21-1.11,2.32-1.11,3.22.3,0.77,1.2,6.45,8.77,12.59,9s9.57-1.41,12.29-1.31c1.91,0.07,2.83,1,3.93,1.21,1.92,0.3,3.28-1.43,5.39-1.33,1.71,0.08,3.58,1.23,5.49,1.23s6-2.31,5.89-1.36c-0.1,1.68-1.4,4.67-1.71,6-0.22,1,0,3.27-.6,5.12a19.86,19.86,0,0,1-2.72,5c-1.55,2.32-2.67,3-3.93,5.44a38.28,38.28,0,0,1-4.33,6c-0.77,1,4.37,0,6.2-1.76,1.55-1.47,4.27-5.91,8.56-6.85,2.9-.64,3.48-1.75,3.13-2.78a1,1,0,0,1,.47-1.31,30.94,30.94,0,0,1,11.52-2,34,34,0,0,1,7.62.91A63.11,63.11,0,0,0,185.53,337.62Zm51.31,61.85c-3,16.61-30.2,22.2-56.62,14.2C155,406,132.92,390.85,135.48,382c1.49-5.18,9.71-7.39,20.65-6.21-1.66,3.38-1.54,7.37,5.71,11.8,8.86,5,23.83,9.33,27.88,8.91,1.51-.15,2.87-0.9,1.51-1.81s-2.57-2.72-3.32-5.89c-0.42-1.77-.9-4.23-10.42-6-20.42-3.89-19.63-9.66-19-13,0,0,1.81-8.15,2.57-11s2.7-9.45,15.85-6.49c7.6,1.71,11.7-.42,13.79-1,5.69-1.46,12-.45,15.45,3.12s8.55,15.12,10.92,23.66c1.21,4.34.89,6.42,0.28,7.88a30.39,30.39,0,0,1-2.19,4.17c-0.27.45,0,.94,0.53,0.64a9.85,9.85,0,0,0,5.46-6.8C231.85,386.35,238.21,391.93,236.84,399.48Z" transform="translate(-122.43 -337.62)"/></svg>