<?xml version="1.0" encoding="UTF-8" standalone="no"?>
<!-- Created with Inkscape (http://www.inkscape.org/) -->

<svg
   xmlns:dc="http://purl.org/dc/elements/1.1/"
   xmlns:cc="http://creativecommons.org/ns#"
   xmlns:rdf="http://www.w3.org/1999/02/22-rdf-syntax-ns#"
   xmlns:svg="http://www.w3.org/2000/svg"
   xmlns="http://www.w3.org/2000/svg"
   xmlns:sodipodi="http://sodipodi.sourceforge.net/DTD/sodipodi-0.dtd"
   xmlns:inkscape="http://www.inkscape.org/namespaces/inkscape"
   version="1.1"
   id="svg2"
   xml:space="preserve"
   width="1122.52"
   height="793.70667"
   viewBox="0 0 1122.52 793.70667"
   sodipodi:docname="Robotarna.svg"
   inkscape:version="0.92.4 (5da689c313, 2019-01-14)"><metadata
     id="metadata8"><rdf:RDF><cc:Work
         rdf:about=""><dc:format>image/svg+xml</dc:format><dc:type
           rdf:resource="http://purl.org/dc/dcmitype/StillImage" /><dc:title></dc:title></cc:Work></rdf:RDF></metadata><defs
     id="defs6"><clipPath
       clipPathUnits="userSpaceOnUse"
       id="clipPath18"><path
         d="M 0,595.28 H 841.89 V 0 H 0 Z"
         id="path16"
         inkscape:connector-curvature="0" /></clipPath><clipPath
       clipPathUnits="userSpaceOnUse"
       id="clipPath54"><path
         d="M 0,595.28 H 841.89 V 0 H 0 Z"
         id="path52"
         inkscape:connector-curvature="0" /></clipPath></defs><sodipodi:namedview
     pagecolor="#ffffff"
     bordercolor="#666666"
     borderopacity="1"
     objecttolerance="10"
     gridtolerance="10"
     guidetolerance="10"
     inkscape:pageopacity="0"
     inkscape:pageshadow="2"
     inkscape:window-width="1920"
     inkscape:window-height="1017"
     id="namedview4"
     showgrid="false"
     inkscape:zoom="0.84100188"
     inkscape:cx="580.63748"
     inkscape:cy="319.09503"
     inkscape:window-x="-8"
     inkscape:window-y="-8"
     inkscape:window-maximized="1"
     inkscape:current-layer="g10" /><g
     id="g10"
     inkscape:groupmode="layer"
     inkscape:label="robotarna_logo"
     transform="matrix(1.3333333,0,0,-1.3333333,0,793.70667)"><g
       id="g48"><g
         id="g50"
         clip-path="url(#clipPath54)"><g
           id="g56"
           transform="translate(255.4185,177.8223)"><path
             d="m 0,0 c 0,-43.053 -34.9,-77.953 -77.953,-77.953 -43.052,0 -77.952,34.9 -77.952,77.953 0,43.053 34.9,77.953 77.952,77.953 C -34.9,77.953 0,43.053 0,0"
             style="fill:#000000;fill-opacity:1;fill-rule:nonzero;stroke:none"
             id="path58"
             inkscape:connector-curvature="0" /></g><g
           id="g60"
           transform="translate(255.4185,177.8223)"><path
             d="m 0,0 c 0,-43.053 -34.9,-77.953 -77.953,-77.953 -43.052,0 -77.952,34.9 -77.952,77.953 0,43.053 34.9,77.953 77.952,77.953 C -34.9,77.953 0,43.053 0,0 Z"
             style="fill:none;stroke:#000000;stroke-width:2;stroke-linecap:butt;stroke-linejoin:miter;stroke-miterlimit:10;stroke-dasharray:none;stroke-opacity:1"
             id="path62"
             inkscape:connector-curvature="0" /></g><g
           id="g64"
           transform="translate(220.4268,179.6094)"><path
             d="m 0,0 c 0,-0.678 12.67,-3.092 12.583,-4.584 -0.248,-4.275 -2.341,-12.15 -3.75,-16 -0.578,-1.582 -12.702,1.967 -13.455,0.479 -2.538,-5.016 -4.336,-9.086 -8.545,-12.729 -1.281,-1.109 5.887,-11.539 5.25,-12 -3.604,-2.615 -12.754,-8.021 -17.083,-9.416 -1.55,-0.5 -6.378,11.822 -8,11.5 -2.708,-0.539 -6.994,-0.893 -9.859,-0.893 -2.724,0 -5.389,0.254 -7.972,0.741 -1.253,0.236 -6.456,-12.192 -7.669,-11.848 -4.781,1.352 -14.306,6.266 -18.25,9.082 -0.796,0.568 6.754,11.715 6,12.334 -4.576,3.762 -7.634,7.873 -10.337,13.209 -0.467,0.922 -13.846,-2.084 -14.246,-1.125 -1.767,4.219 -2.502,11.889 -2.834,16.666 -0.069,0.996 12.465,2.84 12.465,3.855 0,6.297 1.354,12.279 3.787,17.667 0.423,0.935 -9.904,9.08 -9.418,9.978 2.485,4.593 7.25,10.277 11.166,13.667 0.902,0.78 11.151,-7.301 12.116,-6.597 4.411,3.217 9.459,5.612 14.919,6.957 0.924,0.228 1.019,13.307 1.965,13.473 2.425,0.427 13.954,0 16.5,0 2.168,0 0.782,-13.154 2.048,-13.465 5.721,-1.406 10.99,-3.962 15.549,-7.41 1.069,-0.809 10.916,8.278 11.903,7.375 3.296,-3.014 8.772,-9.926 11,-13.833 C 6.5,25.915 -4.355,18.159 -3.799,16.926 -1.369,11.541 0,6.293 0,0"
             style="fill:#ffffff;fill-opacity:1;fill-rule:nonzero;stroke:none"
             id="path66"
             inkscape:connector-curvature="0" /></g><g
           id="g68"
           transform="translate(220.3838,179.6094)"><path
             d="m 0,0 c -0.006,4.583 -0.856,9.149 -2.467,13.428 -0.4,1.073 -0.831,2.126 -1.308,3.17 -0.045,0.143 -0.146,0.219 -0.151,0.475 0.024,0.193 0.103,0.329 0.179,0.462 0.159,0.261 0.347,0.486 0.539,0.704 0.386,0.436 0.797,0.84 1.214,1.237 1.674,1.579 3.435,3.048 5.125,4.59 0.831,0.775 1.704,1.548 2.362,2.433 0.078,0.11 0.146,0.227 0.188,0.333 0.04,0.127 0.051,0.127 -0.023,0.24 l -0.44,0.732 c -0.3,0.484 -0.614,0.961 -0.935,1.433 -1.284,1.889 -2.673,3.711 -4.113,5.487 -1.446,1.77 -2.942,3.505 -4.552,5.117 l -0.611,0.591 -0.31,0.286 c 0.053,-0.021 -0.059,0.01 -0.17,-0.031 -0.47,-0.143 -0.971,-0.462 -1.441,-0.76 -0.947,-0.619 -1.864,-1.305 -2.778,-1.991 -1.838,-1.37 -3.613,-2.816 -5.576,-4.07 -0.25,-0.153 -0.503,-0.302 -0.778,-0.433 -0.137,-0.067 -0.28,-0.127 -0.44,-0.177 -0.17,-0.031 -0.323,-0.127 -0.648,0.006 l -1.429,1.009 c -0.94,0.641 -1.9,1.253 -2.89,1.815 -1.972,1.133 -4.036,2.102 -6.162,2.902 -1.063,0.402 -2.146,0.752 -3.233,1.067 -0.54,0.156 -1.092,0.299 -1.651,0.436 -0.088,0.025 -0.098,0.019 -0.25,0.069 -0.213,0.085 -0.303,0.218 -0.365,0.312 -0.122,0.199 -0.165,0.36 -0.21,0.521 -0.08,0.315 -0.121,0.612 -0.155,0.908 -0.215,2.342 -0.148,4.62 -0.251,6.902 -0.05,1.135 -0.11,2.276 -0.302,3.363 -0.094,0.517 -0.25,1.118 -0.485,1.367 -0.025,0.028 -0.048,0.043 -0.064,0.048 -0.034,0.009 0.064,-0.001 -0.056,0.013 l -0.393,0.004 -0.863,0.015 c -4.584,0.084 -9.177,0.27 -13.726,0.126 l -0.841,-0.054 -0.407,-0.043 -0.158,-0.024 c 0.164,0.067 0.109,0.088 0.104,0.046 -0.165,-0.362 -0.257,-0.997 -0.334,-1.53 -0.15,-1.118 -0.245,-2.26 -0.34,-3.399 -0.197,-2.283 -0.312,-4.566 -0.644,-6.876 -0.046,-0.291 -0.097,-0.581 -0.178,-0.885 -0.045,-0.155 -0.084,-0.305 -0.19,-0.498 -0.035,-0.056 -0.047,-0.09 -0.143,-0.185 -0.182,-0.13 -0.091,-0.081 -0.263,-0.142 l -0.206,-0.054 c -0.551,-0.137 -1.098,-0.288 -1.643,-0.447 -1.088,-0.324 -2.164,-0.69 -3.224,-1.096 -2.119,-0.818 -4.172,-1.806 -6.133,-2.953 -0.98,-0.575 -1.937,-1.187 -2.867,-1.834 l -0.705,-0.5 c -0.405,-0.204 -0.562,-0.074 -0.739,-0.057 -0.169,0.045 -0.314,0.102 -0.456,0.163 -0.563,0.243 -1.063,0.533 -1.565,0.827 -1.988,1.189 -3.87,2.495 -5.793,3.732 -0.959,0.61 -1.928,1.237 -2.919,1.713 -0.236,0.11 -0.521,0.22 -0.671,0.228 -0.001,0 -0.042,-0.006 0.006,0.004 0.089,0.048 -0.018,-0.01 0.039,0.029 l -0.16,-0.14 -0.32,-0.281 c -0.424,-0.377 -0.84,-0.765 -1.249,-1.16 -1.636,-1.583 -3.172,-3.275 -4.617,-5.038 -1.442,-1.766 -2.8,-3.605 -3.992,-5.541 l -0.435,-0.731 -0.211,-0.371 -0.104,-0.188 c -0.012,-0.021 -0.048,-0.083 -0.04,-0.072 0.02,0.049 0.014,0.064 0.014,0.065 0.021,-0.105 0.217,-0.386 0.381,-0.579 0.175,-0.212 0.365,-0.42 0.559,-0.624 0.783,-0.818 1.621,-1.599 2.458,-2.378 1.673,-1.565 3.398,-3.071 5.007,-4.743 0.199,-0.212 0.396,-0.427 0.583,-0.663 0.094,-0.117 0.185,-0.24 0.271,-0.379 0.043,-0.07 0.084,-0.142 0.121,-0.238 0.019,-0.045 0.034,-0.097 0.046,-0.174 0.001,-0.155 0.003,-0.147 -0.035,-0.255 -0.23,-0.52 -0.466,-1.039 -0.677,-1.568 -0.432,-1.054 -0.826,-2.123 -1.167,-3.21 -0.693,-2.171 -1.21,-4.399 -1.54,-6.655 -0.162,-1.129 -0.293,-2.263 -0.361,-3.402 -0.043,-0.569 -0.06,-1.135 -0.081,-1.707 l -0.015,-0.859 c -0.013,-0.081 0.027,-0.105 -0.042,-0.298 -0.068,-0.128 -0.145,-0.177 -0.214,-0.228 -0.141,-0.098 -0.278,-0.16 -0.416,-0.222 -2.206,-0.809 -4.457,-1.19 -6.689,-1.729 -1.116,-0.256 -2.233,-0.511 -3.331,-0.815 -0.543,-0.157 -1.104,-0.314 -1.582,-0.555 -0.11,-0.044 -0.236,-0.176 -0.213,-0.143 l 0.024,-0.395 0.062,-0.857 c 0.371,-4.555 0.814,-9.147 2.057,-13.543 0.163,-0.547 0.342,-1.084 0.553,-1.613 l 0.079,-0.201 c -10e-4,-0.008 0.025,-0.026 0.081,-0.047 0.108,-0.037 0.248,-0.051 0.384,-0.06 0.276,-0.015 0.559,-0.006 0.843,0.01 1.134,0.073 2.271,0.231 3.404,0.387 2.269,0.318 4.53,0.699 6.815,0.958 0.572,0.06 1.145,0.116 1.728,0.121 0.146,0 0.293,-0.004 0.443,-0.018 0.157,-0.031 0.287,-0.005 0.496,-0.173 0.169,-0.284 0.276,-0.515 0.417,-0.775 0.537,-1.009 1.1,-2.005 1.704,-2.975 1.211,-1.936 2.566,-3.785 4.105,-5.47 0.767,-0.842 1.569,-1.656 2.412,-2.422 0.425,-0.381 0.843,-0.761 1.289,-1.125 l 0.329,-0.277 c 0.068,-0.061 0.083,-0.055 0.193,-0.174 0.106,-0.164 0.075,-0.268 0.075,-0.359 -0.051,-0.343 -0.169,-0.602 -0.282,-0.876 -0.973,-2.114 -2.181,-4.058 -3.305,-6.057 -0.568,-0.995 -1.135,-1.989 -1.662,-3 -0.261,-0.503 -0.52,-1.015 -0.712,-1.529 -0.084,-0.257 -0.186,-0.552 -0.06,-0.493 l 0.705,-0.481 c 1.906,-1.248 3.906,-2.366 5.925,-3.437 2.024,-1.066 4.077,-2.076 6.166,-3.001 1.045,-0.462 2.098,-0.903 3.165,-1.301 0.532,-0.197 1.072,-0.389 1.607,-0.553 l 0.411,-0.124 0.103,-0.03 c 0.015,0.003 -0.036,0.003 -0.026,0.004 -0.007,-0.006 0.034,0.013 0.072,0.041 0.169,0.125 0.351,0.352 0.51,0.568 1.268,1.845 2.272,3.938 3.361,5.947 0.539,1.013 1.078,2.027 1.662,3.025 0.295,0.498 0.594,0.993 0.95,1.473 0.188,0.239 0.352,0.477 0.67,0.698 0.038,0.027 0.094,0.053 0.148,0.076 0.044,0.027 0.222,0.05 0.226,0.041 0.163,-0.011 0.167,-0.023 0.257,-0.036 l 0.421,-0.072 c 4.492,-0.791 9.08,-0.717 13.612,-0.201 1.133,0.131 2.258,0.282 3.372,0.501 0.065,0.009 0.125,0.036 0.306,0.034 0.14,-0.012 0.26,-0.053 0.349,-0.1 0.186,-0.095 0.315,-0.208 0.437,-0.319 0.234,-0.227 0.422,-0.463 0.601,-0.702 0.355,-0.48 0.663,-0.974 0.962,-1.471 1.186,-1.988 2.196,-4.049 3.322,-6.03 0.566,-0.966 1.139,-2.018 1.86,-2.738 0.087,-0.081 0.183,-0.143 0.237,-0.164 0.006,0 0.029,-0.006 0.014,-0.004 -0.024,0.003 -0.054,-0.015 0.004,-10e-4 -0.017,-0.009 0.11,0.036 0.157,0.051 0.266,0.086 0.53,0.185 0.793,0.285 0.527,0.202 1.049,0.425 1.568,0.657 2.075,0.933 4.098,2.004 6.095,3.115 1.995,1.116 3.964,2.284 5.89,3.512 l 1.432,0.938 0.704,0.482 0.35,0.249 c 0.073,0.066 -0.103,-0.103 -0.059,-0.105 -0.004,-0.012 0,-0.005 -0.004,0.017 -0.004,0.038 -0.02,0.098 -0.038,0.156 -0.377,0.999 -0.987,2.017 -1.525,3.013 -1.106,2.006 -2.269,3.987 -3.214,6.107 -0.228,0.536 -0.45,1.074 -0.575,1.677 -0.032,0.299 -0.161,0.638 0.144,1.053 l 0.655,0.586 c 0.837,0.765 1.619,1.592 2.333,2.474 1.437,1.762 2.598,3.737 3.664,5.76 l 1.571,3.056 0.392,0.765 c 0.224,0.364 0.588,0.381 0.869,0.435 0.595,0.067 1.173,0.026 1.749,-0.02 2.297,-0.22 4.546,-0.671 6.814,-0.982 1.127,-0.143 2.279,-0.322 3.389,-0.218 0.259,0.034 0.57,0.105 0.652,0.278 l 0.286,0.792 0.537,1.63 c 0.686,2.184 1.286,4.396 1.808,6.625 0.51,2.231 0.979,4.481 1.16,6.76 0.083,0.296 -0.128,0.459 -0.358,0.629 -0.231,0.156 -0.485,0.285 -0.743,0.403 -0.519,0.236 -1.056,0.432 -1.597,0.617 -1.083,0.369 -2.184,0.689 -3.286,0.999 L 3.239,-1.188 1.585,-0.712 C 1.311,-0.628 1.037,-0.541 0.766,-0.444 0.506,-0.321 0.2,-0.299 0.001,-0.011 Z m 0.084,0.011 c 0.126,-0.184 0.465,-0.27 0.712,-0.37 0.269,-0.095 0.542,-0.181 0.816,-0.263 l 1.654,-0.467 3.32,-0.896 c 1.105,-0.307 2.208,-0.621 3.298,-0.986 0.544,-0.183 1.085,-0.379 1.613,-0.614 0.263,-0.119 0.522,-0.249 0.767,-0.413 0.121,-0.085 0.24,-0.177 0.337,-0.304 0.117,-0.121 0.106,-0.337 0.09,-0.458 -0.168,-2.297 -0.624,-4.553 -1.121,-6.793 -0.509,-2.238 -1.097,-4.458 -1.771,-6.653 l -0.528,-1.64 c -0.097,-0.277 -0.178,-0.531 -0.295,-0.825 -0.212,-0.351 -0.569,-0.366 -0.848,-0.421 -1.179,-0.113 -2.319,0.067 -3.46,0.204 -2.275,0.303 -4.531,0.744 -6.802,0.952 -0.565,0.044 -1.138,0.08 -1.683,0.014 -0.261,-0.033 -0.557,-0.11 -0.629,-0.268 l -0.382,-0.77 -1.537,-3.08 c -1.046,-2.042 -2.193,-4.058 -3.633,-5.874 -0.715,-0.909 -1.502,-1.765 -2.346,-2.558 l -0.619,-0.567 c -0.069,-0.051 -0.071,-0.36 -0.013,-0.604 0.11,-0.52 0.327,-1.049 0.551,-1.565 0.935,-2.065 2.108,-4.041 3.228,-6.04 0.552,-1.017 1.148,-1.967 1.59,-3.112 0.024,-0.078 0.048,-0.157 0.062,-0.261 0.007,-0.049 0.012,-0.114 0,-0.197 0.029,-0.073 -0.186,-0.306 -0.179,-0.275 l -0.349,-0.251 -0.712,-0.495 -1.437,-0.956 c -1.932,-1.249 -3.9,-2.435 -5.899,-3.572 -2.001,-1.132 -4.026,-2.223 -6.127,-3.187 -0.526,-0.238 -1.056,-0.47 -1.599,-0.681 -0.271,-0.107 -0.544,-0.209 -0.823,-0.303 -0.089,-0.026 -0.094,-0.041 -0.252,-0.077 -0.013,-0.006 -0.114,-0.019 -0.21,-0.01 -0.085,0.009 -0.131,0.026 -0.194,0.044 -0.214,0.083 -0.352,0.196 -0.477,0.306 -0.906,0.908 -1.422,1.918 -2.022,2.914 -1.143,2.003 -2.179,4.05 -3.329,6.008 -0.291,0.486 -0.589,0.967 -0.915,1.411 -0.299,0.407 -0.763,0.946 -0.942,0.797 -1.137,-0.214 -2.288,-0.361 -3.433,-0.485 -4.573,-0.489 -9.249,-0.528 -13.798,0.316 l -0.425,0.077 c -0.052,0.008 -0.187,0.036 -0.168,0.028 -0.068,0 0.041,-0.006 0.018,0 -0.011,-0.007 -0.022,-0.009 -0.042,-0.023 -0.158,-0.104 -0.348,-0.331 -0.507,-0.544 -0.329,-0.442 -0.626,-0.928 -0.915,-1.415 -0.576,-0.98 -1.117,-1.989 -1.657,-2.998 -1.099,-2.015 -2.084,-4.077 -3.419,-6.012 -0.184,-0.239 -0.353,-0.477 -0.644,-0.697 -0.079,-0.053 -0.163,-0.113 -0.313,-0.141 -0.061,-0.019 -0.185,-0.004 -0.238,0.013 l -0.103,0.031 -0.412,0.125 c -0.56,0.175 -1.1,0.37 -1.641,0.574 -1.08,0.408 -2.14,0.858 -3.19,1.328 -2.099,0.942 -4.158,1.966 -6.185,3.047 -2.025,1.088 -4.026,2.221 -5.95,3.494 l -0.714,0.492 -0.088,0.063 c -0.091,0.078 -0.08,0.057 -0.151,0.213 -0.035,0.149 -0.016,0.234 -0.004,0.322 0.031,0.17 0.08,0.313 0.132,0.455 0.212,0.56 0.477,1.07 0.743,1.583 0.538,1.021 1.112,2.015 1.684,3.009 1.132,1.989 2.355,3.949 3.309,5.998 0.108,0.252 0.221,0.527 0.252,0.753 0.011,0.049 -0.011,0.1 0.012,0.055 l -0.129,0.11 -0.327,0.279 c -0.438,0.366 -0.866,0.762 -1.29,1.151 -0.845,0.783 -1.646,1.613 -2.414,2.472 -1.537,1.717 -2.886,3.596 -4.086,5.558 -0.598,0.982 -1.153,1.989 -1.684,3.009 -0.129,0.244 -0.265,0.536 -0.389,0.741 -0.111,0.061 -0.478,0.093 -0.732,0.087 -0.563,-0.006 -1.133,-0.063 -1.7,-0.123 -2.272,-0.261 -4.534,-0.646 -6.806,-0.966 -1.136,-0.159 -2.273,-0.319 -3.426,-0.396 -0.289,-0.017 -0.579,-0.027 -0.876,-0.011 -0.149,0.01 -0.298,0.021 -0.462,0.075 -0.074,0.027 -0.193,0.076 -0.247,0.208 l -0.08,0.199 c -0.216,0.534 -0.403,1.085 -0.57,1.635 -1.276,4.436 -1.739,9.033 -2.133,13.6 l -0.066,0.858 c -0.008,0.158 -0.027,0.253 -0.025,0.463 0.104,0.315 0.273,0.326 0.4,0.422 0.547,0.275 1.099,0.425 1.655,0.59 1.11,0.311 2.228,0.571 3.346,0.831 2.218,0.541 4.511,0.95 6.612,1.729 0.124,0.055 0.247,0.115 0.342,0.182 0.047,0.029 0.087,0.073 0.084,0.074 -0.008,-0.061 0.002,0.065 -10e-4,0.126 l 0.008,0.859 c 0.017,0.575 0.03,1.155 0.069,1.728 0.061,1.151 0.185,2.298 0.34,3.439 0.32,2.282 0.814,4.541 1.493,6.745 0.334,1.105 0.722,2.192 1.148,3.264 0.208,0.538 0.441,1.067 0.669,1.597 -0.014,-0.122 -0.025,0.042 -0.1,0.131 -0.065,0.104 -0.144,0.213 -0.23,0.319 -0.171,0.213 -0.361,0.421 -0.554,0.627 -1.575,1.63 -3.311,3.141 -4.99,4.702 -0.843,0.78 -1.684,1.561 -2.49,2.399 -0.201,0.209 -0.398,0.424 -0.588,0.655 -0.185,0.253 -0.389,0.417 -0.515,0.871 -0.008,0.072 -0.017,0.16 0.033,0.276 l 0.06,0.117 0.104,0.189 0.212,0.378 0.439,0.749 c 1.198,1.977 2.558,3.846 4.003,5.64 1.449,1.792 2.987,3.512 4.636,5.129 0.412,0.405 0.832,0.802 1.262,1.189 l 0.324,0.289 0.163,0.144 c 0.115,0.082 0.07,0.059 0.231,0.121 0.115,0.029 0.149,0.021 0.218,0.024 0.425,-0.034 0.673,-0.17 0.96,-0.288 1.08,-0.513 2.042,-1.134 3.02,-1.746 1.942,-1.23 3.833,-2.535 5.78,-3.701 0.486,-0.286 0.982,-0.569 1.473,-0.78 0.121,-0.051 0.244,-0.097 0.352,-0.126 0.093,-0.046 0.246,10e-4 0.098,-0.055 l 0.697,0.495 c 0.951,0.664 1.926,1.29 2.922,1.876 1.995,1.172 4.086,2.18 6.242,3.017 1.08,0.416 2.176,0.79 3.285,1.121 0.555,0.164 1.112,0.319 1.673,0.459 l 0.21,0.055 c -0.101,-0.045 0.055,0.04 -0.079,-0.038 -0.046,-0.044 -0.016,-0.018 -0.017,-0.012 0.033,0.059 0.077,0.186 0.109,0.306 0.067,0.251 0.116,0.525 0.16,0.801 0.318,2.229 0.435,4.533 0.628,6.817 0.094,1.145 0.188,2.29 0.342,3.444 0.101,0.592 0.123,1.122 0.424,1.811 0.059,0.082 0.093,0.233 0.393,0.349 0.159,0.036 0.163,0.03 0.265,0.046 l 0.448,0.048 0.875,0.058 c 4.618,0.153 9.196,-0.027 13.78,-0.105 l 0.856,-0.013 0.466,-0.007 c 0.022,0.006 0.263,-0.038 0.354,-0.099 0.115,-0.055 0.207,-0.13 0.28,-0.206 0.53,-0.626 0.581,-1.221 0.719,-1.808 0.208,-1.173 0.266,-2.328 0.319,-3.482 0.105,-2.297 0.046,-4.614 0.255,-6.841 0.03,-0.273 0.071,-0.544 0.132,-0.785 0.03,-0.115 0.074,-0.231 0.103,-0.276 0.013,-0.025 0.02,-0.01 -0.056,0.026 -0.017,0.002 0.114,-0.031 0.164,-0.046 0.553,-0.143 1.108,-0.296 1.667,-0.467 1.11,-0.339 2.204,-0.711 3.281,-1.137 2.152,-0.848 4.236,-1.865 6.222,-3.046 0.996,-0.585 1.962,-1.222 2.905,-1.887 0.46,-0.316 0.965,-0.708 1.362,-0.997 -0.058,0.012 0.093,0 0.192,0.041 0.114,0.034 0.236,0.085 0.357,0.143 0.242,0.115 0.485,0.255 0.724,0.401 1.909,1.207 3.705,2.653 5.549,4.015 0.921,0.685 1.844,1.37 2.818,2.002 0.5,0.306 0.971,0.628 1.601,0.821 0.158,0.025 0.367,0.119 0.656,-0.086 l 0.319,-0.299 0.619,-0.61 C -2.396,38.561 -0.909,36.806 0.529,35.013 1.96,33.215 3.338,31.375 4.62,29.464 4.939,28.985 5.253,28.503 5.553,28.011 L 5.995,27.266 C 6.112,27.149 6.123,26.828 6.041,26.694 5.977,26.535 5.894,26.404 5.807,26.28 5.087,25.327 4.22,24.58 3.375,23.798 1.668,22.26 -0.102,20.8 -1.773,19.242 c -0.416,-0.39 -0.826,-0.789 -1.203,-1.209 -0.186,-0.21 -0.368,-0.428 -0.509,-0.656 -0.069,-0.111 -0.128,-0.235 -0.139,-0.329 -0.017,-0.036 0.074,-0.206 0.123,-0.33 0.463,-1.047 0.887,-2.122 1.275,-3.202 C -0.659,9.191 0.137,4.591 0.086,0 Z"
             style="fill:#000000;fill-opacity:1;fill-rule:nonzero;stroke:none"
             id="path70"
             inkscape:connector-curvature="0" /></g><g
           id="g72"
           transform="translate(185.1836,178.1895)"><path
             d="m 0,0 c 0,-3.914 -3.173,-7.088 -7.087,-7.088 -3.913,0 -7.086,3.174 -7.086,7.088 0,3.913 3.173,7.086 7.086,7.086 C -3.173,7.086 0,3.913 0,0"
             style="fill:#000000;fill-opacity:1;fill-rule:nonzero;stroke:none"
             id="path74"
             inkscape:connector-curvature="0" /></g><g
           id="g76"
           transform="translate(185.1338,178.1904)"><path
             d="m 0,0 c 0.013,1.858 -0.91,3.633 -2.259,4.777 -1.354,1.144 -3.055,1.799 -4.779,1.775 -1.715,-0.007 -3.427,-0.667 -4.678,-1.876 -1.25,-1.201 -2.043,-2.889 -2.134,-4.678 -0.098,-1.785 0.602,-3.638 1.917,-4.896 1.314,-1.271 3.159,-1.859 4.897,-1.775 1.75,0.06 3.436,0.725 4.788,1.883 C -0.905,-3.637 0.025,-1.863 0,0 m 0.1,-0.002 c -0.008,-1.853 -0.607,-3.769 -1.904,-5.232 -1.264,-1.483 -3.265,-2.348 -5.232,-2.271 -1.979,0.067 -3.823,1.008 -5.126,2.377 -1.324,1.357 -2.153,3.192 -2.235,5.125 -0.109,1.928 0.627,3.929 2.016,5.345 1.365,1.429 3.341,2.3 5.343,2.276 1.994,-0.007 3.981,-0.881 5.245,-2.376 1.29,-1.471 1.897,-3.386 1.893,-5.244"
             style="fill:#000000;fill-opacity:1;fill-rule:nonzero;stroke:none"
             id="path78"
             inkscape:connector-curvature="0" /></g></g></g><text
       transform="matrix(1,0,0,-1,292.4756,150.3013)"
       style="font-variant:normal;font-weight:normal;font-stretch:normal;font-size:92.76999664px;font-family:'Myriad Pro';-inkscape-font-specification:MyriadPro-Regular;writing-mode:lr-tb;fill:#000000;fill-opacity:1;fill-rule:nonzero;stroke:none"
       id="text82"><tspan
         x="0 50.188568 114.1071 164.38844 225.98772 265.13666 321.9119 371.82217 432.86481"
         y="0"
         sodipodi:role="line"
         id="tspan80">ROBOTÁRNA</tspan></text>
</g></svg>