<?xml version="1.0" encoding="UTF-8" standalone="no"?>
<svg
   xmlns:dc="http://purl.org/dc/elements/1.1/"
   xmlns:cc="http://creativecommons.org/ns#"
   xmlns:rdf="http://www.w3.org/1999/02/22-rdf-syntax-ns#"
   xmlns:svg="http://www.w3.org/2000/svg"
   xmlns="http://www.w3.org/2000/svg"
   xmlns:sodipodi="http://sodipodi.sourceforge.net/DTD/sodipodi-0.dtd"
   xmlns:inkscape="http://www.inkscape.org/namespaces/inkscape"
   id="SK"
   viewBox="0 0 199.39 141.69001"
   version="1.1"
   sodipodi:docname="SOS.svg"
   width="199.39"
   height="141.69"
   inkscape:version="0.92.4 (5da689c313, 2019-01-14)">
  <metadata
     id="metadata109">
    <rdf:RDF>
      <cc:Work
         rdf:about="">
        <dc:format>image/svg+xml</dc:format>
        <dc:type
           rdf:resource="http://purl.org/dc/dcmitype/StillImage" />
        <dc:title>SOS_Logo_D_SK</dc:title>
      </cc:Work>
    </rdf:RDF>
  </metadata>
  <sodipodi:namedview
     pagecolor="#ffffff"
     bordercolor="#666666"
     borderopacity="1"
     objecttolerance="10"
     gridtolerance="10"
     guidetolerance="10"
     inkscape:pageopacity="0"
     inkscape:pageshadow="2"
     inkscape:window-width="1920"
     inkscape:window-height="1017"
     id="namedview107"
     showgrid="false"
     fit-margin-top="0"
     fit-margin-left="0"
     fit-margin-right="0"
     fit-margin-bottom="0"
     inkscape:zoom="1.8857952"
     inkscape:cx="65.108738"
     inkscape:cy="71.353456"
     inkscape:window-x="-8"
     inkscape:window-y="-8"
     inkscape:window-maximized="1"
     inkscape:current-layer="SK" />
  <defs
     id="defs4">
    <style
       id="style2">.cls-1{fill:#d43620;}.cls-2{fill:#0060a8;}</style>
  </defs>
  <title
     id="title6">SOS_Logo_D_SK</title>
  <path
     class="cls-1"
     d="m 187.1,29.83 h -59.39 c 14.31,6.46 23.67,19.33 23.67,35.7 a 52.34,52.34 0 0 1 -0.55,7.54 z"
     id="path8"
     inkscape:connector-curvature="0"
     style="fill:#d43620" />
  <path
     class="cls-1"
     d="m 52.28,76.12 a 51.92,51.92 0 0 1 0.51,-7.24 l -36.25,43.2 h 59.53 c -14.4,-6.5 -23.79,-19.48 -23.79,-36"
     id="path10"
     inkscape:connector-curvature="0"
     style="fill:#d43620" />
  <path
     class="cls-2"
     d="m 14.85,127.21 a 0.48,0.48 0 0 0 0,-0.2 2.35,2.35 0 0 0 -2.64,-2.16 3.23,3.23 0 0 0 -3.06,2.35 h 5.68 z m -10.44,2.44 a 8,8 0 0 1 8,-8.17 c 3.46,0 6.3,2.18 6.3,6.19 a 12.17,12.17 0 0 1 -0.28,2.38 H 8.71 v 0.16 c 0,0.68 1,2.27 3.29,2.27 a 6,6 0 0 0 3.21,-0.85 l 1.34,2.89 a 9,9 0 0 1 -4.88,1.33 c -4.37,0 -7.29,-2.27 -7.29,-6.21"
     id="path12"
     inkscape:connector-curvature="0"
     style="fill:#0060a8" />
  <polygon
     class="cls-2"
     points="26.99,116.61 22.82,135.54 18.45,135.54 22.62,116.61 "
     id="polygon14"
     style="fill:#0060a8"
     transform="translate(0,-0.02)" />
  <path
     class="cls-2"
     d="m 35.92,127.21 a 0.48,0.48 0 0 0 0,-0.2 2.35,2.35 0 0 0 -2.64,-2.16 3.23,3.23 0 0 0 -3.06,2.35 h 5.68 z m -10.44,2.44 a 8,8 0 0 1 8,-8.17 c 3.46,0 6.3,2.18 6.3,6.19 a 12.17,12.17 0 0 1 -0.28,2.38 h -9.71 v 0.16 c 0,0.68 1,2.27 3.29,2.27 a 6,6 0 0 0 3.21,-0.85 l 1.34,2.89 a 9,9 0 0 1 -4.88,1.33 c -4.37,0 -7.29,-2.27 -7.29,-6.21"
     id="path16"
     inkscape:connector-curvature="0"
     style="fill:#0060a8" />
  <path
     class="cls-2"
     d="m 40.1,129.56 a 8,8 0 0 1 8.11,-8.09 c 3,0 4.88,1.22 5.82,2.78 l -3.26,2.47 a 3,3 0 0 0 -2.58,-1.39 3.73,3.73 0 0 0 -3.66,4 2.72,2.72 0 0 0 3,2.7 3.52,3.52 0 0 0 2.58,-1.22 l 2.35,2.87 a 7.35,7.35 0 0 1 -5.37,2.21 c -4.28,0 -7,-2.61 -7,-6.3"
     id="path18"
     inkscape:connector-curvature="0"
     style="fill:#0060a8" />
  <path
     class="cls-2"
     d="m 54.76,132.63 a 8.18,8.18 0 0 1 0.09,-1 l 1.33,-6 h -2.27 l 0.85,-3.77 h 2.27 l 0.82,-3.75 h 4.37 l -0.82,3.75 h 2.78 l -0.85,3.77 h -2.78 l -1,4.66 a 2.93,2.93 0 0 0 -0.09,0.62 1.11,1.11 0 0 0 1.31,1.13 1.69,1.69 0 0 0 0.85,-0.23 l 0.06,3.49 a 4.14,4.14 0 0 1 -2.35,0.6 c -2.67,0 -4.54,-1 -4.54,-3.23"
     id="path20"
     inkscape:connector-curvature="0"
     style="fill:#0060a8" />
  <path
     class="cls-2"
     d="m 62.71,135.52 3,-13.71 h 4.37 l -0.37,1.65 a 6.26,6.26 0 0 1 4.74,-2 l -1,4.28 a 5.92,5.92 0 0 0 -1.42,-0.2 4.46,4.46 0 0 0 -3.12,1.36 l -1.9,8.63 h -4.3 z"
     id="path22"
     inkscape:connector-curvature="0"
     style="fill:#0060a8" />
  <path
     class="cls-2"
     d="m 83.71,128 a 2.5,2.5 0 0 0 -2.75,-2.67 c -2.07,0 -3.44,1.93 -3.44,4 a 2.5,2.5 0 0 0 2.75,2.67 c 2,0 3.43,-1.93 3.43,-4 m -10.67,1.56 a 8,8 0 0 1 8.06,-8.09 c 4.62,0 7.06,2.75 7.06,6.33 a 8,8 0 0 1 -8.06,8.06 c -4.6,0 -7.07,-2.75 -7.07,-6.3"
     id="path24"
     inkscape:connector-curvature="0"
     style="fill:#0060a8" />
  <path
     class="cls-2"
     d="m 97.12,135.52 1.7,-7.69 a 4.94,4.94 0 0 0 0.14,-1 1.6,1.6 0 0 0 -1.87,-1.5 4.17,4.17 0 0 0 -2.92,1.33 l -2,8.86 H 87.8 l 3,-13.71 h 4.37 l -0.4,1.67 a 6.39,6.39 0 0 1 4.45,-2 c 2.75,0 4.4,1.48 4.4,3.55 a 8.22,8.22 0 0 1 -0.14,1.13 l -2.07,9.37 h -4.37 z"
     id="path26"
     inkscape:connector-curvature="0"
     style="fill:#0060a8" />
  <path
     class="cls-2"
     d="m 107.13,118.44 a 2.86,2.86 0 0 1 2.84,-2.87 2.15,2.15 0 0 1 2.24,2.13 2.88,2.88 0 0 1 -2.81,2.89 2.18,2.18 0 0 1 -2.27,-2.16 m -3.49,17.08 3,-13.71 h 4.37 l -3,13.71 z"
     id="path28"
     inkscape:connector-curvature="0"
     style="fill:#0060a8" />
  <path
     class="cls-2"
     d="m 110.71,129.56 a 8,8 0 0 1 8.11,-8.09 c 3,0 4.88,1.22 5.82,2.78 l -3.26,2.47 a 3,3 0 0 0 -2.58,-1.39 3.73,3.73 0 0 0 -3.66,4 2.72,2.72 0 0 0 3,2.7 3.51,3.51 0 0 0 2.58,-1.22 l 2.36,2.87 a 7.34,7.34 0 0 1 -5.37,2.21 c -4.28,0 -7,-2.61 -7,-6.3"
     id="path30"
     inkscape:connector-curvature="0"
     style="fill:#0060a8" />
  <path
     class="cls-2"
     d="m 119.3,68.31 c 0,-8.69 -6.36,-15 -15.89,-15 -11.23,0 -19.07,9.54 -19.07,20.35 0,8.69 6.36,15 15.89,15 11.23,0 19.07,-9.54 19.07,-20.35 m -57.12,6.78 c 0,-22.57 17.91,-40.69 42.49,-40.69 20.88,0 36.77,13.14 36.77,32.21 0,22.57 -17.8,40.9 -42.38,40.9 -21,0 -36.88,-13.25 -36.88,-32.43"
     id="path32"
     inkscape:connector-curvature="0"
     style="fill:#0060a8" />
  <path
     class="cls-2"
     d="m 64.71,42.87 c -2.77,-10.08 -15,-14.14 -23.9,-17 -5.3,-1.7 -9.43,-3.07 -9.43,-5 0,-1.59 1.59,-2.86 4.35,-2.86 6.68,0 15.68,2.75 21.51,8.58 L 70.06,11.76 C 62.32,4.02 50.77,0 39.22,0 19.09,0 8.91,13 8.91,25.33 c 0,13.57 14.52,18.12 24.48,21.3 5.3,1.7 9.32,3.07 9.32,5.09 0,1.27 -1.59,3.07 -5.62,3.07 -9.54,0 -19.5,-4.45 -24.37,-10.81 L 0,59.21 c 7,8.37 20.35,13.78 35.39,13.78 A 35,35 0 0 0 52.8,68.79 49.56,49.56 0 0 1 64.71,42.87"
     id="path34"
     inkscape:connector-curvature="0"
     style="fill:#0060a8" />
  <path
     class="cls-2"
     d="m 170.15,94.56 c -5.3,-1.69 -9.43,-3.07 -9.43,-5 0,-1.59 1.59,-2.86 4.34,-2.86 6.68,0 15.68,2.75 21.51,8.58 L 199.39,80.45 C 191.65,72.71 180.11,68.69 168.56,68.69 a 34.88,34.88 0 0 0 -17.75,4.37 50.1,50.1 0 0 1 -11.84,25.83 c 3,9.85 15.11,13.66 23.77,16.42 5.3,1.69 9.32,3.07 9.32,5.09 0,1.27 -1.59,3.07 -5.62,3.07 -9.54,0 -19.5,-4.45 -24.37,-10.81 l -12.72,15.26 c 7,8.37 20.35,13.77 35.39,13.77 18.23,0 29.88,-10.91 29.88,-25.75 0,-13.35 -14.41,-18.12 -24.48,-21.41"
     id="path36"
     inkscape:connector-curvature="0"
     style="fill:#0060a8" />
</svg>
