<?xml version="1.0" encoding="UTF-8" standalone="no"?>
<svg xmlns="http://www.w3.org/2000/svg" width="515.8599990844726mm" height="630.0599749376883mm" viewBox="-10 -610 515.8599990844726 630.0599749376883">
    <polyline points="0,0 425,0 425,-600 0,-600 0,0"  stroke="rgb(0,0,0)" stroke-width="0.1" fill="none"/>
    <g id="LM2">
        <path id="op_2D_Profile25-39-0" fill="none" stroke="rgb(0,0,255)" stroke-width="0.1" d=" M456.372 -101.281A 1.543 1.543 0 0 1 457.497 -99.781A 1.495 1.495 0 0 1 456.009 -98.279A 1.495 1.495 0 0 1 455.209 -98.506 L450.747 -101.281 L450.747 -98.281 M450.747 -103.531 L450.747 -106.531 L457.497 -106.531 M450.747 -113.281 L457.497 -113.281 L453.747 -111.031 L457.497 -108.781 L450.747 -108.781"/>
        <path id="op_2D_Profile26-40-1" fill="none" stroke="rgb(255,0,0)" stroke-width="0.1" d=" M461.86 -115.384 L461.86 -114.786 L461.86 -114.666 L471.74 -114.666 L471.74 -117.346 L461.86 -117.346 L461.86 -115.384 z M455.022 -57.123 L455.62 -57.123 L455.74 -57.123 L455.74 -67.003 L453.06 -67.003 L453.06 -57.123 L455.022 -57.123 z M455.74 -46.525 L455.74 -47.003 L453.06 -47.003 L453.06 -37.123 L455.74 -37.123 L455.74 -46.525 z M462.338 -6.46 L461.86 -6.46 L461.86 -3.78 L471.74 -3.78 L471.74 -6.46 L462.338 -6.46 z M461.86 0.06 L447.8 0.06A 0.06 0.06 0 0 1 447.74 0 L447.74 -5.503 L445 -5.503A 0.06 0.06 0 0 1 444.94 -5.563 L444.94 -15.563A 0.06 0.06 0 0 1 445 -15.623 L447.74 -15.623 L447.74 -35.503 L445 -35.503A 0.06 0.06 0 0 1 444.94 -35.563 L444.94 -45.563A 0.06 0.06 0 0 1 445 -45.623 L447.74 -45.623 L447.74 -75.503 L445 -75.503A 0.06 0.06 0 0 1 444.94 -75.563 L444.94 -85.563A 0.06 0.06 0 0 1 445 -85.623 L447.74 -85.623 L447.74 -102.703 L445 -102.703A 0.06 0.06 0 0 1 444.94 -102.763 L444.94 -115.563A 0.06 0.06 0 0 1 445 -115.623 L447.74 -115.623 L447.74 -121.126A 0.06 0.06 0 0 1 447.8 -121.186 L485.8 -121.186A 0.06 0.06 0 0 1 485.86 -121.126 L485.86 -113.306A 0.06 0.06 0 0 1 485.8 -113.246 L461.8 -113.246A 1.94 1.94 0 0 0 459.86 -111.306 L459.86 -83.063A 1.94 1.94 0 0 0 461.8 -81.123 L472.8 -81.123A 0.06 0.06 0 0 1 472.86 -81.063 L472.86 -74.863A 0.06 0.06 0 0 1 472.8 -74.803 L462.86 -74.803 L462.86 -72.123 L472.8 -72.123A 0.06 0.06 0 0 1 472.86 -72.063 L472.86 -65.063A 0.06 0.06 0 0 1 472.8 -65.003 L461.8 -65.003A 1.94 1.94 0 0 0 459.86 -63.063 L459.86 -24.82A 1.94 1.94 0 0 0 461.8 -22.88 L472.8 -22.88A 0.06 0.06 0 0 1 472.86 -22.82 L472.86 -10.857 L476.814 -8.88 L485.8 -8.88A 0.06 0.06 0 0 1 485.86 -8.82 L485.86 0A 0.06 0.06 0 0 1 485.8 0.06 L461.86 0.06 z"/>
    </g>
</svg>

