<?xml version="1.0" encoding="UTF-8" standalone="no"?>
<svg xmlns="http://www.w3.org/2000/svg" width="665mm" height="630mm" viewBox="-10 -610 665 630">
    <polyline points="0,0 425,0 425,-600 0,-600 0,0"  stroke="rgb(0,0,0)" stroke-width="0.1" fill="none"/>
    <g id="Setup3">
        <path id="op_2D_Profile4-8-0" fill="none" stroke="rgb(255,0,0)" stroke-width="0.1" d=" M509.73 -110.96 L512.29 -110.96 L512.29 -118.84 L509.61 -118.84 L509.61 -110.96 L509.73 -110.96 z M509.61 -108.52 L509.61 -100.76 L512.29 -100.76 L512.29 -108.64 L509.61 -108.64 L509.61 -108.52 z M500.22 -108.44 L493.46 -108.44 L493.46 -104.56 L500.34 -104.56 L500.34 -108.44 L500.22 -108.44 z M499.22 -131.14 L476.61 -131.14 L476.61 -121.26 L499.34 -121.26 L499.34 -131.14 L499.22 -131.14 z M500.34 -136.58 L500.34 -140.34 L493.4 -140.34A 0.06 0.06 0 0 1 493.34 -140.4 L493.34 -149.94 L490.66 -149.94 L490.66 -140.06 L493.4 -140.06A 0.06 0.06 0 0 1 493.46 -140 L493.46 -136.46 L500.34 -136.46 L500.34 -136.58 z M509.61 -132.94 L509.61 -126.06 L512.29 -126.06 L512.29 -133.94 L509.61 -133.94 L509.61 -132.94 z M522.597 -127.27 L522.597 -117.51 L530.476 -117.51 L530.476 -127.39 L522.597 -127.39 L522.597 -127.27 z M551.61 -136.46 L575.49 -136.46 L575.49 -147.34 L530.61 -147.34 L530.61 -136.46 L551.61 -136.46 z M559.43 -126.06 L561.99 -126.06 L561.99 -133.94 L559.31 -133.94 L559.31 -126.06 L559.43 -126.06 z M559.43 -110.96 L561.99 -110.96 L561.99 -118.84 L559.31 -118.84 L559.31 -110.96 L559.43 -110.96 z M559.31 -108.52 L559.31 -100.76 L561.99 -100.76 L561.99 -108.64 L559.31 -108.64 L559.31 -108.52 z M549.915 -108.546 L549.915 -104.786 L555.795 -104.786 L555.795 -108.666 L549.915 -108.666 L549.915 -108.546 z M539.747 -104.81 L539.747 -108.57 L533.867 -108.57 L533.867 -104.69 L539.747 -104.69 L539.747 -104.81 z M493.34 -51.06 L493.34 -62.74 L490.66 -62.74 L490.66 -50.06 L493.34 -50.06 L493.34 -51.06 z M481.275 -39.19A 2.19 2.19 0 0 0 479.085 -37A 2.19 2.19 0 0 0 481.275 -34.81A 2.19 2.19 0 0 0 483.465 -37A 2.19 2.19 0 0 0 481.275 -39.19 z M471.54 -62.62 L471.54 -62.74 L468.86 -62.74 L468.86 -50.06 L471.54 -50.06 L471.54 -62.62 z M468.74 -129.82 L468.74 -129.94 L456.86 -129.94 L456.86 -70.06 L468.74 -70.06 L468.74 -129.82 z M471.54 -140.18 L471.54 -149.94 L468.86 -149.94 L468.86 -140.06 L471.54 -140.06 L471.54 -140.18 z M482.241 -161.034A 2.19 2.19 0 0 0 483.241 -163.966A 2.19 2.19 0 0 0 480.309 -164.966A 2.19 2.19 0 0 0 479.309 -162.034A 2.19 2.19 0 0 0 482.241 -161.034 z M531.49 -179.4 L531.49 -181.34 L529.41 -181.34 L529.41 -165.4A 0.06 0.06 0 0 1 529.35 -165.34 L514.51 -165.34 L514.51 -160.06 L534.39 -160.06 L534.39 -165.34 L531.55 -165.34A 0.06 0.06 0 0 1 531.49 -165.4 L531.49 -179.4 z M535.03 -180.96 L575.43 -180.96 L575.43 -187.84 L534.91 -187.84 L534.91 -180.96 L535.03 -180.96 z M576.61 -160.06 L577.69 -160.06 L577.69 -175.94 L575.61 -175.94 L575.61 -165.4A 0.06 0.06 0 0 1 575.55 -165.34 L555.61 -165.34 L555.61 -160.06 L576.61 -160.06 z M596.66 -149.82 L596.66 -140.06 L599.34 -140.06 L599.34 -149.94 L596.66 -149.94 L596.66 -149.82 z M608.725 -160.81A 2.19 2.19 0 0 0 610.915 -163A 2.19 2.19 0 0 0 608.725 -165.19A 2.19 2.19 0 0 0 606.535 -163A 2.19 2.19 0 0 0 608.725 -160.81 z M618.46 -140.18 L618.46 -140.06 L621.14 -140.06 L621.14 -149.94 L618.46 -149.94 L618.46 -140.18 z M621.26 -70.18 L621.26 -70.06 L633.14 -70.06 L633.14 -129.94 L621.26 -129.94 L621.26 -70.18 z M618.46 -62.62 L618.46 -50.06 L621.14 -50.06 L621.14 -62.74 L618.46 -62.74 L618.46 -62.62 z M608.725 -39.19A 2.19 2.19 0 0 0 606.535 -37A 2.19 2.19 0 0 0 608.725 -34.81A 2.19 2.19 0 0 0 610.915 -37A 2.19 2.19 0 0 0 608.725 -39.19 z M599.34 -50.18 L599.34 -62.74 L596.66 -62.74 L596.66 -50.06 L599.34 -50.06 L599.34 -50.18 z M618.754 -32.381A 100.06 100.06 0 0 1 477.381 -26.246A 100.06 100.06 0 0 1 471.246 -167.619A 100.06 100.06 0 0 1 612.619 -173.754A 100.06 100.06 0 0 1 618.754 -32.381 z"/>
        <path id="op_2D_Profile5-9-1" fill="none" stroke="rgb(0,0,255)" stroke-width="0.1" d=" M542.205 -146.992 L542.205 -149.992 L542.205 -153.742 L544.08 -153.742A 1.875 1.875 0 0 1 545.955 -151.867A 1.875 1.875 0 0 1 544.08 -149.992 L542.205 -149.992 M548.205 -152.242 L549.705 -153.742 L549.705 -146.992"/>
        <path id="op_2D_Profile33-52-2" fill="rgb(0,255,255)" stroke="none" stroke-width="0.1" d=" M516.156 -67.321 L511.977 -71.507 L507.595 -67.114 L516.363 -67.114 L516.156 -67.321 z M516.718 -67.19 L516.575 -67.031 L516.582 -62.828A 0.06 0.06 0 0 1 516.564 -62.785A 0.06 0.06 0 0 1 516.522 -62.768 L514.362 -62.768A 0.06 0.06 0 0 1 514.302 -62.825A 2.316 2.316 0 0 0 511.993 -65.147A 2.316 2.316 0 0 0 510.349 -64.469A 2.316 2.316 0 0 0 509.67 -62.825A 0.06 0.06 0 0 1 509.61 -62.768 L507.451 -62.768A 0.06 0.06 0 0 1 507.39 -62.828 L507.39 -67.03A 3.265 3.265 0 0 1 507.407 -71.648A 3.265 3.265 0 0 1 511.98 -71.676A 3.266 3.266 0 0 1 516.597 -71.591A 3.266 3.266 0 0 1 516.718 -67.19 z M522.544 -65.83A 0.06 0.06 0 0 1 522.484 -65.89 L522.484 -72.741A 0.06 0.06 0 0 1 522.544 -72.801 L524.08 -72.801A 0.06 0.06 0 0 1 524.14 -72.741 L524.14 -70.168 L526.557 -70.168 L526.557 -72.741A 0.06 0.06 0 0 1 526.617 -72.801 L528.153 -72.801A 0.06 0.06 0 0 1 528.213 -72.741 L528.213 -65.89A 0.06 0.06 0 0 1 528.153 -65.83 L526.617 -65.83A 0.06 0.06 0 0 1 526.557 -65.89 L526.557 -68.696 L524.14 -68.696 L524.14 -65.89A 0.06 0.06 0 0 1 524.08 -65.83 L522.544 -65.83 z M526.762 -64.284 L526.743 -64.377A 0.06 0.06 0 0 1 526.743 -64.401 L526.765 -64.512A 0.06 0.06 0 0 1 526.774 -64.535 L526.837 -64.627A 0.06 0.06 0 0 1 526.855 -64.644 L526.955 -64.706A 0.06 0.06 0 0 1 526.976 -64.714A 0.442 0.442 0 0 1 527.259 -64.714A 0.06 0.06 0 0 1 527.28 -64.706 L527.378 -64.645A 0.06 0.06 0 0 1 527.395 -64.628 L527.457 -64.536A 0.06 0.06 0 0 1 527.467 -64.514 L527.488 -64.4A 0.06 0.06 0 0 1 527.488 -64.377 L527.465 -64.266A 0.06 0.06 0 0 1 527.455 -64.243 L527.391 -64.154A 0.06 0.06 0 0 1 527.373 -64.138 L527.274 -64.079A 0.06 0.06 0 0 1 527.253 -64.072A 0.442 0.442 0 0 1 526.978 -64.072A 0.06 0.06 0 0 1 526.957 -64.08 L526.858 -64.139A 0.06 0.06 0 0 1 526.84 -64.156 L526.776 -64.244A 0.06 0.06 0 0 1 526.766 -64.267 L526.762 -64.284 z M526.331 -64.109 L526.609 -64.109A 0.06 0.06 0 0 1 526.669 -64.049 L526.669 -62.781A 0.701 0.701 0 0 0 526.857 -62.235A 0.443 0.443 0 0 0 527.472 -62.353A 0.443 0.443 0 0 0 527.548 -62.623 L527.562 -62.781 L527.562 -64.049A 0.06 0.06 0 0 1 527.622 -64.109 L527.9 -64.109A 0.06 0.06 0 0 1 527.96 -64.049 L527.96 -62.799A 1.072 1.072 0 0 1 527.71 -62.042A 0.906 0.906 0 0 1 526.498 -62.043A 1.105 1.105 0 0 1 526.274 -62.789 L526.271 -64.049A 0.06 0.06 0 0 1 526.331 -64.109 z M523.967 -63.356A 0.64 0.64 0 0 0 523.415 -63.77 L523.22 -63.786 L523.04 -63.778 L522.959 -63.766 L522.959 -62.181A 1.164 1.164 0 0 0 523.691 -62.299A 0.813 0.813 0 0 0 524.022 -63.021 L524.011 -63.192 L523.974 -63.343 L523.967 -63.356 z M524.362 -63.455A 1.308 1.308 0 0 1 524.106 -62.148A 1.387 1.387 0 0 1 523.122 -61.835 L522.85 -61.838 L522.846 -61.838 L522.62 -61.857A 0.06 0.06 0 0 1 522.565 -61.916 L522.565 -64.018A 0.06 0.06 0 0 1 522.617 -64.077A 2.607 2.607 0 0 1 523.741 -64.054A 0.93 0.93 0 0 1 524.362 -63.455 z M533.841 -65.83 L529.506 -65.83A 0.06 0.06 0 0 1 529.446 -65.89 L529.446 -72.741A 0.06 0.06 0 0 1 529.506 -72.801 L533.699 -72.801A 0.06 0.06 0 0 1 533.759 -72.741 L533.759 -71.47A 0.06 0.06 0 0 1 533.699 -71.41 L531.102 -71.41 L531.102 -70.107 L533.547 -70.107A 0.06 0.06 0 0 1 533.608 -70.047 L533.608 -68.787A 0.06 0.06 0 0 1 533.547 -68.727 L531.102 -68.727 L531.102 -67.22 L533.841 -67.22A 0.06 0.06 0 0 1 533.901 -67.16 L533.901 -65.89A 0.06 0.06 0 0 1 533.841 -65.83 z M537.497 -67.251 L539.145 -67.251A 0.06 0.06 0 0 1 539.205 -67.191 L539.205 -65.89A 0.06 0.06 0 0 1 539.145 -65.83 L534.901 -65.83A 0.06 0.06 0 0 1 534.841 -65.89 L534.841 -72.741A 0.06 0.06 0 0 1 534.901 -72.801 L536.437 -72.801A 0.06 0.06 0 0 1 536.497 -72.741 L536.497 -67.251 L537.497 -67.251 z M544.163 -67.262 L544.42 -67.349A 0.06 0.06 0 0 1 544.47 -67.344A 0.06 0.06 0 0 1 544.498 -67.303 L544.721 -66.083A 0.06 0.06 0 0 1 544.685 -66.017A 4.817 4.817 0 0 1 542.489 -65.741A 3.487 3.487 0 0 1 540.208 -66.721A 3.499 3.499 0 0 1 539.303 -69.216A 3.666 3.666 0 0 1 540.157 -71.705A 3.699 3.699 0 0 1 542.691 -72.882A 4.708 4.708 0 0 1 544.663 -72.654 L544.779 -72.592A 0.06 0.06 0 0 1 544.811 -72.522 L544.487 -71.303A 0.06 0.06 0 0 1 544.457 -71.265A 0.06 0.06 0 0 1 544.408 -71.262A 2.984 2.984 0 0 0 542.12 -71.306A 1.968 1.968 0 0 0 541.053 -69.577A 2.378 2.378 0 0 0 541.585 -67.709A 2.131 2.131 0 0 0 543.146 -67.133A 3.682 3.682 0 0 0 544.163 -67.262 z M550.027 -67.22A 0.06 0.06 0 0 1 550.087 -67.16 L550.087 -65.89A 0.06 0.06 0 0 1 550.027 -65.83 L545.691 -65.83A 0.06 0.06 0 0 1 545.631 -65.89 L545.631 -72.741A 0.06 0.06 0 0 1 545.691 -72.801 L549.885 -72.801A 0.06 0.06 0 0 1 549.945 -72.741 L549.945 -71.47A 0.06 0.06 0 0 1 549.885 -71.41 L547.287 -71.41 L547.287 -70.107 L549.734 -70.107A 0.06 0.06 0 0 1 549.794 -70.047 L549.794 -68.787A 0.06 0.06 0 0 1 549.734 -68.727 L547.287 -68.727 L547.287 -67.22 L550.027 -67.22 z M555.391 -67.191 L555.391 -65.89A 0.06 0.06 0 0 1 555.331 -65.83 L551.087 -65.83A 0.06 0.06 0 0 1 551.027 -65.89 L551.027 -72.741A 0.06 0.06 0 0 1 551.087 -72.801 L552.623 -72.801A 0.06 0.06 0 0 1 552.683 -72.741 L552.683 -67.251 L555.331 -67.251A 0.06 0.06 0 0 1 555.391 -67.191 z M556.19 -67.89 L556.19 -72.741A 0.06 0.06 0 0 1 556.25 -72.801 L560.443 -72.801A 0.06 0.06 0 0 1 560.503 -72.741 L560.503 -71.47A 0.06 0.06 0 0 1 560.443 -71.41 L557.846 -71.41 L557.846 -70.107 L560.292 -70.107A 0.06 0.06 0 0 1 560.352 -70.047 L560.352 -68.787A 0.06 0.06 0 0 1 560.292 -68.727 L557.846 -68.727 L557.846 -67.22 L560.585 -67.22A 0.06 0.06 0 0 1 560.645 -67.16 L560.645 -65.89A 0.06 0.06 0 0 1 560.585 -65.83 L556.25 -65.83A 0.06 0.06 0 0 1 556.19 -65.89 L556.19 -67.89 z M562.949 -67.89 L562.949 -71.38 L561.17 -71.38A 0.06 0.06 0 0 1 561.11 -71.44 L561.11 -72.741A 0.06 0.06 0 0 1 561.17 -72.801 L566.404 -72.801A 0.06 0.06 0 0 1 566.464 -72.741 L566.464 -71.44A 0.06 0.06 0 0 1 566.404 -71.38 L564.605 -71.38 L564.605 -65.89A 0.06 0.06 0 0 1 564.545 -65.83 L563.009 -65.83A 0.06 0.06 0 0 1 562.949 -65.89 L562.949 -67.89 z M569.469 -68.47 L569.315 -68.741 L568.808 -68.105 L568.808 -65.89A 0.06 0.06 0 0 1 568.748 -65.83 L567.222 -65.83A 0.06 0.06 0 0 1 567.162 -65.89 L567.162 -72.741A 0.06 0.06 0 0 1 567.222 -72.801 L568.748 -72.801A 0.06 0.06 0 0 1 568.808 -72.741 L568.808 -69.887 L569.192 -70.496 L569.193 -70.497 L570.729 -72.774A 0.06 0.06 0 0 1 570.779 -72.801 L572.679 -72.801A 0.06 0.06 0 0 1 572.739 -72.741A 0.06 0.06 0 0 1 572.726 -72.704 L570.498 -69.819 L572.841 -65.921A 0.06 0.06 0 0 1 572.82 -65.839A 0.06 0.06 0 0 1 572.789 -65.83 L571.001 -65.83A 0.06 0.06 0 0 1 570.949 -65.86 L569.469 -68.47 z M575.61 -68.867 L576.791 -68.867A 46.659 46.659 0 0 1 576.093 -71.369A 31.478 31.478 0 0 1 575.445 -68.867 L575.61 -68.867 z M575.38 -67.589 L575.189 -67.589 L574.716 -65.874A 0.06 0.06 0 0 1 574.658 -65.83 L573.072 -65.83A 0.06 0.06 0 0 1 573.012 -65.89A 0.06 0.06 0 0 1 573.014 -65.907 L575.086 -72.758A 0.06 0.06 0 0 1 575.143 -72.801 L577.164 -72.801A 0.06 0.06 0 0 1 577.222 -72.759 L579.344 -65.908A 0.06 0.06 0 0 1 579.304 -65.833A 0.06 0.06 0 0 1 579.286 -65.83 L577.619 -65.83A 0.06 0.06 0 0 1 577.562 -65.873 L577.049 -67.589 L575.38 -67.589 z M574.841 -64.585 L575.075 -64.585A 0.06 0.06 0 0 1 575.119 -64.566 L575.277 -64.394 L575.438 -64.566A 0.06 0.06 0 0 1 575.482 -64.585 L575.706 -64.585A 0.06 0.06 0 0 1 575.766 -64.525A 0.06 0.06 0 0 1 575.75 -64.485 L575.426 -64.123A 0.06 0.06 0 0 1 575.407 -64.109 L576.003 -64.109A 0.06 0.06 0 0 1 576.063 -64.049 L576.063 -63.881A 0.06 0.06 0 0 1 576.052 -63.847 L574.941 -62.21 L576.019 -62.201A 0.06 0.06 0 0 1 576.079 -62.141 L576.079 -61.91A 0.06 0.06 0 0 1 576.018 -61.85 L574.466 -61.85A 0.06 0.06 0 0 1 574.406 -61.91 L574.406 -62.072A 0.06 0.06 0 0 1 574.416 -62.105 L575.53 -63.749 L574.566 -63.757A 0.06 0.06 0 0 1 574.507 -63.817 L574.507 -64.049A 0.06 0.06 0 0 1 574.567 -64.109 L575.147 -64.109A 0.06 0.06 0 0 1 575.128 -64.123 L574.797 -64.484A 0.06 0.06 0 0 1 574.801 -64.569A 0.06 0.06 0 0 1 574.841 -64.585 z M572.659 -64.049 L572.659 -63.817A 0.06 0.06 0 0 1 572.599 -63.757 L571.785 -63.757 L571.785 -63.201 L572.549 -63.201A 0.06 0.06 0 0 1 572.608 -63.141 L572.608 -62.913A 0.06 0.06 0 0 1 572.549 -62.853 L571.785 -62.853 L571.785 -62.201 L572.646 -62.201A 0.06 0.06 0 0 1 572.706 -62.141 L572.706 -61.91A 0.06 0.06 0 0 1 572.646 -61.85 L571.447 -61.85A 0.06 0.06 0 0 1 571.387 -61.91 L571.387 -64.049A 0.06 0.06 0 0 1 571.447 -64.109 L572.599 -64.109A 0.06 0.06 0 0 1 572.659 -64.049 z M569.02 -63.484A 0.774 0.774 0 0 0 568.336 -63.786 L568.156 -63.778 L568.075 -63.766 L568.075 -62.181A 1.164 1.164 0 0 0 568.806 -62.299A 0.813 0.813 0 0 0 569.138 -63.021A 0.777 0.777 0 0 0 569.02 -63.484 z M567.681 -63.326 L567.681 -64.018A 0.06 0.06 0 0 1 567.733 -64.077A 2.605 2.605 0 0 1 568.857 -64.054A 0.998 0.998 0 0 1 569.545 -63.026A 1.135 1.135 0 0 1 569.044 -62.011A 1.917 1.917 0 0 1 567.963 -61.841 L567.736 -61.857A 0.06 0.06 0 0 1 567.681 -61.916 L567.681 -63.326 z M565.105 -63.022 L564.977 -63.395 L564.976 -63.398 L564.923 -63.588 L564.868 -63.401 L564.867 -63.399 L564.685 -62.859 L565.161 -62.859 L565.105 -63.022 z M564.347 -63.001 L564.709 -64.068A 0.06 0.06 0 0 1 564.748 -64.106A 0.06 0.06 0 0 1 564.709 -64.182A 0.06 0.06 0 0 1 564.719 -64.201 L565.012 -64.572A 0.06 0.06 0 0 1 565.059 -64.595 L565.394 -64.595A 0.06 0.06 0 0 1 565.454 -64.535A 0.06 0.06 0 0 1 565.434 -64.491 L565.031 -64.119 L565.026 -64.115 L565.021 -64.112 L565.015 -64.109 L565.094 -64.109A 0.06 0.06 0 0 1 565.151 -64.068 L565.877 -61.929A 0.06 0.06 0 0 1 565.839 -61.853A 0.06 0.06 0 0 1 565.82 -61.85 L565.526 -61.85A 0.06 0.06 0 0 1 565.469 -61.891 L565.256 -62.523 L564.588 -62.523 L564.381 -61.891A 0.06 0.06 0 0 1 564.324 -61.85 L564.04 -61.85A 0.06 0.06 0 0 1 563.98 -61.91A 0.06 0.06 0 0 1 563.983 -61.929 L564.347 -63.001 z M561.041 -62.91 L561.041 -64.049A 0.06 0.06 0 0 1 561.101 -64.109 L561.378 -64.109A 0.06 0.06 0 0 1 561.438 -64.049 L561.438 -62.201 L562.287 -62.201A 0.06 0.06 0 0 1 562.347 -62.141 L562.347 -61.91A 0.06 0.06 0 0 1 562.287 -61.85 L561.101 -61.85A 0.06 0.06 0 0 1 561.041 -61.91 L561.041 -62.91 z M556.91 -62.912 L556.99 -64.053A 0.06 0.06 0 0 1 557.05 -64.109 L557.4 -64.109A 0.06 0.06 0 0 1 557.456 -64.069A 20.976 20.976 0 0 1 557.982 -62.507A 21.913 21.913 0 0 1 558.533 -64.07A 0.06 0.06 0 0 1 558.59 -64.109 L558.939 -64.109A 0.06 0.06 0 0 1 558.999 -64.053 L559.132 -61.914A 0.06 0.06 0 0 1 559.116 -61.869A 0.06 0.06 0 0 1 559.072 -61.85 L558.801 -61.85A 0.06 0.06 0 0 1 558.741 -61.907 L558.69 -62.846 L558.667 -63.321 L558.663 -63.425 L558.644 -63.366 L558.498 -62.941 L558.122 -61.902A 0.06 0.06 0 0 1 558.066 -61.863 L557.857 -61.863A 0.06 0.06 0 0 1 557.8 -61.903A 24.627 24.627 0 0 1 557.308 -63.388 L557.305 -63.319 L557.28 -62.824 L557.223 -61.906A 0.06 0.06 0 0 1 557.163 -61.85 L556.901 -61.85A 0.06 0.06 0 0 1 556.857 -61.869A 0.06 0.06 0 0 1 556.841 -61.914 L556.91 -62.912 z M551.749 -63.223 L551.626 -62.859 L552.103 -62.859 L551.918 -63.395 L551.917 -63.398 L551.864 -63.588 L551.809 -63.401 L551.808 -63.398 L551.749 -63.223 z M551.379 -63.271 L551.65 -64.068A 0.06 0.06 0 0 1 551.707 -64.109 L552.035 -64.109A 0.06 0.06 0 0 1 552.092 -64.068 L552.818 -61.929A 0.06 0.06 0 0 1 552.78 -61.853A 0.06 0.06 0 0 1 552.761 -61.85 L552.467 -61.85A 0.06 0.06 0 0 1 552.411 -61.891 L552.197 -62.523 L551.529 -62.523 L551.322 -61.891A 0.06 0.06 0 0 1 551.265 -61.85 L550.981 -61.85A 0.06 0.06 0 0 1 550.921 -61.91A 0.06 0.06 0 0 1 550.924 -61.929 L551.379 -63.271 z M546.441 -63.91 L546.441 -64.049A 0.06 0.06 0 0 1 546.475 -64.104A 0.06 0.06 0 0 1 546.415 -64.164A 0.06 0.06 0 0 1 546.428 -64.201 L546.722 -64.572A 0.06 0.06 0 0 1 546.769 -64.595 L547.103 -64.595A 0.06 0.06 0 0 1 547.163 -64.535A 0.06 0.06 0 0 1 547.144 -64.491 L546.74 -64.119 L546.735 -64.115 L546.731 -64.112 L546.725 -64.109 L546.778 -64.109A 0.06 0.06 0 0 1 546.838 -64.049 L546.838 -61.91A 0.06 0.06 0 0 1 546.778 -61.85 L546.501 -61.85A 0.06 0.06 0 0 1 546.441 -61.91 L546.441 -63.91 z M543.025 -63.814 L543.025 -64.049A 0.06 0.06 0 0 1 543.085 -64.109 L544.659 -64.109A 0.06 0.06 0 0 1 544.719 -64.049 L544.719 -63.814A 0.06 0.06 0 0 1 544.659 -63.755 L544.069 -63.755 L544.069 -61.91A 0.06 0.06 0 0 1 544.009 -61.85 L543.732 -61.85A 0.06 0.06 0 0 1 543.672 -61.91 L543.672 -63.755 L543.085 -63.755A 0.06 0.06 0 0 1 543.025 -63.814 z M541.265 -63.757 L540.451 -63.757 L540.451 -63.201 L541.215 -63.201A 0.06 0.06 0 0 1 541.275 -63.141 L541.275 -62.913A 0.06 0.06 0 0 1 541.215 -62.853 L540.451 -62.853 L540.451 -62.201 L541.312 -62.201A 0.06 0.06 0 0 1 541.372 -62.141 L541.372 -61.91A 0.06 0.06 0 0 1 541.312 -61.85 L540.113 -61.85A 0.06 0.06 0 0 1 540.053 -61.91 L540.053 -64.049A 0.06 0.06 0 0 1 540.113 -64.109 L540.558 -64.109A 0.06 0.06 0 0 1 540.539 -64.123 L540.208 -64.484A 0.06 0.06 0 0 1 540.212 -64.569A 0.06 0.06 0 0 1 540.252 -64.585 L540.486 -64.585A 0.06 0.06 0 0 1 540.53 -64.566 L540.688 -64.394 L540.849 -64.566A 0.06 0.06 0 0 1 540.893 -64.585 L541.116 -64.585A 0.06 0.06 0 0 1 541.176 -64.525A 0.06 0.06 0 0 1 541.161 -64.485 L540.84 -64.124A 0.06 0.06 0 0 1 540.821 -64.109 L541.265 -64.109A 0.06 0.06 0 0 1 541.325 -64.049 L541.325 -63.817A 0.06 0.06 0 0 1 541.265 -63.757 z M537.598 -63.589A 0.999 0.999 0 0 0 536.822 -63.778 L536.741 -63.766 L536.741 -62.181A 1.164 1.164 0 0 0 537.472 -62.299A 0.813 0.813 0 0 0 537.804 -63.021A 0.758 0.758 0 0 0 537.599 -63.591 M536.347 -63.193 L536.347 -64.018A 0.06 0.06 0 0 1 536.399 -64.077A 2.606 2.606 0 0 1 537.523 -64.054A 0.997 0.997 0 0 1 538.211 -63.026A 1.134 1.134 0 0 1 537.71 -62.011A 1.921 1.921 0 0 1 536.629 -61.841 L536.402 -61.857A 0.06 0.06 0 0 1 536.347 -61.916 L536.347 -63.193 z M532.099 -61.85 L531.827 -61.85A 0.06 0.06 0 0 1 531.767 -61.907 L531.717 -62.846 L531.694 -63.321 L531.69 -63.425 L531.67 -63.366 L531.524 -62.941 L531.148 -61.902A 0.06 0.06 0 0 1 531.092 -61.863 L530.884 -61.863A 0.06 0.06 0 0 1 530.827 -61.903A 24.59 24.59 0 0 1 530.335 -63.389 L530.332 -63.319 L530.306 -62.824 L530.249 -61.906A 0.06 0.06 0 0 1 530.189 -61.85 L529.928 -61.85A 0.06 0.06 0 0 1 529.884 -61.869A 0.06 0.06 0 0 1 529.868 -61.914 L530.016 -64.053A 0.06 0.06 0 0 1 530.076 -64.109 L530.426 -64.109A 0.06 0.06 0 0 1 530.483 -64.069A 20.962 20.962 0 0 1 531.009 -62.507A 21.824 21.824 0 0 1 531.56 -64.07A 0.06 0.06 0 0 1 531.616 -64.109 L531.966 -64.109A 0.06 0.06 0 0 1 532.026 -64.053 L532.158 -61.914A 0.06 0.06 0 0 1 532.142 -61.869A 0.06 0.06 0 0 1 532.099 -61.85 z M528.145 -51.253 L528.145 -44.29A 0.06 0.06 0 0 1 528.085 -44.23 L525.939 -44.23A 0.06 0.06 0 0 1 525.879 -44.29 L525.879 -47.402 L524.314 -47.402 L524.314 -44.29A 0.06 0.06 0 0 1 524.254 -44.23 L522.095 -44.23A 0.06 0.06 0 0 1 522.035 -44.29 L522.035 -51.253A 0.06 0.06 0 0 1 522.095 -51.313 L524.254 -51.313A 0.06 0.06 0 0 1 524.314 -51.253 L524.314 -48.417 L525.879 -48.417 L525.879 -51.253A 0.06 0.06 0 0 1 525.939 -51.313 L528.085 -51.313A 0.06 0.06 0 0 1 528.145 -51.253 z M531.657 -48.84A 0.392 0.392 0 0 0 531.266 -48.702A 1.421 1.421 0 0 0 530.939 -47.832A 23.897 23.897 0 0 0 530.943 -45.725A 1.306 1.306 0 0 0 531.34 -44.877A 0.411 0.411 0 0 0 531.665 -44.811A 0.411 0.411 0 0 0 531.933 -45.007A 1.752 1.752 0 0 0 532.227 -46.094A 27.829 27.829 0 0 0 532.223 -47.527 L532.227 -47.546 L532.236 -47.564A 2.02 2.02 0 0 0 532.036 -48.526 L531.912 -48.69 L531.757 -48.807 L531.672 -48.838 L531.657 -48.84 z M533.867 -48.674A 2.773 2.773 0 0 1 534.145 -48.283A 0.06 0.06 0 0 1 534.181 -48.252A 3.025 3.025 0 0 1 534.334 -45.777A 2.456 2.456 0 0 1 532.412 -44.124A 3.948 3.948 0 0 1 530.159 -44.32A 2.44 2.44 0 0 1 529.743 -44.574A 2.962 2.962 0 0 1 528.905 -45.58A 3.121 3.121 0 0 1 528.935 -48.169A 2.707 2.707 0 0 1 531.152 -49.56A 3.333 3.333 0 0 1 532.784 -49.403A 2.855 2.855 0 0 1 533.715 -48.84 L533.867 -48.674 z M538.204 -48.347 L538.13 -48.402 L537.974 -48.447 L537.785 -48.446A 1.103 1.103 0 0 0 537.106 -47.943 L537.109 -44.303A 0.06 0.06 0 0 1 537.049 -44.243 L535.048 -44.243A 0.06 0.06 0 0 1 534.988 -44.303 L534.988 -49.384A 0.06 0.06 0 0 1 535.048 -49.444 L537.049 -49.444A 0.06 0.06 0 0 1 537.109 -49.384 L537.109 -48.863A 1.977 1.977 0 0 1 538.528 -49.562A 2.058 2.058 0 0 1 539.582 -49.414 L539.599 -49.405 L539.612 -49.392A 1.421 1.421 0 0 1 540.465 -48.16 L540.466 -44.29A 0.06 0.06 0 0 1 540.406 -44.23 L538.431 -44.23A 0.06 0.06 0 0 1 538.371 -44.29 L538.371 -47.83A 0.705 0.705 0 0 0 538.207 -48.35 M543.751 -48.836 L543.625 -48.78A 1.171 1.171 0 0 0 543.254 -47.92A 8.241 8.241 0 0 0 543.243 -47.285 L544.611 -47.285 L544.611 -47.622A 0.06 0.06 0 0 1 544.598 -47.655A 2.761 2.761 0 0 0 544.498 -48.391A 0.818 0.818 0 0 0 544.133 -48.83 L543.95 -48.863 L543.772 -48.846 L543.751 -48.836 z M546.158 -48.668A 1.977 1.977 0 0 1 546.445 -48.241A 0.06 0.06 0 0 1 546.476 -48.21A 3.343 3.343 0 0 1 546.798 -46.512 L546.789 -46.494 L546.775 -46.479 L546.757 -46.47 L546.738 -46.467 L543.217 -46.467 L543.217 -45.509A 0.752 0.752 0 0 0 543.807 -44.894A 2.018 2.018 0 0 0 545.108 -45.008A 0.935 0.935 0 0 0 545.649 -45.767 L545.658 -45.785 L545.673 -45.8 L545.691 -45.808 L545.711 -45.811 L546.566 -45.811A 0.06 0.06 0 0 1 546.611 -45.791A 0.06 0.06 0 0 1 546.626 -45.744A 1.344 1.344 0 0 1 545.91 -44.599A 3.264 3.264 0 0 1 543.919 -44.042A 2.861 2.861 0 0 1 541.773 -44.816A 2.778 2.778 0 0 1 541 -47.237A 2.5 2.5 0 0 1 541.974 -49.016A 3.141 3.141 0 0 1 544.005 -49.601A 3.42 3.42 0 0 1 545.542 -49.205A 2.239 2.239 0 0 1 546.16 -48.67 M549.141 -48.459 L549.662 -47.11 L550.605 -49.394A 0.06 0.06 0 0 1 550.66 -49.431 L553.411 -49.431A 0.06 0.06 0 0 1 553.469 -49.389 L554.29 -46.742 L555.012 -49.387A 0.06 0.06 0 0 1 555.07 -49.431 L556.821 -49.431A 0.06 0.06 0 0 1 556.878 -49.388 L557.686 -46.743 L558.406 -49.379 L558.406 -49.397A 0.06 0.06 0 0 1 558.466 -49.457 L559.375 -49.457A 0.06 0.06 0 0 1 559.435 -49.397A 0.06 0.06 0 0 1 559.432 -49.381 L558.037 -44.3A 0.06 0.06 0 0 1 557.979 -44.256 L556.321 -44.256A 0.06 0.06 0 0 1 556.263 -44.298 L555.403 -47.051 L554.654 -44.3A 0.06 0.06 0 0 1 554.596 -44.256 L552.898 -44.256A 0.06 0.06 0 0 1 552.841 -44.298 L551.389 -49.034 L549.334 -44.004A 3.907 3.907 0 0 1 548.82 -42.998A 2.062 2.062 0 0 1 547.999 -42.385A 1.735 1.735 0 0 1 546.345 -42.67A 1.043 1.043 0 0 1 546.301 -44.044A 1.025 1.025 0 0 1 547.615 -44.101A 0.945 0.945 0 0 1 547.807 -43.219 L547.727 -43.088 L547.724 -43.083 L547.72 -43.078 L547.701 -43.057A 0.455 0.455 0 0 0 548.05 -43.239A 1.831 1.831 0 0 0 548.506 -44.164 L546.484 -49.349A 0.06 0.06 0 0 1 546.518 -49.427A 0.06 0.06 0 0 1 546.54 -49.431 L548.725 -49.431A 0.06 0.06 0 0 1 548.781 -49.392 L549.141 -48.459 z M562.677 -48.5 L562.613 -48.603A 0.536 0.536 0 0 0 561.879 -48.792A 0.536 0.536 0 0 0 561.659 -48.543A 1.7 1.7 0 0 0 561.473 -47.651 L561.468 -47.401 L561.471 -47.302 L561.472 -47.285 L562.842 -47.285 L562.842 -47.622A 0.06 0.06 0 0 1 562.829 -47.655A 2.758 2.758 0 0 0 562.73 -48.391 L562.685 -48.487 L562.677 -48.5 z M564.603 -48.403 L564.717 -48.218A 0.06 0.06 0 0 1 564.725 -48.172A 3.01 3.01 0 0 1 565.025 -46.527 L565.023 -46.51 L565.016 -46.493 L565.003 -46.48 L564.987 -46.471 L564.969 -46.467 L561.462 -46.467 L561.462 -45.509A 0.752 0.752 0 0 0 562.052 -44.894A 2.018 2.018 0 0 0 563.353 -45.008A 0.935 0.935 0 0 0 563.894 -45.767 L563.903 -45.785 L563.918 -45.8 L563.936 -45.808 L563.955 -45.811 L564.811 -45.811A 0.06 0.06 0 0 1 564.856 -45.791A 0.06 0.06 0 0 1 564.871 -45.744A 1.344 1.344 0 0 1 564.155 -44.599A 3.264 3.264 0 0 1 562.163 -44.042A 2.861 2.861 0 0 1 560.018 -44.816A 2.777 2.777 0 0 1 559.245 -47.237A 2.5 2.5 0 0 1 560.219 -49.016A 3.141 3.141 0 0 1 562.25 -49.601A 3.433 3.433 0 0 1 563.788 -49.205A 2.375 2.375 0 0 1 564.605 -48.404 M567.556 -48.253 L567.556 -44.29A 0.06 0.06 0 0 1 567.497 -44.23 L565.575 -44.23A 0.06 0.06 0 0 1 565.515 -44.29 L565.515 -51.253A 0.06 0.06 0 0 1 565.575 -51.313 L567.497 -51.313A 0.06 0.06 0 0 1 567.556 -51.253 L567.556 -48.253 z M568.102 -44.23A 0.06 0.06 0 0 1 568.042 -44.29 L568.042 -51.253A 0.06 0.06 0 0 1 568.102 -51.313 L570.024 -51.313A 0.06 0.06 0 0 1 570.084 -51.253 L570.084 -44.29A 0.06 0.06 0 0 1 570.024 -44.23 L568.102 -44.23 z M568.675 -39.542 L568.675 -38.439 L568.933 -38.439A 0.06 0.06 0 0 1 568.967 -38.452A 0.432 0.432 0 0 0 569.303 -38.569A 0.432 0.432 0 0 0 569.437 -38.899A 0.953 0.953 0 0 0 569.341 -39.535A 0.417 0.417 0 0 0 569.008 -39.661 L568.675 -39.662 L568.675 -39.542 z M568.055 -39.546 L568.055 -40.13A 0.06 0.06 0 0 1 568.115 -40.19 L569.037 -40.19A 1.056 1.056 0 0 1 569.821 -39.921A 1.224 1.224 0 0 1 570.068 -39.073A 1.236 1.236 0 0 1 569.802 -38.211A 1.052 1.052 0 0 1 568.997 -37.928 L568.115 -37.924A 0.06 0.06 0 0 1 568.055 -37.984 L568.055 -39.546 z M566.411 -39.555 L566.411 -39.334 L567.352 -39.334A 0.06 0.06 0 0 1 567.412 -39.274 L567.412 -38.866A 0.06 0.06 0 0 1 567.352 -38.806 L566.411 -38.806 L566.411 -38.439 L567.536 -38.439A 0.06 0.06 0 0 1 567.596 -38.379 L567.596 -37.984A 0.06 0.06 0 0 1 567.536 -37.924 L565.864 -37.924A 0.06 0.06 0 0 1 565.804 -37.984 L565.804 -40.143A 0.06 0.06 0 0 1 565.864 -40.203 L567.51 -40.203A 0.06 0.06 0 0 1 567.57 -40.143 L567.57 -39.735A 0.06 0.06 0 0 1 567.51 -39.675 L566.411 -39.675 L566.411 -39.555 z M563.973 -39.649 L563.495 -39.649A 0.06 0.06 0 0 1 563.435 -39.709 L563.435 -40.143A 0.06 0.06 0 0 1 563.495 -40.203 L565.311 -40.203A 0.06 0.06 0 0 1 565.371 -40.143 L565.371 -39.709A 0.06 0.06 0 0 1 565.311 -39.649 L564.713 -39.649 L564.713 -37.984A 0.06 0.06 0 0 1 564.653 -37.924 L564.153 -37.924A 0.06 0.06 0 0 1 564.093 -37.984 L564.093 -39.649 L563.973 -39.649 z M562.315 -39.691A 0.616 0.616 0 0 0 561.904 -39.634A 0.522 0.522 0 0 0 561.722 -39.233A 1.094 1.094 0 0 0 561.834 -38.524A 0.5 0.5 0 0 0 562.54 -38.554A 0.5 0.5 0 0 0 562.62 -38.67 L562.629 -38.683 L562.642 -38.693 L562.657 -38.699 L562.675 -38.7 L562.692 -38.697 L563.1 -38.499A 0.06 0.06 0 0 1 563.131 -38.461A 0.06 0.06 0 0 1 563.124 -38.412A 0.961 0.961 0 0 1 562.175 -37.877A 1.062 1.062 0 0 1 561.358 -38.159A 1.31 1.31 0 0 1 561.094 -39.067A 1.441 1.441 0 0 1 561.252 -39.801A 0.894 0.894 0 0 1 561.956 -40.225A 1.286 1.286 0 0 1 562.879 -40.058A 1.111 1.111 0 0 1 563.115 -39.723 L563.121 -39.705 L563.12 -39.686 L563.114 -39.668 L563.103 -39.653 L563.088 -39.642 L562.68 -39.432A 0.06 0.06 0 0 1 562.601 -39.455A 0.332 0.332 0 0 0 562.315 -39.691 z M559.553 -39.555 L559.553 -39.334 L560.493 -39.334A 0.06 0.06 0 0 1 560.554 -39.274 L560.554 -38.866A 0.06 0.06 0 0 1 560.493 -38.806 L559.553 -38.806 L559.553 -38.439 L560.678 -38.439A 0.06 0.06 0 0 1 560.738 -38.379 L560.738 -37.984A 0.06 0.06 0 0 1 560.678 -37.924 L558.993 -37.924A 0.06 0.06 0 0 1 558.933 -37.984 L558.933 -40.143A 0.06 0.06 0 0 1 558.993 -40.203 L560.651 -40.203A 0.06 0.06 0 0 1 560.711 -40.143 L560.711 -39.735A 0.06 0.06 0 0 1 560.651 -39.675 L559.553 -39.675 L559.553 -39.555 z M557.382 -39.372 L557.733 -38.894 L557.722 -40.143A 0.06 0.06 0 0 1 557.739 -40.185A 0.06 0.06 0 0 1 557.782 -40.203 L558.256 -40.203A 0.06 0.06 0 0 1 558.316 -40.143 L558.316 -37.984A 0.06 0.06 0 0 1 558.256 -37.924 L557.808 -37.924A 0.06 0.06 0 0 1 557.76 -37.949 L556.869 -39.167 L556.881 -37.985A 0.06 0.06 0 0 1 556.863 -37.942A 0.06 0.06 0 0 1 556.821 -37.924 L556.347 -37.924A 0.06 0.06 0 0 1 556.287 -37.984 L556.287 -40.143A 0.06 0.06 0 0 1 556.347 -40.203 L556.742 -40.203A 0.06 0.06 0 0 1 556.79 -40.179 L557.382 -39.372 z M554.24 -38.792 L554.248 -37.985A 0.06 0.06 0 0 1 554.231 -37.942A 0.06 0.06 0 0 1 554.188 -37.924 L553.701 -37.924A 0.06 0.06 0 0 1 553.641 -37.984 L553.641 -40.143A 0.06 0.06 0 0 1 553.701 -40.203 L554.109 -40.203A 0.06 0.06 0 0 1 554.158 -40.178 L555.087 -38.896 L555.076 -40.143A 0.06 0.06 0 0 1 555.093 -40.185A 0.06 0.06 0 0 1 555.136 -40.203 L555.623 -40.203A 0.06 0.06 0 0 1 555.683 -40.143 L555.683 -37.984A 0.06 0.06 0 0 1 555.623 -37.924 L555.175 -37.924A 0.06 0.06 0 0 1 555.127 -37.949 L554.237 -39.167 L554.24 -38.792 z M551.769 -38.533A 0.529 0.529 0 0 0 552.319 -38.45A 0.368 0.368 0 0 0 552.554 -38.746A 1.179 1.179 0 0 0 552.472 -39.575A 0.604 0.604 0 0 0 551.817 -39.63A 0.511 0.511 0 0 0 551.639 -39.234A 1.002 1.002 0 0 0 551.764 -38.529 M551.05 -38.596A 1.806 1.806 0 0 1 551.148 -39.79A 0.912 0.912 0 0 1 551.846 -40.224A 1.476 1.476 0 0 1 552.784 -40.082A 0.961 0.961 0 0 1 553.178 -39.334A 1.715 1.715 0 0 1 553.041 -38.338A 0.904 0.904 0 0 1 552.344 -37.903A 1.44 1.44 0 0 1 551.412 -38.049A 0.89 0.89 0 0 1 551.05 -38.595 M550.161 -38.673A 0.06 0.06 0 0 1 550.239 -38.697 L550.647 -38.499A 0.06 0.06 0 0 1 550.679 -38.461A 0.06 0.06 0 0 1 550.671 -38.412A 0.961 0.961 0 0 1 549.722 -37.877A 1.062 1.062 0 0 1 548.906 -38.159A 1.31 1.31 0 0 1 548.642 -39.067A 1.439 1.439 0 0 1 548.799 -39.801A 0.894 0.894 0 0 1 549.503 -40.225A 1.286 1.286 0 0 1 550.427 -40.058A 1.111 1.111 0 0 1 550.662 -39.723 L550.668 -39.705 L550.668 -39.686 L550.662 -39.668 L550.65 -39.653 L550.635 -39.642 L550.227 -39.432A 0.06 0.06 0 0 1 550.148 -39.455 L550.075 -39.578A 0.517 0.517 0 0 0 549.385 -39.576A 1.121 1.121 0 0 0 549.298 -38.723A 0.383 0.383 0 0 0 549.451 -38.472A 0.383 0.383 0 0 0 549.737 -38.404A 0.412 0.412 0 0 0 550.161 -38.673 z M546.113 -38.792 L546.113 -37.984A 0.06 0.06 0 0 1 546.053 -37.924 L545.869 -37.924A 0.06 0.06 0 0 1 545.809 -37.984 L545.809 -40.143A 0.06 0.06 0 0 1 545.869 -40.203 L547.33 -40.203A 0.06 0.06 0 0 1 547.39 -40.143 L547.39 -39.985A 0.06 0.06 0 0 1 547.33 -39.925 L546.113 -39.925 L546.113 -39.19 L547.198 -39.19A 0.06 0.06 0 0 1 547.258 -39.13 L547.258 -38.972A 0.06 0.06 0 0 1 547.198 -38.912 L546.113 -38.912 L546.113 -38.792 z M543.415 -39.056A 1.129 1.129 0 0 0 543.596 -38.349A 0.807 0.807 0 0 0 544.282 -38.173A 0.546 0.546 0 0 0 544.772 -38.619A 1.773 1.773 0 0 0 544.718 -39.66A 0.62 0.62 0 0 0 544.118 -39.965A 0.647 0.647 0 0 0 543.599 -39.781A 1.075 1.075 0 0 0 543.417 -39.064 L543.415 -39.056 z M543.114 -39.124A 1.273 1.273 0 0 1 543.369 -39.96A 0.951 0.951 0 0 1 544.109 -40.227A 0.974 0.974 0 0 1 544.861 -39.958A 1.327 1.327 0 0 1 545.109 -39.061A 1.358 1.358 0 0 1 544.866 -38.176A 0.997 0.997 0 0 1 544.101 -37.9A 0.955 0.955 0 0 1 543.36 -38.17A 1.335 1.335 0 0 1 543.114 -39.067 L543.114 -39.124 z M541.371 -39.513A 0.359 0.359 0 0 0 541.288 -39.794A 0.359 0.359 0 0 0 541.023 -39.918 L540.904 -39.925 L540.334 -39.925 L540.334 -39.058 L540.917 -39.058A 0.404 0.404 0 0 0 541.371 -39.406A 0.404 0.404 0 0 0 541.371 -39.513 z M540.03 -39.696 L540.03 -40.13A 0.06 0.06 0 0 1 540.09 -40.19 L540.906 -40.19A 0.854 0.854 0 0 1 541.491 -40.008A 0.746 0.746 0 0 1 541.642 -39.272 L541.648 -39.264 L541.646 -39.258 L541.644 -39.253 L541.561 -39.069A 0.06 0.06 0 0 1 541.549 -39.051A 0.591 0.591 0 0 1 541.257 -38.832 L541.709 -38.013A 0.06 0.06 0 0 1 541.685 -37.932A 0.06 0.06 0 0 1 541.656 -37.924 L541.459 -37.924A 0.06 0.06 0 0 1 541.407 -37.955 L540.95 -38.78 L540.334 -38.78 L540.334 -37.984A 0.06 0.06 0 0 1 540.274 -37.924 L540.09 -37.924A 0.06 0.06 0 0 1 540.03 -37.984 L540.03 -39.696 z M538.353 -39.925 L538.083 -39.925 L538.083 -39.203 L539.182 -39.203A 0.06 0.06 0 0 1 539.242 -39.143 L539.242 -38.998A 0.06 0.06 0 0 1 539.182 -38.938 L538.083 -38.938 L538.083 -38.202 L539.379 -38.202A 0.06 0.06 0 0 1 539.439 -38.142 L539.439 -37.984A 0.06 0.06 0 0 1 539.379 -37.924 L537.852 -37.924A 0.06 0.06 0 0 1 537.792 -37.984 L537.792 -40.143A 0.06 0.06 0 0 1 537.852 -40.203 L539.353 -40.203A 0.06 0.06 0 0 1 539.413 -40.143 L539.413 -39.985A 0.06 0.06 0 0 1 539.353 -39.925 L538.353 -39.925 z M535.774 -39.225 L535.422 -37.968A 0.06 0.06 0 0 1 535.364 -37.924 L535.18 -37.924A 0.06 0.06 0 0 1 535.122 -37.967 L534.478 -40.126A 0.06 0.06 0 0 1 534.518 -40.201A 0.06 0.06 0 0 1 534.535 -40.203 L534.719 -40.203A 0.06 0.06 0 0 1 534.777 -40.16 L535.272 -38.451 L535.754 -40.133A 0.06 0.06 0 0 1 535.812 -40.177 L535.983 -40.177A 0.06 0.06 0 0 1 536.041 -40.133 L536.511 -38.463 L537.018 -40.16A 0.06 0.06 0 0 1 537.076 -40.203 L537.247 -40.203A 0.06 0.06 0 0 1 537.307 -40.143A 0.06 0.06 0 0 1 537.304 -40.126 L536.659 -37.967A 0.06 0.06 0 0 1 536.602 -37.924 L536.417 -37.924A 0.06 0.06 0 0 1 536.36 -37.968 L535.891 -39.644 L535.774 -39.225 z M533.867 -39.321A 0.729 0.729 0 0 0 533.603 -39.863A 0.858 0.858 0 0 0 532.655 -39.787 L532.583 -39.664A 1.664 1.664 0 0 0 532.58 -38.468A 0.616 0.616 0 0 0 533.179 -38.163A 0.646 0.646 0 0 0 533.698 -38.347A 1.075 1.075 0 0 0 533.88 -39.064 L533.87 -39.306 L533.867 -39.321 z M532.219 -39.51A 0.823 0.823 0 0 1 532.948 -40.214A 1.276 1.276 0 0 1 533.78 -40.079A 0.959 0.959 0 0 1 534.156 -39.341A 1.823 1.823 0 0 1 534.029 -38.331A 0.823 0.823 0 0 1 533.388 -37.914A 1.245 1.245 0 0 1 532.562 -38.049A 0.965 0.965 0 0 1 532.189 -38.786A 2.086 2.086 0 0 1 532.218 -39.511 M531.423 -39.602A 0.35 0.35 0 0 0 531.076 -39.916 L530.953 -39.925 L530.383 -39.925 L530.383 -38.992 L530.965 -38.992A 0.427 0.427 0 0 0 531.433 -39.374A 0.427 0.427 0 0 0 531.431 -39.472 L531.427 -39.587 L531.423 -39.602 z M530.078 -39.667 L530.078 -40.13A 0.06 0.06 0 0 1 530.138 -40.19 L530.955 -40.19A 0.864 0.864 0 0 1 531.552 -40.004A 0.833 0.833 0 0 1 531.743 -39.393A 0.833 0.833 0 0 1 531.444 -38.827A 1.081 1.081 0 0 1 530.954 -38.714 L530.383 -38.714 L530.383 -37.984A 0.06 0.06 0 0 1 530.323 -37.924 L530.138 -37.924A 0.06 0.06 0 0 1 530.078 -37.984 L530.078 -39.667 z M527.223 -39.805 L527.223 -39.203 L528.335 -39.203A 0.06 0.06 0 0 1 528.395 -39.143 L528.395 -38.998A 0.06 0.06 0 0 1 528.335 -38.938 L527.223 -38.938 L527.223 -38.202 L528.532 -38.202A 0.06 0.06 0 0 1 528.592 -38.142 L528.592 -37.984A 0.06 0.06 0 0 1 528.532 -37.924 L526.992 -37.924A 0.06 0.06 0 0 1 526.932 -37.984 L526.932 -40.143A 0.06 0.06 0 0 1 526.992 -40.203 L528.493 -40.203A 0.06 0.06 0 0 1 528.553 -40.143 L528.553 -39.985A 0.06 0.06 0 0 1 528.493 -39.925 L527.223 -39.925 L527.223 -39.805 z M524.326 -39.984 L524.326 -40.143A 0.06 0.06 0 0 1 524.386 -40.203 L524.57 -40.203A 0.06 0.06 0 0 1 524.63 -40.143 L524.63 -39.203 L525.853 -39.203 L525.853 -40.143A 0.06 0.06 0 0 1 525.913 -40.203 L526.084 -40.203A 0.06 0.06 0 0 1 526.144 -40.143 L526.144 -37.984A 0.06 0.06 0 0 1 526.084 -37.924 L525.913 -37.924A 0.06 0.06 0 0 1 525.853 -37.984 L525.853 -38.938 L524.63 -38.938 L524.63 -37.984A 0.06 0.06 0 0 1 524.57 -37.924 L524.386 -37.924A 0.06 0.06 0 0 1 524.326 -37.984 L524.326 -39.984 z M522.799 -37.984 L522.799 -39.925 L522.122 -39.925A 0.06 0.06 0 0 1 522.062 -39.985 L522.062 -40.143A 0.06 0.06 0 0 1 522.122 -40.203 L523.767 -40.203A 0.06 0.06 0 0 1 523.827 -40.143 L523.827 -39.985A 0.06 0.06 0 0 1 523.767 -39.925 L523.09 -39.925 L523.09 -37.984A 0.06 0.06 0 0 1 523.03 -37.924 L522.859 -37.924A 0.06 0.06 0 0 1 522.799 -37.984 z M511.157 -23.251A 0.717 0.717 0 0 0 510.193 -23.566A 0.717 0.717 0 0 0 509.829 -23.129A 0.717 0.717 0 0 0 509.898 -22.564A 0.749 0.749 0 0 0 510.95 -22.437A 0.749 0.749 0 0 0 511.234 -22.966 L511.212 -23.106 L511.165 -23.238 L511.157 -23.251 z M515.172 -23.367A 4.213 4.213 0 0 0 514.77 -25.012 L514.767 -25.028 L514.769 -25.043 L514.774 -25.058A 0.856 0.856 0 0 1 514.996 -25.325 L515.571 -25.833 L515.836 -26.104 L515.85 -26.128 L515.847 -26.16A 8.031 8.031 0 0 0 514.637 -27.686 L514.626 -27.681 L514.459 -27.595A 19.311 19.311 0 0 1 513.519 -26.921 L513.439 -26.876 L513.436 -26.874 L513.432 -26.872 L513.392 -26.856 L513.386 -26.855 L513.38 -26.853 L513.358 -26.849A 0.06 0.06 0 0 1 513.312 -26.86A 4.778 4.778 0 0 0 511.591 -27.697A 0.06 0.06 0 0 1 511.551 -27.734 L511.54 -27.764 L511.538 -27.769 L511.537 -27.774 L511.523 -27.862 L511.522 -27.866 L511.522 -27.87 L511.493 -28.634 L511.458 -29.018 L511.437 -29.106 L511.391 -29.19 L511.379 -29.198A 20.082 20.082 0 0 0 509.52 -29.208 L509.509 -29.197 L509.465 -29.01 L509.427 -28.628 L509.357 -27.865 L509.356 -27.859 L509.338 -27.769 L509.337 -27.765 L509.336 -27.762 L509.326 -27.731A 0.06 0.06 0 0 1 509.284 -27.692 L509.27 -27.688 L509.084 -27.637A 4.948 4.948 0 0 0 508.722 -27.514 L508.368 -27.36 L508.03 -27.179A 4.944 4.944 0 0 0 507.708 -26.972 L507.635 -26.921A 0.06 0.06 0 0 1 507.59 -26.91A 0.687 0.687 0 0 1 507.348 -27.023 L506.702 -27.437 L506.371 -27.628 L506.282 -27.655A 6.01 6.01 0 0 0 505.041 -26.135 L505.086 -26.059A 21.38 21.38 0 0 0 505.985 -25.195 L506.047 -25.125 L506.051 -25.12 L506.077 -25.084 L506.079 -25.08 L506.082 -25.076 L506.091 -25.057A 0.06 0.06 0 0 1 506.093 -25.007A 4.808 4.808 0 0 0 505.682 -23.045A 0.06 0.06 0 0 1 505.66 -23 L505.651 -22.992 L505.646 -22.988 L505.641 -22.985 L505.603 -22.965A 11.134 11.134 0 0 1 504.477 -22.674 L504.308 -22.613 L504.291 -22.595A 9.785 9.785 0 0 0 504.446 -21.335 L504.536 -20.964 L504.598 -20.785 L504.601 -20.778 L504.605 -20.775 L504.635 -20.77A 12.128 12.128 0 0 0 505.87 -20.924A 0.768 0.768 0 0 1 506.154 -20.928A 0.06 0.06 0 0 1 506.2 -20.896A 4.398 4.398 0 0 0 507.339 -19.423A 0.06 0.06 0 0 1 507.358 -19.36 L507.329 -19.269A 42.75 42.75 0 0 0 506.686 -18.08 L506.675 -18.042A 8.621 8.621 0 0 0 508.64 -17.038 L508.685 -17.026 L508.69 -17.025 L508.695 -17.024 L508.705 -17.029 L508.765 -17.094A 49.749 49.749 0 0 0 509.331 -18.099A 0.819 0.819 0 0 1 509.497 -18.326A 0.06 0.06 0 0 1 509.542 -18.345A 5.778 5.778 0 0 0 511.56 -18.359 L511.579 -18.353 L511.595 -18.343A 0.878 0.878 0 0 1 511.799 -18.077 L512.171 -17.405 L512.269 -17.243 L512.387 -17.094 L512.423 -17.071 L512.426 -17.07A 1.004 1.004 0 0 0 512.718 -17.184A 11.253 11.253 0 0 0 514.331 -18.123A 22.071 22.071 0 0 0 513.789 -19.16 L513.787 -19.164 L513.725 -19.339A 0.06 0.06 0 0 1 513.722 -19.36 L513.723 -19.428A 0.06 0.06 0 0 1 513.743 -19.471A 3.015 3.015 0 0 0 514.469 -20.462 L514.64 -20.806 L514.683 -20.892A 0.06 0.06 0 0 1 514.699 -20.912 L514.722 -20.93A 0.06 0.06 0 0 1 514.746 -20.942A 0.592 0.592 0 0 1 515.004 -20.953 L515.765 -20.847 L515.953 -20.825 L516.138 -20.824 L516.168 -20.831 L516.189 -20.848A 8.94 8.94 0 0 0 516.547 -22.22 L516.595 -22.591 L516.59 -22.613 L516.573 -22.629A 6.787 6.787 0 0 0 515.396 -22.996 L515.305 -23.028 L515.301 -23.03 L515.296 -23.032 L515.217 -23.073A 0.06 0.06 0 0 1 515.184 -23.124 L515.172 -23.367 z M519.197 -23.484A 8.75 8.75 0 0 1 516.641 -16.711A 8.781 8.781 0 0 1 504.838 -16.146A 8.841 8.841 0 0 1 502.914 -18.37A 8.787 8.787 0 0 1 503.65 -28.518A 8.872 8.872 0 0 1 505.872 -30.44A 8.788 8.788 0 0 1 516.022 -29.705A 8.892 8.892 0 0 1 517.717 -27.838A 8.732 8.732 0 0 1 519.199 -23.484 M524.348 -23.633 L525.999 -23.633 L526.455 -23.655 L526.894 -23.751 L527.162 -23.895 L527.269 -23.996 L527.365 -24.113A 1.009 1.009 0 0 0 527.449 -25.047 L527.348 -25.212 L527.217 -25.363 L526.988 -25.497 L526.744 -25.593 L526.483 -25.634 L526.206 -25.645 L524.228 -25.645 L524.228 -23.633 L524.348 -23.633 z M528.202 -23.646 L528.071 -23.468A 2.342 2.342 0 0 1 526.83 -22.878A 1.662 1.662 0 0 1 527.209 -22.626A 4.491 4.491 0 0 1 527.923 -21.76 L529.044 -20.007A 0.06 0.06 0 0 1 529.026 -19.924A 0.06 0.06 0 0 1 528.993 -19.914 L527.921 -19.914A 0.06 0.06 0 0 1 527.871 -19.942 L527.018 -21.282 L526.721 -21.731 L526.406 -22.165 L526.211 -22.392A 1.227 1.227 0 0 0 525.157 -22.771 L524.228 -22.775 L524.228 -19.974A 0.06 0.06 0 0 1 524.168 -19.914 L523.316 -19.914A 0.06 0.06 0 0 1 523.256 -19.974 L523.256 -26.417A 0.06 0.06 0 0 1 523.316 -26.477 L526.172 -26.477 L526.175 -26.477 L526.838 -26.446A 4.309 4.309 0 0 1 527.509 -26.297A 1.636 1.636 0 0 1 528.456 -25.173A 1.824 1.824 0 0 1 528.265 -23.723 L528.202 -23.646 z M530.505 -23.653 L530.482 -23.1 L530.518 -22.604A 2.015 2.015 0 0 0 530.818 -21.71 L531.093 -21.305 L531.426 -21.027A 1.546 1.546 0 0 0 532.186 -20.704 L532.619 -20.654 L533.057 -20.703A 1.543 1.543 0 0 0 533.822 -21.029 L534.158 -21.311 L534.435 -21.737A 2.127 2.127 0 0 0 534.732 -22.675 L534.765 -23.192A 3.112 3.112 0 0 0 534.364 -24.802A 2.009 2.009 0 0 0 532.633 -25.734 L532.209 -25.689A 1.645 1.645 0 0 0 531.455 -25.388 L531.119 -25.133 L530.813 -24.677A 2.313 2.313 0 0 0 530.505 -23.653 z M535.724 -23.737A 4.047 4.047 0 0 1 535.36 -21.401A 3.783 3.783 0 0 1 534.877 -20.716A 3.15 3.15 0 0 1 532.619 -19.807A 3.165 3.165 0 0 1 530.962 -20.256A 2.98 2.98 0 0 1 529.699 -21.874A 3.587 3.587 0 0 1 529.484 -23.116A 6.205 6.205 0 0 1 529.586 -24.148A 2.71 2.71 0 0 1 529.967 -25.091 L530.355 -25.657A 4.705 4.705 0 0 1 531.121 -26.236A 2.47 2.47 0 0 1 531.998 -26.526 L532.622 -26.591A 3.247 3.247 0 0 1 534.271 -26.153A 2.917 2.917 0 0 1 535.55 -24.516A 2.811 2.811 0 0 1 535.724 -23.737 z M537.8 -23.77 L539.012 -23.77 L539.417 -23.78 L539.809 -23.842 L540.065 -23.955 L540.267 -24.141A 1.014 1.014 0 0 0 540.276 -25.199 L540.101 -25.391 L539.869 -25.509 L539.395 -25.584 L538.907 -25.596 L537.68 -25.596 L537.68 -23.77 L537.8 -23.77 z M539.564 -22.871 L539.108 -22.889 L537.68 -22.889 L537.68 -20.795 L539.223 -20.795 L539.511 -20.799 L539.794 -20.825 L540.038 -20.887 L540.264 -20.992 L540.437 -21.139 L540.568 -21.327 L540.66 -21.576 L540.688 -21.841 L540.647 -22.153 L540.514 -22.435 L540.415 -22.549 L540.305 -22.648 L540.033 -22.784 L539.579 -22.871 L539.564 -22.871 z M540.907 -23.255A 1.598 1.598 0 0 1 541.69 -21.836 L541.645 -21.404 L541.644 -21.399A 2.881 2.881 0 0 1 541.495 -20.975A 2.527 2.527 0 0 1 541.286 -20.633A 2.273 2.273 0 0 1 541.003 -20.351A 2.041 2.041 0 0 1 540.273 -20.023A 4.366 4.366 0 0 1 539.224 -19.914 L536.767 -19.914A 0.06 0.06 0 0 1 536.707 -19.974 L536.707 -26.417A 0.06 0.06 0 0 1 536.767 -26.477 L539.184 -26.477A 2.811 2.811 0 0 1 540.614 -26.164A 1.644 1.644 0 0 1 541.153 -23.955A 1.825 1.825 0 0 1 540.648 -23.463 L540.559 -23.414 L540.698 -23.362 L540.704 -23.359 L540.907 -23.255 z M547.185 -25.049A 2.029 2.029 0 0 0 545.637 -25.735 L545.213 -25.689A 1.646 1.646 0 0 0 544.458 -25.388 L544.122 -25.133 L543.817 -24.677A 2.171 2.171 0 0 0 543.51 -23.661 L543.485 -23.1 L543.521 -22.604A 2.015 2.015 0 0 0 543.821 -21.71 L544.096 -21.305 L544.43 -21.027A 1.546 1.546 0 0 0 545.189 -20.704 L545.622 -20.654 L546.06 -20.703A 1.543 1.543 0 0 0 546.826 -21.029 L547.161 -21.311 L547.438 -21.737A 2.127 2.127 0 0 0 547.735 -22.675 L547.768 -23.192A 3.111 3.111 0 0 0 547.368 -24.802 L547.196 -25.038 L547.185 -25.049 z M548.473 -24.719A 4.077 4.077 0 0 1 548.666 -22.279A 3.262 3.262 0 0 1 547.881 -20.716A 3.149 3.149 0 0 1 545.622 -19.807A 3.166 3.166 0 0 1 543.965 -20.256A 2.98 2.98 0 0 1 542.702 -21.874A 3.587 3.587 0 0 1 542.487 -23.116A 6.218 6.218 0 0 1 542.589 -24.148A 2.714 2.714 0 0 1 542.971 -25.091 L543.358 -25.657A 4.708 4.708 0 0 1 544.124 -26.236A 2.47 2.47 0 0 1 545.002 -26.526 L545.625 -26.591A 3.247 3.247 0 0 1 547.275 -26.153A 2.931 2.931 0 0 1 548.387 -24.938 L548.473 -24.719 z M551.385 -23.974 L551.385 -25.596 L549.323 -25.596A 0.06 0.06 0 0 1 549.263 -25.656 L549.263 -26.417A 0.06 0.06 0 0 1 549.323 -26.477 L554.429 -26.477A 0.06 0.06 0 0 1 554.489 -26.417 L554.489 -25.656A 0.06 0.06 0 0 1 554.429 -25.596 L552.358 -25.596 L552.358 -19.974A 0.06 0.06 0 0 1 552.298 -19.914 L551.445 -19.914A 0.06 0.06 0 0 1 551.385 -19.974 L551.385 -23.974 z M557.418 -25.102 L557.417 -25.099 L557.219 -24.491 L557.219 -24.488 L556.541 -22.68 L558.552 -22.68 L557.91 -24.383 L557.668 -25.047 L557.668 -25.049 L557.518 -25.517 L557.418 -25.104 L557.418 -25.102 z M557.64 -26.477 L557.989 -26.477A 0.06 0.06 0 0 1 558.044 -26.439 L560.681 -19.997A 0.06 0.06 0 0 1 560.648 -19.919A 0.06 0.06 0 0 1 560.625 -19.914 L559.654 -19.914A 0.06 0.06 0 0 1 559.598 -19.953 L558.861 -21.865 L556.251 -21.865 L555.558 -19.954A 0.06 0.06 0 0 1 555.501 -19.914 L554.596 -19.914A 0.06 0.06 0 0 1 554.536 -19.974A 0.06 0.06 0 0 1 554.54 -19.996 L557.014 -26.438A 0.06 0.06 0 0 1 557.07 -26.477 L557.64 -26.477 z M557.689 -26.775A 0.06 0.06 0 0 1 557.641 -26.752 L556.987 -26.752A 0.06 0.06 0 0 1 556.927 -26.812A 0.06 0.06 0 0 1 556.932 -26.838 L557.517 -28.068A 0.06 0.06 0 0 1 557.571 -28.103 L558.608 -28.103A 0.06 0.06 0 0 1 558.668 -28.043A 0.06 0.06 0 0 1 558.655 -28.006 L557.689 -26.775 z M564.479 -25.634 L564.21 -25.645 L562.232 -25.645 L562.232 -23.633 L564.003 -23.633 L564.459 -23.655 L564.898 -23.751 L565.166 -23.895 L565.273 -23.996 L565.368 -24.113A 1.009 1.009 0 0 0 565.453 -25.047 L565.352 -25.212 L565.221 -25.363 L564.992 -25.497 L564.748 -25.593 L564.487 -25.634 L564.479 -25.634 z M566.475 -25.111A 1.817 1.817 0 0 1 566.272 -23.727A 2.126 2.126 0 0 1 566.067 -23.459A 2.383 2.383 0 0 1 565.051 -22.92 L565.045 -22.918 L564.834 -22.878A 1.662 1.662 0 0 1 565.213 -22.626A 4.49 4.49 0 0 1 565.927 -21.76 L567.048 -20.007A 0.06 0.06 0 0 1 567.03 -19.924A 0.06 0.06 0 0 1 566.997 -19.914 L565.925 -19.914A 0.06 0.06 0 0 1 565.874 -19.942 L565.022 -21.282 L564.725 -21.731 L564.41 -22.165 L564.215 -22.392A 1.227 1.227 0 0 0 563.161 -22.771 L562.232 -22.775 L562.232 -19.974A 0.06 0.06 0 0 1 562.172 -19.914 L561.32 -19.914A 0.06 0.06 0 0 1 561.26 -19.974 L561.26 -26.417A 0.06 0.06 0 0 1 561.32 -26.477 L564.176 -26.477 L564.179 -26.477 L564.842 -26.446A 4.309 4.309 0 0 1 565.513 -26.297A 1.638 1.638 0 0 1 566.474 -25.11 M572.933 -23.417 L572.933 -19.974A 0.06 0.06 0 0 1 572.873 -19.914 L571.998 -19.914A 0.06 0.06 0 0 1 571.948 -19.941 L568.674 -24.839 L568.674 -19.974A 0.06 0.06 0 0 1 568.615 -19.914 L567.797 -19.914A 0.06 0.06 0 0 1 567.737 -19.974 L567.737 -26.417A 0.06 0.06 0 0 1 567.797 -26.477 L568.672 -26.477A 0.06 0.06 0 0 1 568.722 -26.45 L571.996 -21.556 L571.996 -26.417A 0.06 0.06 0 0 1 572.056 -26.477 L572.873 -26.477A 0.06 0.06 0 0 1 572.933 -26.417 L572.933 -23.417 z M576.42 -25.102 L576.419 -25.099 L576.221 -24.491 L576.22 -24.488 L575.543 -22.68 L577.554 -22.68 L576.912 -24.383 L576.67 -25.047 L576.67 -25.049 L576.52 -25.517 L576.42 -25.104 L576.42 -25.102 z M576.877 -26.477 L576.99 -26.477A 0.06 0.06 0 0 1 577.046 -26.439 L579.683 -19.997A 0.06 0.06 0 0 1 579.65 -19.919A 0.06 0.06 0 0 1 579.627 -19.914 L578.656 -19.914A 0.06 0.06 0 0 1 578.6 -19.953 L577.863 -21.865 L575.253 -21.865 L574.56 -19.954A 0.06 0.06 0 0 1 574.503 -19.914 L573.598 -19.914A 0.06 0.06 0 0 1 573.538 -19.974A 0.06 0.06 0 0 1 573.542 -19.996 L576.016 -26.438A 0.06 0.06 0 0 1 576.072 -26.477 L576.877 -26.477 z M584.292 -48.772 L584.243 -48.714A 0.06 0.06 0 0 1 584.224 -48.699A 0.773 0.773 0 0 1 583.869 -48.619A 2.754 2.754 0 0 0 583.082 -48.483A 8.915 8.915 0 0 1 582.86 -48.292 L582.853 -48.29 L582.8 -48.269A 0.06 0.06 0 0 1 582.777 -48.265 L582.722 -48.267A 0.06 0.06 0 0 1 582.701 -48.272A 0.598 0.598 0 0 1 582.384 -48.619 L582.33 -48.644 L582.279 -48.676 L582.232 -48.714 L582.192 -48.758 L582.157 -48.807 L582.128 -48.86 L582.107 -48.917 L582.093 -48.975 L582.087 -49.035 L582.089 -49.096 L582.098 -49.155 L582.115 -49.214 L582.119 -49.222 L582.161 -49.296 L582.164 -49.301 L582.167 -49.305 L582.17 -49.309 L582.218 -49.358A 0.06 0.06 0 0 1 582.24 -49.373 L582.341 -49.411A 0.06 0.06 0 0 1 582.375 -49.413 L582.469 -49.393A 0.06 0.06 0 0 1 582.492 -49.382 L582.558 -49.332 L582.562 -49.328 L582.566 -49.324 L582.57 -49.32A 0.503 0.503 0 0 0 582.946 -49.114 L583.271 -49.139A 1.724 1.724 0 0 1 584.127 -49.076 L584.239 -48.999A 0.06 0.06 0 0 1 584.258 -48.98 L584.303 -48.908A 0.06 0.06 0 0 1 584.312 -48.871 L584.306 -48.806A 0.06 0.06 0 0 1 584.292 -48.772 z M585.109 -49.43A 0.088 0.088 0 0 1 585.052 -49.54A 0.088 0.088 0 0 1 585.116 -49.6 L585.289 -49.65 L585.417 -49.708 L585.483 -49.761 L585.494 -49.792 L585.49 -49.801 L585.458 -49.825A 1.58 1.58 0 0 0 584.664 -49.87 L584.661 -49.87A 0.081 0.081 0 0 1 584.58 -49.947 L584.58 -49.951A 0.08 0.08 0 0 1 584.625 -50.022A 1.831 1.831 0 0 1 585.264 -50.193 L585.266 -50.193A 1.562 1.562 0 0 1 586.088 -50.084A 0.446 0.446 0 0 1 586.315 -49.875A 0.06 0.06 0 0 1 586.323 -49.854 L586.337 -49.782A 0.06 0.06 0 0 1 586.336 -49.756 L586.318 -49.685A 0.06 0.06 0 0 1 586.309 -49.665A 0.501 0.501 0 0 1 586.063 -49.466A 1.371 1.371 0 0 1 585.504 -49.371A 1.555 1.555 0 0 1 585.117 -49.428 L585.109 -49.43 z M589.209 -44.509A 1.547 1.547 0 0 0 589.681 -45.642 L589.628 -45.891 L589.512 -46.12 L589.336 -46.328A 2.538 2.538 0 0 0 588.131 -46.9A 1.086 1.086 0 0 1 587.545 -46.213A 0.06 0.06 0 0 1 587.535 -46.21 L587.499 -46.2A 0.06 0.06 0 0 1 587.453 -46.207 L587.43 -46.22A 0.06 0.06 0 0 1 587.401 -46.275 L587.404 -46.338A 0.06 0.06 0 0 1 587.414 -46.366A 3.106 3.106 0 0 0 587.636 -46.79 L587.673 -46.91A 1.579 1.579 0 0 0 587.605 -47.574A 9.643 9.643 0 0 0 586.77 -49.608 L586.619 -49.844A 1.264 1.264 0 0 0 585.587 -50.378A 2.25 2.25 0 0 0 584.589 -50.21A 2.448 2.448 0 0 1 583.469 -50.218A 2.253 2.253 0 0 0 582.518 -50.26A 0.827 0.827 0 0 0 581.888 -49.584A 18.097 18.097 0 0 0 581.596 -48.309A 0.672 0.672 0 0 0 581.995 -47.67A 3.666 3.666 0 0 0 583.18 -47.239A 5.825 5.825 0 0 1 584.334 -46.931A 0.767 0.767 0 0 1 584.631 -46.653A 12.951 12.951 0 0 1 584.748 -46.274A 0.774 0.774 0 0 0 585.05 -45.871A 0.06 0.06 0 0 1 585.065 -45.853 L585.082 -45.821A 0.06 0.06 0 0 1 585.084 -45.77 L585.06 -45.713A 0.06 0.06 0 0 1 585.032 -45.683A 0.748 0.748 0 0 1 584.459 -45.643A 8.824 8.824 0 0 1 581.875 -46.55A 2.232 2.232 0 0 1 581.426 -46.9A 0.819 0.819 0 0 1 581.167 -47.567 L581.2 -47.708 L581.202 -47.713 L581.203 -47.717 L581.227 -47.776A 3.714 3.714 0 0 0 579.885 -47.699 L579.637 -47.603 L579.442 -47.482 L579.303 -47.336 L579.221 -47.166 L579.202 -47.005 L579.236 -46.827A 2.108 2.108 0 0 0 579.869 -45.991A 9.235 9.235 0 0 0 582.421 -44.466 L582.879 -44.272 L583.841 -43.94A 8.059 8.059 0 0 0 587.257 -43.635A 4.287 4.287 0 0 0 588.741 -44.134 L589.019 -44.331 L589.209 -44.509 z M590.577 -42.866A 6.636 6.636 0 0 1 589.945 -41.622A 0.06 0.06 0 0 1 589.881 -41.596A 3.483 3.483 0 0 0 589.101 -41.689A 3.164 3.164 0 0 0 587.925 -41.485A 0.044 0.044 0 0 0 587.907 -41.429A 0.06 0.06 0 0 1 587.912 -41.409 L587.919 -41.328A 0.06 0.06 0 0 1 587.911 -41.294 L587.868 -41.215A 0.06 0.06 0 0 1 587.849 -41.194A 0.638 0.638 0 0 1 587.543 -41.058 L587.39 -41.007A 2.192 2.192 0 0 0 586.685 -40.354A 1.221 1.221 0 0 1 586.013 -40.115 L585.969 -40.13A 0.06 0.06 0 0 1 585.925 -40.194 L585.928 -40.224A 0.06 0.06 0 0 1 585.943 -40.257A 3.929 3.929 0 0 0 586.387 -40.873 L586.522 -41.065 L586.661 -41.255 L586.802 -41.443 L586.868 -41.537 L586.928 -41.635 L586.982 -41.735 L587.031 -41.839 L587.074 -41.945 L587.118 -42.236A 1.171 1.171 0 0 1 587.235 -42.781 L587.286 -42.951 L587.304 -43.044A 2.304 2.304 0 0 1 586.752 -42.884A 4.692 4.692 0 0 1 586.188 -43.02 L586.05 -42.995A 1.363 1.363 0 0 1 585.777 -42.888 L585.771 -42.887 L585.629 -42.877A 0.06 0.06 0 0 1 585.603 -42.881 L585.431 -42.949 L585.333 -42.985A 1.507 1.507 0 0 0 584.718 -42.93A 2.477 2.477 0 0 1 583.674 -42.91A 2.365 2.365 0 0 1 582.581 -43.83 L582.514 -43.896 L582.463 -43.916 L582.405 -43.904 L582.325 -43.848A 0.275 0.275 0 0 1 581.938 -43.881A 0.275 0.275 0 0 1 581.911 -43.918 L581.873 -43.985A 1.371 1.371 0 0 0 581.405 -44.515 L581.286 -44.559A 0.471 0.471 0 0 0 580.692 -44.257A 0.471 0.471 0 0 0 580.673 -44.047 L580.691 -43.945 L580.719 -43.865 L580.804 -43.732A 2.01 2.01 0 0 1 581.12 -43.293A 1.26 1.26 0 0 0 581.385 -43.114 L581.39 -43.108 L581.438 -43.051A 0.06 0.06 0 0 1 581.45 -43.029 L581.468 -42.965A 0.06 0.06 0 0 1 581.47 -42.939 L581.46 -42.873A 0.06 0.06 0 0 1 581.449 -42.846 L581.408 -42.791A 0.06 0.06 0 0 1 581.389 -42.773 L581.324 -42.738 L581.318 -42.735 L581.312 -42.733 L581.305 -42.731 L581.16 -42.708 L581.154 -42.707A 0.726 0.726 0 0 1 580.713 -42.821 L580.711 -42.821A 0.949 0.949 0 0 1 580.4 -43.171A 0.476 0.476 0 0 0 579.97 -43.4 L579.967 -43.4A 0.522 0.522 0 0 0 579.729 -43.34A 2.443 2.443 0 0 1 578.603 -43.071 L578.145 -43.071A 0.06 0.06 0 0 1 578.089 -43.111A 6.639 6.639 0 0 1 582.264 -51.52A 6.639 6.639 0 0 1 584.377 -51.867A 6.636 6.636 0 0 1 591.013 -45.232A 6.636 6.636 0 0 1 590.577 -42.866 z M590.945 -42.425A 0.392 0.392 0 0 1 591.338 -42.032A 0.392 0.392 0 0 1 590.945 -41.64A 0.392 0.392 0 0 1 590.553 -42.032A 0.392 0.392 0 0 1 590.945 -42.425 z M595.493 -43.956 L595.493 -41.765A 0.06 0.06 0 0 1 595.433 -41.705 L594.293 -41.705A 0.06 0.06 0 0 1 594.251 -41.722A 0.06 0.06 0 0 1 594.233 -41.765 L594.242 -44.817A 24.503 24.503 0 0 0 594.206 -46.262A 0.06 0.06 0 0 1 594.223 -46.306A 0.06 0.06 0 0 1 594.266 -46.325 L595.252 -46.325A 0.06 0.06 0 0 1 595.312 -46.268 L595.345 -45.602A 1.38 1.38 0 0 1 596.557 -46.43 L596.652 -46.428 L596.746 -46.418 L596.839 -46.4A 0.06 0.06 0 0 1 596.886 -46.342 L596.886 -45.269A 0.06 0.06 0 0 1 596.826 -45.209A 0.06 0.06 0 0 1 596.814 -45.21A 1.607 1.607 0 0 0 596.486 -45.241 L596.298 -45.226A 0.939 0.939 0 0 0 595.524 -44.426 L595.507 -44.316 L595.497 -44.206 L595.493 -44.096 L595.493 -43.956 z M599.983 -44.56 L600.118 -44.56A 1.037 1.037 0 0 0 599.684 -45.436A 0.978 0.978 0 0 0 598.819 -45.437A 1.182 1.182 0 0 0 598.272 -44.56 L599.983 -44.56 z M601.291 -44.557 L601.314 -44.191 L601.314 -44.188A 2.61 2.61 0 0 1 601.273 -43.69A 0.06 0.06 0 0 1 601.213 -43.64 L598.27 -43.647A 1.047 1.047 0 0 0 599.089 -42.663 L599.332 -42.61 L599.595 -42.594A 3.369 3.369 0 0 0 600.815 -42.798A 0.06 0.06 0 0 1 600.864 -42.795A 0.06 0.06 0 0 1 600.894 -42.755 L601.063 -41.971A 0.06 0.06 0 0 1 601.026 -41.903A 4.133 4.133 0 0 1 599.429 -41.613 L599.427 -41.613A 2.461 2.461 0 0 1 597.674 -42.252A 2.38 2.38 0 0 1 597.054 -43.96A 2.781 2.781 0 0 1 597.374 -45.298A 2.138 2.138 0 0 1 599.585 -46.414A 1.73 1.73 0 0 1 600.885 -45.68A 2.437 2.437 0 0 1 601.291 -44.557 z M603.007 -44.552A 2.012 2.012 0 0 0 603.099 -43.213A 0.974 0.974 0 0 0 604.008 -42.631A 0.95 0.95 0 0 0 604.93 -43.394 L604.93 -43.395A 1.284 1.284 0 0 0 604.963 -43.713 L604.963 -43.714 L604.96 -44.389A 1.483 1.483 0 0 0 604.935 -44.675A 0.94 0.94 0 0 0 604.018 -45.425 L603.77 -45.397A 0.998 0.998 0 0 0 603.101 -44.809 L603.01 -44.567 L603.007 -44.552 z M606.224 -43.937A 34.521 34.521 0 0 0 606.26 -41.766 L606.259 -41.747 L606.251 -41.73 L606.238 -41.715 L606.221 -41.706 L606.202 -41.703 L605.18 -41.703A 0.06 0.06 0 0 1 605.12 -41.758 L605.08 -42.316A 1.68 1.68 0 0 1 603.443 -41.619A 1.903 1.903 0 0 1 601.825 -43.004A 2.966 2.966 0 0 1 602.138 -45.609A 1.978 1.978 0 0 1 604.72 -46.167A 1.836 1.836 0 0 1 604.963 -45.94 L604.963 -48.32A 0.06 0.06 0 0 1 605.023 -48.38A 0.06 0.06 0 0 1 605.039 -48.378 L606.177 -48.057A 0.06 0.06 0 0 1 606.221 -48 L606.224 -43.937 z M607.124 -43.765 L607.124 -47.704A 0.06 0.06 0 0 1 607.184 -47.764A 0.06 0.06 0 0 1 607.201 -47.761 L607.648 -47.629A 0.06 0.06 0 0 1 607.691 -47.571 L607.691 -45.651A 1.71 1.71 0 0 1 608.233 -46.165A 1.776 1.776 0 0 1 609.173 -46.432 L609.177 -46.432A 1.56 1.56 0 0 1 610.738 -45.053A 2.394 2.394 0 0 1 610.792 -44.484 L610.793 -41.765A 0.06 0.06 0 0 1 610.732 -41.705 L610.287 -41.705A 0.06 0.06 0 0 1 610.227 -41.765 L610.227 -44.429A 1.915 1.915 0 0 0 609.964 -45.478A 1.132 1.132 0 0 0 608.823 -45.902A 1.438 1.438 0 0 0 607.748 -44.94 L607.725 -44.858 L607.707 -44.775 L607.695 -44.69 L607.689 -44.605 L607.69 -44.52 L607.69 -44.517 L607.69 -41.765A 0.06 0.06 0 0 1 607.63 -41.705 L607.184 -41.705A 0.06 0.06 0 0 1 607.124 -41.765 L607.124 -43.765 z M612.794 -43.923 L612.509 -43.78A 0.951 0.951 0 0 0 612.098 -42.753A 0.767 0.767 0 0 0 612.915 -42.094 L613.012 -42.094 L613.108 -42.1 L613.204 -42.114 L613.298 -42.135 L613.391 -42.163 L613.481 -42.198 L613.569 -42.239 L613.653 -42.287 L613.733 -42.341 L613.809 -42.401 L613.88 -42.467 L613.946 -42.537 L614.007 -42.613 L614.062 -42.693 L614.111 -42.776 L614.153 -42.863 L614.189 -42.953A 0.815 0.815 0 0 0 614.233 -43.204 L614.233 -44.111A 3.931 3.931 0 0 0 612.794 -43.925 M614.798 -43.223 L614.798 -42.835A 7.33 7.33 0 0 0 614.864 -41.769A 0.06 0.06 0 0 1 614.849 -41.721A 0.06 0.06 0 0 1 614.804 -41.701 L614.394 -41.701A 0.06 0.06 0 0 1 614.334 -41.754 L614.282 -42.27A 1.762 1.762 0 0 1 612.87 -41.601 L612.865 -41.601A 1.585 1.585 0 0 1 612.252 -41.717A 1.291 1.291 0 0 1 611.534 -43.282A 1.415 1.415 0 0 1 612.391 -44.27A 3.656 3.656 0 0 1 613.959 -44.599 L614.233 -44.607A 1.523 1.523 0 0 0 613.935 -45.659A 1.111 1.111 0 0 0 613.137 -45.937A 1.92 1.92 0 0 0 612.041 -45.612A 0.06 0.06 0 0 1 611.958 -45.628A 0.06 0.06 0 0 1 611.953 -45.637 L611.811 -45.961A 0.06 0.06 0 0 1 611.833 -46.036A 2.481 2.481 0 0 1 613.188 -46.435 L613.191 -46.435A 1.623 1.623 0 0 1 614.295 -46.071A 1.718 1.718 0 0 1 614.777 -44.91 L614.784 -44.904 L614.798 -44.596 L614.798 -44.593 L614.798 -43.223 z M616.616 -42.588A 0.591 0.591 0 0 0 616.898 -42.163 L617.025 -42.121 L617.184 -42.105A 1.51 1.51 0 0 0 617.675 -42.173A 0.06 0.06 0 0 1 617.724 -42.167A 0.06 0.06 0 0 1 617.752 -42.125 L617.806 -41.78A 0.06 0.06 0 0 1 617.768 -41.715A 1.67 1.67 0 0 1 617.12 -41.607 L617.117 -41.607A 1.043 1.043 0 0 1 616.296 -41.944A 1.152 1.152 0 0 1 616.069 -42.431A 2.828 2.828 0 0 1 616.009 -43.062 L616.009 -45.847 L615.309 -45.847A 0.06 0.06 0 0 1 615.249 -45.907 L615.249 -46.269A 0.06 0.06 0 0 1 615.309 -46.329 L616.009 -46.329 L616.009 -47.102A 0.06 0.06 0 0 1 616.049 -47.159 L616.497 -47.318A 0.06 0.06 0 0 1 616.574 -47.282A 0.06 0.06 0 0 1 616.577 -47.262 L616.577 -46.329 L617.799 -46.329A 0.06 0.06 0 0 1 617.859 -46.269 L617.859 -45.907A 0.06 0.06 0 0 1 617.799 -45.847 L616.577 -45.847 L616.577 -42.979 L616.586 -42.778 L616.611 -42.603 L616.616 -42.588 z M618.031 -42.023A 0.392 0.392 0 0 1 618.423 -42.415A 0.392 0.392 0 0 1 618.815 -42.023A 0.392 0.392 0 0 1 618.423 -41.631A 0.392 0.392 0 0 1 618.031 -42.023 z M585.87 -42.302 L585.873 -42.299A 0.309 0.309 0 0 1 585.899 -41.948A 0.618 0.618 0 0 1 585.723 -41.741 L585.719 -41.738 L585.633 -41.684 L585.628 -41.681 L585.623 -41.679 L585.618 -41.677 L585.501 -41.643A 0.06 0.06 0 0 1 585.48 -41.641A 0.715 0.715 0 0 1 585.007 -41.821A 0.825 0.825 0 0 1 584.749 -41.831A 0.06 0.06 0 0 1 584.715 -41.848 L584.663 -41.901A 0.06 0.06 0 0 1 584.647 -41.929 L584.629 -42.006A 0.06 0.06 0 0 1 584.629 -42.032 L584.645 -42.116A 0.06 0.06 0 0 1 584.658 -42.142 L584.719 -42.218A 0.06 0.06 0 0 1 584.741 -42.235 L584.849 -42.282A 0.06 0.06 0 0 1 584.873 -42.287 L585.017 -42.288A 0.06 0.06 0 0 1 585.039 -42.284A 1.553 1.553 0 0 1 585.404 -42.111 L585.497 -42.096 L585.535 -42.105 L585.58 -42.132A 1.106 1.106 0 0 0 585.751 -42.301 L585.755 -42.306A 0.082 0.082 0 0 1 585.814 -42.33A 0.06 0.06 0 0 1 585.828 -42.328A 0.083 0.083 0 0 1 585.87 -42.302 z M579.173 -64.049 L579.173 -63.817A 0.06 0.06 0 0 1 579.113 -63.757 L578.299 -63.757 L578.299 -63.201 L579.062 -63.201A 0.06 0.06 0 0 1 579.122 -63.141 L579.122 -62.913A 0.06 0.06 0 0 1 579.062 -62.853 L578.299 -62.853 L578.299 -62.201 L579.16 -62.201A 0.06 0.06 0 0 1 579.22 -62.141 L579.22 -61.91A 0.06 0.06 0 0 1 579.16 -61.85 L577.961 -61.85A 0.06 0.06 0 0 1 577.901 -61.91 L577.901 -64.049A 0.06 0.06 0 0 1 577.961 -64.109 L579.113 -64.109A 0.06 0.06 0 0 1 579.173 -64.049 z M584.595 -79.931A 1.275 1.275 0 0 1 583.903 -79.742 L583.9 -79.742A 1.088 1.088 0 0 1 583.021 -80.108A 0.921 0.921 0 0 1 582.86 -80.64A 1.142 1.142 0 0 1 583.188 -81.462A 1.142 1.142 0 0 1 584.004 -81.803 L584.009 -81.803A 0.863 0.863 0 0 1 584.66 -81.554A 0.863 0.863 0 0 1 584.915 -80.906A 1.703 1.703 0 0 1 584.876 -80.573A 0.06 0.06 0 0 1 584.817 -80.525 L583.579 -80.525A 0.396 0.396 0 0 0 583.952 -80.317A 0.75 0.75 0 0 0 584.351 -80.424A 0.06 0.06 0 0 1 584.4 -80.43A 0.06 0.06 0 0 1 584.437 -80.397 L584.618 -80.007A 0.06 0.06 0 0 1 584.595 -79.931 z M585.601 -80.437 L585.468 -79.834A 0.06 0.06 0 0 1 585.41 -79.787 L584.82 -79.787A 0.06 0.06 0 0 1 584.76 -79.847A 0.06 0.06 0 0 1 584.761 -79.86 L585.324 -82.416A 0.06 0.06 0 0 1 585.383 -82.463 L585.973 -82.463A 0.06 0.06 0 0 1 586.033 -82.403A 0.06 0.06 0 0 1 586.031 -82.39 L585.601 -80.437 z M589.049 -80.522A 0.06 0.06 0 0 1 589.134 -80.528A 0.06 0.06 0 0 1 589.141 -80.521 L589.458 -80.133A 0.06 0.06 0 0 1 589.455 -80.053A 1.052 1.052 0 0 1 588.686 -79.737 L588.682 -79.737A 0.979 0.979 0 0 1 587.747 -80.279A 0.796 0.796 0 0 1 587.692 -80.534A 0.06 0.06 0 0 1 587.662 -80.525 L586.425 -80.525A 0.396 0.396 0 0 0 586.798 -80.317A 0.75 0.75 0 0 0 587.198 -80.424A 0.06 0.06 0 0 1 587.246 -80.43A 0.06 0.06 0 0 1 587.283 -80.397 L587.464 -80.007A 0.06 0.06 0 0 1 587.441 -79.931A 1.275 1.275 0 0 1 586.749 -79.742 L586.746 -79.742A 1.084 1.084 0 0 1 585.868 -80.109A 0.91 0.91 0 0 1 585.706 -80.64A 1.141 1.141 0 0 1 586.033 -81.461A 1.141 1.141 0 0 1 586.849 -81.803 L586.854 -81.803A 0.86 0.86 0 0 1 587.753 -81.046 L587.788 -81.133 L587.83 -81.217 L587.879 -81.298 L587.934 -81.374 L587.996 -81.445 L588.063 -81.511 L588.135 -81.571 L588.213 -81.625 L588.294 -81.672 L588.379 -81.713 L588.468 -81.746 L588.558 -81.772 L588.651 -81.791 L588.745 -81.801 L588.839 -81.804 L588.844 -81.804A 1.121 1.121 0 0 1 589.37 -81.685A 0.603 0.603 0 0 1 589.613 -81.478 L589.664 -81.705A 0.06 0.06 0 0 1 589.722 -81.751 L589.981 -81.751 L590.081 -82.211A 0.06 0.06 0 0 1 590.14 -82.258 L590.73 -82.258A 0.06 0.06 0 0 1 590.79 -82.198A 0.06 0.06 0 0 1 590.788 -82.185 L590.693 -81.751 L590.994 -81.751A 0.06 0.06 0 0 1 591.054 -81.691A 0.06 0.06 0 0 1 591.053 -81.678 L590.938 -81.169A 0.06 0.06 0 0 1 590.88 -81.122 L590.553 -81.122 L590.428 -80.541 L590.427 -80.538A 0.336 0.336 0 0 0 590.417 -80.467A 0.09 0.09 0 0 0 590.504 -80.374A 0.09 0.09 0 0 0 590.523 -80.376A 0.06 0.06 0 0 1 590.534 -80.377A 0.168 0.168 0 0 0 590.619 -80.4A 0.06 0.06 0 0 1 590.701 -80.378A 0.06 0.06 0 0 1 590.709 -80.349 L590.717 -79.878A 0.06 0.06 0 0 1 590.688 -79.825A 0.619 0.619 0 0 1 590.328 -79.736 L590.325 -79.736A 0.952 0.952 0 0 1 589.952 -79.804A 0.447 0.447 0 0 1 589.663 -80.239A 1.164 1.164 0 0 1 589.675 -80.381 L589.676 -80.385 L589.839 -81.122 L589.608 -81.122A 0.06 0.06 0 0 1 589.548 -81.182A 0.06 0.06 0 0 1 589.549 -81.196 L589.56 -81.245 L589.22 -80.987A 0.06 0.06 0 0 1 589.173 -80.976A 0.06 0.06 0 0 1 589.133 -81.003A 0.345 0.345 0 0 0 588.836 -81.163A 0.444 0.444 0 0 0 588.516 -81.019A 0.444 0.444 0 0 0 588.401 -80.687 L588.401 -80.683A 0.307 0.307 0 0 0 588.503 -80.455A 0.307 0.307 0 0 0 588.74 -80.378 L588.745 -80.378A 0.415 0.415 0 0 0 589.049 -80.522 z M593.168 -80.383 L593.25 -80.393 L593.323 -80.42 L593.453 -80.527 L593.538 -80.68 L593.57 -80.87A 0.277 0.277 0 0 0 593.312 -81.164A 0.277 0.277 0 0 0 593.267 -81.163 L593.174 -81.152 L593.1 -81.125 L592.97 -81.019 L592.886 -80.865 L592.855 -80.676A 0.278 0.278 0 0 0 593.115 -80.381A 0.278 0.278 0 0 0 593.16 -80.382 L593.168 -80.383 z M594.066 -80.202A 1.14 1.14 0 0 1 593.144 -79.741 L593.139 -79.741A 1.016 1.016 0 0 1 592.271 -80.141A 0.963 0.963 0 0 1 592.129 -80.651A 1.14 1.14 0 0 1 592.221 -81.112A 0.739 0.739 0 0 0 592.054 -81.134A 0.542 0.542 0 0 0 591.688 -80.981 L591.435 -79.833A 0.06 0.06 0 0 1 591.376 -79.786 L590.796 -79.786A 0.06 0.06 0 0 1 590.736 -79.846A 0.06 0.06 0 0 1 590.737 -79.858 L591.142 -81.711A 0.06 0.06 0 0 1 591.201 -81.758 L591.791 -81.758A 0.06 0.06 0 0 1 591.851 -81.698A 0.06 0.06 0 0 1 591.85 -81.685 L591.84 -81.641A 0.905 0.905 0 0 1 592.382 -81.805A 0.06 0.06 0 0 1 592.441 -81.744A 0.06 0.06 0 0 1 592.439 -81.732 L592.346 -81.333A 1.14 1.14 0 0 1 593.278 -81.804 L593.282 -81.804A 1.011 1.011 0 0 1 594.15 -81.402A 0.979 0.979 0 0 1 594.291 -80.89A 1.14 1.14 0 0 1 594.066 -80.202 z M594.878 -80.039 L594.832 -79.834A 0.06 0.06 0 0 1 594.774 -79.787 L594.184 -79.787A 0.06 0.06 0 0 1 594.124 -79.847A 0.06 0.06 0 0 1 594.125 -79.86 L594.53 -81.711A 0.06 0.06 0 0 1 594.589 -81.758 L595.179 -81.758A 0.06 0.06 0 0 1 595.239 -81.698A 0.06 0.06 0 0 1 595.237 -81.684 L595.226 -81.639A 0.923 0.923 0 0 1 595.724 -81.803 L595.73 -81.803A 0.619 0.619 0 0 1 596.376 -81.379 L596.369 -81.37 L596.379 -81.269 L596.38 -81.265 L596.38 -81.26A 1.17 1.17 0 0 1 596.36 -81.099 L596.359 -81.098 L596.08 -79.833A 0.06 0.06 0 0 1 596.021 -79.786 L595.431 -79.786A 0.06 0.06 0 0 1 595.371 -79.846A 0.06 0.06 0 0 1 595.39 -79.889 L595.613 -80.898 L595.613 -80.9A 0.607 0.607 0 0 0 595.63 -81.02A 0.156 0.156 0 0 0 595.571 -81.132A 0.156 0.156 0 0 0 595.448 -81.164 L595.44 -81.163A 0.503 0.503 0 0 0 595.099 -81.014 L594.878 -80.039 z M597.162 -80.71 L596.971 -79.835A 0.06 0.06 0 0 1 596.912 -79.788 L596.322 -79.788A 0.06 0.06 0 0 1 596.262 -79.848A 0.06 0.06 0 0 1 596.264 -79.861 L596.669 -81.712A 0.06 0.06 0 0 1 596.728 -81.759 L597.318 -81.759A 0.06 0.06 0 0 1 597.378 -81.699A 0.06 0.06 0 0 1 597.376 -81.687 L597.162 -80.71 z M597.217 -80.647A 1.14 1.14 0 0 1 597.55 -81.47A 1.14 1.14 0 0 1 598.373 -81.804 L598.378 -81.804A 1.121 1.121 0 0 1 598.904 -81.685A 0.778 0.778 0 0 1 599.205 -81.406A 0.06 0.06 0 0 1 599.217 -81.361A 0.06 0.06 0 0 1 599.194 -81.321 L598.754 -80.987A 0.06 0.06 0 0 1 598.707 -80.976A 0.06 0.06 0 0 1 598.667 -81.003A 0.345 0.345 0 0 0 598.37 -81.163A 0.444 0.444 0 0 0 598.05 -81.019A 0.444 0.444 0 0 0 597.935 -80.687 L597.935 -80.683A 0.307 0.307 0 0 0 598.037 -80.455A 0.307 0.307 0 0 0 598.274 -80.378 L598.279 -80.378A 0.414 0.414 0 0 0 598.583 -80.522A 0.06 0.06 0 0 1 598.668 -80.528A 0.06 0.06 0 0 1 598.675 -80.521 L598.994 -80.134A 0.06 0.06 0 0 1 598.99 -80.053A 1.051 1.051 0 0 1 598.221 -79.737 L598.218 -79.737A 0.979 0.979 0 0 1 597.283 -80.279A 1.118 1.118 0 0 1 597.217 -80.647 z M597.095 -81.803A 0.354 0.354 0 0 1 596.841 -81.903A 0.354 0.354 0 0 1 596.734 -82.154A 0.446 0.446 0 0 1 597.176 -82.601A 0.35 0.35 0 0 1 597.431 -82.504A 0.35 0.35 0 0 1 597.539 -82.254A 0.449 0.449 0 0 1 597.102 -81.803 L597.087 -81.803 M595.418 -86.271A 2.48 2.48 0 0 0 598.262 -88.145A 2.323 2.323 0 0 0 598.15 -89.885A 2.007 2.007 0 0 0 596.292 -90.878A 2.427 2.427 0 0 0 593.97 -89.221A 2.441 2.441 0 0 0 594.001 -87.235A 1.959 1.959 0 0 0 595.418 -86.272 M593.44 -84A 4.401 4.401 0 0 1 591.045 -86.207A 4.512 4.512 0 0 1 590.695 -88.58A 5.452 5.452 0 0 1 594.682 -93.304A 6.218 6.218 0 0 1 598.886 -93.071A 4.698 4.698 0 0 1 600.647 -91.7A 4.167 4.167 0 0 1 601.485 -89.148A 5.501 5.501 0 0 1 597.478 -83.822A 6.247 6.247 0 0 1 593.437 -83.993 M592.626 -83.066A 0.06 0.06 0 0 1 592.654 -82.985A 0.06 0.06 0 0 1 592.6 -82.952 L584.562 -82.952A 0.06 0.06 0 0 1 584.502 -83.012A 0.06 0.06 0 0 1 584.516 -83.05 L589.24 -88.68A 4.786 4.786 0 0 1 587.106 -88.23 L587.104 -88.23A 7.804 7.804 0 0 1 584.291 -88.738A 5.922 5.922 0 0 1 583.153 -89.335A 4.301 4.301 0 0 1 582.283 -90.11 L582.272 -90.128 L582.268 -90.149 L582.272 -90.171 L582.282 -90.189 L584 -92.246A 0.06 0.06 0 0 1 584.045 -92.267A 0.06 0.06 0 0 1 584.091 -92.247A 3.539 3.539 0 0 0 585.48 -91.212A 4.472 4.472 0 0 0 587.518 -90.815A 0.698 0.698 0 0 0 588.005 -91.053A 0.191 0.191 0 0 0 587.957 -91.309A 2.629 2.629 0 0 0 587.076 -91.704A 15.428 15.428 0 0 1 585.169 -92.411 L584.65 -92.709A 2.563 2.563 0 0 1 583.555 -94.07A 3.151 3.151 0 0 1 584.524 -97.1A 3.931 3.931 0 0 1 586.661 -98.122A 6.352 6.352 0 0 1 590.952 -97.298 L591.408 -96.975 L591.413 -96.971 L591.828 -96.602A 0.06 0.06 0 0 1 591.834 -96.518 L590.103 -94.516A 0.06 0.06 0 0 1 590.061 -94.495A 0.06 0.06 0 0 1 590.018 -94.51A 4.211 4.211 0 0 0 587.028 -95.648A 0.456 0.456 0 0 0 586.629 -95.393 L586.627 -95.332 L586.645 -95.261 L586.705 -95.188A 2.099 2.099 0 0 0 587.358 -94.876A 20.147 20.147 0 0 1 589.318 -94.171A 4.547 4.547 0 0 1 590.437 -93.458A 2.336 2.336 0 0 1 591.125 -92.377 L591.128 -92.356 L591.123 -92.335 L591.111 -92.317A 6.632 6.632 0 0 0 589.517 -88.849 L589.516 -88.845 L589.516 -88.837A 6.95 6.95 0 0 0 589.447 -87.873 L589.447 -87.868A 5.116 5.116 0 0 0 592.275 -83.246 L592.626 -83.066 z M603.026 -88.769 L607.463 -94.058 L599.831 -94.058A 5.271 5.271 0 0 1 602.777 -90.115A 7.523 7.523 0 0 1 602.829 -89.297A 7.127 7.127 0 0 1 602.781 -88.475 L603.026 -88.769 z M570.2 -87.071A 0.797 0.797 0 0 0 570.432 -86.443A 0.91 0.91 0 0 0 571.056 -86.254A 40.171 40.171 0 0 1 571.465 -86.292A 0.732 0.732 0 0 1 572.199 -85.563A 0.732 0.732 0 0 1 571.731 -84.877A 3.256 3.256 0 0 1 569.581 -84.855A 1.617 1.617 0 0 1 568.631 -86.042A 3.048 3.048 0 0 1 568.545 -86.821 L568.545 -90.448A 1.25 1.25 0 0 1 567.993 -90.507A 0.758 0.758 0 0 1 567.6 -91.505A 0.758 0.758 0 0 1 568.295 -91.961 L568.545 -91.96 L568.545 -92.994A 0.828 0.828 0 0 1 569.336 -93.856A 0.828 0.828 0 0 1 569.957 -93.614A 0.828 0.828 0 0 1 570.198 -92.994 L570.2 -91.96 L571.351 -91.96A 0.755 0.755 0 0 1 572.12 -91.218A 0.755 0.755 0 0 1 571.899 -90.67A 0.755 0.755 0 0 1 571.352 -90.449 L570.2 -90.448 L570.2 -87.078 L570.2 -87.071 z M564.629 -87.567A 16.793 16.793 0 0 1 563.241 -88.011A 2.781 2.781 0 0 1 562.216 -88.689A 1.925 1.925 0 0 1 561.841 -90.432A 2.036 2.036 0 0 1 563.135 -91.921A 2.943 2.943 0 0 1 564.369 -92.161A 4.712 4.712 0 0 1 566.087 -91.822 L566.619 -91.579A 0.736 0.736 0 0 1 566.974 -90.601A 0.736 0.736 0 0 1 566.606 -90.24A 0.807 0.807 0 0 1 565.964 -90.273 L565.533 -90.474 L565.11 -90.624 L564.703 -90.719 L564.323 -90.753A 1.088 1.088 0 0 0 563.521 -90.476A 0.535 0.535 0 0 0 563.573 -89.722A 0.535 0.535 0 0 0 563.651 -89.666 L563.844 -89.555A 13.825 13.825 0 0 0 565.34 -89.037A 4.281 4.281 0 0 1 566.459 -88.462A 2.035 2.035 0 0 1 566.88 -88.029A 1.822 1.822 0 0 1 567.172 -86.705A 2.04 2.04 0 0 1 565.782 -84.92A 2.784 2.784 0 0 1 565.04 -84.729A 4.785 4.785 0 0 1 561.629 -85.652A 0.729 0.729 0 0 1 561.651 -86.683A 0.729 0.729 0 0 1 562.157 -86.886A 0.82 0.82 0 0 1 562.529 -86.78A 3.633 3.633 0 0 0 564.78 -86.108A 1.137 1.137 0 0 0 565.433 -86.398A 0.582 0.582 0 0 0 565.579 -86.859A 0.582 0.582 0 0 0 565.326 -87.271A 2.918 2.918 0 0 0 564.629 -87.567 z M555.824 -90.212 L555.547 -89.959A 2.3 2.3 0 0 0 555.024 -88.022 L555.131 -87.626 L555.305 -87.26 L555.538 -86.936 L555.825 -86.663A 1.835 1.835 0 0 0 558.399 -86.991A 1.835 1.835 0 0 0 558.569 -87.256 L558.748 -87.618A 2.371 2.371 0 0 0 558.59 -89.593 L558.363 -89.92A 1.842 1.842 0 0 0 555.823 -90.213 M553.602 -89.95A 3.501 3.501 0 0 1 555.594 -91.957A 3.016 3.016 0 0 1 558.274 -91.545A 3.672 3.672 0 0 1 558.917 -90.91A 3.254 3.254 0 0 1 558.928 -91.476A 0.826 0.826 0 0 1 559.879 -92.154A 0.826 0.826 0 0 1 560.568 -91.336 L560.568 -85.52A 0.826 0.826 0 0 1 559.745 -84.691A 0.826 0.826 0 0 1 558.916 -85.497 L558.916 -85.966A 2.962 2.962 0 0 1 555.022 -85.191A 3.806 3.806 0 0 1 553.344 -88.809A 3.417 3.417 0 0 1 553.6 -89.95 M547.095 -89.181 L546.93 -89.615 L546.384 -91.047A 0.801 0.801 0 0 1 546.822 -92.092A 0.801 0.801 0 0 1 547.049 -92.148A 0.822 0.822 0 0 1 547.926 -91.632 L549.734 -86.889 L551.542 -91.632A 0.828 0.828 0 0 1 552.613 -92.107A 0.828 0.828 0 0 1 553.091 -91.044 L552.056 -88.347 L551.027 -85.648A 1.445 1.445 0 0 1 550.236 -84.786A 1.351 1.351 0 0 1 549.153 -84.827A 1.351 1.351 0 0 1 548.449 -85.65A 260.857 260.857 0 0 1 547.097 -89.181 M539.955 -88.854A 2.323 2.323 0 0 0 540.471 -86.935 L540.759 -86.663A 1.835 1.835 0 0 0 543.333 -86.991A 1.835 1.835 0 0 0 543.503 -87.256 L543.682 -87.618A 2.371 2.371 0 0 0 543.524 -89.593 L543.297 -89.92A 1.846 1.846 0 0 0 540.698 -90.168A 1.846 1.846 0 0 0 540.482 -89.957 L540.245 -89.64 L540.068 -89.274 L539.957 -88.869 L539.955 -88.854 z M538.298 -89.041A 3.653 3.653 0 0 1 540.236 -91.837A 2.971 2.971 0 0 1 543.849 -90.909A 3.431 3.431 0 0 1 543.861 -91.476A 0.826 0.826 0 0 1 544.813 -92.153A 0.826 0.826 0 0 1 545.502 -91.336 L545.502 -85.52A 0.826 0.826 0 0 1 544.678 -84.691A 0.826 0.826 0 0 1 543.849 -85.497 L543.85 -85.966A 2.962 2.962 0 0 1 539.956 -85.191A 3.806 3.806 0 0 1 538.278 -88.809 L538.298 -89.041 z M529.307 -90.06A 0.06 0.06 0 0 1 529.32 -90.057A 1.518 1.518 0 0 1 530.387 -89.044A 1.759 1.759 0 0 1 529.851 -87.068A 1.435 1.435 0 0 1 528.679 -86.812A 1.435 1.435 0 0 1 527.722 -87.535A 1.749 1.749 0 0 1 528.124 -89.816A 1.465 1.465 0 0 1 529.307 -90.06 z M527.155 -90.269A 2.699 2.699 0 0 0 526.504 -87.916A 2.474 2.474 0 0 0 528.024 -85.979A 2.073 2.073 0 0 0 530.385 -86.803 L530.402 -86.817 L530.422 -86.825 L530.444 -86.825 L530.465 -86.817 L530.481 -86.803 L530.491 -86.784 L530.495 -86.763 L530.495 -86.306A 0.493 0.493 0 0 0 530.997 -85.822A 0.493 0.493 0 0 0 531.363 -85.994 L531.452 -86.159 L531.48 -86.322 L531.48 -90.512A 0.497 0.497 0 0 0 530.983 -91.009A 0.497 0.497 0 0 0 530.611 -90.842 L530.523 -90.68 L530.495 -90.51 L530.495 -90.085A 0.06 0.06 0 0 1 530.435 -90.025A 0.06 0.06 0 0 1 530.388 -90.047A 2.127 2.127 0 0 0 528.951 -90.95A 2.029 2.029 0 0 0 527.155 -90.269 z M524.679 -90.509A 4.367 4.367 0 0 0 524.577 -91.94A 15.691 15.691 0 0 1 524.252 -93.134A 1.26 1.26 0 0 1 525.212 -94.635A 1.26 1.26 0 0 1 525.673 -94.65A 0.958 0.958 0 0 1 526.162 -94.498A 18.066 18.066 0 0 0 527.07 -93.827A 3.386 3.386 0 0 0 531.456 -94.712A 10.551 10.551 0 0 1 532.014 -95.455A 2.66 2.66 0 0 1 533.835 -96.293A 2.637 2.637 0 0 1 536.561 -93.913A 2.503 2.503 0 0 1 535.63 -91.631 L535.329 -91.399A 3.737 3.737 0 0 0 534.125 -90.263A 3.053 3.053 0 0 0 534.899 -86.327A 35.506 35.506 0 0 1 535.84 -85.757A 3.112 3.112 0 0 1 536.619 -81.426A 3.112 3.112 0 0 1 536.268 -81.006A 2.994 2.994 0 0 1 532.713 -80.387A 2.879 2.879 0 0 1 531.682 -81.177 L531.408 -81.454 L531.125 -81.713 L530.489 -82.19 L529.822 -82.607A 7.076 7.076 0 0 0 526.252 -83.504A 7.288 7.288 0 0 0 523.459 -83.001A 2.209 2.209 0 0 1 522.182 -83.047A 1.896 1.896 0 0 1 521.111 -84.086A 1.896 1.896 0 0 1 521.124 -85.579A 2.117 2.117 0 0 1 522.142 -86.581A 5.533 5.533 0 0 0 524.506 -89.528 L524.6 -89.924 L524.665 -90.326 L524.679 -90.509 z M517.025 -91.253A 0.812 0.812 0 0 0 517.821 -92.081A 0.812 0.812 0 0 0 517.795 -92.268A 0.803 0.803 0 0 0 516.881 -92.941A 0.803 0.803 0 0 0 516.199 -92.108A 0.813 0.813 0 0 0 516.426 -91.5A 0.813 0.813 0 0 0 517.026 -91.251 M515.464 -91.7A 1.544 1.544 0 0 1 516.551 -93.595A 1.544 1.544 0 0 1 517.005 -93.648A 1.539 1.539 0 0 1 518.604 -92.171A 1.539 1.539 0 0 1 518.481 -91.503A 1.538 1.538 0 0 1 517.008 -90.55A 1.537 1.537 0 0 1 515.459 -91.699 M513.363 -92.303 L513.363 -93.545A 0.06 0.06 0 0 1 513.423 -93.605 L514.051 -93.605A 0.06 0.06 0 0 1 514.111 -93.545 L514.111 -90.654A 0.06 0.06 0 0 1 514.051 -90.594 L513.51 -90.594A 0.06 0.06 0 0 1 513.462 -90.617 L512.17 -92.314 L512.17 -90.654A 0.06 0.06 0 0 1 512.11 -90.594 L511.482 -90.594A 0.06 0.06 0 0 1 511.422 -90.654 L511.422 -93.545A 0.06 0.06 0 0 1 511.482 -93.605 L512.068 -93.605A 0.06 0.06 0 0 1 512.116 -93.581 L513.363 -91.943 L513.363 -92.303 z M508.921 -92.203 L509.098 -92.228A 0.352 0.352 0 0 0 509.319 -92.674A 0.352 0.352 0 0 0 509.225 -92.819 L509.089 -92.886 L508.894 -92.911 L508.326 -92.911 L508.326 -92.201 L508.906 -92.201 L508.921 -92.203 z M507.57 -92.019 L507.57 -93.545A 0.06 0.06 0 0 1 507.63 -93.605 L508.951 -93.605A 1.24 1.24 0 0 1 509.843 -93.291A 1.059 1.059 0 0 1 510.104 -92.496A 1.059 1.059 0 0 1 509.706 -91.76 L509.51 -91.664 L510.178 -90.688A 0.06 0.06 0 0 1 510.163 -90.604A 0.06 0.06 0 0 1 510.129 -90.594 L509.385 -90.594A 0.06 0.06 0 0 1 509.335 -90.62 L508.734 -91.519 L508.326 -91.519 L508.326 -90.654A 0.06 0.06 0 0 1 508.266 -90.594 L507.63 -90.594A 0.06 0.06 0 0 1 507.57 -90.654 L507.57 -92.019 z M505.415 -91.725 L505.317 -91.767 L505.118 -91.787 L504.446 -91.787 L504.446 -91.271 L505.138 -91.271 L505.316 -91.289A 0.242 0.242 0 0 0 505.532 -91.555A 0.242 0.242 0 0 0 505.508 -91.637 L505.442 -91.713 L505.415 -91.725 z M504.566 -92.436 L504.969 -92.436 L505.149 -92.453 L505.273 -92.5A 0.225 0.225 0 0 0 505.333 -92.812A 0.225 0.225 0 0 0 505.176 -92.909 L505.01 -92.927 L504.446 -92.927 L504.446 -92.436 L504.566 -92.436 z M503.706 -91.645 L503.706 -93.545A 0.06 0.06 0 0 1 503.766 -93.605 L505.109 -93.605A 1.131 1.131 0 0 1 505.912 -93.329A 0.776 0.776 0 0 1 506.125 -92.762A 0.776 0.776 0 0 1 505.865 -92.214 L505.801 -92.174A 0.755 0.755 0 0 1 506.256 -91.242A 0.824 0.824 0 0 1 505.596 -90.644A 1.898 1.898 0 0 1 505.141 -90.594 L503.766 -90.594A 0.06 0.06 0 0 1 503.706 -90.654 L503.706 -91.645 z M499.47 -87.748A 0.06 0.06 0 0 1 499.41 -87.688 L498.132 -87.688A 0.06 0.06 0 0 1 498.071 -87.748 L498.071 -92.337 L495.234 -92.337A 0.06 0.06 0 0 1 495.174 -92.397 L495.174 -93.56A 0.06 0.06 0 0 1 495.234 -93.62 L499.41 -93.62A 0.06 0.06 0 0 1 499.47 -93.56 L499.47 -87.748 z M498.132 -85.334 L499.41 -85.334A 0.06 0.06 0 0 1 499.47 -85.274 L499.47 -79.462A 0.06 0.06 0 0 1 499.41 -79.403 L495.234 -79.403A 0.06 0.06 0 0 1 495.174 -79.462 L495.174 -80.625A 0.06 0.06 0 0 1 495.234 -80.685 L498.071 -80.685 L498.071 -85.274A 0.06 0.06 0 0 1 498.132 -85.334 z M492.488 -85.907A 1.193 1.193 0 0 0 491.815 -86.057 L490.399 -86.059 L490.399 -84.9 L491.857 -84.9A 1.03 1.03 0 0 0 492.584 -85.118A 0.561 0.561 0 0 0 492.703 -85.534A 0.561 0.561 0 0 0 492.49 -85.911 M490.519 -87.241 L491.516 -87.241A 1.095 1.095 0 0 0 492.256 -87.449A 0.527 0.527 0 0 0 492.202 -88.192A 0.527 0.527 0 0 0 491.945 -88.313 L491.785 -88.34 L491.599 -88.35 L490.399 -88.35 L490.399 -87.241 L490.519 -87.241 z M489.033 -87.042 L489.033 -89.531A 0.06 0.06 0 0 1 489.093 -89.591 L491.792 -89.591A 2.36 2.36 0 0 1 493.22 -89.182A 1.469 1.469 0 0 1 493.749 -87.767A 1.315 1.315 0 0 1 493.068 -86.772A 1.657 1.657 0 0 1 493.924 -86.082A 1.717 1.717 0 0 1 493.844 -84.433A 1.576 1.576 0 0 1 493.467 -84.065A 2.409 2.409 0 0 1 492.338 -83.687 L492.335 -83.684 L492.331 -83.684 L491.861 -83.659 L491.858 -83.659 L489.093 -83.659A 0.06 0.06 0 0 1 489.033 -83.719 L489.033 -87.042 z M484.1 -86.378 L483.485 -87.878 L482.803 -86.212 L484.168 -86.212 L484.1 -86.378 z M481.319 -85.981 L482.857 -89.596A 0.06 0.06 0 0 1 482.913 -89.632 L484.091 -89.632A 0.06 0.06 0 0 1 484.147 -89.596 L486.637 -83.742A 0.06 0.06 0 0 1 486.605 -83.664A 0.06 0.06 0 0 1 486.582 -83.659 L485.245 -83.659A 0.06 0.06 0 0 1 485.19 -83.696 L484.674 -84.962 L482.297 -84.962 L481.781 -83.696A 0.06 0.06 0 0 1 481.725 -83.659 L480.422 -83.659A 0.06 0.06 0 0 1 480.362 -83.719A 0.06 0.06 0 0 1 480.366 -83.742 L481.319 -85.981 z M476.791 -85.334A 0.06 0.06 0 0 1 476.851 -85.274 L476.851 -80.685 L479.689 -80.685A 0.06 0.06 0 0 1 479.749 -80.625 L479.749 -79.463A 0.06 0.06 0 0 1 479.689 -79.403 L475.513 -79.403A 0.06 0.06 0 0 1 475.453 -79.463 L475.453 -85.274A 0.06 0.06 0 0 1 475.513 -85.334 L476.791 -85.334 z M476.791 -87.688 L475.513 -87.688A 0.06 0.06 0 0 1 475.453 -87.748 L475.453 -93.56A 0.06 0.06 0 0 1 475.513 -93.62 L479.938 -93.62A 0.06 0.06 0 0 1 479.998 -93.56 L479.998 -92.397A 0.06 0.06 0 0 1 479.938 -92.337 L476.851 -92.337 L476.851 -91.22 L479.564 -91.22A 0.06 0.06 0 0 1 479.624 -91.16 L479.624 -89.998A 0.06 0.06 0 0 1 479.564 -89.938 L476.851 -89.938 L476.851 -87.748A 0.06 0.06 0 0 1 476.791 -87.688 z M497.469 -46.935A 0.06 0.06 0 0 1 497.477 -46.955 L497.533 -47.052A 0.06 0.06 0 0 1 497.549 -47.07 L497.643 -47.139A 0.06 0.06 0 0 1 497.666 -47.149 L497.787 -47.175 L497.793 -47.176 L497.799 -47.176 L498.304 -47.176 L498.31 -47.176 L498.316 -47.175 L498.437 -47.15A 0.06 0.06 0 0 1 498.459 -47.141 L498.555 -47.074A 0.06 0.06 0 0 1 498.571 -47.057 L498.634 -46.961A 0.06 0.06 0 0 1 498.642 -46.94 L498.664 -46.826 L498.665 -46.82 L498.665 -46.815 L498.665 -46.706A 1.865 1.865 0 0 1 500.11 -47.293A 2.151 2.151 0 0 1 501.719 -46.673A 1.996 1.996 0 0 1 501.974 -46.332A 2.031 2.031 0 0 1 503.51 -47.275A 2.946 2.946 0 0 1 504.972 -47.091A 1.856 1.856 0 0 1 505.997 -45.804A 3.645 3.645 0 0 1 506.143 -44.977 L506.166 -44.353 L506.167 -44.35 L506.167 -41.213 L506.166 -41.207 L506.165 -41.201 L506.14 -41.079A 0.06 0.06 0 0 1 506.13 -41.056 L506.061 -40.959A 0.06 0.06 0 0 1 506.044 -40.943 L505.943 -40.882A 0.06 0.06 0 0 1 505.922 -40.874 L505.804 -40.852 L505.799 -40.852 L505.793 -40.852 L505.288 -40.852 L505.282 -40.852 L505.277 -40.853 L505.163 -40.875A 0.06 0.06 0 0 1 505.141 -40.885 L505.047 -40.949A 0.06 0.06 0 0 1 505.031 -40.966 L504.97 -41.063A 0.06 0.06 0 0 1 504.961 -41.084 L504.94 -41.202 L504.939 -41.208 L504.939 -41.213 L504.939 -44.41A 2.909 2.909 0 0 0 504.729 -45.659A 0.995 0.995 0 0 0 503.881 -46.165A 1.385 1.385 0 0 0 502.861 -45.93 L502.699 -45.739 L502.572 -45.495 L502.484 -45.191 L502.432 -44.828 L502.416 -44.409 L502.416 -41.213 L502.415 -41.208 L502.415 -41.202 L502.393 -41.084A 0.06 0.06 0 0 1 502.384 -41.062 L502.321 -40.964A 0.06 0.06 0 0 1 502.303 -40.947 L502.206 -40.883A 0.06 0.06 0 0 1 502.184 -40.874 L502.065 -40.853 L502.06 -40.852 L502.055 -40.852 L501.55 -40.852 L501.544 -40.852 L501.539 -40.853 L501.421 -40.874A 0.06 0.06 0 0 1 501.399 -40.883 L501.301 -40.947A 0.06 0.06 0 0 1 501.284 -40.964 L501.22 -41.062A 0.06 0.06 0 0 1 501.211 -41.084 L501.189 -41.202 L501.188 -41.208 L501.188 -41.213 L501.188 -44.41A 2.834 2.834 0 0 0 500.958 -45.698A 0.99 0.99 0 0 0 500.129 -46.166A 1.338 1.338 0 0 0 499.101 -45.904 L498.938 -45.7 L498.814 -45.447 L498.729 -45.141 L498.68 -44.789 L498.665 -44.397 L498.665 -41.213 L498.665 -41.208 L498.664 -41.202 L498.642 -41.084A 0.06 0.06 0 0 1 498.634 -41.062 L498.57 -40.964A 0.06 0.06 0 0 1 498.552 -40.947 L498.455 -40.883A 0.06 0.06 0 0 1 498.433 -40.874 L498.315 -40.853 L498.309 -40.852 L498.304 -40.852 L497.799 -40.852 L497.793 -40.852 L497.788 -40.853 L497.67 -40.875A 0.06 0.06 0 0 1 497.647 -40.885 L497.552 -40.951A 0.06 0.06 0 0 1 497.535 -40.97 L497.477 -41.068A 0.06 0.06 0 0 1 497.469 -41.089 L497.45 -41.203 L497.45 -41.208 L497.45 -41.213 L497.45 -46.815 L497.45 -46.82 L497.45 -46.825 L497.469 -46.935 z M493.577 -46.175A 1.297 1.297 0 0 0 492.307 -45.272 L492.226 -44.95 L492.198 -44.577 L492.198 -44.567 L494.985 -44.567A 1.978 1.978 0 0 0 494.754 -45.546A 1.282 1.282 0 0 0 493.592 -46.174 L493.577 -46.175 z M491.383 -46.095A 2.5 2.5 0 0 1 493.863 -47.274A 2.453 2.453 0 0 1 496.082 -45.376A 3.237 3.237 0 0 1 496.201 -44.483 L496.201 -43.881 L496.2 -43.875 L496.199 -43.869 L496.173 -43.748A 0.06 0.06 0 0 1 496.163 -43.724 L496.091 -43.63A 0.06 0.06 0 0 1 496.072 -43.614 L495.972 -43.558A 0.06 0.06 0 0 1 495.952 -43.551 L495.837 -43.533 L495.832 -43.532 L495.827 -43.532 L492.198 -43.532 L492.198 -43.427 L492.227 -43.069 L492.308 -42.756A 1.332 1.332 0 0 0 493.604 -41.852 L493.948 -41.878A 1.168 1.168 0 0 0 494.786 -42.485 L494.926 -42.776A 0.373 0.373 0 0 1 495.116 -42.986 L495.127 -42.991 L495.138 -42.994 L495.251 -43.016 L495.257 -43.016 L495.262 -43.017 L495.816 -43.017 L495.821 -43.016 L495.827 -43.016 L495.921 -42.998A 0.06 0.06 0 0 1 495.943 -42.989 L496.021 -42.938A 0.06 0.06 0 0 1 496.038 -42.921 L496.089 -42.842A 0.06 0.06 0 0 1 496.098 -42.82 L496.116 -42.727A 0.06 0.06 0 0 1 496.116 -42.705A 2.441 2.441 0 0 1 493.943 -40.757A 2.574 2.574 0 0 1 491.403 -41.889A 3.189 3.189 0 0 1 490.972 -43.557A 14.742 14.742 0 0 1 490.983 -44.793A 3.03 3.03 0 0 1 491.38 -46.096 M489.997 -46.045 L488.796 -46.045 L488.796 -43.221A 2.781 2.781 0 0 0 488.895 -42.305A 0.518 0.518 0 0 0 489.312 -42.04A 3.694 3.694 0 0 0 490.009 -42.007 L490.122 -41.984A 0.06 0.06 0 0 1 490.144 -41.975 L490.24 -41.913A 0.06 0.06 0 0 1 490.256 -41.897 L490.323 -41.801A 0.06 0.06 0 0 1 490.333 -41.779 L490.358 -41.658 L490.358 -41.652 L490.359 -41.646 L490.359 -41.213 L490.358 -41.207 L490.358 -41.201 L490.333 -41.08A 0.06 0.06 0 0 1 490.323 -41.058 L490.257 -40.961A 0.06 0.06 0 0 1 490.24 -40.945 L490.144 -40.883A 0.06 0.06 0 0 1 490.123 -40.875A 3.752 3.752 0 0 1 488.504 -41.022A 1.545 1.545 0 0 1 487.966 -41.424A 1.736 1.736 0 0 1 487.65 -42.175A 5.183 5.183 0 0 1 487.58 -43.124 L487.58 -46.045 L486.812 -46.045 L486.807 -46.045 L486.802 -46.045 L486.688 -46.064A 0.06 0.06 0 0 1 486.667 -46.072 L486.568 -46.13A 0.06 0.06 0 0 1 486.55 -46.147 L486.484 -46.242A 0.06 0.06 0 0 1 486.474 -46.265 L486.451 -46.383A 2.248 2.248 0 0 1 486.451 -46.826 L486.474 -46.94A 0.06 0.06 0 0 1 486.482 -46.961 L486.544 -47.057A 0.06 0.06 0 0 1 486.56 -47.074 L486.657 -47.141A 0.06 0.06 0 0 1 486.679 -47.15A 1.169 1.169 0 0 1 487.046 -47.185 L487.23 -47.216A 0.398 0.398 0 0 0 487.543 -47.507 L487.579 -47.684 L487.592 -47.922 L487.592 -48.377 L487.593 -48.383 L487.594 -48.389 L487.616 -48.503A 0.06 0.06 0 0 1 487.624 -48.524 L487.686 -48.62A 0.06 0.06 0 0 1 487.702 -48.637 L487.798 -48.703A 0.06 0.06 0 0 1 487.821 -48.713 L487.942 -48.738 L487.948 -48.738 L487.954 -48.739 L488.423 -48.739 L488.428 -48.739 L488.434 -48.738 L488.556 -48.714A 0.06 0.06 0 0 1 488.577 -48.705 L488.676 -48.641A 0.06 0.06 0 0 1 488.692 -48.625 L488.759 -48.529A 0.06 0.06 0 0 1 488.769 -48.507 L488.795 -48.39 L488.796 -48.384 L488.796 -48.377 L488.796 -47.176 L489.997 -47.176 L490.004 -47.176 L490.01 -47.175 L490.127 -47.15A 0.06 0.06 0 0 1 490.148 -47.14 L490.243 -47.075A 0.06 0.06 0 0 1 490.258 -47.06 L490.323 -46.965A 0.06 0.06 0 0 1 490.332 -46.944 L490.357 -46.827 L490.358 -46.821 L490.359 -46.815 L490.359 -46.394 L490.358 -46.388 L490.358 -46.382 L490.332 -46.261A 0.06 0.06 0 0 1 490.322 -46.238 L490.253 -46.144A 0.06 0.06 0 0 1 490.235 -46.128 L490.138 -46.072A 0.06 0.06 0 0 1 490.118 -46.064 L490.007 -46.045 L490.002 -46.045 L489.997 -46.045 z M481.188 -45.581A 1.964 1.964 0 0 1 481.887 -46.861A 2.583 2.583 0 0 1 483.484 -47.29A 2.819 2.819 0 0 1 485.005 -46.943A 1.767 1.767 0 0 1 485.717 -46.055A 3.443 3.443 0 0 1 485.898 -44.807 L485.899 -41.213 L485.899 -41.207 L485.898 -41.201 L485.873 -41.08A 0.06 0.06 0 0 1 485.864 -41.058 L485.797 -40.961A 0.06 0.06 0 0 1 485.78 -40.945 L485.684 -40.883A 0.06 0.06 0 0 1 485.663 -40.875 L485.549 -40.852 L485.543 -40.852 L485.538 -40.851 L485.069 -40.851 L485.063 -40.852 L485.058 -40.852 L484.94 -40.874A 0.06 0.06 0 0 1 484.918 -40.883 L484.82 -40.947A 0.06 0.06 0 0 1 484.803 -40.964 L484.739 -41.062A 0.06 0.06 0 0 1 484.73 -41.084 L484.709 -41.202 L484.708 -41.207 L484.708 -41.213 L484.708 -41.296A 1.791 1.791 0 0 1 483.765 -40.795A 3.493 3.493 0 0 1 482.161 -40.847A 1.958 1.958 0 0 1 481.496 -41.208A 1.79 1.79 0 0 1 480.89 -42.658A 1.752 1.752 0 0 1 481.485 -44.09A 2.439 2.439 0 0 1 482.824 -44.556 L482.83 -44.561 L483.251 -44.579 L483.254 -44.579 L484.708 -44.579A 3.093 3.093 0 0 0 484.614 -45.586A 0.876 0.876 0 0 0 483.873 -46.142A 2.072 2.072 0 0 0 482.756 -46.053A 0.822 0.822 0 0 0 482.361 -45.424 M482.356 -45.404 L482.33 -45.338 L482.327 -45.332 L482.324 -45.327 L482.276 -45.253A 0.06 0.06 0 0 1 482.261 -45.238 L482.177 -45.177A 0.06 0.06 0 0 1 482.153 -45.167 L482.039 -45.144 L482.033 -45.143 L482.028 -45.143 L481.51 -45.143 L481.505 -45.143 L481.5 -45.144 L481.391 -45.164A 0.06 0.06 0 0 1 481.369 -45.172 L481.279 -45.231A 0.06 0.06 0 0 1 481.261 -45.248 L481.202 -45.339A 0.06 0.06 0 0 1 481.194 -45.361 L481.174 -45.47 L481.174 -45.475 L481.173 -45.481 L481.174 -45.487 L481.177 -45.517 L481.177 -45.52 L481.178 -45.524 L481.182 -45.541 L481.187 -45.564 M479.709 -44.084 L479.709 -41.213 L479.708 -41.207 L479.707 -41.201 L479.682 -41.079A 0.06 0.06 0 0 1 479.672 -41.056 L479.603 -40.959A 0.06 0.06 0 0 1 479.586 -40.943 L479.485 -40.882A 0.06 0.06 0 0 1 479.465 -40.874 L479.346 -40.852A 2.362 2.362 0 0 1 478.904 -40.853 L478.785 -40.874A 0.06 0.06 0 0 1 478.764 -40.883 L478.666 -40.947A 0.06 0.06 0 0 1 478.647 -40.966 L478.579 -41.08A 0.06 0.06 0 0 1 478.57 -41.109 L478.505 -43.964 L478.505 -44.29 L476.594 -44.29 L476.589 -44.29 L476.584 -44.29 L476.465 -44.312A 0.06 0.06 0 0 1 476.443 -44.321 L476.346 -44.385A 0.06 0.06 0 0 1 476.328 -44.402 L476.265 -44.5A 0.06 0.06 0 0 1 476.256 -44.522 L476.234 -44.64A 2.458 2.458 0 0 1 476.233 -45.089 L476.234 -45.095 L476.256 -45.209A 0.06 0.06 0 0 1 476.265 -45.23 L476.327 -45.326A 0.06 0.06 0 0 1 476.343 -45.343 L476.439 -45.41A 0.06 0.06 0 0 1 476.461 -45.419 L476.582 -45.444 L476.588 -45.445 L476.594 -45.445 L479.335 -45.445 L479.341 -45.445 L479.347 -45.444 L479.468 -45.42A 0.06 0.06 0 0 1 479.489 -45.411 L479.589 -45.347A 0.06 0.06 0 0 1 479.605 -45.331 L479.672 -45.235A 0.06 0.06 0 0 1 479.682 -45.214 L479.707 -45.096 L479.708 -45.09 L479.709 -45.084 L479.709 -44.084 z M474.533 -43.758A 2.345 2.345 0 0 0 474.97 -42.645A 1.927 1.927 0 0 0 476.536 -41.9A 1.909 1.909 0 0 0 477.891 -42.413 L477.907 -42.422 L477.925 -42.426 L477.943 -42.424 L477.96 -42.416 L477.974 -42.404 L477.984 -42.387 L477.987 -42.369 L478.028 -41.18A 0.06 0.06 0 0 1 477.994 -41.124A 3.189 3.189 0 0 1 474.257 -41.602A 3.486 3.486 0 0 1 473.303 -43.731 L473.303 -43.751 L473.309 -43.769 L473.321 -43.785 L473.338 -43.795 L473.358 -43.799 L474.473 -43.808A 0.06 0.06 0 0 1 474.533 -43.758 z M474.443 -44.347 L473.336 -44.347A 0.06 0.06 0 0 1 473.276 -44.407 L473.276 -46.262A 3.663 3.663 0 0 1 473.998 -48.527A 3.191 3.191 0 0 1 476.858 -49.68A 2.984 2.984 0 0 1 479.546 -47.545A 3.879 3.879 0 0 1 479.705 -46.891 L479.709 -46.805 L479.709 -46.798 L479.708 -46.792 L479.692 -46.706A 0.06 0.06 0 0 1 479.682 -46.684 L479.633 -46.611A 0.06 0.06 0 0 1 479.614 -46.593 L479.541 -46.549A 0.06 0.06 0 0 1 479.52 -46.541 L479.429 -46.526 L479.424 -46.526 L479.419 -46.526 L478.782 -46.526 L478.777 -46.526 L478.773 -46.526 L478.677 -46.542A 0.06 0.06 0 0 1 478.653 -46.551 L478.567 -46.609A 0.06 0.06 0 0 1 478.548 -46.629 L478.498 -46.717 L478.496 -46.722 L478.493 -46.728A 2.292 2.292 0 0 0 478.119 -47.737A 1.928 1.928 0 0 0 476.195 -48.503A 1.911 1.911 0 0 0 474.603 -46.999 L474.545 -46.762 L474.514 -46.508 L474.503 -46.237 L474.503 -44.407A 0.06 0.06 0 0 1 474.443 -44.347 z M484.768 -43.64A 0.06 0.06 0 0 1 484.828 -43.58A 2.628 2.628 0 0 1 484.68 -42.475A 1.257 1.257 0 0 1 483.556 -41.722A 2.274 2.274 0 0 1 482.449 -41.831A 0.893 0.893 0 0 1 481.967 -42.42A 1.211 1.211 0 0 1 482.084 -43.241A 1.011 1.011 0 0 1 482.793 -43.608A 3.256 3.256 0 0 1 483.278 -43.64 L484.768 -43.64 z M507.501 -45.581A 2.019 2.019 0 0 1 508.061 -46.74A 2.138 2.138 0 0 1 509.359 -47.268A 3.474 3.474 0 0 1 511.086 -47.067A 1.766 1.766 0 0 1 512.031 -46.055A 3.448 3.448 0 0 1 512.211 -44.807 L512.213 -41.213 L512.212 -41.207 L512.211 -41.201 L512.188 -41.083A 0.06 0.06 0 0 1 512.178 -41.06 L512.111 -40.962A 0.06 0.06 0 0 1 512.094 -40.945 L511.997 -40.883A 0.06 0.06 0 0 1 511.976 -40.874 L511.863 -40.852 L511.857 -40.852 L511.851 -40.851 L511.383 -40.851 L511.377 -40.852 L511.372 -40.852 L511.253 -40.875A 0.06 0.06 0 0 1 511.231 -40.883 L511.134 -40.947A 0.06 0.06 0 0 1 511.117 -40.964 L511.053 -41.061A 0.06 0.06 0 0 1 511.044 -41.083 L511.022 -41.202 L511.021 -41.207 L511.021 -41.213 L511.021 -41.296A 1.767 1.767 0 0 1 510.259 -40.841A 3.374 3.374 0 0 1 508.475 -40.848A 1.933 1.933 0 0 1 507.809 -41.208A 1.79 1.79 0 0 1 507.204 -42.659A 1.843 1.843 0 0 1 507.555 -43.838A 1.656 1.656 0 0 1 507.968 -44.206A 2.758 2.758 0 0 1 509.144 -44.561 L509.565 -44.579 L509.567 -44.579 L511.021 -44.579A 3.093 3.093 0 0 0 510.927 -45.586A 0.851 0.851 0 0 0 510.284 -46.124A 2.125 2.125 0 0 0 509.069 -46.054A 0.824 0.824 0 0 0 508.675 -45.424 M508.67 -45.404 L508.643 -45.338 L508.641 -45.332 L508.638 -45.327 L508.59 -45.253A 0.06 0.06 0 0 1 508.575 -45.238 L508.491 -45.177A 0.06 0.06 0 0 1 508.467 -45.167 L508.353 -45.144 L508.347 -45.143 L508.341 -45.143 L507.824 -45.143 L507.819 -45.143 L507.813 -45.144 L507.703 -45.164A 0.06 0.06 0 0 1 507.681 -45.173 L507.592 -45.231A 0.06 0.06 0 0 1 507.575 -45.248 L507.517 -45.338A 0.06 0.06 0 0 1 507.508 -45.36 L507.488 -45.47 L507.487 -45.475 L507.487 -45.481 L507.487 -45.487 L507.491 -45.516 L507.492 -45.523 L507.496 -45.54 L507.5 -45.563 M508.624 -43.449A 1.792 1.792 0 0 1 509.591 -43.636 L511.081 -43.64A 0.06 0.06 0 0 1 511.141 -43.58A 2.626 2.626 0 0 1 510.994 -42.475A 1.257 1.257 0 0 1 509.87 -41.722A 2.274 2.274 0 0 1 508.763 -41.831A 1.086 1.086 0 0 1 508.45 -42.077A 0.991 0.991 0 0 1 508.28 -42.906A 0.696 0.696 0 0 1 508.624 -43.449 z"/>
    </g>
</svg>

