<?xml version="1.0" encoding="UTF-8" standalone="no"?>
<svg
   xmlns:dc="http://purl.org/dc/elements/1.1/"
   xmlns:cc="http://creativecommons.org/ns#"
   xmlns:rdf="http://www.w3.org/1999/02/22-rdf-syntax-ns#"
   xmlns:svg="http://www.w3.org/2000/svg"
   xmlns="http://www.w3.org/2000/svg"
   xmlns:sodipodi="http://sodipodi.sourceforge.net/DTD/sodipodi-0.dtd"
   xmlns:inkscape="http://www.inkscape.org/namespaces/inkscape"
   width="139.05011mm"
   height="102.94794mm"
   viewBox="-10 -610 139.05011 102.94795"
   version="1.1"
   id="svg34"
   sodipodi:docname="CAM-drevicka2mm-v2.svg"
   inkscape:version="0.92.4 (5da689c313, 2019-01-14)">
  <metadata
     id="metadata40">
    <rdf:RDF>
      <cc:Work
         rdf:about="">
        <dc:format>image/svg+xml</dc:format>
        <dc:type
           rdf:resource="http://purl.org/dc/dcmitype/StillImage" />
        <dc:title></dc:title>
      </cc:Work>
    </rdf:RDF>
  </metadata>
  <defs
     id="defs38" />
  <sodipodi:namedview
     pagecolor="#ffffff"
     bordercolor="#666666"
     borderopacity="1"
     objecttolerance="10"
     gridtolerance="10"
     guidetolerance="10"
     inkscape:pageopacity="0"
     inkscape:pageshadow="2"
     inkscape:window-width="1920"
     inkscape:window-height="1017"
     id="namedview36"
     showgrid="false"
     fit-margin-top="1"
     fit-margin-left="1"
     fit-margin-right="1"
     fit-margin-bottom="1"
     inkscape:zoom="1.1861876"
     inkscape:cx="368.89324"
     inkscape:cy="340.82384"
     inkscape:window-x="-8"
     inkscape:window-y="-8"
     inkscape:window-maximized="1"
     inkscape:current-layer="svg34" />
  <g
     id="Setup1"
     style="stroke-width:0.26458332;stroke-miterlimit:4;stroke-dasharray:none"
     transform="rotate(90,507.4841,-493.52782)">
    <path
       id="op_2D_Profile1-3-0"
       d="m 471.183,-9.378 a 1.39,1.39 0 0 0 -1.561,1.195 1.39,1.39 0 0 0 1.195,1.561 1.39,1.39 0 0 0 1.561,-1.195 1.39,1.39 0 0 0 -1.195,-1.561 z m 1.044,-27.955 a 1.44,1.44 0 0 0 1.44,1.44 1.44,1.44 0 0 0 1.44,-1.44 1.44,1.44 0 0 0 -1.44,-1.44 1.44,1.44 0 0 0 -1.44,1.44 z m -5,-4.412 a 1.44,1.44 0 0 0 2.028,0.185 1.44,1.44 0 0 0 0.185,-2.028 1.44,1.44 0 0 0 -2.028,-0.185 1.44,1.44 0 0 0 -0.185,2.028 z M 454.03,-53.714 a 1.39,1.39 0 0 0 -0.096,-1.963 1.39,1.39 0 0 0 -1.964,0.096 1.39,1.39 0 0 0 0.096,1.963 1.39,1.39 0 0 0 1.964,-0.096 z m 0,7.126 H 453 a 8.06,8.06 0 0 1 -8.06,-8.06 8.06,8.06 0 0 1 8.06,-8.06 h 12.94 v -4.14 a 0.06,0.06 0 0 1 0.06,-0.06 h 7.04 v -5.74 a 0.06,0.06 0 0 1 0.06,-0.06 h 8.8 a 0.06,0.06 0 0 1 0.06,0.06 v 5.74 H 489 a 0.06,0.06 0 0 1 0.06,0.06 v 4.14 H 492 a 0.06,0.06 0 0 1 0.06,0.06 v 16 a 0.06,0.06 0 0 1 -0.06,0.06 h -2.94 v 11.48 H 492 a 0.06,0.06 0 0 1 0.06,0.06 v 21.31 A 13.798,13.798 0 0 1 478.262,0.06 h -4.896 A 10.426,10.426 0 0 1 462.94,-10.366 v -24.682 a 0.06,0.06 0 0 1 0.06,-0.06 h 2.94 v -11.48 z"
       inkscape:connector-curvature="0"
       style="fill:none;stroke:#ff0000;stroke-width:0.26458332;stroke-miterlimit:4;stroke-dasharray:none" />
  </g>
  <g
     id="Setup2"
     style="stroke-width:0.26458332;stroke-miterlimit:4;stroke-dasharray:none"
     transform="rotate(-90,59.570176,-66.288164)">
    <path
       id="op_2D_Profile2-5-1"
       d="m 539.61,-19.6 a 1.39,1.39 0 0 0 1.39,1.39 1.39,1.39 0 0 0 1.39,-1.39 1.39,1.39 0 0 0 -1.39,-1.39 1.39,1.39 0 0 0 -1.39,1.39 z m 0,8.06 H 528.06 V 0 A 0.06,0.06 0 0 1 528,0.06 H 505 A 0.06,0.06 0 0 1 504.94,0 V -11.54 H 502 a 0.06,0.06 0 0 1 -0.06,-0.06 v -16 a 0.06,0.06 0 0 1 0.06,-0.06 h 2.94 v -4.14 a 0.06,0.06 0 0 1 0.06,-0.06 h 23 a 0.06,0.06 0 0 1 0.06,0.06 v 4.14 H 541 a 8.06,8.06 0 0 1 8.06,8.06 8.06,8.06 0 0 1 -8.06,8.06 z"
       inkscape:connector-curvature="0"
       style="fill:none;stroke:#ff0000;stroke-width:0.26458332;stroke-miterlimit:4;stroke-dasharray:none" />
  </g>
  <g
     id="Setup3"
     style="stroke-width:0.26458332;stroke-miterlimit:4;stroke-dasharray:none"
     transform="rotate(97.686258,535.0113,-543.78289)">
    <path
       id="op_2D_Profile3-7-2"
       d="m 632.155,-19.959 a 1.34,1.34 0 0 0 1.34,1.34 1.34,1.34 0 0 0 1.34,-1.34 1.34,1.34 0 0 0 -1.34,-1.34 1.34,1.34 0 0 0 -1.34,1.34 z m -57.622,2.749 a 1.44,1.44 0 0 0 1.156,1.676 1.44,1.44 0 0 0 1.677,-1.155 1.44,1.44 0 0 0 -1.156,-1.677 1.44,1.44 0 0 0 -1.677,1.156 z m -7.561,1.367 a 1.44,1.44 0 0 0 0.185,-2.028 1.44,1.44 0 0 0 -2.028,-0.185 1.44,1.44 0 0 0 -0.185,2.028 1.44,1.44 0 0 0 2.028,0.185 z m 0.185,7.871 a 1.44,1.44 0 0 0 -2.028,-0.185 1.44,1.44 0 0 0 -0.185,2.028 1.44,1.44 0 0 0 2.028,0.185 1.44,1.44 0 0 0 0.185,-2.028 z m 7.361,0.772 a 1.44,1.44 0 0 0 1.282,1.582 1.44,1.44 0 0 0 1.582,-1.282 1.44,1.44 0 0 0 -1.282,-1.582 1.44,1.44 0 0 0 -1.582,1.282 z m 1.263,6.561 -2.501,0.482 a 12.06,12.06 0 0 1 -12.806,-5.957 12.06,12.06 0 0 1 -1.437,-4.362 12.06,12.06 0 0 1 2.666,-9.205 12.06,12.06 0 0 1 8.536,-4.355 l 62.748,-3.967 a 8.06,8.06 0 0 1 8.552,7.536 8.06,8.06 0 0 1 -6.52,8.423 z"
       inkscape:connector-curvature="0"
       style="fill:none;stroke:#ff0000;stroke-width:0.26458332;stroke-miterlimit:4;stroke-dasharray:none" />
  </g>
  <g
     id="Setup4"
     style="stroke-width:0.26458332;stroke-miterlimit:4;stroke-dasharray:none"
     transform="translate(-547.63719,-564.87734)">
    <path
       id="op_2D_Profile4-9-3"
       d="m 667.005,-16.95 a 1.44,1.44 0 0 0 1.44,1.44 1.44,1.44 0 0 0 1.44,-1.44 1.44,1.44 0 0 0 -1.44,-1.44 1.44,1.44 0 0 0 -1.44,1.44 z m -7.538,1.107 a 1.44,1.44 0 0 0 0.185,-2.028 1.44,1.44 0 0 0 -2.028,-0.185 1.44,1.44 0 0 0 -0.185,2.028 1.44,1.44 0 0 0 2.028,0.185 z m 0.185,7.871 a 1.44,1.44 0 0 0 -2.028,-0.185 1.44,1.44 0 0 0 -0.185,2.028 1.44,1.44 0 0 0 2.028,0.185 1.44,1.44 0 0 0 0.185,-2.028 z m 7.361,0.772 a 1.44,1.44 0 0 0 1.282,1.582 1.44,1.44 0 0 0 1.582,-1.282 1.44,1.44 0 0 0 -1.282,-1.582 1.44,1.44 0 0 0 -1.582,1.282 z m 3.611,4.927 a 12.06,12.06 0 0 1 -7.129,2.333 12.06,12.06 0 0 1 -12.06,-12.06 12.06,12.06 0 0 1 12.06,-12.06 12.06,12.06 0 0 1 12.06,12.06 12.06,12.06 0 0 1 -3.532,8.528 12.06,12.06 0 0 1 -1.399,1.199 z"
       inkscape:connector-curvature="0"
       style="fill:none;stroke:#ff0000;stroke-width:0.26458332;stroke-miterlimit:4;stroke-dasharray:none" />
  </g>
  <g
     id="Setup5"
     style="stroke-width:0.26458332;stroke-miterlimit:4;stroke-dasharray:none"
     transform="translate(-648.77442,-559.21067)">
    <path
       id="op_2D_Profile5-11-4"
       d="m 693.678,-9.378 a 1.39,1.39 0 0 0 -1.561,1.195 1.39,1.39 0 0 0 1.195,1.561 1.39,1.39 0 0 0 1.561,-1.195 1.39,1.39 0 0 0 -1.195,-1.561 z m 1.298,-27.138 a 1.44,1.44 0 0 0 2.003,0.368 1.44,1.44 0 0 0 0.369,-2.003 1.44,1.44 0 0 0 -2.003,-0.368 1.44,1.44 0 0 0 -0.369,2.003 z m -3.342,-4.957 a 1.44,1.44 0 0 0 0.388,-1.999 1.44,1.44 0 0 0 -1.998,-0.389 1.44,1.44 0 0 0 -0.389,1.999 1.44,1.44 0 0 0 1.999,0.389 z m -6.199,0 V -48 a 0.06,0.06 0 0 1 0.06,-0.06 h 16 a 0.06,0.06 0 0 1 0.06,0.06 v 45 a 3.06,3.06 0 0 1 -3.06,3.06 h -2.634 a 10.426,10.426 0 0 1 -10.426,-10.426 z"
       inkscape:connector-curvature="0"
       style="fill:none;stroke:#ff0000;stroke-width:0.26458332;stroke-miterlimit:4;stroke-dasharray:none" />
  </g>
  <g
     id="Setup7"
     style="stroke-width:0.26458332;stroke-miterlimit:4;stroke-dasharray:none"
     transform="translate(-628.27048,-592.01699)">
    <path
       id="op_2D_Profile6-18-5"
       d="m 721.24,-6.44 a 1.44,1.44 0 0 0 -0.185,2.028 1.44,1.44 0 0 0 2.028,0.185 1.44,1.44 0 0 0 0.185,-2.028 1.44,1.44 0 0 0 -2.028,-0.185 z m -3.372,-3.23 a 1.44,1.44 0 0 0 -0.043,-2.036 1.44,1.44 0 0 0 -2.036,0.043 1.44,1.44 0 0 0 0.043,2.036 1.44,1.44 0 0 0 2.036,-0.043 z m 0,-6.39 h 9.627 a 0.06,0.06 0 0 1 0.06,0.06 V 0 a 0.06,0.06 0 0 1 -0.06,0.06 h -16 A 0.06,0.06 0 0 1 711.435,0 v -16 a 0.06,0.06 0 0 1 0.06,-0.06 z"
       inkscape:connector-curvature="0"
       style="fill:none;stroke:#ff0000;stroke-width:0.26458332;stroke-miterlimit:4;stroke-dasharray:none" />
  </g>
  <g
     id="Setup8"
     style="stroke-width:0.26458332;stroke-miterlimit:4;stroke-dasharray:none"
     transform="translate(-718.80329,-560.15701)">
    <path
       id="op_2D_Profile7-20-6"
       d="m 745.678,-9.378 a 1.39,1.39 0 0 0 -1.561,1.195 1.39,1.39 0 0 0 1.195,1.561 1.39,1.39 0 0 0 1.561,-1.195 1.39,1.39 0 0 0 -1.195,-1.561 z m 1.044,-27.955 a 1.44,1.44 0 0 0 1.44,1.44 1.44,1.44 0 0 0 1.44,-1.44 1.44,1.44 0 0 0 -1.44,-1.44 1.44,1.44 0 0 0 -1.44,1.44 z m -3.044,-4.171 a 1.44,1.44 0 0 0 0.314,-2.012 1.44,1.44 0 0 0 -2.012,-0.314 1.44,1.44 0 0 0 -0.315,2.012 1.44,1.44 0 0 0 2.013,0.314 z m -6.243,0 V -48 a 0.06,0.06 0 0 1 0.06,-0.06 h 16 a 0.06,0.06 0 0 1 0.06,0.06 v 45 a 3.06,3.06 0 0 1 -3.06,3.06 h -10 A 3.06,3.06 0 0 1 737.435,-3 Z"
       inkscape:connector-curvature="0"
       style="fill:none;stroke:#ff0000;stroke-width:0.26458332;stroke-miterlimit:4;stroke-dasharray:none" />
  </g>
  <g
     id="Setup9"
     style="stroke-width:0.26458332;stroke-miterlimit:4;stroke-dasharray:none"
     transform="translate(-707.44725,-579.71462)">
    <path
       id="op_2D_Profile8-22-7"
       d="m 783.495,-6.66 a 1.34,1.34 0 0 0 1.34,-1.34 1.34,1.34 0 0 0 -1.34,-1.34 1.34,1.34 0 0 0 -1.34,1.34 1.34,1.34 0 0 0 1.34,1.34 z m 4.359,1.947 a 8.06,8.06 0 0 1 -7.359,4.773 h -17 A 0.06,0.06 0 0 1 763.435,0 v -19.427 a 0.06,0.06 0 0 1 0.021,-0.045 0.06,0.06 0 0 1 0.047,-0.015 l 18.087,2.48 a 8.06,8.06 0 0 1 6.965,7.985 V -8 a 8.06,8.06 0 0 1 -0.701,3.287 z"
       inkscape:connector-curvature="0"
       style="fill:none;stroke:#ff0000;stroke-width:0.26458332;stroke-miterlimit:4;stroke-dasharray:none" />
  </g>
  <g
     id="Setup10"
     style="stroke-width:0.26458332;stroke-miterlimit:4;stroke-dasharray:none"
     transform="translate(-743.72347,-559.21067)">
    <path
       id="op_2D_Profile9-24-8"
       d="m 802.155,-8 a 1.34,1.34 0 0 0 1.34,1.34 1.34,1.34 0 0 0 1.34,-1.34 1.34,1.34 0 0 0 -1.34,-1.34 1.34,1.34 0 0 0 -1.34,1.34 z m -3.72,0 v -1.022 a 8.06,8.06 0 0 1 6.966,-7.985 l 18.086,-2.48 a 0.06,0.06 0 0 1 0.048,0.015 0.06,0.06 0 0 1 0.02,0.045 V 0 a 0.06,0.06 0 0 1 -0.06,0.06 h -17 A 8.06,8.06 0 0 1 798.435,-8 Z"
       inkscape:connector-curvature="0"
       style="fill:none;stroke:#ff0000;stroke-width:0.26458332;stroke-miterlimit:4;stroke-dasharray:none" />
  </g>
  <g
     id="Setup11"
     style="stroke-width:0.26458332;stroke-miterlimit:4;stroke-dasharray:none"
     transform="translate(-754.09695,-537.93655)">
    <path
       id="op_2D_Profile10-26-9"
       d="m 841.495,-9.34 a 1.34,1.34 0 0 0 -1.34,1.34 1.34,1.34 0 0 0 1.34,1.34 1.34,1.34 0 0 0 1.34,-1.34 1.34,1.34 0 0 0 -1.34,-1.34 z m 0,-6.72 a 8.06,8.06 0 0 1 8.06,8.06 8.06,8.06 0 0 1 -8.06,8.06 8.06,8.06 0 0 1 -5.699,-2.361 8.06,8.06 0 0 1 -2.361,-5.699 8.06,8.06 0 0 1 8.06,-8.06 z"
       inkscape:connector-curvature="0"
       style="fill:none;stroke:#ff0000;stroke-width:0.26458332;stroke-miterlimit:4;stroke-dasharray:none" />
  </g>
  <g
     id="Setup12"
     style="stroke-width:0.26458332;stroke-miterlimit:4;stroke-dasharray:none"
     transform="translate(-844.98142,-539.33762)">
    <path
       id="op_2D_Profile11-28-10"
       d="m 867.495,-6.66 a 1.34,1.34 0 0 0 1.34,-1.34 1.34,1.34 0 0 0 -1.34,-1.34 1.34,1.34 0 0 0 -1.34,1.34 1.34,1.34 0 0 0 1.34,1.34 z m 0,6.72 a 8.06,8.06 0 0 1 -8.06,-8.06 8.06,8.06 0 0 1 8.06,-8.06 8.06,8.06 0 0 1 8.06,8.06 8.06,8.06 0 0 1 -2.36,5.699 8.06,8.06 0 0 1 -5.7,2.361 z"
       inkscape:connector-curvature="0"
       style="fill:none;stroke:#ff0000;stroke-width:0.26458332;stroke-miterlimit:4;stroke-dasharray:none" />
  </g>
  <g
     id="Setup13"
     style="stroke-width:0.26458332;stroke-miterlimit:4;stroke-dasharray:none"
     transform="translate(-800.18818,-557.63345)">
    <path
       id="op_2D_Profile12-30-11"
       d="m 893.39,-22.664 a 1.34,1.34 0 0 0 1.441,-1.231 1.34,1.34 0 0 0 -1.231,-1.441 1.34,1.34 0 0 0 -1.441,1.231 1.34,1.34 0 0 0 1.231,1.441 z m -1.121,11.997 a 1.44,1.44 0 0 0 -1.44,-1.44 1.44,1.44 0 0 0 -1.44,1.44 1.44,1.44 0 0 0 1.44,1.44 1.44,1.44 0 0 0 1.44,-1.44 z m 3.044,4.171 a 1.44,1.44 0 0 0 -0.314,2.012 1.44,1.44 0 0 0 2.012,0.314 1.44,1.44 0 0 0 0.314,-2.012 1.44,1.44 0 0 0 -2.012,-0.314 z m 6.242,0 V 0 a 0.06,0.06 0 0 1 -0.06,0.06 h -16 A 0.06,0.06 0 0 1 885.435,0 v -24 a 8.06,8.06 0 0 1 8.06,-8.06 8.06,8.06 0 0 1 8.06,8.06 z"
       inkscape:connector-curvature="0"
       style="fill:none;stroke:#ff0000;stroke-width:0.26458332;stroke-miterlimit:4;stroke-dasharray:none" />
  </g>
  <g
     id="Setup14"
     style="stroke-width:0.26458332;stroke-miterlimit:4;stroke-dasharray:none"
     transform="translate(-807.6298,-591.24635)">
    <path
       id="op_2D_Profile13-32-12"
       d="m 921.24,-6.44 a 1.44,1.44 0 0 0 -0.185,2.028 1.44,1.44 0 0 0 2.028,0.185 1.44,1.44 0 0 0 0.185,-2.028 1.44,1.44 0 0 0 -2.028,-0.185 z m -3.372,-3.23 a 1.44,1.44 0 0 0 -0.043,-2.036 1.44,1.44 0 0 0 -2.036,0.043 1.44,1.44 0 0 0 0.043,2.036 1.44,1.44 0 0 0 2.036,-0.043 z m 0,-6.39 h 9.627 a 0.06,0.06 0 0 1 0.06,0.06 V 0 a 0.06,0.06 0 0 1 -0.06,0.06 h -16 A 0.06,0.06 0 0 1 911.435,0 v -16 a 0.06,0.06 0 0 1 0.06,-0.06 z"
       inkscape:connector-curvature="0"
       style="fill:none;stroke:#ff0000;stroke-width:0.26458332;stroke-miterlimit:4;stroke-dasharray:none" />
  </g>
  <g
     id="Setup15"
     style="stroke-width:0.26458332;stroke-miterlimit:4;stroke-dasharray:none"
     transform="translate(-901.98144,-539.94403)">
    <path
       id="op_2D_Profile14-34-13"
       d="m 945.495,-9.39 a 1.39,1.39 0 0 0 -1.39,1.39 1.39,1.39 0 0 0 1.39,1.39 1.39,1.39 0 0 0 1.39,-1.39 1.39,1.39 0 0 0 -1.39,-1.39 z m 0,-6.67 h 10 a 0.06,0.06 0 0 1 0.06,0.06 V 0 a 0.06,0.06 0 0 1 -0.06,0.06 h -10 a 8.06,8.06 0 0 1 -8.06,-8.06 8.06,8.06 0 0 1 8.06,-8.06 z"
       inkscape:connector-curvature="0"
       style="fill:none;stroke:#ff0000;stroke-width:0.26458332;stroke-miterlimit:4;stroke-dasharray:none" />
  </g>
  <g
     id="Setup16"
     style="stroke-width:0.26458332;stroke-miterlimit:4;stroke-dasharray:none"
     transform="translate(-968.22833,-592.80771)">
    <path
       id="op_2D_Profile15-36-14"
       d="m 975.495,-9.39 a 1.39,1.39 0 0 0 -1.39,1.39 1.39,1.39 0 0 0 1.39,1.39 1.39,1.39 0 0 0 1.39,-1.39 1.39,1.39 0 0 0 -1.39,-1.39 z m 0,-6.67 a 8.06,8.06 0 0 1 8.06,8.06 8.06,8.06 0 0 1 -8.06,8.06 h -10 A 0.06,0.06 0 0 1 965.435,0 v -16 a 0.06,0.06 0 0 1 0.06,-0.06 z"
       inkscape:connector-curvature="0"
       style="fill:none;stroke:#ff0000;stroke-width:0.26458332;stroke-miterlimit:4;stroke-dasharray:none" />
  </g>
</svg>
