<?xml version="1.0" encoding="UTF-8" standalone="no"?>
<svg
   xmlns:dc="http://purl.org/dc/elements/1.1/"
   xmlns:cc="http://creativecommons.org/ns#"
   xmlns:rdf="http://www.w3.org/1999/02/22-rdf-syntax-ns#"
   xmlns:svg="http://www.w3.org/2000/svg"
   xmlns="http://www.w3.org/2000/svg"
   xmlns:sodipodi="http://sodipodi.sourceforge.net/DTD/sodipodi-0.dtd"
   xmlns:inkscape="http://www.inkscape.org/namespaces/inkscape"
   width="102.09528mm"
   height="85.436218mm"
   viewBox="-10 -610 102.09528 85.436216"
   version="1.1"
   id="svg28"
   sodipodi:docname="CAM-preklizka-4mm-v2.svg"
   inkscape:version="0.92.4 (5da689c313, 2019-01-14)">
  <metadata
     id="metadata34">
    <rdf:RDF>
      <cc:Work
         rdf:about="">
        <dc:format>image/svg+xml</dc:format>
        <dc:type
           rdf:resource="http://purl.org/dc/dcmitype/StillImage" />
        <dc:title></dc:title>
      </cc:Work>
    </rdf:RDF>
  </metadata>
  <defs
     id="defs32" />
  <sodipodi:namedview
     pagecolor="#ffffff"
     bordercolor="#666666"
     borderopacity="1"
     objecttolerance="10"
     gridtolerance="10"
     guidetolerance="10"
     inkscape:pageopacity="0"
     inkscape:pageshadow="2"
     inkscape:window-width="1920"
     inkscape:window-height="1017"
     id="namedview30"
     showgrid="false"
     fit-margin-top="1"
     fit-margin-left="1"
     fit-margin-right="1"
     fit-margin-bottom="1"
     inkscape:zoom="0.79481682"
     inkscape:cx="144.13996"
     inkscape:cy="361.31424"
     inkscape:window-x="-8"
     inkscape:window-y="-8"
     inkscape:window-maximized="1"
     inkscape:current-layer="svg28" />
  <g
     id="Setup10"
     style="stroke-width:0.52916664;stroke-miterlimit:4;stroke-dasharray:none"
     transform="translate(-841.253,-568.21494)">
    <path
       id="op_2D_Profile16-27-12"
       d="m 838.875,-12.493 a 1.44,1.44 0 0 0 -1.44,-1.44 1.44,1.44 0 0 0 -1.44,1.44 1.44,1.44 0 0 0 1.44,1.44 1.44,1.44 0 0 0 1.44,-1.44 z m 2.682,-0.043 a 5.44,5.44 0 0 0 1.578,3.874 5.44,5.44 0 0 0 3.862,1.609 h 26 a 0.56,0.56 0 0 1 0.396,0.164 0.56,0.56 0 0 1 0.164,0.396 v 2.44 h 18.88 v -2.44 a 0.56,0.56 0 0 1 0.56,-0.56 h 26 a 5.44,5.44 0 0 0 5.44,-5.44 5.44,5.44 0 0 0 -2.196,-4.367 77.102,77.102 0 0 0 -78.466,-0.013 l -0.043,0.029 a 5.44,5.44 0 0 0 -2.175,4.308 z m 85.371,-0.218 a 1.44,1.44 0 0 0 1.156,1.677 1.44,1.44 0 0 0 1.677,-1.156 1.44,1.44 0 0 0 -1.156,-1.676 1.44,1.44 0 0 0 -1.677,1.155 z m -32.749,-18.097 19.231,4.509 1.114,-4.751 -19.355,-4.539 -1.115,4.752 z m -21.547,-0.265 -1.037,-4.637 -19.401,4.338 1.065,4.762 19.401,-4.338 z m -0.992,-8.77 a 100.06,100.06 0 0 1 44.708,5.125 23.641,23.641 0 0 1 15.723,23.053 12.553,12.553 0 0 1 -9.494,11.766 0.06,0.06 0 0 1 -0.015,0.002 h -75.565 a 12.553,12.553 0 0 1 -12.55,-12.272 23.641,23.641 0 0 1 15.961,-22.89 100.06,100.06 0 0 1 21.232,-4.784 z"
       inkscape:connector-curvature="0"
       style="fill:none;stroke:#ff0000;stroke-width:0.52916664;stroke-miterlimit:4;stroke-dasharray:none" />
    <path
       id="op_2D_Profile17-28-13"
       d="m 878.449,-36.781 v 4.125 l 1.446,-1.591 m -1.446,1.591 v 2.625 m 1.446,-4.216 2.304,-2.534 m 2.287,1.125 a 1.543,1.543 0 0 1 1.5,-1.125 1.495,1.495 0 0 1 1.502,1.488 1.495,1.495 0 0 1 -0.227,0.799 l -2.775,4.463 h 3 m -5.25,0 -2.341,-4.216"
       inkscape:connector-curvature="0"
       style="fill:none;stroke:#0000ff;stroke-width:0.52916664;stroke-miterlimit:4;stroke-dasharray:none" />
  </g>
  <g
     id="Setup11"
     style="stroke-width:0.52916664;stroke-miterlimit:4;stroke-dasharray:none"
     transform="rotate(-180,515.43516,-283.17443)">
    <path
       id="op_2D_Profile18-30-14"
       d="m 946.397,-12.493 a 1.44,1.44 0 0 0 -1.44,-1.44 1.44,1.44 0 0 0 -1.44,1.44 1.44,1.44 0 0 0 1.44,1.44 1.44,1.44 0 0 0 1.44,-1.44 z m 2.683,-0.043 a 5.44,5.44 0 0 0 1.578,3.874 5.44,5.44 0 0 0 3.862,1.609 h 26 a 0.56,0.56 0 0 1 0.395,0.164 0.56,0.56 0 0 1 0.164,0.396 v 2.44 h 18.88 v -2.44 a 0.56,0.56 0 0 1 0.56,-0.56 h 26.001 a 5.44,5.44 0 0 0 5.44,-5.44 5.44,5.44 0 0 0 -2.196,-4.367 77.102,77.102 0 0 0 -78.467,-0.013 l -0.043,0.029 a 5.44,5.44 0 0 0 -2.174,4.308 z m 85.371,-0.218 a 1.44,1.44 0 0 0 1.155,1.677 1.44,1.44 0 0 0 1.677,-1.156 1.44,1.44 0 0 0 -1.156,-1.676 1.44,1.44 0 0 0 -1.676,1.155 z m -32.75,-18.097 19.231,4.509 1.114,-4.751 -19.355,-4.539 -1.114,4.752 z m -21.546,-0.265 -1.038,-4.637 -19.4,4.338 1.064,4.762 19.401,-4.338 z m -0.993,-8.77 a 100.06,100.06 0 0 1 44.708,5.125 23.641,23.641 0 0 1 15.723,23.053 12.553,12.553 0 0 1 -9.493,11.766 0.06,0.06 0 0 1 -0.015,0.002 H 954.52 a 12.553,12.553 0 0 1 -12.55,-12.272 23.641,23.641 0 0 1 15.96,-22.89 100.06,100.06 0 0 1 21.232,-4.784 z"
       inkscape:connector-curvature="0"
       style="fill:none;stroke:#ff0000;stroke-width:0.52916664;stroke-miterlimit:4;stroke-dasharray:none" />
    <path
       id="op_2D_Profile19-31-15"
       d="m 985.971,-36.781 v 4.125 l 1.446,-1.591 m -1.446,1.591 v 2.625 m 1.446,-4.216 2.304,-2.534 m 2.288,1.125 a 1.543,1.543 0 0 1 1.5,-1.125 1.495,1.495 0 0 1 1.502,1.488 1.495,1.495 0 0 1 -0.227,0.799 l -2.775,4.463 h 3 m -5.25,0 -2.342,-4.216"
       inkscape:connector-curvature="0"
       style="fill:none;stroke:#0000ff;stroke-width:0.52916664;stroke-miterlimit:4;stroke-dasharray:none" />
  </g>
</svg>
